M48
; DRILL file {KiCad 9.0.1} date 2025-05-11T12:35:01+0100
; FORMAT={-:-/ absolute / inch / decimal}
; #@! TF.CreationDate,2025-05-11T12:35:01+01:00
; #@! TF.GenerationSoftware,Kicad,Pcbnew,9.0.1
; #@! TF.FileFunction,Plated,1,2,PTH
FMAT,2
INCH
; #@! TA.AperFunction,Plated,PTH,ComponentDrill
T1C0.0315
; #@! TA.AperFunction,Plated,PTH,ComponentDrill
T2C0.0354
; #@! TA.AperFunction,Plated,PTH,ComponentDrill
T3C0.0394
%
G90
G05
T1
X0.3093Y-0.1575
X0.3093Y-0.689
X0.3093Y-1.2205
X0.3093Y-1.752
X0.3093Y-2.2835
X0.3093Y-2.815
X0.3093Y-3.3465
X0.4093Y-0.1575
X0.4093Y-0.689
X0.4093Y-1.2205
X0.4093Y-1.752
X0.4093Y-2.2835
X0.4093Y-2.815
X0.4093Y-3.3465
X0.5652Y-0.1575
X0.5652Y-0.689
X0.5652Y-1.2205
X0.5652Y-1.752
X0.5652Y-2.2835
X0.5652Y-2.815
X0.5652Y-3.3465
X0.6652Y-0.1575
X0.6652Y-0.689
X0.6652Y-1.2205
X0.6652Y-1.752
X0.6652Y-2.2835
X0.6652Y-2.815
X0.6652Y-3.3465
X0.8211Y-0.1575
X0.8211Y-0.689
X0.8211Y-1.2205
X0.8211Y-1.752
X0.8211Y-2.2835
X0.8211Y-2.815
X0.8211Y-3.3465
X0.9211Y-0.1575
X0.9211Y-0.689
X0.9211Y-1.2205
X0.9211Y-1.752
X0.9211Y-2.2835
X0.9211Y-2.815
X0.9211Y-3.3465
X1.077Y-0.1575
X1.077Y-0.689
X1.077Y-1.2205
X1.077Y-1.752
X1.077Y-2.2835
X1.077Y-2.815
X1.077Y-3.3465
X1.177Y-0.1575
X1.177Y-0.689
X1.177Y-1.2205
X1.177Y-1.752
X1.177Y-2.2835
X1.177Y-2.815
X1.177Y-3.3465
X1.3329Y-0.1575
X1.3329Y-0.689
X1.3329Y-1.2205
X1.3329Y-1.752
X1.3329Y-2.2835
X1.3329Y-2.815
X1.3329Y-3.3465
X1.4329Y-0.1575
X1.4329Y-0.689
X1.4329Y-1.2205
X1.4329Y-1.752
X1.4329Y-2.2835
X1.4329Y-2.815
X1.4329Y-3.3465
X1.5888Y-0.1575
X1.5888Y-0.689
X1.5888Y-1.2205
X1.5888Y-1.752
X1.5888Y-2.2835
X1.5888Y-2.815
X1.5888Y-3.3465
X1.6888Y-0.1575
X1.6888Y-0.689
X1.6888Y-1.2205
X1.6888Y-1.752
X1.6888Y-2.2835
X1.6888Y-2.815
X1.6888Y-3.3465
T2
X0.3504Y-0.2951
X0.3504Y-0.3951
X0.3504Y-0.8266
X0.3504Y-0.9266
X0.3504Y-1.3581
X0.3504Y-1.4581
X0.3504Y-1.8896
X0.3504Y-1.9896
X0.3504Y-2.4211
X0.3504Y-2.5211
X0.3504Y-2.9526
X0.3504Y-3.0526
X0.3504Y-3.4841
X0.3504Y-3.5841
X0.6063Y-0.2951
X0.6063Y-0.3951
X0.6063Y-0.8266
X0.6063Y-0.9266
X0.6063Y-1.3581
X0.6063Y-1.4581
X0.6063Y-1.8896
X0.6063Y-1.9896
X0.6063Y-2.4211
X0.6063Y-2.5211
X0.6063Y-2.9526
X0.6063Y-3.0526
X0.6063Y-3.4841
X0.6063Y-3.5841
X0.8622Y-0.2951
X0.8622Y-0.3951
X0.8622Y-0.8266
X0.8622Y-0.9266
X0.8622Y-1.3581
X0.8622Y-1.4581
X0.8622Y-1.8896
X0.8622Y-1.9896
X0.8622Y-2.4211
X0.8622Y-2.5211
X0.8622Y-2.9526
X0.8622Y-3.0526
X0.8622Y-3.4841
X0.8622Y-3.5841
X1.1181Y-0.2951
X1.1181Y-0.3951
X1.1181Y-0.8266
X1.1181Y-0.9266
X1.1181Y-1.3581
X1.1181Y-1.4581
X1.1181Y-1.8896
X1.1181Y-1.9896
X1.1181Y-2.4211
X1.1181Y-2.5211
X1.1181Y-2.9526
X1.1181Y-3.0526
X1.1181Y-3.4841
X1.1181Y-3.5841
X1.374Y-0.2951
X1.374Y-0.3951
X1.374Y-0.8266
X1.374Y-0.9266
X1.374Y-1.3581
X1.374Y-1.4581
X1.374Y-1.8896
X1.374Y-1.9896
X1.374Y-2.4211
X1.374Y-2.5211
X1.374Y-2.9526
X1.374Y-3.0526
X1.374Y-3.4841
X1.374Y-3.5841
X1.6299Y-0.2951
X1.6299Y-0.3951
X1.6299Y-0.8266
X1.6299Y-0.9266
X1.6299Y-1.3581
X1.6299Y-1.4581
X1.6299Y-1.8896
X1.6299Y-1.9896
X1.6299Y-2.4211
X1.6299Y-2.5211
X1.6299Y-2.9526
X1.6299Y-3.0526
X1.6299Y-3.4841
X1.6299Y-3.5841
T3
X0.1181Y-0.2939
X0.1181Y-0.3939
X0.1181Y-0.8254
X0.1181Y-0.9254
X0.1181Y-1.3569
X0.1181Y-1.4569
X0.1181Y-1.8884
X0.1181Y-1.9884
X0.1181Y-2.4199
X0.1181Y-2.5199
X0.1181Y-2.9514
X0.1181Y-3.0514
X0.1181Y-3.4829
X0.1181Y-3.5829
X1.8504Y-0.2939
X1.8504Y-0.3939
X1.8504Y-0.8254
X1.8504Y-0.9254
X1.8504Y-1.3569
X1.8504Y-1.4569
X1.8504Y-1.8884
X1.8504Y-1.9884
X1.8504Y-2.4199
X1.8504Y-2.5199
X1.8504Y-2.9514
X1.8504Y-3.0514
X1.8504Y-3.4829
X1.8504Y-3.5829
M30
