%TF.GenerationSoftware,KiCad,Pcbnew,9.0.1*%
%TF.CreationDate,2025-05-11T12:35:00+01:00*%
%TF.ProjectId,Led_bar_Panelize,4c65645f-6261-4725-9f50-616e656c697a,rev?*%
%TF.SameCoordinates,Original*%
%TF.FileFunction,Legend,Top*%
%TF.FilePolarity,Positive*%
%FSLAX46Y46*%
G04 Gerber Fmt 4.6, Leading zero omitted, Abs format (unit mm)*
G04 Created by KiCad (PCBNEW 9.0.1) date 2025-05-11 12:35:00*
%MOMM*%
%LPD*%
G01*
G04 APERTURE LIST*
%ADD10C,0.100000*%
%ADD11C,0.150000*%
%ADD12C,0.120000*%
%ADD13C,0.500000*%
%ADD14O,1.600000X1.600000*%
%ADD15C,1.600000*%
%ADD16C,1.800000*%
%ADD17R,1.800000X1.800000*%
%ADD18R,1.700000X1.700000*%
%ADD19C,1.700000*%
G04 APERTURE END LIST*
D10*
X403884Y-23691466D02*
X1165789Y-23691466D01*
X403884Y-10191466D02*
X1165789Y-10191466D01*
X48903884Y-64091466D02*
X49665789Y-64091466D01*
X48903884Y-77591466D02*
X49665789Y-77591466D01*
X48903884Y-23591466D02*
X49665789Y-23591466D01*
X48903884Y-7491466D02*
X49665789Y-7491466D01*
X49284836Y-7872419D02*
X49284836Y-7110514D01*
X48903884Y-37091466D02*
X49665789Y-37091466D01*
X403884Y-91191466D02*
X1165789Y-91191466D01*
X403884Y-61491466D02*
X1165789Y-61491466D01*
X784836Y-61872419D02*
X784836Y-61110514D01*
X48903884Y-20991466D02*
X49665789Y-20991466D01*
X49284836Y-21372419D02*
X49284836Y-20610514D01*
X403884Y-64191466D02*
X1165789Y-64191466D01*
X48903884Y-34491466D02*
X49665789Y-34491466D01*
X49284836Y-34872419D02*
X49284836Y-34110514D01*
X403884Y-20991466D02*
X1165789Y-20991466D01*
X784836Y-21372419D02*
X784836Y-20610514D01*
X48903884Y-74991466D02*
X49665789Y-74991466D01*
X49284836Y-75372419D02*
X49284836Y-74610514D01*
X403884Y-37191466D02*
X1165789Y-37191466D01*
X403884Y-88491466D02*
X1165789Y-88491466D01*
X784836Y-88872419D02*
X784836Y-88110514D01*
X403884Y-74991466D02*
X1165789Y-74991466D01*
X784836Y-75372419D02*
X784836Y-74610514D01*
X403884Y-50691466D02*
X1165789Y-50691466D01*
X48903884Y-10091466D02*
X49665789Y-10091466D01*
X48903884Y-47991466D02*
X49665789Y-47991466D01*
X49284836Y-48372419D02*
X49284836Y-47610514D01*
X48903884Y-61491466D02*
X49665789Y-61491466D01*
X49284836Y-61872419D02*
X49284836Y-61110514D01*
X403884Y-34491466D02*
X1165789Y-34491466D01*
X784836Y-34872419D02*
X784836Y-34110514D01*
X48903884Y-91091466D02*
X49665789Y-91091466D01*
X403884Y-77691466D02*
X1165789Y-77691466D01*
X403884Y-47991466D02*
X1165789Y-47991466D01*
X784836Y-48372419D02*
X784836Y-47610514D01*
X48903884Y-88491466D02*
X49665789Y-88491466D01*
X49284836Y-88872419D02*
X49284836Y-88110514D01*
X48903884Y-50591466D02*
X49665789Y-50591466D01*
X403884Y-7491466D02*
X1165789Y-7491466D01*
X784836Y-7872419D02*
X784836Y-7110514D01*
D11*
X36233333Y-43454819D02*
X35900000Y-42978628D01*
X35661905Y-43454819D02*
X35661905Y-42454819D01*
X35661905Y-42454819D02*
X36042857Y-42454819D01*
X36042857Y-42454819D02*
X36138095Y-42502438D01*
X36138095Y-42502438D02*
X36185714Y-42550057D01*
X36185714Y-42550057D02*
X36233333Y-42645295D01*
X36233333Y-42645295D02*
X36233333Y-42788152D01*
X36233333Y-42788152D02*
X36185714Y-42883390D01*
X36185714Y-42883390D02*
X36138095Y-42931009D01*
X36138095Y-42931009D02*
X36042857Y-42978628D01*
X36042857Y-42978628D02*
X35661905Y-42978628D01*
X37138095Y-42454819D02*
X36661905Y-42454819D01*
X36661905Y-42454819D02*
X36614286Y-42931009D01*
X36614286Y-42931009D02*
X36661905Y-42883390D01*
X36661905Y-42883390D02*
X36757143Y-42835771D01*
X36757143Y-42835771D02*
X36995238Y-42835771D01*
X36995238Y-42835771D02*
X37090476Y-42883390D01*
X37090476Y-42883390D02*
X37138095Y-42931009D01*
X37138095Y-42931009D02*
X37185714Y-43026247D01*
X37185714Y-43026247D02*
X37185714Y-43264342D01*
X37185714Y-43264342D02*
X37138095Y-43359580D01*
X37138095Y-43359580D02*
X37090476Y-43407200D01*
X37090476Y-43407200D02*
X36995238Y-43454819D01*
X36995238Y-43454819D02*
X36757143Y-43454819D01*
X36757143Y-43454819D02*
X36661905Y-43407200D01*
X36661905Y-43407200D02*
X36614286Y-43359580D01*
X23233333Y-56954819D02*
X22900000Y-56478628D01*
X22661905Y-56954819D02*
X22661905Y-55954819D01*
X22661905Y-55954819D02*
X23042857Y-55954819D01*
X23042857Y-55954819D02*
X23138095Y-56002438D01*
X23138095Y-56002438D02*
X23185714Y-56050057D01*
X23185714Y-56050057D02*
X23233333Y-56145295D01*
X23233333Y-56145295D02*
X23233333Y-56288152D01*
X23233333Y-56288152D02*
X23185714Y-56383390D01*
X23185714Y-56383390D02*
X23138095Y-56431009D01*
X23138095Y-56431009D02*
X23042857Y-56478628D01*
X23042857Y-56478628D02*
X22661905Y-56478628D01*
X23566667Y-55954819D02*
X24185714Y-55954819D01*
X24185714Y-55954819D02*
X23852381Y-56335771D01*
X23852381Y-56335771D02*
X23995238Y-56335771D01*
X23995238Y-56335771D02*
X24090476Y-56383390D01*
X24090476Y-56383390D02*
X24138095Y-56431009D01*
X24138095Y-56431009D02*
X24185714Y-56526247D01*
X24185714Y-56526247D02*
X24185714Y-56764342D01*
X24185714Y-56764342D02*
X24138095Y-56859580D01*
X24138095Y-56859580D02*
X24090476Y-56907200D01*
X24090476Y-56907200D02*
X23995238Y-56954819D01*
X23995238Y-56954819D02*
X23709524Y-56954819D01*
X23709524Y-56954819D02*
X23614286Y-56907200D01*
X23614286Y-56907200D02*
X23566667Y-56859580D01*
X36861905Y-73749819D02*
X36861905Y-72749819D01*
X36861905Y-72749819D02*
X37100000Y-72749819D01*
X37100000Y-72749819D02*
X37242857Y-72797438D01*
X37242857Y-72797438D02*
X37338095Y-72892676D01*
X37338095Y-72892676D02*
X37385714Y-72987914D01*
X37385714Y-72987914D02*
X37433333Y-73178390D01*
X37433333Y-73178390D02*
X37433333Y-73321247D01*
X37433333Y-73321247D02*
X37385714Y-73511723D01*
X37385714Y-73511723D02*
X37338095Y-73606961D01*
X37338095Y-73606961D02*
X37242857Y-73702200D01*
X37242857Y-73702200D02*
X37100000Y-73749819D01*
X37100000Y-73749819D02*
X36861905Y-73749819D01*
X38338095Y-72749819D02*
X37861905Y-72749819D01*
X37861905Y-72749819D02*
X37814286Y-73226009D01*
X37814286Y-73226009D02*
X37861905Y-73178390D01*
X37861905Y-73178390D02*
X37957143Y-73130771D01*
X37957143Y-73130771D02*
X38195238Y-73130771D01*
X38195238Y-73130771D02*
X38290476Y-73178390D01*
X38290476Y-73178390D02*
X38338095Y-73226009D01*
X38338095Y-73226009D02*
X38385714Y-73321247D01*
X38385714Y-73321247D02*
X38385714Y-73559342D01*
X38385714Y-73559342D02*
X38338095Y-73654580D01*
X38338095Y-73654580D02*
X38290476Y-73702200D01*
X38290476Y-73702200D02*
X38195238Y-73749819D01*
X38195238Y-73749819D02*
X37957143Y-73749819D01*
X37957143Y-73749819D02*
X37861905Y-73702200D01*
X37861905Y-73702200D02*
X37814286Y-73654580D01*
X23861905Y-60249819D02*
X23861905Y-59249819D01*
X23861905Y-59249819D02*
X24100000Y-59249819D01*
X24100000Y-59249819D02*
X24242857Y-59297438D01*
X24242857Y-59297438D02*
X24338095Y-59392676D01*
X24338095Y-59392676D02*
X24385714Y-59487914D01*
X24385714Y-59487914D02*
X24433333Y-59678390D01*
X24433333Y-59678390D02*
X24433333Y-59821247D01*
X24433333Y-59821247D02*
X24385714Y-60011723D01*
X24385714Y-60011723D02*
X24338095Y-60106961D01*
X24338095Y-60106961D02*
X24242857Y-60202200D01*
X24242857Y-60202200D02*
X24100000Y-60249819D01*
X24100000Y-60249819D02*
X23861905Y-60249819D01*
X24766667Y-59249819D02*
X25385714Y-59249819D01*
X25385714Y-59249819D02*
X25052381Y-59630771D01*
X25052381Y-59630771D02*
X25195238Y-59630771D01*
X25195238Y-59630771D02*
X25290476Y-59678390D01*
X25290476Y-59678390D02*
X25338095Y-59726009D01*
X25338095Y-59726009D02*
X25385714Y-59821247D01*
X25385714Y-59821247D02*
X25385714Y-60059342D01*
X25385714Y-60059342D02*
X25338095Y-60154580D01*
X25338095Y-60154580D02*
X25290476Y-60202200D01*
X25290476Y-60202200D02*
X25195238Y-60249819D01*
X25195238Y-60249819D02*
X24909524Y-60249819D01*
X24909524Y-60249819D02*
X24814286Y-60202200D01*
X24814286Y-60202200D02*
X24766667Y-60154580D01*
X36233333Y-70454819D02*
X35900000Y-69978628D01*
X35661905Y-70454819D02*
X35661905Y-69454819D01*
X35661905Y-69454819D02*
X36042857Y-69454819D01*
X36042857Y-69454819D02*
X36138095Y-69502438D01*
X36138095Y-69502438D02*
X36185714Y-69550057D01*
X36185714Y-69550057D02*
X36233333Y-69645295D01*
X36233333Y-69645295D02*
X36233333Y-69788152D01*
X36233333Y-69788152D02*
X36185714Y-69883390D01*
X36185714Y-69883390D02*
X36138095Y-69931009D01*
X36138095Y-69931009D02*
X36042857Y-69978628D01*
X36042857Y-69978628D02*
X35661905Y-69978628D01*
X37138095Y-69454819D02*
X36661905Y-69454819D01*
X36661905Y-69454819D02*
X36614286Y-69931009D01*
X36614286Y-69931009D02*
X36661905Y-69883390D01*
X36661905Y-69883390D02*
X36757143Y-69835771D01*
X36757143Y-69835771D02*
X36995238Y-69835771D01*
X36995238Y-69835771D02*
X37090476Y-69883390D01*
X37090476Y-69883390D02*
X37138095Y-69931009D01*
X37138095Y-69931009D02*
X37185714Y-70026247D01*
X37185714Y-70026247D02*
X37185714Y-70264342D01*
X37185714Y-70264342D02*
X37138095Y-70359580D01*
X37138095Y-70359580D02*
X37090476Y-70407200D01*
X37090476Y-70407200D02*
X36995238Y-70454819D01*
X36995238Y-70454819D02*
X36757143Y-70454819D01*
X36757143Y-70454819D02*
X36661905Y-70407200D01*
X36661905Y-70407200D02*
X36614286Y-70359580D01*
X23861905Y-46749819D02*
X23861905Y-45749819D01*
X23861905Y-45749819D02*
X24100000Y-45749819D01*
X24100000Y-45749819D02*
X24242857Y-45797438D01*
X24242857Y-45797438D02*
X24338095Y-45892676D01*
X24338095Y-45892676D02*
X24385714Y-45987914D01*
X24385714Y-45987914D02*
X24433333Y-46178390D01*
X24433333Y-46178390D02*
X24433333Y-46321247D01*
X24433333Y-46321247D02*
X24385714Y-46511723D01*
X24385714Y-46511723D02*
X24338095Y-46606961D01*
X24338095Y-46606961D02*
X24242857Y-46702200D01*
X24242857Y-46702200D02*
X24100000Y-46749819D01*
X24100000Y-46749819D02*
X23861905Y-46749819D01*
X24766667Y-45749819D02*
X25385714Y-45749819D01*
X25385714Y-45749819D02*
X25052381Y-46130771D01*
X25052381Y-46130771D02*
X25195238Y-46130771D01*
X25195238Y-46130771D02*
X25290476Y-46178390D01*
X25290476Y-46178390D02*
X25338095Y-46226009D01*
X25338095Y-46226009D02*
X25385714Y-46321247D01*
X25385714Y-46321247D02*
X25385714Y-46559342D01*
X25385714Y-46559342D02*
X25338095Y-46654580D01*
X25338095Y-46654580D02*
X25290476Y-46702200D01*
X25290476Y-46702200D02*
X25195238Y-46749819D01*
X25195238Y-46749819D02*
X24909524Y-46749819D01*
X24909524Y-46749819D02*
X24814286Y-46702200D01*
X24814286Y-46702200D02*
X24766667Y-46654580D01*
X29633333Y-56954819D02*
X29300000Y-56478628D01*
X29061905Y-56954819D02*
X29061905Y-55954819D01*
X29061905Y-55954819D02*
X29442857Y-55954819D01*
X29442857Y-55954819D02*
X29538095Y-56002438D01*
X29538095Y-56002438D02*
X29585714Y-56050057D01*
X29585714Y-56050057D02*
X29633333Y-56145295D01*
X29633333Y-56145295D02*
X29633333Y-56288152D01*
X29633333Y-56288152D02*
X29585714Y-56383390D01*
X29585714Y-56383390D02*
X29538095Y-56431009D01*
X29538095Y-56431009D02*
X29442857Y-56478628D01*
X29442857Y-56478628D02*
X29061905Y-56478628D01*
X30490476Y-56288152D02*
X30490476Y-56954819D01*
X30252381Y-55907200D02*
X30014286Y-56621485D01*
X30014286Y-56621485D02*
X30633333Y-56621485D01*
X23233333Y-83954819D02*
X22900000Y-83478628D01*
X22661905Y-83954819D02*
X22661905Y-82954819D01*
X22661905Y-82954819D02*
X23042857Y-82954819D01*
X23042857Y-82954819D02*
X23138095Y-83002438D01*
X23138095Y-83002438D02*
X23185714Y-83050057D01*
X23185714Y-83050057D02*
X23233333Y-83145295D01*
X23233333Y-83145295D02*
X23233333Y-83288152D01*
X23233333Y-83288152D02*
X23185714Y-83383390D01*
X23185714Y-83383390D02*
X23138095Y-83431009D01*
X23138095Y-83431009D02*
X23042857Y-83478628D01*
X23042857Y-83478628D02*
X22661905Y-83478628D01*
X23566667Y-82954819D02*
X24185714Y-82954819D01*
X24185714Y-82954819D02*
X23852381Y-83335771D01*
X23852381Y-83335771D02*
X23995238Y-83335771D01*
X23995238Y-83335771D02*
X24090476Y-83383390D01*
X24090476Y-83383390D02*
X24138095Y-83431009D01*
X24138095Y-83431009D02*
X24185714Y-83526247D01*
X24185714Y-83526247D02*
X24185714Y-83764342D01*
X24185714Y-83764342D02*
X24138095Y-83859580D01*
X24138095Y-83859580D02*
X24090476Y-83907200D01*
X24090476Y-83907200D02*
X23995238Y-83954819D01*
X23995238Y-83954819D02*
X23709524Y-83954819D01*
X23709524Y-83954819D02*
X23614286Y-83907200D01*
X23614286Y-83907200D02*
X23566667Y-83859580D01*
X36861905Y-33249819D02*
X36861905Y-32249819D01*
X36861905Y-32249819D02*
X37100000Y-32249819D01*
X37100000Y-32249819D02*
X37242857Y-32297438D01*
X37242857Y-32297438D02*
X37338095Y-32392676D01*
X37338095Y-32392676D02*
X37385714Y-32487914D01*
X37385714Y-32487914D02*
X37433333Y-32678390D01*
X37433333Y-32678390D02*
X37433333Y-32821247D01*
X37433333Y-32821247D02*
X37385714Y-33011723D01*
X37385714Y-33011723D02*
X37338095Y-33106961D01*
X37338095Y-33106961D02*
X37242857Y-33202200D01*
X37242857Y-33202200D02*
X37100000Y-33249819D01*
X37100000Y-33249819D02*
X36861905Y-33249819D01*
X38338095Y-32249819D02*
X37861905Y-32249819D01*
X37861905Y-32249819D02*
X37814286Y-32726009D01*
X37814286Y-32726009D02*
X37861905Y-32678390D01*
X37861905Y-32678390D02*
X37957143Y-32630771D01*
X37957143Y-32630771D02*
X38195238Y-32630771D01*
X38195238Y-32630771D02*
X38290476Y-32678390D01*
X38290476Y-32678390D02*
X38338095Y-32726009D01*
X38338095Y-32726009D02*
X38385714Y-32821247D01*
X38385714Y-32821247D02*
X38385714Y-33059342D01*
X38385714Y-33059342D02*
X38338095Y-33154580D01*
X38338095Y-33154580D02*
X38290476Y-33202200D01*
X38290476Y-33202200D02*
X38195238Y-33249819D01*
X38195238Y-33249819D02*
X37957143Y-33249819D01*
X37957143Y-33249819D02*
X37861905Y-33202200D01*
X37861905Y-33202200D02*
X37814286Y-33154580D01*
X42733333Y-56954819D02*
X42400000Y-56478628D01*
X42161905Y-56954819D02*
X42161905Y-55954819D01*
X42161905Y-55954819D02*
X42542857Y-55954819D01*
X42542857Y-55954819D02*
X42638095Y-56002438D01*
X42638095Y-56002438D02*
X42685714Y-56050057D01*
X42685714Y-56050057D02*
X42733333Y-56145295D01*
X42733333Y-56145295D02*
X42733333Y-56288152D01*
X42733333Y-56288152D02*
X42685714Y-56383390D01*
X42685714Y-56383390D02*
X42638095Y-56431009D01*
X42638095Y-56431009D02*
X42542857Y-56478628D01*
X42542857Y-56478628D02*
X42161905Y-56478628D01*
X43590476Y-55954819D02*
X43400000Y-55954819D01*
X43400000Y-55954819D02*
X43304762Y-56002438D01*
X43304762Y-56002438D02*
X43257143Y-56050057D01*
X43257143Y-56050057D02*
X43161905Y-56192914D01*
X43161905Y-56192914D02*
X43114286Y-56383390D01*
X43114286Y-56383390D02*
X43114286Y-56764342D01*
X43114286Y-56764342D02*
X43161905Y-56859580D01*
X43161905Y-56859580D02*
X43209524Y-56907200D01*
X43209524Y-56907200D02*
X43304762Y-56954819D01*
X43304762Y-56954819D02*
X43495238Y-56954819D01*
X43495238Y-56954819D02*
X43590476Y-56907200D01*
X43590476Y-56907200D02*
X43638095Y-56859580D01*
X43638095Y-56859580D02*
X43685714Y-56764342D01*
X43685714Y-56764342D02*
X43685714Y-56526247D01*
X43685714Y-56526247D02*
X43638095Y-56431009D01*
X43638095Y-56431009D02*
X43590476Y-56383390D01*
X43590476Y-56383390D02*
X43495238Y-56335771D01*
X43495238Y-56335771D02*
X43304762Y-56335771D01*
X43304762Y-56335771D02*
X43209524Y-56383390D01*
X43209524Y-56383390D02*
X43161905Y-56431009D01*
X43161905Y-56431009D02*
X43114286Y-56526247D01*
X42733333Y-83954819D02*
X42400000Y-83478628D01*
X42161905Y-83954819D02*
X42161905Y-82954819D01*
X42161905Y-82954819D02*
X42542857Y-82954819D01*
X42542857Y-82954819D02*
X42638095Y-83002438D01*
X42638095Y-83002438D02*
X42685714Y-83050057D01*
X42685714Y-83050057D02*
X42733333Y-83145295D01*
X42733333Y-83145295D02*
X42733333Y-83288152D01*
X42733333Y-83288152D02*
X42685714Y-83383390D01*
X42685714Y-83383390D02*
X42638095Y-83431009D01*
X42638095Y-83431009D02*
X42542857Y-83478628D01*
X42542857Y-83478628D02*
X42161905Y-83478628D01*
X43590476Y-82954819D02*
X43400000Y-82954819D01*
X43400000Y-82954819D02*
X43304762Y-83002438D01*
X43304762Y-83002438D02*
X43257143Y-83050057D01*
X43257143Y-83050057D02*
X43161905Y-83192914D01*
X43161905Y-83192914D02*
X43114286Y-83383390D01*
X43114286Y-83383390D02*
X43114286Y-83764342D01*
X43114286Y-83764342D02*
X43161905Y-83859580D01*
X43161905Y-83859580D02*
X43209524Y-83907200D01*
X43209524Y-83907200D02*
X43304762Y-83954819D01*
X43304762Y-83954819D02*
X43495238Y-83954819D01*
X43495238Y-83954819D02*
X43590476Y-83907200D01*
X43590476Y-83907200D02*
X43638095Y-83859580D01*
X43638095Y-83859580D02*
X43685714Y-83764342D01*
X43685714Y-83764342D02*
X43685714Y-83526247D01*
X43685714Y-83526247D02*
X43638095Y-83431009D01*
X43638095Y-83431009D02*
X43590476Y-83383390D01*
X43590476Y-83383390D02*
X43495238Y-83335771D01*
X43495238Y-83335771D02*
X43304762Y-83335771D01*
X43304762Y-83335771D02*
X43209524Y-83383390D01*
X43209524Y-83383390D02*
X43161905Y-83431009D01*
X43161905Y-83431009D02*
X43114286Y-83526247D01*
X29633333Y-16454819D02*
X29300000Y-15978628D01*
X29061905Y-16454819D02*
X29061905Y-15454819D01*
X29061905Y-15454819D02*
X29442857Y-15454819D01*
X29442857Y-15454819D02*
X29538095Y-15502438D01*
X29538095Y-15502438D02*
X29585714Y-15550057D01*
X29585714Y-15550057D02*
X29633333Y-15645295D01*
X29633333Y-15645295D02*
X29633333Y-15788152D01*
X29633333Y-15788152D02*
X29585714Y-15883390D01*
X29585714Y-15883390D02*
X29538095Y-15931009D01*
X29538095Y-15931009D02*
X29442857Y-15978628D01*
X29442857Y-15978628D02*
X29061905Y-15978628D01*
X30490476Y-15788152D02*
X30490476Y-16454819D01*
X30252381Y-15407200D02*
X30014286Y-16121485D01*
X30014286Y-16121485D02*
X30633333Y-16121485D01*
X42733333Y-43454819D02*
X42400000Y-42978628D01*
X42161905Y-43454819D02*
X42161905Y-42454819D01*
X42161905Y-42454819D02*
X42542857Y-42454819D01*
X42542857Y-42454819D02*
X42638095Y-42502438D01*
X42638095Y-42502438D02*
X42685714Y-42550057D01*
X42685714Y-42550057D02*
X42733333Y-42645295D01*
X42733333Y-42645295D02*
X42733333Y-42788152D01*
X42733333Y-42788152D02*
X42685714Y-42883390D01*
X42685714Y-42883390D02*
X42638095Y-42931009D01*
X42638095Y-42931009D02*
X42542857Y-42978628D01*
X42542857Y-42978628D02*
X42161905Y-42978628D01*
X43590476Y-42454819D02*
X43400000Y-42454819D01*
X43400000Y-42454819D02*
X43304762Y-42502438D01*
X43304762Y-42502438D02*
X43257143Y-42550057D01*
X43257143Y-42550057D02*
X43161905Y-42692914D01*
X43161905Y-42692914D02*
X43114286Y-42883390D01*
X43114286Y-42883390D02*
X43114286Y-43264342D01*
X43114286Y-43264342D02*
X43161905Y-43359580D01*
X43161905Y-43359580D02*
X43209524Y-43407200D01*
X43209524Y-43407200D02*
X43304762Y-43454819D01*
X43304762Y-43454819D02*
X43495238Y-43454819D01*
X43495238Y-43454819D02*
X43590476Y-43407200D01*
X43590476Y-43407200D02*
X43638095Y-43359580D01*
X43638095Y-43359580D02*
X43685714Y-43264342D01*
X43685714Y-43264342D02*
X43685714Y-43026247D01*
X43685714Y-43026247D02*
X43638095Y-42931009D01*
X43638095Y-42931009D02*
X43590476Y-42883390D01*
X43590476Y-42883390D02*
X43495238Y-42835771D01*
X43495238Y-42835771D02*
X43304762Y-42835771D01*
X43304762Y-42835771D02*
X43209524Y-42883390D01*
X43209524Y-42883390D02*
X43161905Y-42931009D01*
X43161905Y-42931009D02*
X43114286Y-43026247D01*
X43461905Y-60354819D02*
X43461905Y-59354819D01*
X43461905Y-59354819D02*
X43700000Y-59354819D01*
X43700000Y-59354819D02*
X43842857Y-59402438D01*
X43842857Y-59402438D02*
X43938095Y-59497676D01*
X43938095Y-59497676D02*
X43985714Y-59592914D01*
X43985714Y-59592914D02*
X44033333Y-59783390D01*
X44033333Y-59783390D02*
X44033333Y-59926247D01*
X44033333Y-59926247D02*
X43985714Y-60116723D01*
X43985714Y-60116723D02*
X43938095Y-60211961D01*
X43938095Y-60211961D02*
X43842857Y-60307200D01*
X43842857Y-60307200D02*
X43700000Y-60354819D01*
X43700000Y-60354819D02*
X43461905Y-60354819D01*
X44890476Y-59354819D02*
X44700000Y-59354819D01*
X44700000Y-59354819D02*
X44604762Y-59402438D01*
X44604762Y-59402438D02*
X44557143Y-59450057D01*
X44557143Y-59450057D02*
X44461905Y-59592914D01*
X44461905Y-59592914D02*
X44414286Y-59783390D01*
X44414286Y-59783390D02*
X44414286Y-60164342D01*
X44414286Y-60164342D02*
X44461905Y-60259580D01*
X44461905Y-60259580D02*
X44509524Y-60307200D01*
X44509524Y-60307200D02*
X44604762Y-60354819D01*
X44604762Y-60354819D02*
X44795238Y-60354819D01*
X44795238Y-60354819D02*
X44890476Y-60307200D01*
X44890476Y-60307200D02*
X44938095Y-60259580D01*
X44938095Y-60259580D02*
X44985714Y-60164342D01*
X44985714Y-60164342D02*
X44985714Y-59926247D01*
X44985714Y-59926247D02*
X44938095Y-59831009D01*
X44938095Y-59831009D02*
X44890476Y-59783390D01*
X44890476Y-59783390D02*
X44795238Y-59735771D01*
X44795238Y-59735771D02*
X44604762Y-59735771D01*
X44604762Y-59735771D02*
X44509524Y-59783390D01*
X44509524Y-59783390D02*
X44461905Y-59831009D01*
X44461905Y-59831009D02*
X44414286Y-59926247D01*
X42733333Y-16454819D02*
X42400000Y-15978628D01*
X42161905Y-16454819D02*
X42161905Y-15454819D01*
X42161905Y-15454819D02*
X42542857Y-15454819D01*
X42542857Y-15454819D02*
X42638095Y-15502438D01*
X42638095Y-15502438D02*
X42685714Y-15550057D01*
X42685714Y-15550057D02*
X42733333Y-15645295D01*
X42733333Y-15645295D02*
X42733333Y-15788152D01*
X42733333Y-15788152D02*
X42685714Y-15883390D01*
X42685714Y-15883390D02*
X42638095Y-15931009D01*
X42638095Y-15931009D02*
X42542857Y-15978628D01*
X42542857Y-15978628D02*
X42161905Y-15978628D01*
X43590476Y-15454819D02*
X43400000Y-15454819D01*
X43400000Y-15454819D02*
X43304762Y-15502438D01*
X43304762Y-15502438D02*
X43257143Y-15550057D01*
X43257143Y-15550057D02*
X43161905Y-15692914D01*
X43161905Y-15692914D02*
X43114286Y-15883390D01*
X43114286Y-15883390D02*
X43114286Y-16264342D01*
X43114286Y-16264342D02*
X43161905Y-16359580D01*
X43161905Y-16359580D02*
X43209524Y-16407200D01*
X43209524Y-16407200D02*
X43304762Y-16454819D01*
X43304762Y-16454819D02*
X43495238Y-16454819D01*
X43495238Y-16454819D02*
X43590476Y-16407200D01*
X43590476Y-16407200D02*
X43638095Y-16359580D01*
X43638095Y-16359580D02*
X43685714Y-16264342D01*
X43685714Y-16264342D02*
X43685714Y-16026247D01*
X43685714Y-16026247D02*
X43638095Y-15931009D01*
X43638095Y-15931009D02*
X43590476Y-15883390D01*
X43590476Y-15883390D02*
X43495238Y-15835771D01*
X43495238Y-15835771D02*
X43304762Y-15835771D01*
X43304762Y-15835771D02*
X43209524Y-15883390D01*
X43209524Y-15883390D02*
X43161905Y-15931009D01*
X43161905Y-15931009D02*
X43114286Y-16026247D01*
X43461905Y-33354819D02*
X43461905Y-32354819D01*
X43461905Y-32354819D02*
X43700000Y-32354819D01*
X43700000Y-32354819D02*
X43842857Y-32402438D01*
X43842857Y-32402438D02*
X43938095Y-32497676D01*
X43938095Y-32497676D02*
X43985714Y-32592914D01*
X43985714Y-32592914D02*
X44033333Y-32783390D01*
X44033333Y-32783390D02*
X44033333Y-32926247D01*
X44033333Y-32926247D02*
X43985714Y-33116723D01*
X43985714Y-33116723D02*
X43938095Y-33211961D01*
X43938095Y-33211961D02*
X43842857Y-33307200D01*
X43842857Y-33307200D02*
X43700000Y-33354819D01*
X43700000Y-33354819D02*
X43461905Y-33354819D01*
X44890476Y-32354819D02*
X44700000Y-32354819D01*
X44700000Y-32354819D02*
X44604762Y-32402438D01*
X44604762Y-32402438D02*
X44557143Y-32450057D01*
X44557143Y-32450057D02*
X44461905Y-32592914D01*
X44461905Y-32592914D02*
X44414286Y-32783390D01*
X44414286Y-32783390D02*
X44414286Y-33164342D01*
X44414286Y-33164342D02*
X44461905Y-33259580D01*
X44461905Y-33259580D02*
X44509524Y-33307200D01*
X44509524Y-33307200D02*
X44604762Y-33354819D01*
X44604762Y-33354819D02*
X44795238Y-33354819D01*
X44795238Y-33354819D02*
X44890476Y-33307200D01*
X44890476Y-33307200D02*
X44938095Y-33259580D01*
X44938095Y-33259580D02*
X44985714Y-33164342D01*
X44985714Y-33164342D02*
X44985714Y-32926247D01*
X44985714Y-32926247D02*
X44938095Y-32831009D01*
X44938095Y-32831009D02*
X44890476Y-32783390D01*
X44890476Y-32783390D02*
X44795238Y-32735771D01*
X44795238Y-32735771D02*
X44604762Y-32735771D01*
X44604762Y-32735771D02*
X44509524Y-32783390D01*
X44509524Y-32783390D02*
X44461905Y-32831009D01*
X44461905Y-32831009D02*
X44414286Y-32926247D01*
X43461905Y-46854819D02*
X43461905Y-45854819D01*
X43461905Y-45854819D02*
X43700000Y-45854819D01*
X43700000Y-45854819D02*
X43842857Y-45902438D01*
X43842857Y-45902438D02*
X43938095Y-45997676D01*
X43938095Y-45997676D02*
X43985714Y-46092914D01*
X43985714Y-46092914D02*
X44033333Y-46283390D01*
X44033333Y-46283390D02*
X44033333Y-46426247D01*
X44033333Y-46426247D02*
X43985714Y-46616723D01*
X43985714Y-46616723D02*
X43938095Y-46711961D01*
X43938095Y-46711961D02*
X43842857Y-46807200D01*
X43842857Y-46807200D02*
X43700000Y-46854819D01*
X43700000Y-46854819D02*
X43461905Y-46854819D01*
X44890476Y-45854819D02*
X44700000Y-45854819D01*
X44700000Y-45854819D02*
X44604762Y-45902438D01*
X44604762Y-45902438D02*
X44557143Y-45950057D01*
X44557143Y-45950057D02*
X44461905Y-46092914D01*
X44461905Y-46092914D02*
X44414286Y-46283390D01*
X44414286Y-46283390D02*
X44414286Y-46664342D01*
X44414286Y-46664342D02*
X44461905Y-46759580D01*
X44461905Y-46759580D02*
X44509524Y-46807200D01*
X44509524Y-46807200D02*
X44604762Y-46854819D01*
X44604762Y-46854819D02*
X44795238Y-46854819D01*
X44795238Y-46854819D02*
X44890476Y-46807200D01*
X44890476Y-46807200D02*
X44938095Y-46759580D01*
X44938095Y-46759580D02*
X44985714Y-46664342D01*
X44985714Y-46664342D02*
X44985714Y-46426247D01*
X44985714Y-46426247D02*
X44938095Y-46331009D01*
X44938095Y-46331009D02*
X44890476Y-46283390D01*
X44890476Y-46283390D02*
X44795238Y-46235771D01*
X44795238Y-46235771D02*
X44604762Y-46235771D01*
X44604762Y-46235771D02*
X44509524Y-46283390D01*
X44509524Y-46283390D02*
X44461905Y-46331009D01*
X44461905Y-46331009D02*
X44414286Y-46426247D01*
X30261905Y-73749819D02*
X30261905Y-72749819D01*
X30261905Y-72749819D02*
X30500000Y-72749819D01*
X30500000Y-72749819D02*
X30642857Y-72797438D01*
X30642857Y-72797438D02*
X30738095Y-72892676D01*
X30738095Y-72892676D02*
X30785714Y-72987914D01*
X30785714Y-72987914D02*
X30833333Y-73178390D01*
X30833333Y-73178390D02*
X30833333Y-73321247D01*
X30833333Y-73321247D02*
X30785714Y-73511723D01*
X30785714Y-73511723D02*
X30738095Y-73606961D01*
X30738095Y-73606961D02*
X30642857Y-73702200D01*
X30642857Y-73702200D02*
X30500000Y-73749819D01*
X30500000Y-73749819D02*
X30261905Y-73749819D01*
X31690476Y-73083152D02*
X31690476Y-73749819D01*
X31452381Y-72702200D02*
X31214286Y-73416485D01*
X31214286Y-73416485D02*
X31833333Y-73416485D01*
X36233333Y-16454819D02*
X35900000Y-15978628D01*
X35661905Y-16454819D02*
X35661905Y-15454819D01*
X35661905Y-15454819D02*
X36042857Y-15454819D01*
X36042857Y-15454819D02*
X36138095Y-15502438D01*
X36138095Y-15502438D02*
X36185714Y-15550057D01*
X36185714Y-15550057D02*
X36233333Y-15645295D01*
X36233333Y-15645295D02*
X36233333Y-15788152D01*
X36233333Y-15788152D02*
X36185714Y-15883390D01*
X36185714Y-15883390D02*
X36138095Y-15931009D01*
X36138095Y-15931009D02*
X36042857Y-15978628D01*
X36042857Y-15978628D02*
X35661905Y-15978628D01*
X37138095Y-15454819D02*
X36661905Y-15454819D01*
X36661905Y-15454819D02*
X36614286Y-15931009D01*
X36614286Y-15931009D02*
X36661905Y-15883390D01*
X36661905Y-15883390D02*
X36757143Y-15835771D01*
X36757143Y-15835771D02*
X36995238Y-15835771D01*
X36995238Y-15835771D02*
X37090476Y-15883390D01*
X37090476Y-15883390D02*
X37138095Y-15931009D01*
X37138095Y-15931009D02*
X37185714Y-16026247D01*
X37185714Y-16026247D02*
X37185714Y-16264342D01*
X37185714Y-16264342D02*
X37138095Y-16359580D01*
X37138095Y-16359580D02*
X37090476Y-16407200D01*
X37090476Y-16407200D02*
X36995238Y-16454819D01*
X36995238Y-16454819D02*
X36757143Y-16454819D01*
X36757143Y-16454819D02*
X36661905Y-16407200D01*
X36661905Y-16407200D02*
X36614286Y-16359580D01*
X36861905Y-19749819D02*
X36861905Y-18749819D01*
X36861905Y-18749819D02*
X37100000Y-18749819D01*
X37100000Y-18749819D02*
X37242857Y-18797438D01*
X37242857Y-18797438D02*
X37338095Y-18892676D01*
X37338095Y-18892676D02*
X37385714Y-18987914D01*
X37385714Y-18987914D02*
X37433333Y-19178390D01*
X37433333Y-19178390D02*
X37433333Y-19321247D01*
X37433333Y-19321247D02*
X37385714Y-19511723D01*
X37385714Y-19511723D02*
X37338095Y-19606961D01*
X37338095Y-19606961D02*
X37242857Y-19702200D01*
X37242857Y-19702200D02*
X37100000Y-19749819D01*
X37100000Y-19749819D02*
X36861905Y-19749819D01*
X38338095Y-18749819D02*
X37861905Y-18749819D01*
X37861905Y-18749819D02*
X37814286Y-19226009D01*
X37814286Y-19226009D02*
X37861905Y-19178390D01*
X37861905Y-19178390D02*
X37957143Y-19130771D01*
X37957143Y-19130771D02*
X38195238Y-19130771D01*
X38195238Y-19130771D02*
X38290476Y-19178390D01*
X38290476Y-19178390D02*
X38338095Y-19226009D01*
X38338095Y-19226009D02*
X38385714Y-19321247D01*
X38385714Y-19321247D02*
X38385714Y-19559342D01*
X38385714Y-19559342D02*
X38338095Y-19654580D01*
X38338095Y-19654580D02*
X38290476Y-19702200D01*
X38290476Y-19702200D02*
X38195238Y-19749819D01*
X38195238Y-19749819D02*
X37957143Y-19749819D01*
X37957143Y-19749819D02*
X37861905Y-19702200D01*
X37861905Y-19702200D02*
X37814286Y-19654580D01*
X23861905Y-19749819D02*
X23861905Y-18749819D01*
X23861905Y-18749819D02*
X24100000Y-18749819D01*
X24100000Y-18749819D02*
X24242857Y-18797438D01*
X24242857Y-18797438D02*
X24338095Y-18892676D01*
X24338095Y-18892676D02*
X24385714Y-18987914D01*
X24385714Y-18987914D02*
X24433333Y-19178390D01*
X24433333Y-19178390D02*
X24433333Y-19321247D01*
X24433333Y-19321247D02*
X24385714Y-19511723D01*
X24385714Y-19511723D02*
X24338095Y-19606961D01*
X24338095Y-19606961D02*
X24242857Y-19702200D01*
X24242857Y-19702200D02*
X24100000Y-19749819D01*
X24100000Y-19749819D02*
X23861905Y-19749819D01*
X24766667Y-18749819D02*
X25385714Y-18749819D01*
X25385714Y-18749819D02*
X25052381Y-19130771D01*
X25052381Y-19130771D02*
X25195238Y-19130771D01*
X25195238Y-19130771D02*
X25290476Y-19178390D01*
X25290476Y-19178390D02*
X25338095Y-19226009D01*
X25338095Y-19226009D02*
X25385714Y-19321247D01*
X25385714Y-19321247D02*
X25385714Y-19559342D01*
X25385714Y-19559342D02*
X25338095Y-19654580D01*
X25338095Y-19654580D02*
X25290476Y-19702200D01*
X25290476Y-19702200D02*
X25195238Y-19749819D01*
X25195238Y-19749819D02*
X24909524Y-19749819D01*
X24909524Y-19749819D02*
X24814286Y-19702200D01*
X24814286Y-19702200D02*
X24766667Y-19654580D01*
X29633333Y-70454819D02*
X29300000Y-69978628D01*
X29061905Y-70454819D02*
X29061905Y-69454819D01*
X29061905Y-69454819D02*
X29442857Y-69454819D01*
X29442857Y-69454819D02*
X29538095Y-69502438D01*
X29538095Y-69502438D02*
X29585714Y-69550057D01*
X29585714Y-69550057D02*
X29633333Y-69645295D01*
X29633333Y-69645295D02*
X29633333Y-69788152D01*
X29633333Y-69788152D02*
X29585714Y-69883390D01*
X29585714Y-69883390D02*
X29538095Y-69931009D01*
X29538095Y-69931009D02*
X29442857Y-69978628D01*
X29442857Y-69978628D02*
X29061905Y-69978628D01*
X30490476Y-69788152D02*
X30490476Y-70454819D01*
X30252381Y-69407200D02*
X30014286Y-70121485D01*
X30014286Y-70121485D02*
X30633333Y-70121485D01*
X23233333Y-29954819D02*
X22900000Y-29478628D01*
X22661905Y-29954819D02*
X22661905Y-28954819D01*
X22661905Y-28954819D02*
X23042857Y-28954819D01*
X23042857Y-28954819D02*
X23138095Y-29002438D01*
X23138095Y-29002438D02*
X23185714Y-29050057D01*
X23185714Y-29050057D02*
X23233333Y-29145295D01*
X23233333Y-29145295D02*
X23233333Y-29288152D01*
X23233333Y-29288152D02*
X23185714Y-29383390D01*
X23185714Y-29383390D02*
X23138095Y-29431009D01*
X23138095Y-29431009D02*
X23042857Y-29478628D01*
X23042857Y-29478628D02*
X22661905Y-29478628D01*
X23566667Y-28954819D02*
X24185714Y-28954819D01*
X24185714Y-28954819D02*
X23852381Y-29335771D01*
X23852381Y-29335771D02*
X23995238Y-29335771D01*
X23995238Y-29335771D02*
X24090476Y-29383390D01*
X24090476Y-29383390D02*
X24138095Y-29431009D01*
X24138095Y-29431009D02*
X24185714Y-29526247D01*
X24185714Y-29526247D02*
X24185714Y-29764342D01*
X24185714Y-29764342D02*
X24138095Y-29859580D01*
X24138095Y-29859580D02*
X24090476Y-29907200D01*
X24090476Y-29907200D02*
X23995238Y-29954819D01*
X23995238Y-29954819D02*
X23709524Y-29954819D01*
X23709524Y-29954819D02*
X23614286Y-29907200D01*
X23614286Y-29907200D02*
X23566667Y-29859580D01*
X23861905Y-33249819D02*
X23861905Y-32249819D01*
X23861905Y-32249819D02*
X24100000Y-32249819D01*
X24100000Y-32249819D02*
X24242857Y-32297438D01*
X24242857Y-32297438D02*
X24338095Y-32392676D01*
X24338095Y-32392676D02*
X24385714Y-32487914D01*
X24385714Y-32487914D02*
X24433333Y-32678390D01*
X24433333Y-32678390D02*
X24433333Y-32821247D01*
X24433333Y-32821247D02*
X24385714Y-33011723D01*
X24385714Y-33011723D02*
X24338095Y-33106961D01*
X24338095Y-33106961D02*
X24242857Y-33202200D01*
X24242857Y-33202200D02*
X24100000Y-33249819D01*
X24100000Y-33249819D02*
X23861905Y-33249819D01*
X24766667Y-32249819D02*
X25385714Y-32249819D01*
X25385714Y-32249819D02*
X25052381Y-32630771D01*
X25052381Y-32630771D02*
X25195238Y-32630771D01*
X25195238Y-32630771D02*
X25290476Y-32678390D01*
X25290476Y-32678390D02*
X25338095Y-32726009D01*
X25338095Y-32726009D02*
X25385714Y-32821247D01*
X25385714Y-32821247D02*
X25385714Y-33059342D01*
X25385714Y-33059342D02*
X25338095Y-33154580D01*
X25338095Y-33154580D02*
X25290476Y-33202200D01*
X25290476Y-33202200D02*
X25195238Y-33249819D01*
X25195238Y-33249819D02*
X24909524Y-33249819D01*
X24909524Y-33249819D02*
X24814286Y-33202200D01*
X24814286Y-33202200D02*
X24766667Y-33154580D01*
X36861905Y-60249819D02*
X36861905Y-59249819D01*
X36861905Y-59249819D02*
X37100000Y-59249819D01*
X37100000Y-59249819D02*
X37242857Y-59297438D01*
X37242857Y-59297438D02*
X37338095Y-59392676D01*
X37338095Y-59392676D02*
X37385714Y-59487914D01*
X37385714Y-59487914D02*
X37433333Y-59678390D01*
X37433333Y-59678390D02*
X37433333Y-59821247D01*
X37433333Y-59821247D02*
X37385714Y-60011723D01*
X37385714Y-60011723D02*
X37338095Y-60106961D01*
X37338095Y-60106961D02*
X37242857Y-60202200D01*
X37242857Y-60202200D02*
X37100000Y-60249819D01*
X37100000Y-60249819D02*
X36861905Y-60249819D01*
X38338095Y-59249819D02*
X37861905Y-59249819D01*
X37861905Y-59249819D02*
X37814286Y-59726009D01*
X37814286Y-59726009D02*
X37861905Y-59678390D01*
X37861905Y-59678390D02*
X37957143Y-59630771D01*
X37957143Y-59630771D02*
X38195238Y-59630771D01*
X38195238Y-59630771D02*
X38290476Y-59678390D01*
X38290476Y-59678390D02*
X38338095Y-59726009D01*
X38338095Y-59726009D02*
X38385714Y-59821247D01*
X38385714Y-59821247D02*
X38385714Y-60059342D01*
X38385714Y-60059342D02*
X38338095Y-60154580D01*
X38338095Y-60154580D02*
X38290476Y-60202200D01*
X38290476Y-60202200D02*
X38195238Y-60249819D01*
X38195238Y-60249819D02*
X37957143Y-60249819D01*
X37957143Y-60249819D02*
X37861905Y-60202200D01*
X37861905Y-60202200D02*
X37814286Y-60154580D01*
X36233333Y-29954819D02*
X35900000Y-29478628D01*
X35661905Y-29954819D02*
X35661905Y-28954819D01*
X35661905Y-28954819D02*
X36042857Y-28954819D01*
X36042857Y-28954819D02*
X36138095Y-29002438D01*
X36138095Y-29002438D02*
X36185714Y-29050057D01*
X36185714Y-29050057D02*
X36233333Y-29145295D01*
X36233333Y-29145295D02*
X36233333Y-29288152D01*
X36233333Y-29288152D02*
X36185714Y-29383390D01*
X36185714Y-29383390D02*
X36138095Y-29431009D01*
X36138095Y-29431009D02*
X36042857Y-29478628D01*
X36042857Y-29478628D02*
X35661905Y-29478628D01*
X37138095Y-28954819D02*
X36661905Y-28954819D01*
X36661905Y-28954819D02*
X36614286Y-29431009D01*
X36614286Y-29431009D02*
X36661905Y-29383390D01*
X36661905Y-29383390D02*
X36757143Y-29335771D01*
X36757143Y-29335771D02*
X36995238Y-29335771D01*
X36995238Y-29335771D02*
X37090476Y-29383390D01*
X37090476Y-29383390D02*
X37138095Y-29431009D01*
X37138095Y-29431009D02*
X37185714Y-29526247D01*
X37185714Y-29526247D02*
X37185714Y-29764342D01*
X37185714Y-29764342D02*
X37138095Y-29859580D01*
X37138095Y-29859580D02*
X37090476Y-29907200D01*
X37090476Y-29907200D02*
X36995238Y-29954819D01*
X36995238Y-29954819D02*
X36757143Y-29954819D01*
X36757143Y-29954819D02*
X36661905Y-29907200D01*
X36661905Y-29907200D02*
X36614286Y-29859580D01*
X29633333Y-29954819D02*
X29300000Y-29478628D01*
X29061905Y-29954819D02*
X29061905Y-28954819D01*
X29061905Y-28954819D02*
X29442857Y-28954819D01*
X29442857Y-28954819D02*
X29538095Y-29002438D01*
X29538095Y-29002438D02*
X29585714Y-29050057D01*
X29585714Y-29050057D02*
X29633333Y-29145295D01*
X29633333Y-29145295D02*
X29633333Y-29288152D01*
X29633333Y-29288152D02*
X29585714Y-29383390D01*
X29585714Y-29383390D02*
X29538095Y-29431009D01*
X29538095Y-29431009D02*
X29442857Y-29478628D01*
X29442857Y-29478628D02*
X29061905Y-29478628D01*
X30490476Y-29288152D02*
X30490476Y-29954819D01*
X30252381Y-28907200D02*
X30014286Y-29621485D01*
X30014286Y-29621485D02*
X30633333Y-29621485D01*
X29633333Y-43454819D02*
X29300000Y-42978628D01*
X29061905Y-43454819D02*
X29061905Y-42454819D01*
X29061905Y-42454819D02*
X29442857Y-42454819D01*
X29442857Y-42454819D02*
X29538095Y-42502438D01*
X29538095Y-42502438D02*
X29585714Y-42550057D01*
X29585714Y-42550057D02*
X29633333Y-42645295D01*
X29633333Y-42645295D02*
X29633333Y-42788152D01*
X29633333Y-42788152D02*
X29585714Y-42883390D01*
X29585714Y-42883390D02*
X29538095Y-42931009D01*
X29538095Y-42931009D02*
X29442857Y-42978628D01*
X29442857Y-42978628D02*
X29061905Y-42978628D01*
X30490476Y-42788152D02*
X30490476Y-43454819D01*
X30252381Y-42407200D02*
X30014286Y-43121485D01*
X30014286Y-43121485D02*
X30633333Y-43121485D01*
X36861905Y-46749819D02*
X36861905Y-45749819D01*
X36861905Y-45749819D02*
X37100000Y-45749819D01*
X37100000Y-45749819D02*
X37242857Y-45797438D01*
X37242857Y-45797438D02*
X37338095Y-45892676D01*
X37338095Y-45892676D02*
X37385714Y-45987914D01*
X37385714Y-45987914D02*
X37433333Y-46178390D01*
X37433333Y-46178390D02*
X37433333Y-46321247D01*
X37433333Y-46321247D02*
X37385714Y-46511723D01*
X37385714Y-46511723D02*
X37338095Y-46606961D01*
X37338095Y-46606961D02*
X37242857Y-46702200D01*
X37242857Y-46702200D02*
X37100000Y-46749819D01*
X37100000Y-46749819D02*
X36861905Y-46749819D01*
X38338095Y-45749819D02*
X37861905Y-45749819D01*
X37861905Y-45749819D02*
X37814286Y-46226009D01*
X37814286Y-46226009D02*
X37861905Y-46178390D01*
X37861905Y-46178390D02*
X37957143Y-46130771D01*
X37957143Y-46130771D02*
X38195238Y-46130771D01*
X38195238Y-46130771D02*
X38290476Y-46178390D01*
X38290476Y-46178390D02*
X38338095Y-46226009D01*
X38338095Y-46226009D02*
X38385714Y-46321247D01*
X38385714Y-46321247D02*
X38385714Y-46559342D01*
X38385714Y-46559342D02*
X38338095Y-46654580D01*
X38338095Y-46654580D02*
X38290476Y-46702200D01*
X38290476Y-46702200D02*
X38195238Y-46749819D01*
X38195238Y-46749819D02*
X37957143Y-46749819D01*
X37957143Y-46749819D02*
X37861905Y-46702200D01*
X37861905Y-46702200D02*
X37814286Y-46654580D01*
X36233333Y-83954819D02*
X35900000Y-83478628D01*
X35661905Y-83954819D02*
X35661905Y-82954819D01*
X35661905Y-82954819D02*
X36042857Y-82954819D01*
X36042857Y-82954819D02*
X36138095Y-83002438D01*
X36138095Y-83002438D02*
X36185714Y-83050057D01*
X36185714Y-83050057D02*
X36233333Y-83145295D01*
X36233333Y-83145295D02*
X36233333Y-83288152D01*
X36233333Y-83288152D02*
X36185714Y-83383390D01*
X36185714Y-83383390D02*
X36138095Y-83431009D01*
X36138095Y-83431009D02*
X36042857Y-83478628D01*
X36042857Y-83478628D02*
X35661905Y-83478628D01*
X37138095Y-82954819D02*
X36661905Y-82954819D01*
X36661905Y-82954819D02*
X36614286Y-83431009D01*
X36614286Y-83431009D02*
X36661905Y-83383390D01*
X36661905Y-83383390D02*
X36757143Y-83335771D01*
X36757143Y-83335771D02*
X36995238Y-83335771D01*
X36995238Y-83335771D02*
X37090476Y-83383390D01*
X37090476Y-83383390D02*
X37138095Y-83431009D01*
X37138095Y-83431009D02*
X37185714Y-83526247D01*
X37185714Y-83526247D02*
X37185714Y-83764342D01*
X37185714Y-83764342D02*
X37138095Y-83859580D01*
X37138095Y-83859580D02*
X37090476Y-83907200D01*
X37090476Y-83907200D02*
X36995238Y-83954819D01*
X36995238Y-83954819D02*
X36757143Y-83954819D01*
X36757143Y-83954819D02*
X36661905Y-83907200D01*
X36661905Y-83907200D02*
X36614286Y-83859580D01*
X43461905Y-73854819D02*
X43461905Y-72854819D01*
X43461905Y-72854819D02*
X43700000Y-72854819D01*
X43700000Y-72854819D02*
X43842857Y-72902438D01*
X43842857Y-72902438D02*
X43938095Y-72997676D01*
X43938095Y-72997676D02*
X43985714Y-73092914D01*
X43985714Y-73092914D02*
X44033333Y-73283390D01*
X44033333Y-73283390D02*
X44033333Y-73426247D01*
X44033333Y-73426247D02*
X43985714Y-73616723D01*
X43985714Y-73616723D02*
X43938095Y-73711961D01*
X43938095Y-73711961D02*
X43842857Y-73807200D01*
X43842857Y-73807200D02*
X43700000Y-73854819D01*
X43700000Y-73854819D02*
X43461905Y-73854819D01*
X44890476Y-72854819D02*
X44700000Y-72854819D01*
X44700000Y-72854819D02*
X44604762Y-72902438D01*
X44604762Y-72902438D02*
X44557143Y-72950057D01*
X44557143Y-72950057D02*
X44461905Y-73092914D01*
X44461905Y-73092914D02*
X44414286Y-73283390D01*
X44414286Y-73283390D02*
X44414286Y-73664342D01*
X44414286Y-73664342D02*
X44461905Y-73759580D01*
X44461905Y-73759580D02*
X44509524Y-73807200D01*
X44509524Y-73807200D02*
X44604762Y-73854819D01*
X44604762Y-73854819D02*
X44795238Y-73854819D01*
X44795238Y-73854819D02*
X44890476Y-73807200D01*
X44890476Y-73807200D02*
X44938095Y-73759580D01*
X44938095Y-73759580D02*
X44985714Y-73664342D01*
X44985714Y-73664342D02*
X44985714Y-73426247D01*
X44985714Y-73426247D02*
X44938095Y-73331009D01*
X44938095Y-73331009D02*
X44890476Y-73283390D01*
X44890476Y-73283390D02*
X44795238Y-73235771D01*
X44795238Y-73235771D02*
X44604762Y-73235771D01*
X44604762Y-73235771D02*
X44509524Y-73283390D01*
X44509524Y-73283390D02*
X44461905Y-73331009D01*
X44461905Y-73331009D02*
X44414286Y-73426247D01*
X30261905Y-60249819D02*
X30261905Y-59249819D01*
X30261905Y-59249819D02*
X30500000Y-59249819D01*
X30500000Y-59249819D02*
X30642857Y-59297438D01*
X30642857Y-59297438D02*
X30738095Y-59392676D01*
X30738095Y-59392676D02*
X30785714Y-59487914D01*
X30785714Y-59487914D02*
X30833333Y-59678390D01*
X30833333Y-59678390D02*
X30833333Y-59821247D01*
X30833333Y-59821247D02*
X30785714Y-60011723D01*
X30785714Y-60011723D02*
X30738095Y-60106961D01*
X30738095Y-60106961D02*
X30642857Y-60202200D01*
X30642857Y-60202200D02*
X30500000Y-60249819D01*
X30500000Y-60249819D02*
X30261905Y-60249819D01*
X31690476Y-59583152D02*
X31690476Y-60249819D01*
X31452381Y-59202200D02*
X31214286Y-59916485D01*
X31214286Y-59916485D02*
X31833333Y-59916485D01*
X23233333Y-43454819D02*
X22900000Y-42978628D01*
X22661905Y-43454819D02*
X22661905Y-42454819D01*
X22661905Y-42454819D02*
X23042857Y-42454819D01*
X23042857Y-42454819D02*
X23138095Y-42502438D01*
X23138095Y-42502438D02*
X23185714Y-42550057D01*
X23185714Y-42550057D02*
X23233333Y-42645295D01*
X23233333Y-42645295D02*
X23233333Y-42788152D01*
X23233333Y-42788152D02*
X23185714Y-42883390D01*
X23185714Y-42883390D02*
X23138095Y-42931009D01*
X23138095Y-42931009D02*
X23042857Y-42978628D01*
X23042857Y-42978628D02*
X22661905Y-42978628D01*
X23566667Y-42454819D02*
X24185714Y-42454819D01*
X24185714Y-42454819D02*
X23852381Y-42835771D01*
X23852381Y-42835771D02*
X23995238Y-42835771D01*
X23995238Y-42835771D02*
X24090476Y-42883390D01*
X24090476Y-42883390D02*
X24138095Y-42931009D01*
X24138095Y-42931009D02*
X24185714Y-43026247D01*
X24185714Y-43026247D02*
X24185714Y-43264342D01*
X24185714Y-43264342D02*
X24138095Y-43359580D01*
X24138095Y-43359580D02*
X24090476Y-43407200D01*
X24090476Y-43407200D02*
X23995238Y-43454819D01*
X23995238Y-43454819D02*
X23709524Y-43454819D01*
X23709524Y-43454819D02*
X23614286Y-43407200D01*
X23614286Y-43407200D02*
X23566667Y-43359580D01*
X29633333Y-83954819D02*
X29300000Y-83478628D01*
X29061905Y-83954819D02*
X29061905Y-82954819D01*
X29061905Y-82954819D02*
X29442857Y-82954819D01*
X29442857Y-82954819D02*
X29538095Y-83002438D01*
X29538095Y-83002438D02*
X29585714Y-83050057D01*
X29585714Y-83050057D02*
X29633333Y-83145295D01*
X29633333Y-83145295D02*
X29633333Y-83288152D01*
X29633333Y-83288152D02*
X29585714Y-83383390D01*
X29585714Y-83383390D02*
X29538095Y-83431009D01*
X29538095Y-83431009D02*
X29442857Y-83478628D01*
X29442857Y-83478628D02*
X29061905Y-83478628D01*
X30490476Y-83288152D02*
X30490476Y-83954819D01*
X30252381Y-82907200D02*
X30014286Y-83621485D01*
X30014286Y-83621485D02*
X30633333Y-83621485D01*
X36233333Y-56954819D02*
X35900000Y-56478628D01*
X35661905Y-56954819D02*
X35661905Y-55954819D01*
X35661905Y-55954819D02*
X36042857Y-55954819D01*
X36042857Y-55954819D02*
X36138095Y-56002438D01*
X36138095Y-56002438D02*
X36185714Y-56050057D01*
X36185714Y-56050057D02*
X36233333Y-56145295D01*
X36233333Y-56145295D02*
X36233333Y-56288152D01*
X36233333Y-56288152D02*
X36185714Y-56383390D01*
X36185714Y-56383390D02*
X36138095Y-56431009D01*
X36138095Y-56431009D02*
X36042857Y-56478628D01*
X36042857Y-56478628D02*
X35661905Y-56478628D01*
X37138095Y-55954819D02*
X36661905Y-55954819D01*
X36661905Y-55954819D02*
X36614286Y-56431009D01*
X36614286Y-56431009D02*
X36661905Y-56383390D01*
X36661905Y-56383390D02*
X36757143Y-56335771D01*
X36757143Y-56335771D02*
X36995238Y-56335771D01*
X36995238Y-56335771D02*
X37090476Y-56383390D01*
X37090476Y-56383390D02*
X37138095Y-56431009D01*
X37138095Y-56431009D02*
X37185714Y-56526247D01*
X37185714Y-56526247D02*
X37185714Y-56764342D01*
X37185714Y-56764342D02*
X37138095Y-56859580D01*
X37138095Y-56859580D02*
X37090476Y-56907200D01*
X37090476Y-56907200D02*
X36995238Y-56954819D01*
X36995238Y-56954819D02*
X36757143Y-56954819D01*
X36757143Y-56954819D02*
X36661905Y-56907200D01*
X36661905Y-56907200D02*
X36614286Y-56859580D01*
X23861905Y-73749819D02*
X23861905Y-72749819D01*
X23861905Y-72749819D02*
X24100000Y-72749819D01*
X24100000Y-72749819D02*
X24242857Y-72797438D01*
X24242857Y-72797438D02*
X24338095Y-72892676D01*
X24338095Y-72892676D02*
X24385714Y-72987914D01*
X24385714Y-72987914D02*
X24433333Y-73178390D01*
X24433333Y-73178390D02*
X24433333Y-73321247D01*
X24433333Y-73321247D02*
X24385714Y-73511723D01*
X24385714Y-73511723D02*
X24338095Y-73606961D01*
X24338095Y-73606961D02*
X24242857Y-73702200D01*
X24242857Y-73702200D02*
X24100000Y-73749819D01*
X24100000Y-73749819D02*
X23861905Y-73749819D01*
X24766667Y-72749819D02*
X25385714Y-72749819D01*
X25385714Y-72749819D02*
X25052381Y-73130771D01*
X25052381Y-73130771D02*
X25195238Y-73130771D01*
X25195238Y-73130771D02*
X25290476Y-73178390D01*
X25290476Y-73178390D02*
X25338095Y-73226009D01*
X25338095Y-73226009D02*
X25385714Y-73321247D01*
X25385714Y-73321247D02*
X25385714Y-73559342D01*
X25385714Y-73559342D02*
X25338095Y-73654580D01*
X25338095Y-73654580D02*
X25290476Y-73702200D01*
X25290476Y-73702200D02*
X25195238Y-73749819D01*
X25195238Y-73749819D02*
X24909524Y-73749819D01*
X24909524Y-73749819D02*
X24814286Y-73702200D01*
X24814286Y-73702200D02*
X24766667Y-73654580D01*
X23233333Y-70454819D02*
X22900000Y-69978628D01*
X22661905Y-70454819D02*
X22661905Y-69454819D01*
X22661905Y-69454819D02*
X23042857Y-69454819D01*
X23042857Y-69454819D02*
X23138095Y-69502438D01*
X23138095Y-69502438D02*
X23185714Y-69550057D01*
X23185714Y-69550057D02*
X23233333Y-69645295D01*
X23233333Y-69645295D02*
X23233333Y-69788152D01*
X23233333Y-69788152D02*
X23185714Y-69883390D01*
X23185714Y-69883390D02*
X23138095Y-69931009D01*
X23138095Y-69931009D02*
X23042857Y-69978628D01*
X23042857Y-69978628D02*
X22661905Y-69978628D01*
X23566667Y-69454819D02*
X24185714Y-69454819D01*
X24185714Y-69454819D02*
X23852381Y-69835771D01*
X23852381Y-69835771D02*
X23995238Y-69835771D01*
X23995238Y-69835771D02*
X24090476Y-69883390D01*
X24090476Y-69883390D02*
X24138095Y-69931009D01*
X24138095Y-69931009D02*
X24185714Y-70026247D01*
X24185714Y-70026247D02*
X24185714Y-70264342D01*
X24185714Y-70264342D02*
X24138095Y-70359580D01*
X24138095Y-70359580D02*
X24090476Y-70407200D01*
X24090476Y-70407200D02*
X23995238Y-70454819D01*
X23995238Y-70454819D02*
X23709524Y-70454819D01*
X23709524Y-70454819D02*
X23614286Y-70407200D01*
X23614286Y-70407200D02*
X23566667Y-70359580D01*
X42733333Y-29954819D02*
X42400000Y-29478628D01*
X42161905Y-29954819D02*
X42161905Y-28954819D01*
X42161905Y-28954819D02*
X42542857Y-28954819D01*
X42542857Y-28954819D02*
X42638095Y-29002438D01*
X42638095Y-29002438D02*
X42685714Y-29050057D01*
X42685714Y-29050057D02*
X42733333Y-29145295D01*
X42733333Y-29145295D02*
X42733333Y-29288152D01*
X42733333Y-29288152D02*
X42685714Y-29383390D01*
X42685714Y-29383390D02*
X42638095Y-29431009D01*
X42638095Y-29431009D02*
X42542857Y-29478628D01*
X42542857Y-29478628D02*
X42161905Y-29478628D01*
X43590476Y-28954819D02*
X43400000Y-28954819D01*
X43400000Y-28954819D02*
X43304762Y-29002438D01*
X43304762Y-29002438D02*
X43257143Y-29050057D01*
X43257143Y-29050057D02*
X43161905Y-29192914D01*
X43161905Y-29192914D02*
X43114286Y-29383390D01*
X43114286Y-29383390D02*
X43114286Y-29764342D01*
X43114286Y-29764342D02*
X43161905Y-29859580D01*
X43161905Y-29859580D02*
X43209524Y-29907200D01*
X43209524Y-29907200D02*
X43304762Y-29954819D01*
X43304762Y-29954819D02*
X43495238Y-29954819D01*
X43495238Y-29954819D02*
X43590476Y-29907200D01*
X43590476Y-29907200D02*
X43638095Y-29859580D01*
X43638095Y-29859580D02*
X43685714Y-29764342D01*
X43685714Y-29764342D02*
X43685714Y-29526247D01*
X43685714Y-29526247D02*
X43638095Y-29431009D01*
X43638095Y-29431009D02*
X43590476Y-29383390D01*
X43590476Y-29383390D02*
X43495238Y-29335771D01*
X43495238Y-29335771D02*
X43304762Y-29335771D01*
X43304762Y-29335771D02*
X43209524Y-29383390D01*
X43209524Y-29383390D02*
X43161905Y-29431009D01*
X43161905Y-29431009D02*
X43114286Y-29526247D01*
X30261905Y-19749819D02*
X30261905Y-18749819D01*
X30261905Y-18749819D02*
X30500000Y-18749819D01*
X30500000Y-18749819D02*
X30642857Y-18797438D01*
X30642857Y-18797438D02*
X30738095Y-18892676D01*
X30738095Y-18892676D02*
X30785714Y-18987914D01*
X30785714Y-18987914D02*
X30833333Y-19178390D01*
X30833333Y-19178390D02*
X30833333Y-19321247D01*
X30833333Y-19321247D02*
X30785714Y-19511723D01*
X30785714Y-19511723D02*
X30738095Y-19606961D01*
X30738095Y-19606961D02*
X30642857Y-19702200D01*
X30642857Y-19702200D02*
X30500000Y-19749819D01*
X30500000Y-19749819D02*
X30261905Y-19749819D01*
X31690476Y-19083152D02*
X31690476Y-19749819D01*
X31452381Y-18702200D02*
X31214286Y-19416485D01*
X31214286Y-19416485D02*
X31833333Y-19416485D01*
X30261905Y-46749819D02*
X30261905Y-45749819D01*
X30261905Y-45749819D02*
X30500000Y-45749819D01*
X30500000Y-45749819D02*
X30642857Y-45797438D01*
X30642857Y-45797438D02*
X30738095Y-45892676D01*
X30738095Y-45892676D02*
X30785714Y-45987914D01*
X30785714Y-45987914D02*
X30833333Y-46178390D01*
X30833333Y-46178390D02*
X30833333Y-46321247D01*
X30833333Y-46321247D02*
X30785714Y-46511723D01*
X30785714Y-46511723D02*
X30738095Y-46606961D01*
X30738095Y-46606961D02*
X30642857Y-46702200D01*
X30642857Y-46702200D02*
X30500000Y-46749819D01*
X30500000Y-46749819D02*
X30261905Y-46749819D01*
X31690476Y-46083152D02*
X31690476Y-46749819D01*
X31452381Y-45702200D02*
X31214286Y-46416485D01*
X31214286Y-46416485D02*
X31833333Y-46416485D01*
X42733333Y-70454819D02*
X42400000Y-69978628D01*
X42161905Y-70454819D02*
X42161905Y-69454819D01*
X42161905Y-69454819D02*
X42542857Y-69454819D01*
X42542857Y-69454819D02*
X42638095Y-69502438D01*
X42638095Y-69502438D02*
X42685714Y-69550057D01*
X42685714Y-69550057D02*
X42733333Y-69645295D01*
X42733333Y-69645295D02*
X42733333Y-69788152D01*
X42733333Y-69788152D02*
X42685714Y-69883390D01*
X42685714Y-69883390D02*
X42638095Y-69931009D01*
X42638095Y-69931009D02*
X42542857Y-69978628D01*
X42542857Y-69978628D02*
X42161905Y-69978628D01*
X43590476Y-69454819D02*
X43400000Y-69454819D01*
X43400000Y-69454819D02*
X43304762Y-69502438D01*
X43304762Y-69502438D02*
X43257143Y-69550057D01*
X43257143Y-69550057D02*
X43161905Y-69692914D01*
X43161905Y-69692914D02*
X43114286Y-69883390D01*
X43114286Y-69883390D02*
X43114286Y-70264342D01*
X43114286Y-70264342D02*
X43161905Y-70359580D01*
X43161905Y-70359580D02*
X43209524Y-70407200D01*
X43209524Y-70407200D02*
X43304762Y-70454819D01*
X43304762Y-70454819D02*
X43495238Y-70454819D01*
X43495238Y-70454819D02*
X43590476Y-70407200D01*
X43590476Y-70407200D02*
X43638095Y-70359580D01*
X43638095Y-70359580D02*
X43685714Y-70264342D01*
X43685714Y-70264342D02*
X43685714Y-70026247D01*
X43685714Y-70026247D02*
X43638095Y-69931009D01*
X43638095Y-69931009D02*
X43590476Y-69883390D01*
X43590476Y-69883390D02*
X43495238Y-69835771D01*
X43495238Y-69835771D02*
X43304762Y-69835771D01*
X43304762Y-69835771D02*
X43209524Y-69883390D01*
X43209524Y-69883390D02*
X43161905Y-69931009D01*
X43161905Y-69931009D02*
X43114286Y-70026247D01*
X30261905Y-33249819D02*
X30261905Y-32249819D01*
X30261905Y-32249819D02*
X30500000Y-32249819D01*
X30500000Y-32249819D02*
X30642857Y-32297438D01*
X30642857Y-32297438D02*
X30738095Y-32392676D01*
X30738095Y-32392676D02*
X30785714Y-32487914D01*
X30785714Y-32487914D02*
X30833333Y-32678390D01*
X30833333Y-32678390D02*
X30833333Y-32821247D01*
X30833333Y-32821247D02*
X30785714Y-33011723D01*
X30785714Y-33011723D02*
X30738095Y-33106961D01*
X30738095Y-33106961D02*
X30642857Y-33202200D01*
X30642857Y-33202200D02*
X30500000Y-33249819D01*
X30500000Y-33249819D02*
X30261905Y-33249819D01*
X31690476Y-32583152D02*
X31690476Y-33249819D01*
X31452381Y-32202200D02*
X31214286Y-32916485D01*
X31214286Y-32916485D02*
X31833333Y-32916485D01*
X23233333Y-16454819D02*
X22900000Y-15978628D01*
X22661905Y-16454819D02*
X22661905Y-15454819D01*
X22661905Y-15454819D02*
X23042857Y-15454819D01*
X23042857Y-15454819D02*
X23138095Y-15502438D01*
X23138095Y-15502438D02*
X23185714Y-15550057D01*
X23185714Y-15550057D02*
X23233333Y-15645295D01*
X23233333Y-15645295D02*
X23233333Y-15788152D01*
X23233333Y-15788152D02*
X23185714Y-15883390D01*
X23185714Y-15883390D02*
X23138095Y-15931009D01*
X23138095Y-15931009D02*
X23042857Y-15978628D01*
X23042857Y-15978628D02*
X22661905Y-15978628D01*
X23566667Y-15454819D02*
X24185714Y-15454819D01*
X24185714Y-15454819D02*
X23852381Y-15835771D01*
X23852381Y-15835771D02*
X23995238Y-15835771D01*
X23995238Y-15835771D02*
X24090476Y-15883390D01*
X24090476Y-15883390D02*
X24138095Y-15931009D01*
X24138095Y-15931009D02*
X24185714Y-16026247D01*
X24185714Y-16026247D02*
X24185714Y-16264342D01*
X24185714Y-16264342D02*
X24138095Y-16359580D01*
X24138095Y-16359580D02*
X24090476Y-16407200D01*
X24090476Y-16407200D02*
X23995238Y-16454819D01*
X23995238Y-16454819D02*
X23709524Y-16454819D01*
X23709524Y-16454819D02*
X23614286Y-16407200D01*
X23614286Y-16407200D02*
X23566667Y-16359580D01*
X43461905Y-19854819D02*
X43461905Y-18854819D01*
X43461905Y-18854819D02*
X43700000Y-18854819D01*
X43700000Y-18854819D02*
X43842857Y-18902438D01*
X43842857Y-18902438D02*
X43938095Y-18997676D01*
X43938095Y-18997676D02*
X43985714Y-19092914D01*
X43985714Y-19092914D02*
X44033333Y-19283390D01*
X44033333Y-19283390D02*
X44033333Y-19426247D01*
X44033333Y-19426247D02*
X43985714Y-19616723D01*
X43985714Y-19616723D02*
X43938095Y-19711961D01*
X43938095Y-19711961D02*
X43842857Y-19807200D01*
X43842857Y-19807200D02*
X43700000Y-19854819D01*
X43700000Y-19854819D02*
X43461905Y-19854819D01*
X44890476Y-18854819D02*
X44700000Y-18854819D01*
X44700000Y-18854819D02*
X44604762Y-18902438D01*
X44604762Y-18902438D02*
X44557143Y-18950057D01*
X44557143Y-18950057D02*
X44461905Y-19092914D01*
X44461905Y-19092914D02*
X44414286Y-19283390D01*
X44414286Y-19283390D02*
X44414286Y-19664342D01*
X44414286Y-19664342D02*
X44461905Y-19759580D01*
X44461905Y-19759580D02*
X44509524Y-19807200D01*
X44509524Y-19807200D02*
X44604762Y-19854819D01*
X44604762Y-19854819D02*
X44795238Y-19854819D01*
X44795238Y-19854819D02*
X44890476Y-19807200D01*
X44890476Y-19807200D02*
X44938095Y-19759580D01*
X44938095Y-19759580D02*
X44985714Y-19664342D01*
X44985714Y-19664342D02*
X44985714Y-19426247D01*
X44985714Y-19426247D02*
X44938095Y-19331009D01*
X44938095Y-19331009D02*
X44890476Y-19283390D01*
X44890476Y-19283390D02*
X44795238Y-19235771D01*
X44795238Y-19235771D02*
X44604762Y-19235771D01*
X44604762Y-19235771D02*
X44509524Y-19283390D01*
X44509524Y-19283390D02*
X44461905Y-19331009D01*
X44461905Y-19331009D02*
X44414286Y-19426247D01*
X17361905Y-19749819D02*
X17361905Y-18749819D01*
X17361905Y-18749819D02*
X17600000Y-18749819D01*
X17600000Y-18749819D02*
X17742857Y-18797438D01*
X17742857Y-18797438D02*
X17838095Y-18892676D01*
X17838095Y-18892676D02*
X17885714Y-18987914D01*
X17885714Y-18987914D02*
X17933333Y-19178390D01*
X17933333Y-19178390D02*
X17933333Y-19321247D01*
X17933333Y-19321247D02*
X17885714Y-19511723D01*
X17885714Y-19511723D02*
X17838095Y-19606961D01*
X17838095Y-19606961D02*
X17742857Y-19702200D01*
X17742857Y-19702200D02*
X17600000Y-19749819D01*
X17600000Y-19749819D02*
X17361905Y-19749819D01*
X18314286Y-18845057D02*
X18361905Y-18797438D01*
X18361905Y-18797438D02*
X18457143Y-18749819D01*
X18457143Y-18749819D02*
X18695238Y-18749819D01*
X18695238Y-18749819D02*
X18790476Y-18797438D01*
X18790476Y-18797438D02*
X18838095Y-18845057D01*
X18838095Y-18845057D02*
X18885714Y-18940295D01*
X18885714Y-18940295D02*
X18885714Y-19035533D01*
X18885714Y-19035533D02*
X18838095Y-19178390D01*
X18838095Y-19178390D02*
X18266667Y-19749819D01*
X18266667Y-19749819D02*
X18885714Y-19749819D01*
X10861905Y-33289819D02*
X10861905Y-32289819D01*
X10861905Y-32289819D02*
X11100000Y-32289819D01*
X11100000Y-32289819D02*
X11242857Y-32337438D01*
X11242857Y-32337438D02*
X11338095Y-32432676D01*
X11338095Y-32432676D02*
X11385714Y-32527914D01*
X11385714Y-32527914D02*
X11433333Y-32718390D01*
X11433333Y-32718390D02*
X11433333Y-32861247D01*
X11433333Y-32861247D02*
X11385714Y-33051723D01*
X11385714Y-33051723D02*
X11338095Y-33146961D01*
X11338095Y-33146961D02*
X11242857Y-33242200D01*
X11242857Y-33242200D02*
X11100000Y-33289819D01*
X11100000Y-33289819D02*
X10861905Y-33289819D01*
X12385714Y-33289819D02*
X11814286Y-33289819D01*
X12100000Y-33289819D02*
X12100000Y-32289819D01*
X12100000Y-32289819D02*
X12004762Y-32432676D01*
X12004762Y-32432676D02*
X11909524Y-32527914D01*
X11909524Y-32527914D02*
X11814286Y-32575533D01*
X10861905Y-46789819D02*
X10861905Y-45789819D01*
X10861905Y-45789819D02*
X11100000Y-45789819D01*
X11100000Y-45789819D02*
X11242857Y-45837438D01*
X11242857Y-45837438D02*
X11338095Y-45932676D01*
X11338095Y-45932676D02*
X11385714Y-46027914D01*
X11385714Y-46027914D02*
X11433333Y-46218390D01*
X11433333Y-46218390D02*
X11433333Y-46361247D01*
X11433333Y-46361247D02*
X11385714Y-46551723D01*
X11385714Y-46551723D02*
X11338095Y-46646961D01*
X11338095Y-46646961D02*
X11242857Y-46742200D01*
X11242857Y-46742200D02*
X11100000Y-46789819D01*
X11100000Y-46789819D02*
X10861905Y-46789819D01*
X12385714Y-46789819D02*
X11814286Y-46789819D01*
X12100000Y-46789819D02*
X12100000Y-45789819D01*
X12100000Y-45789819D02*
X12004762Y-45932676D01*
X12004762Y-45932676D02*
X11909524Y-46027914D01*
X11909524Y-46027914D02*
X11814286Y-46075533D01*
X10861905Y-87289819D02*
X10861905Y-86289819D01*
X10861905Y-86289819D02*
X11100000Y-86289819D01*
X11100000Y-86289819D02*
X11242857Y-86337438D01*
X11242857Y-86337438D02*
X11338095Y-86432676D01*
X11338095Y-86432676D02*
X11385714Y-86527914D01*
X11385714Y-86527914D02*
X11433333Y-86718390D01*
X11433333Y-86718390D02*
X11433333Y-86861247D01*
X11433333Y-86861247D02*
X11385714Y-87051723D01*
X11385714Y-87051723D02*
X11338095Y-87146961D01*
X11338095Y-87146961D02*
X11242857Y-87242200D01*
X11242857Y-87242200D02*
X11100000Y-87289819D01*
X11100000Y-87289819D02*
X10861905Y-87289819D01*
X12385714Y-87289819D02*
X11814286Y-87289819D01*
X12100000Y-87289819D02*
X12100000Y-86289819D01*
X12100000Y-86289819D02*
X12004762Y-86432676D01*
X12004762Y-86432676D02*
X11909524Y-86527914D01*
X11909524Y-86527914D02*
X11814286Y-86575533D01*
X10861905Y-19789819D02*
X10861905Y-18789819D01*
X10861905Y-18789819D02*
X11100000Y-18789819D01*
X11100000Y-18789819D02*
X11242857Y-18837438D01*
X11242857Y-18837438D02*
X11338095Y-18932676D01*
X11338095Y-18932676D02*
X11385714Y-19027914D01*
X11385714Y-19027914D02*
X11433333Y-19218390D01*
X11433333Y-19218390D02*
X11433333Y-19361247D01*
X11433333Y-19361247D02*
X11385714Y-19551723D01*
X11385714Y-19551723D02*
X11338095Y-19646961D01*
X11338095Y-19646961D02*
X11242857Y-19742200D01*
X11242857Y-19742200D02*
X11100000Y-19789819D01*
X11100000Y-19789819D02*
X10861905Y-19789819D01*
X12385714Y-19789819D02*
X11814286Y-19789819D01*
X12100000Y-19789819D02*
X12100000Y-18789819D01*
X12100000Y-18789819D02*
X12004762Y-18932676D01*
X12004762Y-18932676D02*
X11909524Y-19027914D01*
X11909524Y-19027914D02*
X11814286Y-19075533D01*
X16733333Y-16454819D02*
X16400000Y-15978628D01*
X16161905Y-16454819D02*
X16161905Y-15454819D01*
X16161905Y-15454819D02*
X16542857Y-15454819D01*
X16542857Y-15454819D02*
X16638095Y-15502438D01*
X16638095Y-15502438D02*
X16685714Y-15550057D01*
X16685714Y-15550057D02*
X16733333Y-15645295D01*
X16733333Y-15645295D02*
X16733333Y-15788152D01*
X16733333Y-15788152D02*
X16685714Y-15883390D01*
X16685714Y-15883390D02*
X16638095Y-15931009D01*
X16638095Y-15931009D02*
X16542857Y-15978628D01*
X16542857Y-15978628D02*
X16161905Y-15978628D01*
X17114286Y-15550057D02*
X17161905Y-15502438D01*
X17161905Y-15502438D02*
X17257143Y-15454819D01*
X17257143Y-15454819D02*
X17495238Y-15454819D01*
X17495238Y-15454819D02*
X17590476Y-15502438D01*
X17590476Y-15502438D02*
X17638095Y-15550057D01*
X17638095Y-15550057D02*
X17685714Y-15645295D01*
X17685714Y-15645295D02*
X17685714Y-15740533D01*
X17685714Y-15740533D02*
X17638095Y-15883390D01*
X17638095Y-15883390D02*
X17066667Y-16454819D01*
X17066667Y-16454819D02*
X17685714Y-16454819D01*
X30261905Y-87249819D02*
X30261905Y-86249819D01*
X30261905Y-86249819D02*
X30500000Y-86249819D01*
X30500000Y-86249819D02*
X30642857Y-86297438D01*
X30642857Y-86297438D02*
X30738095Y-86392676D01*
X30738095Y-86392676D02*
X30785714Y-86487914D01*
X30785714Y-86487914D02*
X30833333Y-86678390D01*
X30833333Y-86678390D02*
X30833333Y-86821247D01*
X30833333Y-86821247D02*
X30785714Y-87011723D01*
X30785714Y-87011723D02*
X30738095Y-87106961D01*
X30738095Y-87106961D02*
X30642857Y-87202200D01*
X30642857Y-87202200D02*
X30500000Y-87249819D01*
X30500000Y-87249819D02*
X30261905Y-87249819D01*
X31690476Y-86583152D02*
X31690476Y-87249819D01*
X31452381Y-86202200D02*
X31214286Y-86916485D01*
X31214286Y-86916485D02*
X31833333Y-86916485D01*
X10861905Y-60289819D02*
X10861905Y-59289819D01*
X10861905Y-59289819D02*
X11100000Y-59289819D01*
X11100000Y-59289819D02*
X11242857Y-59337438D01*
X11242857Y-59337438D02*
X11338095Y-59432676D01*
X11338095Y-59432676D02*
X11385714Y-59527914D01*
X11385714Y-59527914D02*
X11433333Y-59718390D01*
X11433333Y-59718390D02*
X11433333Y-59861247D01*
X11433333Y-59861247D02*
X11385714Y-60051723D01*
X11385714Y-60051723D02*
X11338095Y-60146961D01*
X11338095Y-60146961D02*
X11242857Y-60242200D01*
X11242857Y-60242200D02*
X11100000Y-60289819D01*
X11100000Y-60289819D02*
X10861905Y-60289819D01*
X12385714Y-60289819D02*
X11814286Y-60289819D01*
X12100000Y-60289819D02*
X12100000Y-59289819D01*
X12100000Y-59289819D02*
X12004762Y-59432676D01*
X12004762Y-59432676D02*
X11909524Y-59527914D01*
X11909524Y-59527914D02*
X11814286Y-59575533D01*
X17361905Y-87249819D02*
X17361905Y-86249819D01*
X17361905Y-86249819D02*
X17600000Y-86249819D01*
X17600000Y-86249819D02*
X17742857Y-86297438D01*
X17742857Y-86297438D02*
X17838095Y-86392676D01*
X17838095Y-86392676D02*
X17885714Y-86487914D01*
X17885714Y-86487914D02*
X17933333Y-86678390D01*
X17933333Y-86678390D02*
X17933333Y-86821247D01*
X17933333Y-86821247D02*
X17885714Y-87011723D01*
X17885714Y-87011723D02*
X17838095Y-87106961D01*
X17838095Y-87106961D02*
X17742857Y-87202200D01*
X17742857Y-87202200D02*
X17600000Y-87249819D01*
X17600000Y-87249819D02*
X17361905Y-87249819D01*
X18314286Y-86345057D02*
X18361905Y-86297438D01*
X18361905Y-86297438D02*
X18457143Y-86249819D01*
X18457143Y-86249819D02*
X18695238Y-86249819D01*
X18695238Y-86249819D02*
X18790476Y-86297438D01*
X18790476Y-86297438D02*
X18838095Y-86345057D01*
X18838095Y-86345057D02*
X18885714Y-86440295D01*
X18885714Y-86440295D02*
X18885714Y-86535533D01*
X18885714Y-86535533D02*
X18838095Y-86678390D01*
X18838095Y-86678390D02*
X18266667Y-87249819D01*
X18266667Y-87249819D02*
X18885714Y-87249819D01*
X30261905Y-6249819D02*
X30261905Y-5249819D01*
X30261905Y-5249819D02*
X30500000Y-5249819D01*
X30500000Y-5249819D02*
X30642857Y-5297438D01*
X30642857Y-5297438D02*
X30738095Y-5392676D01*
X30738095Y-5392676D02*
X30785714Y-5487914D01*
X30785714Y-5487914D02*
X30833333Y-5678390D01*
X30833333Y-5678390D02*
X30833333Y-5821247D01*
X30833333Y-5821247D02*
X30785714Y-6011723D01*
X30785714Y-6011723D02*
X30738095Y-6106961D01*
X30738095Y-6106961D02*
X30642857Y-6202200D01*
X30642857Y-6202200D02*
X30500000Y-6249819D01*
X30500000Y-6249819D02*
X30261905Y-6249819D01*
X31690476Y-5583152D02*
X31690476Y-6249819D01*
X31452381Y-5202200D02*
X31214286Y-5916485D01*
X31214286Y-5916485D02*
X31833333Y-5916485D01*
X23861905Y-6249819D02*
X23861905Y-5249819D01*
X23861905Y-5249819D02*
X24100000Y-5249819D01*
X24100000Y-5249819D02*
X24242857Y-5297438D01*
X24242857Y-5297438D02*
X24338095Y-5392676D01*
X24338095Y-5392676D02*
X24385714Y-5487914D01*
X24385714Y-5487914D02*
X24433333Y-5678390D01*
X24433333Y-5678390D02*
X24433333Y-5821247D01*
X24433333Y-5821247D02*
X24385714Y-6011723D01*
X24385714Y-6011723D02*
X24338095Y-6106961D01*
X24338095Y-6106961D02*
X24242857Y-6202200D01*
X24242857Y-6202200D02*
X24100000Y-6249819D01*
X24100000Y-6249819D02*
X23861905Y-6249819D01*
X24766667Y-5249819D02*
X25385714Y-5249819D01*
X25385714Y-5249819D02*
X25052381Y-5630771D01*
X25052381Y-5630771D02*
X25195238Y-5630771D01*
X25195238Y-5630771D02*
X25290476Y-5678390D01*
X25290476Y-5678390D02*
X25338095Y-5726009D01*
X25338095Y-5726009D02*
X25385714Y-5821247D01*
X25385714Y-5821247D02*
X25385714Y-6059342D01*
X25385714Y-6059342D02*
X25338095Y-6154580D01*
X25338095Y-6154580D02*
X25290476Y-6202200D01*
X25290476Y-6202200D02*
X25195238Y-6249819D01*
X25195238Y-6249819D02*
X24909524Y-6249819D01*
X24909524Y-6249819D02*
X24814286Y-6202200D01*
X24814286Y-6202200D02*
X24766667Y-6154580D01*
X23233333Y-2954819D02*
X22900000Y-2478628D01*
X22661905Y-2954819D02*
X22661905Y-1954819D01*
X22661905Y-1954819D02*
X23042857Y-1954819D01*
X23042857Y-1954819D02*
X23138095Y-2002438D01*
X23138095Y-2002438D02*
X23185714Y-2050057D01*
X23185714Y-2050057D02*
X23233333Y-2145295D01*
X23233333Y-2145295D02*
X23233333Y-2288152D01*
X23233333Y-2288152D02*
X23185714Y-2383390D01*
X23185714Y-2383390D02*
X23138095Y-2431009D01*
X23138095Y-2431009D02*
X23042857Y-2478628D01*
X23042857Y-2478628D02*
X22661905Y-2478628D01*
X23566667Y-1954819D02*
X24185714Y-1954819D01*
X24185714Y-1954819D02*
X23852381Y-2335771D01*
X23852381Y-2335771D02*
X23995238Y-2335771D01*
X23995238Y-2335771D02*
X24090476Y-2383390D01*
X24090476Y-2383390D02*
X24138095Y-2431009D01*
X24138095Y-2431009D02*
X24185714Y-2526247D01*
X24185714Y-2526247D02*
X24185714Y-2764342D01*
X24185714Y-2764342D02*
X24138095Y-2859580D01*
X24138095Y-2859580D02*
X24090476Y-2907200D01*
X24090476Y-2907200D02*
X23995238Y-2954819D01*
X23995238Y-2954819D02*
X23709524Y-2954819D01*
X23709524Y-2954819D02*
X23614286Y-2907200D01*
X23614286Y-2907200D02*
X23566667Y-2859580D01*
X17361905Y-6249819D02*
X17361905Y-5249819D01*
X17361905Y-5249819D02*
X17600000Y-5249819D01*
X17600000Y-5249819D02*
X17742857Y-5297438D01*
X17742857Y-5297438D02*
X17838095Y-5392676D01*
X17838095Y-5392676D02*
X17885714Y-5487914D01*
X17885714Y-5487914D02*
X17933333Y-5678390D01*
X17933333Y-5678390D02*
X17933333Y-5821247D01*
X17933333Y-5821247D02*
X17885714Y-6011723D01*
X17885714Y-6011723D02*
X17838095Y-6106961D01*
X17838095Y-6106961D02*
X17742857Y-6202200D01*
X17742857Y-6202200D02*
X17600000Y-6249819D01*
X17600000Y-6249819D02*
X17361905Y-6249819D01*
X18314286Y-5345057D02*
X18361905Y-5297438D01*
X18361905Y-5297438D02*
X18457143Y-5249819D01*
X18457143Y-5249819D02*
X18695238Y-5249819D01*
X18695238Y-5249819D02*
X18790476Y-5297438D01*
X18790476Y-5297438D02*
X18838095Y-5345057D01*
X18838095Y-5345057D02*
X18885714Y-5440295D01*
X18885714Y-5440295D02*
X18885714Y-5535533D01*
X18885714Y-5535533D02*
X18838095Y-5678390D01*
X18838095Y-5678390D02*
X18266667Y-6249819D01*
X18266667Y-6249819D02*
X18885714Y-6249819D01*
X10233333Y-2954819D02*
X9900000Y-2478628D01*
X9661905Y-2954819D02*
X9661905Y-1954819D01*
X9661905Y-1954819D02*
X10042857Y-1954819D01*
X10042857Y-1954819D02*
X10138095Y-2002438D01*
X10138095Y-2002438D02*
X10185714Y-2050057D01*
X10185714Y-2050057D02*
X10233333Y-2145295D01*
X10233333Y-2145295D02*
X10233333Y-2288152D01*
X10233333Y-2288152D02*
X10185714Y-2383390D01*
X10185714Y-2383390D02*
X10138095Y-2431009D01*
X10138095Y-2431009D02*
X10042857Y-2478628D01*
X10042857Y-2478628D02*
X9661905Y-2478628D01*
X11185714Y-2954819D02*
X10614286Y-2954819D01*
X10900000Y-2954819D02*
X10900000Y-1954819D01*
X10900000Y-1954819D02*
X10804762Y-2097676D01*
X10804762Y-2097676D02*
X10709524Y-2192914D01*
X10709524Y-2192914D02*
X10614286Y-2240533D01*
X36861905Y-6249819D02*
X36861905Y-5249819D01*
X36861905Y-5249819D02*
X37100000Y-5249819D01*
X37100000Y-5249819D02*
X37242857Y-5297438D01*
X37242857Y-5297438D02*
X37338095Y-5392676D01*
X37338095Y-5392676D02*
X37385714Y-5487914D01*
X37385714Y-5487914D02*
X37433333Y-5678390D01*
X37433333Y-5678390D02*
X37433333Y-5821247D01*
X37433333Y-5821247D02*
X37385714Y-6011723D01*
X37385714Y-6011723D02*
X37338095Y-6106961D01*
X37338095Y-6106961D02*
X37242857Y-6202200D01*
X37242857Y-6202200D02*
X37100000Y-6249819D01*
X37100000Y-6249819D02*
X36861905Y-6249819D01*
X38338095Y-5249819D02*
X37861905Y-5249819D01*
X37861905Y-5249819D02*
X37814286Y-5726009D01*
X37814286Y-5726009D02*
X37861905Y-5678390D01*
X37861905Y-5678390D02*
X37957143Y-5630771D01*
X37957143Y-5630771D02*
X38195238Y-5630771D01*
X38195238Y-5630771D02*
X38290476Y-5678390D01*
X38290476Y-5678390D02*
X38338095Y-5726009D01*
X38338095Y-5726009D02*
X38385714Y-5821247D01*
X38385714Y-5821247D02*
X38385714Y-6059342D01*
X38385714Y-6059342D02*
X38338095Y-6154580D01*
X38338095Y-6154580D02*
X38290476Y-6202200D01*
X38290476Y-6202200D02*
X38195238Y-6249819D01*
X38195238Y-6249819D02*
X37957143Y-6249819D01*
X37957143Y-6249819D02*
X37861905Y-6202200D01*
X37861905Y-6202200D02*
X37814286Y-6154580D01*
X10233333Y-83954819D02*
X9900000Y-83478628D01*
X9661905Y-83954819D02*
X9661905Y-82954819D01*
X9661905Y-82954819D02*
X10042857Y-82954819D01*
X10042857Y-82954819D02*
X10138095Y-83002438D01*
X10138095Y-83002438D02*
X10185714Y-83050057D01*
X10185714Y-83050057D02*
X10233333Y-83145295D01*
X10233333Y-83145295D02*
X10233333Y-83288152D01*
X10233333Y-83288152D02*
X10185714Y-83383390D01*
X10185714Y-83383390D02*
X10138095Y-83431009D01*
X10138095Y-83431009D02*
X10042857Y-83478628D01*
X10042857Y-83478628D02*
X9661905Y-83478628D01*
X11185714Y-83954819D02*
X10614286Y-83954819D01*
X10900000Y-83954819D02*
X10900000Y-82954819D01*
X10900000Y-82954819D02*
X10804762Y-83097676D01*
X10804762Y-83097676D02*
X10709524Y-83192914D01*
X10709524Y-83192914D02*
X10614286Y-83240533D01*
X17361905Y-33249819D02*
X17361905Y-32249819D01*
X17361905Y-32249819D02*
X17600000Y-32249819D01*
X17600000Y-32249819D02*
X17742857Y-32297438D01*
X17742857Y-32297438D02*
X17838095Y-32392676D01*
X17838095Y-32392676D02*
X17885714Y-32487914D01*
X17885714Y-32487914D02*
X17933333Y-32678390D01*
X17933333Y-32678390D02*
X17933333Y-32821247D01*
X17933333Y-32821247D02*
X17885714Y-33011723D01*
X17885714Y-33011723D02*
X17838095Y-33106961D01*
X17838095Y-33106961D02*
X17742857Y-33202200D01*
X17742857Y-33202200D02*
X17600000Y-33249819D01*
X17600000Y-33249819D02*
X17361905Y-33249819D01*
X18314286Y-32345057D02*
X18361905Y-32297438D01*
X18361905Y-32297438D02*
X18457143Y-32249819D01*
X18457143Y-32249819D02*
X18695238Y-32249819D01*
X18695238Y-32249819D02*
X18790476Y-32297438D01*
X18790476Y-32297438D02*
X18838095Y-32345057D01*
X18838095Y-32345057D02*
X18885714Y-32440295D01*
X18885714Y-32440295D02*
X18885714Y-32535533D01*
X18885714Y-32535533D02*
X18838095Y-32678390D01*
X18838095Y-32678390D02*
X18266667Y-33249819D01*
X18266667Y-33249819D02*
X18885714Y-33249819D01*
X10861905Y-73789819D02*
X10861905Y-72789819D01*
X10861905Y-72789819D02*
X11100000Y-72789819D01*
X11100000Y-72789819D02*
X11242857Y-72837438D01*
X11242857Y-72837438D02*
X11338095Y-72932676D01*
X11338095Y-72932676D02*
X11385714Y-73027914D01*
X11385714Y-73027914D02*
X11433333Y-73218390D01*
X11433333Y-73218390D02*
X11433333Y-73361247D01*
X11433333Y-73361247D02*
X11385714Y-73551723D01*
X11385714Y-73551723D02*
X11338095Y-73646961D01*
X11338095Y-73646961D02*
X11242857Y-73742200D01*
X11242857Y-73742200D02*
X11100000Y-73789819D01*
X11100000Y-73789819D02*
X10861905Y-73789819D01*
X12385714Y-73789819D02*
X11814286Y-73789819D01*
X12100000Y-73789819D02*
X12100000Y-72789819D01*
X12100000Y-72789819D02*
X12004762Y-72932676D01*
X12004762Y-72932676D02*
X11909524Y-73027914D01*
X11909524Y-73027914D02*
X11814286Y-73075533D01*
X43461905Y-87354819D02*
X43461905Y-86354819D01*
X43461905Y-86354819D02*
X43700000Y-86354819D01*
X43700000Y-86354819D02*
X43842857Y-86402438D01*
X43842857Y-86402438D02*
X43938095Y-86497676D01*
X43938095Y-86497676D02*
X43985714Y-86592914D01*
X43985714Y-86592914D02*
X44033333Y-86783390D01*
X44033333Y-86783390D02*
X44033333Y-86926247D01*
X44033333Y-86926247D02*
X43985714Y-87116723D01*
X43985714Y-87116723D02*
X43938095Y-87211961D01*
X43938095Y-87211961D02*
X43842857Y-87307200D01*
X43842857Y-87307200D02*
X43700000Y-87354819D01*
X43700000Y-87354819D02*
X43461905Y-87354819D01*
X44890476Y-86354819D02*
X44700000Y-86354819D01*
X44700000Y-86354819D02*
X44604762Y-86402438D01*
X44604762Y-86402438D02*
X44557143Y-86450057D01*
X44557143Y-86450057D02*
X44461905Y-86592914D01*
X44461905Y-86592914D02*
X44414286Y-86783390D01*
X44414286Y-86783390D02*
X44414286Y-87164342D01*
X44414286Y-87164342D02*
X44461905Y-87259580D01*
X44461905Y-87259580D02*
X44509524Y-87307200D01*
X44509524Y-87307200D02*
X44604762Y-87354819D01*
X44604762Y-87354819D02*
X44795238Y-87354819D01*
X44795238Y-87354819D02*
X44890476Y-87307200D01*
X44890476Y-87307200D02*
X44938095Y-87259580D01*
X44938095Y-87259580D02*
X44985714Y-87164342D01*
X44985714Y-87164342D02*
X44985714Y-86926247D01*
X44985714Y-86926247D02*
X44938095Y-86831009D01*
X44938095Y-86831009D02*
X44890476Y-86783390D01*
X44890476Y-86783390D02*
X44795238Y-86735771D01*
X44795238Y-86735771D02*
X44604762Y-86735771D01*
X44604762Y-86735771D02*
X44509524Y-86783390D01*
X44509524Y-86783390D02*
X44461905Y-86831009D01*
X44461905Y-86831009D02*
X44414286Y-86926247D01*
X16733333Y-2954819D02*
X16400000Y-2478628D01*
X16161905Y-2954819D02*
X16161905Y-1954819D01*
X16161905Y-1954819D02*
X16542857Y-1954819D01*
X16542857Y-1954819D02*
X16638095Y-2002438D01*
X16638095Y-2002438D02*
X16685714Y-2050057D01*
X16685714Y-2050057D02*
X16733333Y-2145295D01*
X16733333Y-2145295D02*
X16733333Y-2288152D01*
X16733333Y-2288152D02*
X16685714Y-2383390D01*
X16685714Y-2383390D02*
X16638095Y-2431009D01*
X16638095Y-2431009D02*
X16542857Y-2478628D01*
X16542857Y-2478628D02*
X16161905Y-2478628D01*
X17114286Y-2050057D02*
X17161905Y-2002438D01*
X17161905Y-2002438D02*
X17257143Y-1954819D01*
X17257143Y-1954819D02*
X17495238Y-1954819D01*
X17495238Y-1954819D02*
X17590476Y-2002438D01*
X17590476Y-2002438D02*
X17638095Y-2050057D01*
X17638095Y-2050057D02*
X17685714Y-2145295D01*
X17685714Y-2145295D02*
X17685714Y-2240533D01*
X17685714Y-2240533D02*
X17638095Y-2383390D01*
X17638095Y-2383390D02*
X17066667Y-2954819D01*
X17066667Y-2954819D02*
X17685714Y-2954819D01*
X36861905Y-87249819D02*
X36861905Y-86249819D01*
X36861905Y-86249819D02*
X37100000Y-86249819D01*
X37100000Y-86249819D02*
X37242857Y-86297438D01*
X37242857Y-86297438D02*
X37338095Y-86392676D01*
X37338095Y-86392676D02*
X37385714Y-86487914D01*
X37385714Y-86487914D02*
X37433333Y-86678390D01*
X37433333Y-86678390D02*
X37433333Y-86821247D01*
X37433333Y-86821247D02*
X37385714Y-87011723D01*
X37385714Y-87011723D02*
X37338095Y-87106961D01*
X37338095Y-87106961D02*
X37242857Y-87202200D01*
X37242857Y-87202200D02*
X37100000Y-87249819D01*
X37100000Y-87249819D02*
X36861905Y-87249819D01*
X38338095Y-86249819D02*
X37861905Y-86249819D01*
X37861905Y-86249819D02*
X37814286Y-86726009D01*
X37814286Y-86726009D02*
X37861905Y-86678390D01*
X37861905Y-86678390D02*
X37957143Y-86630771D01*
X37957143Y-86630771D02*
X38195238Y-86630771D01*
X38195238Y-86630771D02*
X38290476Y-86678390D01*
X38290476Y-86678390D02*
X38338095Y-86726009D01*
X38338095Y-86726009D02*
X38385714Y-86821247D01*
X38385714Y-86821247D02*
X38385714Y-87059342D01*
X38385714Y-87059342D02*
X38338095Y-87154580D01*
X38338095Y-87154580D02*
X38290476Y-87202200D01*
X38290476Y-87202200D02*
X38195238Y-87249819D01*
X38195238Y-87249819D02*
X37957143Y-87249819D01*
X37957143Y-87249819D02*
X37861905Y-87202200D01*
X37861905Y-87202200D02*
X37814286Y-87154580D01*
X10233333Y-70454819D02*
X9900000Y-69978628D01*
X9661905Y-70454819D02*
X9661905Y-69454819D01*
X9661905Y-69454819D02*
X10042857Y-69454819D01*
X10042857Y-69454819D02*
X10138095Y-69502438D01*
X10138095Y-69502438D02*
X10185714Y-69550057D01*
X10185714Y-69550057D02*
X10233333Y-69645295D01*
X10233333Y-69645295D02*
X10233333Y-69788152D01*
X10233333Y-69788152D02*
X10185714Y-69883390D01*
X10185714Y-69883390D02*
X10138095Y-69931009D01*
X10138095Y-69931009D02*
X10042857Y-69978628D01*
X10042857Y-69978628D02*
X9661905Y-69978628D01*
X11185714Y-70454819D02*
X10614286Y-70454819D01*
X10900000Y-70454819D02*
X10900000Y-69454819D01*
X10900000Y-69454819D02*
X10804762Y-69597676D01*
X10804762Y-69597676D02*
X10709524Y-69692914D01*
X10709524Y-69692914D02*
X10614286Y-69740533D01*
X16733333Y-70454819D02*
X16400000Y-69978628D01*
X16161905Y-70454819D02*
X16161905Y-69454819D01*
X16161905Y-69454819D02*
X16542857Y-69454819D01*
X16542857Y-69454819D02*
X16638095Y-69502438D01*
X16638095Y-69502438D02*
X16685714Y-69550057D01*
X16685714Y-69550057D02*
X16733333Y-69645295D01*
X16733333Y-69645295D02*
X16733333Y-69788152D01*
X16733333Y-69788152D02*
X16685714Y-69883390D01*
X16685714Y-69883390D02*
X16638095Y-69931009D01*
X16638095Y-69931009D02*
X16542857Y-69978628D01*
X16542857Y-69978628D02*
X16161905Y-69978628D01*
X17114286Y-69550057D02*
X17161905Y-69502438D01*
X17161905Y-69502438D02*
X17257143Y-69454819D01*
X17257143Y-69454819D02*
X17495238Y-69454819D01*
X17495238Y-69454819D02*
X17590476Y-69502438D01*
X17590476Y-69502438D02*
X17638095Y-69550057D01*
X17638095Y-69550057D02*
X17685714Y-69645295D01*
X17685714Y-69645295D02*
X17685714Y-69740533D01*
X17685714Y-69740533D02*
X17638095Y-69883390D01*
X17638095Y-69883390D02*
X17066667Y-70454819D01*
X17066667Y-70454819D02*
X17685714Y-70454819D01*
X10233333Y-43454819D02*
X9900000Y-42978628D01*
X9661905Y-43454819D02*
X9661905Y-42454819D01*
X9661905Y-42454819D02*
X10042857Y-42454819D01*
X10042857Y-42454819D02*
X10138095Y-42502438D01*
X10138095Y-42502438D02*
X10185714Y-42550057D01*
X10185714Y-42550057D02*
X10233333Y-42645295D01*
X10233333Y-42645295D02*
X10233333Y-42788152D01*
X10233333Y-42788152D02*
X10185714Y-42883390D01*
X10185714Y-42883390D02*
X10138095Y-42931009D01*
X10138095Y-42931009D02*
X10042857Y-42978628D01*
X10042857Y-42978628D02*
X9661905Y-42978628D01*
X11185714Y-43454819D02*
X10614286Y-43454819D01*
X10900000Y-43454819D02*
X10900000Y-42454819D01*
X10900000Y-42454819D02*
X10804762Y-42597676D01*
X10804762Y-42597676D02*
X10709524Y-42692914D01*
X10709524Y-42692914D02*
X10614286Y-42740533D01*
X17361905Y-73749819D02*
X17361905Y-72749819D01*
X17361905Y-72749819D02*
X17600000Y-72749819D01*
X17600000Y-72749819D02*
X17742857Y-72797438D01*
X17742857Y-72797438D02*
X17838095Y-72892676D01*
X17838095Y-72892676D02*
X17885714Y-72987914D01*
X17885714Y-72987914D02*
X17933333Y-73178390D01*
X17933333Y-73178390D02*
X17933333Y-73321247D01*
X17933333Y-73321247D02*
X17885714Y-73511723D01*
X17885714Y-73511723D02*
X17838095Y-73606961D01*
X17838095Y-73606961D02*
X17742857Y-73702200D01*
X17742857Y-73702200D02*
X17600000Y-73749819D01*
X17600000Y-73749819D02*
X17361905Y-73749819D01*
X18314286Y-72845057D02*
X18361905Y-72797438D01*
X18361905Y-72797438D02*
X18457143Y-72749819D01*
X18457143Y-72749819D02*
X18695238Y-72749819D01*
X18695238Y-72749819D02*
X18790476Y-72797438D01*
X18790476Y-72797438D02*
X18838095Y-72845057D01*
X18838095Y-72845057D02*
X18885714Y-72940295D01*
X18885714Y-72940295D02*
X18885714Y-73035533D01*
X18885714Y-73035533D02*
X18838095Y-73178390D01*
X18838095Y-73178390D02*
X18266667Y-73749819D01*
X18266667Y-73749819D02*
X18885714Y-73749819D01*
X16733333Y-83954819D02*
X16400000Y-83478628D01*
X16161905Y-83954819D02*
X16161905Y-82954819D01*
X16161905Y-82954819D02*
X16542857Y-82954819D01*
X16542857Y-82954819D02*
X16638095Y-83002438D01*
X16638095Y-83002438D02*
X16685714Y-83050057D01*
X16685714Y-83050057D02*
X16733333Y-83145295D01*
X16733333Y-83145295D02*
X16733333Y-83288152D01*
X16733333Y-83288152D02*
X16685714Y-83383390D01*
X16685714Y-83383390D02*
X16638095Y-83431009D01*
X16638095Y-83431009D02*
X16542857Y-83478628D01*
X16542857Y-83478628D02*
X16161905Y-83478628D01*
X17114286Y-83050057D02*
X17161905Y-83002438D01*
X17161905Y-83002438D02*
X17257143Y-82954819D01*
X17257143Y-82954819D02*
X17495238Y-82954819D01*
X17495238Y-82954819D02*
X17590476Y-83002438D01*
X17590476Y-83002438D02*
X17638095Y-83050057D01*
X17638095Y-83050057D02*
X17685714Y-83145295D01*
X17685714Y-83145295D02*
X17685714Y-83240533D01*
X17685714Y-83240533D02*
X17638095Y-83383390D01*
X17638095Y-83383390D02*
X17066667Y-83954819D01*
X17066667Y-83954819D02*
X17685714Y-83954819D01*
X36233333Y-2954819D02*
X35900000Y-2478628D01*
X35661905Y-2954819D02*
X35661905Y-1954819D01*
X35661905Y-1954819D02*
X36042857Y-1954819D01*
X36042857Y-1954819D02*
X36138095Y-2002438D01*
X36138095Y-2002438D02*
X36185714Y-2050057D01*
X36185714Y-2050057D02*
X36233333Y-2145295D01*
X36233333Y-2145295D02*
X36233333Y-2288152D01*
X36233333Y-2288152D02*
X36185714Y-2383390D01*
X36185714Y-2383390D02*
X36138095Y-2431009D01*
X36138095Y-2431009D02*
X36042857Y-2478628D01*
X36042857Y-2478628D02*
X35661905Y-2478628D01*
X37138095Y-1954819D02*
X36661905Y-1954819D01*
X36661905Y-1954819D02*
X36614286Y-2431009D01*
X36614286Y-2431009D02*
X36661905Y-2383390D01*
X36661905Y-2383390D02*
X36757143Y-2335771D01*
X36757143Y-2335771D02*
X36995238Y-2335771D01*
X36995238Y-2335771D02*
X37090476Y-2383390D01*
X37090476Y-2383390D02*
X37138095Y-2431009D01*
X37138095Y-2431009D02*
X37185714Y-2526247D01*
X37185714Y-2526247D02*
X37185714Y-2764342D01*
X37185714Y-2764342D02*
X37138095Y-2859580D01*
X37138095Y-2859580D02*
X37090476Y-2907200D01*
X37090476Y-2907200D02*
X36995238Y-2954819D01*
X36995238Y-2954819D02*
X36757143Y-2954819D01*
X36757143Y-2954819D02*
X36661905Y-2907200D01*
X36661905Y-2907200D02*
X36614286Y-2859580D01*
X10233333Y-56954819D02*
X9900000Y-56478628D01*
X9661905Y-56954819D02*
X9661905Y-55954819D01*
X9661905Y-55954819D02*
X10042857Y-55954819D01*
X10042857Y-55954819D02*
X10138095Y-56002438D01*
X10138095Y-56002438D02*
X10185714Y-56050057D01*
X10185714Y-56050057D02*
X10233333Y-56145295D01*
X10233333Y-56145295D02*
X10233333Y-56288152D01*
X10233333Y-56288152D02*
X10185714Y-56383390D01*
X10185714Y-56383390D02*
X10138095Y-56431009D01*
X10138095Y-56431009D02*
X10042857Y-56478628D01*
X10042857Y-56478628D02*
X9661905Y-56478628D01*
X11185714Y-56954819D02*
X10614286Y-56954819D01*
X10900000Y-56954819D02*
X10900000Y-55954819D01*
X10900000Y-55954819D02*
X10804762Y-56097676D01*
X10804762Y-56097676D02*
X10709524Y-56192914D01*
X10709524Y-56192914D02*
X10614286Y-56240533D01*
X10233333Y-16454819D02*
X9900000Y-15978628D01*
X9661905Y-16454819D02*
X9661905Y-15454819D01*
X9661905Y-15454819D02*
X10042857Y-15454819D01*
X10042857Y-15454819D02*
X10138095Y-15502438D01*
X10138095Y-15502438D02*
X10185714Y-15550057D01*
X10185714Y-15550057D02*
X10233333Y-15645295D01*
X10233333Y-15645295D02*
X10233333Y-15788152D01*
X10233333Y-15788152D02*
X10185714Y-15883390D01*
X10185714Y-15883390D02*
X10138095Y-15931009D01*
X10138095Y-15931009D02*
X10042857Y-15978628D01*
X10042857Y-15978628D02*
X9661905Y-15978628D01*
X11185714Y-16454819D02*
X10614286Y-16454819D01*
X10900000Y-16454819D02*
X10900000Y-15454819D01*
X10900000Y-15454819D02*
X10804762Y-15597676D01*
X10804762Y-15597676D02*
X10709524Y-15692914D01*
X10709524Y-15692914D02*
X10614286Y-15740533D01*
X42733333Y-2954819D02*
X42400000Y-2478628D01*
X42161905Y-2954819D02*
X42161905Y-1954819D01*
X42161905Y-1954819D02*
X42542857Y-1954819D01*
X42542857Y-1954819D02*
X42638095Y-2002438D01*
X42638095Y-2002438D02*
X42685714Y-2050057D01*
X42685714Y-2050057D02*
X42733333Y-2145295D01*
X42733333Y-2145295D02*
X42733333Y-2288152D01*
X42733333Y-2288152D02*
X42685714Y-2383390D01*
X42685714Y-2383390D02*
X42638095Y-2431009D01*
X42638095Y-2431009D02*
X42542857Y-2478628D01*
X42542857Y-2478628D02*
X42161905Y-2478628D01*
X43590476Y-1954819D02*
X43400000Y-1954819D01*
X43400000Y-1954819D02*
X43304762Y-2002438D01*
X43304762Y-2002438D02*
X43257143Y-2050057D01*
X43257143Y-2050057D02*
X43161905Y-2192914D01*
X43161905Y-2192914D02*
X43114286Y-2383390D01*
X43114286Y-2383390D02*
X43114286Y-2764342D01*
X43114286Y-2764342D02*
X43161905Y-2859580D01*
X43161905Y-2859580D02*
X43209524Y-2907200D01*
X43209524Y-2907200D02*
X43304762Y-2954819D01*
X43304762Y-2954819D02*
X43495238Y-2954819D01*
X43495238Y-2954819D02*
X43590476Y-2907200D01*
X43590476Y-2907200D02*
X43638095Y-2859580D01*
X43638095Y-2859580D02*
X43685714Y-2764342D01*
X43685714Y-2764342D02*
X43685714Y-2526247D01*
X43685714Y-2526247D02*
X43638095Y-2431009D01*
X43638095Y-2431009D02*
X43590476Y-2383390D01*
X43590476Y-2383390D02*
X43495238Y-2335771D01*
X43495238Y-2335771D02*
X43304762Y-2335771D01*
X43304762Y-2335771D02*
X43209524Y-2383390D01*
X43209524Y-2383390D02*
X43161905Y-2431009D01*
X43161905Y-2431009D02*
X43114286Y-2526247D01*
X23861905Y-87249819D02*
X23861905Y-86249819D01*
X23861905Y-86249819D02*
X24100000Y-86249819D01*
X24100000Y-86249819D02*
X24242857Y-86297438D01*
X24242857Y-86297438D02*
X24338095Y-86392676D01*
X24338095Y-86392676D02*
X24385714Y-86487914D01*
X24385714Y-86487914D02*
X24433333Y-86678390D01*
X24433333Y-86678390D02*
X24433333Y-86821247D01*
X24433333Y-86821247D02*
X24385714Y-87011723D01*
X24385714Y-87011723D02*
X24338095Y-87106961D01*
X24338095Y-87106961D02*
X24242857Y-87202200D01*
X24242857Y-87202200D02*
X24100000Y-87249819D01*
X24100000Y-87249819D02*
X23861905Y-87249819D01*
X24766667Y-86249819D02*
X25385714Y-86249819D01*
X25385714Y-86249819D02*
X25052381Y-86630771D01*
X25052381Y-86630771D02*
X25195238Y-86630771D01*
X25195238Y-86630771D02*
X25290476Y-86678390D01*
X25290476Y-86678390D02*
X25338095Y-86726009D01*
X25338095Y-86726009D02*
X25385714Y-86821247D01*
X25385714Y-86821247D02*
X25385714Y-87059342D01*
X25385714Y-87059342D02*
X25338095Y-87154580D01*
X25338095Y-87154580D02*
X25290476Y-87202200D01*
X25290476Y-87202200D02*
X25195238Y-87249819D01*
X25195238Y-87249819D02*
X24909524Y-87249819D01*
X24909524Y-87249819D02*
X24814286Y-87202200D01*
X24814286Y-87202200D02*
X24766667Y-87154580D01*
X10861905Y-6289819D02*
X10861905Y-5289819D01*
X10861905Y-5289819D02*
X11100000Y-5289819D01*
X11100000Y-5289819D02*
X11242857Y-5337438D01*
X11242857Y-5337438D02*
X11338095Y-5432676D01*
X11338095Y-5432676D02*
X11385714Y-5527914D01*
X11385714Y-5527914D02*
X11433333Y-5718390D01*
X11433333Y-5718390D02*
X11433333Y-5861247D01*
X11433333Y-5861247D02*
X11385714Y-6051723D01*
X11385714Y-6051723D02*
X11338095Y-6146961D01*
X11338095Y-6146961D02*
X11242857Y-6242200D01*
X11242857Y-6242200D02*
X11100000Y-6289819D01*
X11100000Y-6289819D02*
X10861905Y-6289819D01*
X12385714Y-6289819D02*
X11814286Y-6289819D01*
X12100000Y-6289819D02*
X12100000Y-5289819D01*
X12100000Y-5289819D02*
X12004762Y-5432676D01*
X12004762Y-5432676D02*
X11909524Y-5527914D01*
X11909524Y-5527914D02*
X11814286Y-5575533D01*
X10233333Y-29954819D02*
X9900000Y-29478628D01*
X9661905Y-29954819D02*
X9661905Y-28954819D01*
X9661905Y-28954819D02*
X10042857Y-28954819D01*
X10042857Y-28954819D02*
X10138095Y-29002438D01*
X10138095Y-29002438D02*
X10185714Y-29050057D01*
X10185714Y-29050057D02*
X10233333Y-29145295D01*
X10233333Y-29145295D02*
X10233333Y-29288152D01*
X10233333Y-29288152D02*
X10185714Y-29383390D01*
X10185714Y-29383390D02*
X10138095Y-29431009D01*
X10138095Y-29431009D02*
X10042857Y-29478628D01*
X10042857Y-29478628D02*
X9661905Y-29478628D01*
X11185714Y-29954819D02*
X10614286Y-29954819D01*
X10900000Y-29954819D02*
X10900000Y-28954819D01*
X10900000Y-28954819D02*
X10804762Y-29097676D01*
X10804762Y-29097676D02*
X10709524Y-29192914D01*
X10709524Y-29192914D02*
X10614286Y-29240533D01*
X16733333Y-43454819D02*
X16400000Y-42978628D01*
X16161905Y-43454819D02*
X16161905Y-42454819D01*
X16161905Y-42454819D02*
X16542857Y-42454819D01*
X16542857Y-42454819D02*
X16638095Y-42502438D01*
X16638095Y-42502438D02*
X16685714Y-42550057D01*
X16685714Y-42550057D02*
X16733333Y-42645295D01*
X16733333Y-42645295D02*
X16733333Y-42788152D01*
X16733333Y-42788152D02*
X16685714Y-42883390D01*
X16685714Y-42883390D02*
X16638095Y-42931009D01*
X16638095Y-42931009D02*
X16542857Y-42978628D01*
X16542857Y-42978628D02*
X16161905Y-42978628D01*
X17114286Y-42550057D02*
X17161905Y-42502438D01*
X17161905Y-42502438D02*
X17257143Y-42454819D01*
X17257143Y-42454819D02*
X17495238Y-42454819D01*
X17495238Y-42454819D02*
X17590476Y-42502438D01*
X17590476Y-42502438D02*
X17638095Y-42550057D01*
X17638095Y-42550057D02*
X17685714Y-42645295D01*
X17685714Y-42645295D02*
X17685714Y-42740533D01*
X17685714Y-42740533D02*
X17638095Y-42883390D01*
X17638095Y-42883390D02*
X17066667Y-43454819D01*
X17066667Y-43454819D02*
X17685714Y-43454819D01*
X29633333Y-2954819D02*
X29300000Y-2478628D01*
X29061905Y-2954819D02*
X29061905Y-1954819D01*
X29061905Y-1954819D02*
X29442857Y-1954819D01*
X29442857Y-1954819D02*
X29538095Y-2002438D01*
X29538095Y-2002438D02*
X29585714Y-2050057D01*
X29585714Y-2050057D02*
X29633333Y-2145295D01*
X29633333Y-2145295D02*
X29633333Y-2288152D01*
X29633333Y-2288152D02*
X29585714Y-2383390D01*
X29585714Y-2383390D02*
X29538095Y-2431009D01*
X29538095Y-2431009D02*
X29442857Y-2478628D01*
X29442857Y-2478628D02*
X29061905Y-2478628D01*
X30490476Y-2288152D02*
X30490476Y-2954819D01*
X30252381Y-1907200D02*
X30014286Y-2621485D01*
X30014286Y-2621485D02*
X30633333Y-2621485D01*
X16733333Y-56954819D02*
X16400000Y-56478628D01*
X16161905Y-56954819D02*
X16161905Y-55954819D01*
X16161905Y-55954819D02*
X16542857Y-55954819D01*
X16542857Y-55954819D02*
X16638095Y-56002438D01*
X16638095Y-56002438D02*
X16685714Y-56050057D01*
X16685714Y-56050057D02*
X16733333Y-56145295D01*
X16733333Y-56145295D02*
X16733333Y-56288152D01*
X16733333Y-56288152D02*
X16685714Y-56383390D01*
X16685714Y-56383390D02*
X16638095Y-56431009D01*
X16638095Y-56431009D02*
X16542857Y-56478628D01*
X16542857Y-56478628D02*
X16161905Y-56478628D01*
X17114286Y-56050057D02*
X17161905Y-56002438D01*
X17161905Y-56002438D02*
X17257143Y-55954819D01*
X17257143Y-55954819D02*
X17495238Y-55954819D01*
X17495238Y-55954819D02*
X17590476Y-56002438D01*
X17590476Y-56002438D02*
X17638095Y-56050057D01*
X17638095Y-56050057D02*
X17685714Y-56145295D01*
X17685714Y-56145295D02*
X17685714Y-56240533D01*
X17685714Y-56240533D02*
X17638095Y-56383390D01*
X17638095Y-56383390D02*
X17066667Y-56954819D01*
X17066667Y-56954819D02*
X17685714Y-56954819D01*
X43461905Y-6354819D02*
X43461905Y-5354819D01*
X43461905Y-5354819D02*
X43700000Y-5354819D01*
X43700000Y-5354819D02*
X43842857Y-5402438D01*
X43842857Y-5402438D02*
X43938095Y-5497676D01*
X43938095Y-5497676D02*
X43985714Y-5592914D01*
X43985714Y-5592914D02*
X44033333Y-5783390D01*
X44033333Y-5783390D02*
X44033333Y-5926247D01*
X44033333Y-5926247D02*
X43985714Y-6116723D01*
X43985714Y-6116723D02*
X43938095Y-6211961D01*
X43938095Y-6211961D02*
X43842857Y-6307200D01*
X43842857Y-6307200D02*
X43700000Y-6354819D01*
X43700000Y-6354819D02*
X43461905Y-6354819D01*
X44890476Y-5354819D02*
X44700000Y-5354819D01*
X44700000Y-5354819D02*
X44604762Y-5402438D01*
X44604762Y-5402438D02*
X44557143Y-5450057D01*
X44557143Y-5450057D02*
X44461905Y-5592914D01*
X44461905Y-5592914D02*
X44414286Y-5783390D01*
X44414286Y-5783390D02*
X44414286Y-6164342D01*
X44414286Y-6164342D02*
X44461905Y-6259580D01*
X44461905Y-6259580D02*
X44509524Y-6307200D01*
X44509524Y-6307200D02*
X44604762Y-6354819D01*
X44604762Y-6354819D02*
X44795238Y-6354819D01*
X44795238Y-6354819D02*
X44890476Y-6307200D01*
X44890476Y-6307200D02*
X44938095Y-6259580D01*
X44938095Y-6259580D02*
X44985714Y-6164342D01*
X44985714Y-6164342D02*
X44985714Y-5926247D01*
X44985714Y-5926247D02*
X44938095Y-5831009D01*
X44938095Y-5831009D02*
X44890476Y-5783390D01*
X44890476Y-5783390D02*
X44795238Y-5735771D01*
X44795238Y-5735771D02*
X44604762Y-5735771D01*
X44604762Y-5735771D02*
X44509524Y-5783390D01*
X44509524Y-5783390D02*
X44461905Y-5831009D01*
X44461905Y-5831009D02*
X44414286Y-5926247D01*
X17361905Y-46749819D02*
X17361905Y-45749819D01*
X17361905Y-45749819D02*
X17600000Y-45749819D01*
X17600000Y-45749819D02*
X17742857Y-45797438D01*
X17742857Y-45797438D02*
X17838095Y-45892676D01*
X17838095Y-45892676D02*
X17885714Y-45987914D01*
X17885714Y-45987914D02*
X17933333Y-46178390D01*
X17933333Y-46178390D02*
X17933333Y-46321247D01*
X17933333Y-46321247D02*
X17885714Y-46511723D01*
X17885714Y-46511723D02*
X17838095Y-46606961D01*
X17838095Y-46606961D02*
X17742857Y-46702200D01*
X17742857Y-46702200D02*
X17600000Y-46749819D01*
X17600000Y-46749819D02*
X17361905Y-46749819D01*
X18314286Y-45845057D02*
X18361905Y-45797438D01*
X18361905Y-45797438D02*
X18457143Y-45749819D01*
X18457143Y-45749819D02*
X18695238Y-45749819D01*
X18695238Y-45749819D02*
X18790476Y-45797438D01*
X18790476Y-45797438D02*
X18838095Y-45845057D01*
X18838095Y-45845057D02*
X18885714Y-45940295D01*
X18885714Y-45940295D02*
X18885714Y-46035533D01*
X18885714Y-46035533D02*
X18838095Y-46178390D01*
X18838095Y-46178390D02*
X18266667Y-46749819D01*
X18266667Y-46749819D02*
X18885714Y-46749819D01*
X16733333Y-29954819D02*
X16400000Y-29478628D01*
X16161905Y-29954819D02*
X16161905Y-28954819D01*
X16161905Y-28954819D02*
X16542857Y-28954819D01*
X16542857Y-28954819D02*
X16638095Y-29002438D01*
X16638095Y-29002438D02*
X16685714Y-29050057D01*
X16685714Y-29050057D02*
X16733333Y-29145295D01*
X16733333Y-29145295D02*
X16733333Y-29288152D01*
X16733333Y-29288152D02*
X16685714Y-29383390D01*
X16685714Y-29383390D02*
X16638095Y-29431009D01*
X16638095Y-29431009D02*
X16542857Y-29478628D01*
X16542857Y-29478628D02*
X16161905Y-29478628D01*
X17114286Y-29050057D02*
X17161905Y-29002438D01*
X17161905Y-29002438D02*
X17257143Y-28954819D01*
X17257143Y-28954819D02*
X17495238Y-28954819D01*
X17495238Y-28954819D02*
X17590476Y-29002438D01*
X17590476Y-29002438D02*
X17638095Y-29050057D01*
X17638095Y-29050057D02*
X17685714Y-29145295D01*
X17685714Y-29145295D02*
X17685714Y-29240533D01*
X17685714Y-29240533D02*
X17638095Y-29383390D01*
X17638095Y-29383390D02*
X17066667Y-29954819D01*
X17066667Y-29954819D02*
X17685714Y-29954819D01*
X17361905Y-60249819D02*
X17361905Y-59249819D01*
X17361905Y-59249819D02*
X17600000Y-59249819D01*
X17600000Y-59249819D02*
X17742857Y-59297438D01*
X17742857Y-59297438D02*
X17838095Y-59392676D01*
X17838095Y-59392676D02*
X17885714Y-59487914D01*
X17885714Y-59487914D02*
X17933333Y-59678390D01*
X17933333Y-59678390D02*
X17933333Y-59821247D01*
X17933333Y-59821247D02*
X17885714Y-60011723D01*
X17885714Y-60011723D02*
X17838095Y-60106961D01*
X17838095Y-60106961D02*
X17742857Y-60202200D01*
X17742857Y-60202200D02*
X17600000Y-60249819D01*
X17600000Y-60249819D02*
X17361905Y-60249819D01*
X18314286Y-59345057D02*
X18361905Y-59297438D01*
X18361905Y-59297438D02*
X18457143Y-59249819D01*
X18457143Y-59249819D02*
X18695238Y-59249819D01*
X18695238Y-59249819D02*
X18790476Y-59297438D01*
X18790476Y-59297438D02*
X18838095Y-59345057D01*
X18838095Y-59345057D02*
X18885714Y-59440295D01*
X18885714Y-59440295D02*
X18885714Y-59535533D01*
X18885714Y-59535533D02*
X18838095Y-59678390D01*
X18838095Y-59678390D02*
X18266667Y-60249819D01*
X18266667Y-60249819D02*
X18885714Y-60249819D01*
D12*
%TO.C,R5*%
X35225000Y-44500000D02*
G75*
G02*
X32485000Y-44500000I-1370000J0D01*
G01*
X32485000Y-44500000D02*
G75*
G02*
X35225000Y-44500000I1370000J0D01*
G01*
X35225000Y-44500000D02*
X35295000Y-44500000D01*
%TO.C,R3*%
X22225000Y-58000000D02*
G75*
G02*
X19485000Y-58000000I-1370000J0D01*
G01*
X19485000Y-58000000D02*
G75*
G02*
X22225000Y-58000000I1370000J0D01*
G01*
X22225000Y-58000000D02*
X22295000Y-58000000D01*
%TO.C,D5*%
X37400000Y-76265000D02*
G75*
G02*
X32400000Y-76265000I-2500000J0D01*
G01*
X32400000Y-76265000D02*
G75*
G02*
X37400000Y-76265000I2500000J0D01*
G01*
X34900048Y-73275000D02*
G75*
G02*
X36444830Y-78825000I-48J-2990000D01*
G01*
X33355170Y-78825000D02*
G75*
G02*
X34899952Y-73275000I1544830J2560000D01*
G01*
X33355000Y-78825000D02*
X36445000Y-78825000D01*
%TO.C,D3*%
X24400000Y-62765000D02*
G75*
G02*
X19400000Y-62765000I-2500000J0D01*
G01*
X19400000Y-62765000D02*
G75*
G02*
X24400000Y-62765000I2500000J0D01*
G01*
X21900048Y-59775000D02*
G75*
G02*
X23444830Y-65325000I-48J-2990000D01*
G01*
X20355170Y-65325000D02*
G75*
G02*
X21899952Y-59775000I1544830J2560000D01*
G01*
X20355000Y-65325000D02*
X23445000Y-65325000D01*
%TO.C,R5*%
X35225000Y-71500000D02*
G75*
G02*
X32485000Y-71500000I-1370000J0D01*
G01*
X32485000Y-71500000D02*
G75*
G02*
X35225000Y-71500000I1370000J0D01*
G01*
X35225000Y-71500000D02*
X35295000Y-71500000D01*
%TO.C,D3*%
X24400000Y-49265000D02*
G75*
G02*
X19400000Y-49265000I-2500000J0D01*
G01*
X19400000Y-49265000D02*
G75*
G02*
X24400000Y-49265000I2500000J0D01*
G01*
X21900048Y-46275000D02*
G75*
G02*
X23444830Y-51825000I-48J-2990000D01*
G01*
X20355170Y-51825000D02*
G75*
G02*
X21899952Y-46275000I1544830J2560000D01*
G01*
X20355000Y-51825000D02*
X23445000Y-51825000D01*
%TO.C,R4*%
X28725000Y-58000000D02*
G75*
G02*
X25985000Y-58000000I-1370000J0D01*
G01*
X25985000Y-58000000D02*
G75*
G02*
X28725000Y-58000000I1370000J0D01*
G01*
X28725000Y-58000000D02*
X28795000Y-58000000D01*
%TO.C,R3*%
X22225000Y-85000000D02*
G75*
G02*
X19485000Y-85000000I-1370000J0D01*
G01*
X19485000Y-85000000D02*
G75*
G02*
X22225000Y-85000000I1370000J0D01*
G01*
X22225000Y-85000000D02*
X22295000Y-85000000D01*
%TO.C,D5*%
X37400000Y-35765000D02*
G75*
G02*
X32400000Y-35765000I-2500000J0D01*
G01*
X32400000Y-35765000D02*
G75*
G02*
X37400000Y-35765000I2500000J0D01*
G01*
X34900048Y-32775000D02*
G75*
G02*
X36444830Y-38325000I-48J-2990000D01*
G01*
X33355170Y-38325000D02*
G75*
G02*
X34899952Y-32775000I1544830J2560000D01*
G01*
X33355000Y-38325000D02*
X36445000Y-38325000D01*
%TO.C,R6*%
X41725000Y-58000000D02*
G75*
G02*
X38985000Y-58000000I-1370000J0D01*
G01*
X38985000Y-58000000D02*
G75*
G02*
X41725000Y-58000000I1370000J0D01*
G01*
X41725000Y-58000000D02*
X41795000Y-58000000D01*
X41725000Y-85000000D02*
G75*
G02*
X38985000Y-85000000I-1370000J0D01*
G01*
X38985000Y-85000000D02*
G75*
G02*
X41725000Y-85000000I1370000J0D01*
G01*
X41725000Y-85000000D02*
X41795000Y-85000000D01*
%TO.C,R4*%
X28725000Y-17500000D02*
G75*
G02*
X25985000Y-17500000I-1370000J0D01*
G01*
X25985000Y-17500000D02*
G75*
G02*
X28725000Y-17500000I1370000J0D01*
G01*
X28725000Y-17500000D02*
X28795000Y-17500000D01*
%TO.C,R6*%
X41725000Y-44500000D02*
G75*
G02*
X38985000Y-44500000I-1370000J0D01*
G01*
X38985000Y-44500000D02*
G75*
G02*
X41725000Y-44500000I1370000J0D01*
G01*
X41725000Y-44500000D02*
X41795000Y-44500000D01*
%TO.C,D6*%
X43900000Y-62765000D02*
G75*
G02*
X38900000Y-62765000I-2500000J0D01*
G01*
X38900000Y-62765000D02*
G75*
G02*
X43900000Y-62765000I2500000J0D01*
G01*
X41400048Y-59775000D02*
G75*
G02*
X42944830Y-65325000I-48J-2990000D01*
G01*
X39855170Y-65325000D02*
G75*
G02*
X41399952Y-59775000I1544830J2560000D01*
G01*
X39855000Y-65325000D02*
X42945000Y-65325000D01*
%TO.C,R6*%
X41725000Y-17500000D02*
G75*
G02*
X38985000Y-17500000I-1370000J0D01*
G01*
X38985000Y-17500000D02*
G75*
G02*
X41725000Y-17500000I1370000J0D01*
G01*
X41725000Y-17500000D02*
X41795000Y-17500000D01*
%TO.C,D6*%
X43900000Y-35765000D02*
G75*
G02*
X38900000Y-35765000I-2500000J0D01*
G01*
X38900000Y-35765000D02*
G75*
G02*
X43900000Y-35765000I2500000J0D01*
G01*
X41400048Y-32775000D02*
G75*
G02*
X42944830Y-38325000I-48J-2990000D01*
G01*
X39855170Y-38325000D02*
G75*
G02*
X41399952Y-32775000I1544830J2560000D01*
G01*
X39855000Y-38325000D02*
X42945000Y-38325000D01*
X43900000Y-49265000D02*
G75*
G02*
X38900000Y-49265000I-2500000J0D01*
G01*
X38900000Y-49265000D02*
G75*
G02*
X43900000Y-49265000I2500000J0D01*
G01*
X41400048Y-46275000D02*
G75*
G02*
X42944830Y-51825000I-48J-2990000D01*
G01*
X39855170Y-51825000D02*
G75*
G02*
X41399952Y-46275000I1544830J2560000D01*
G01*
X39855000Y-51825000D02*
X42945000Y-51825000D01*
%TO.C,D4*%
X30900000Y-76265000D02*
G75*
G02*
X25900000Y-76265000I-2500000J0D01*
G01*
X25900000Y-76265000D02*
G75*
G02*
X30900000Y-76265000I2500000J0D01*
G01*
X28400048Y-73275000D02*
G75*
G02*
X29944830Y-78825000I-48J-2990000D01*
G01*
X26855170Y-78825000D02*
G75*
G02*
X28399952Y-73275000I1544830J2560000D01*
G01*
X26855000Y-78825000D02*
X29945000Y-78825000D01*
%TO.C,R5*%
X35225000Y-17500000D02*
G75*
G02*
X32485000Y-17500000I-1370000J0D01*
G01*
X32485000Y-17500000D02*
G75*
G02*
X35225000Y-17500000I1370000J0D01*
G01*
X35225000Y-17500000D02*
X35295000Y-17500000D01*
%TO.C,D5*%
X37400000Y-22265000D02*
G75*
G02*
X32400000Y-22265000I-2500000J0D01*
G01*
X32400000Y-22265000D02*
G75*
G02*
X37400000Y-22265000I2500000J0D01*
G01*
X34900048Y-19275000D02*
G75*
G02*
X36444830Y-24825000I-48J-2990000D01*
G01*
X33355170Y-24825000D02*
G75*
G02*
X34899952Y-19275000I1544830J2560000D01*
G01*
X33355000Y-24825000D02*
X36445000Y-24825000D01*
%TO.C,D3*%
X24400000Y-22265000D02*
G75*
G02*
X19400000Y-22265000I-2500000J0D01*
G01*
X19400000Y-22265000D02*
G75*
G02*
X24400000Y-22265000I2500000J0D01*
G01*
X21900048Y-19275000D02*
G75*
G02*
X23444830Y-24825000I-48J-2990000D01*
G01*
X20355170Y-24825000D02*
G75*
G02*
X21899952Y-19275000I1544830J2560000D01*
G01*
X20355000Y-24825000D02*
X23445000Y-24825000D01*
%TO.C,R4*%
X28725000Y-71500000D02*
G75*
G02*
X25985000Y-71500000I-1370000J0D01*
G01*
X25985000Y-71500000D02*
G75*
G02*
X28725000Y-71500000I1370000J0D01*
G01*
X28725000Y-71500000D02*
X28795000Y-71500000D01*
%TO.C,R3*%
X22225000Y-31000000D02*
G75*
G02*
X19485000Y-31000000I-1370000J0D01*
G01*
X19485000Y-31000000D02*
G75*
G02*
X22225000Y-31000000I1370000J0D01*
G01*
X22225000Y-31000000D02*
X22295000Y-31000000D01*
%TO.C,D3*%
X24400000Y-35765000D02*
G75*
G02*
X19400000Y-35765000I-2500000J0D01*
G01*
X19400000Y-35765000D02*
G75*
G02*
X24400000Y-35765000I2500000J0D01*
G01*
X21900048Y-32775000D02*
G75*
G02*
X23444830Y-38325000I-48J-2990000D01*
G01*
X20355170Y-38325000D02*
G75*
G02*
X21899952Y-32775000I1544830J2560000D01*
G01*
X20355000Y-38325000D02*
X23445000Y-38325000D01*
%TO.C,D5*%
X37400000Y-62765000D02*
G75*
G02*
X32400000Y-62765000I-2500000J0D01*
G01*
X32400000Y-62765000D02*
G75*
G02*
X37400000Y-62765000I2500000J0D01*
G01*
X34900048Y-59775000D02*
G75*
G02*
X36444830Y-65325000I-48J-2990000D01*
G01*
X33355170Y-65325000D02*
G75*
G02*
X34899952Y-59775000I1544830J2560000D01*
G01*
X33355000Y-65325000D02*
X36445000Y-65325000D01*
%TO.C,R5*%
X35225000Y-31000000D02*
G75*
G02*
X32485000Y-31000000I-1370000J0D01*
G01*
X32485000Y-31000000D02*
G75*
G02*
X35225000Y-31000000I1370000J0D01*
G01*
X35225000Y-31000000D02*
X35295000Y-31000000D01*
%TO.C,R4*%
X28725000Y-31000000D02*
G75*
G02*
X25985000Y-31000000I-1370000J0D01*
G01*
X25985000Y-31000000D02*
G75*
G02*
X28725000Y-31000000I1370000J0D01*
G01*
X28725000Y-31000000D02*
X28795000Y-31000000D01*
X28725000Y-44500000D02*
G75*
G02*
X25985000Y-44500000I-1370000J0D01*
G01*
X25985000Y-44500000D02*
G75*
G02*
X28725000Y-44500000I1370000J0D01*
G01*
X28725000Y-44500000D02*
X28795000Y-44500000D01*
%TO.C,D5*%
X37400000Y-49265000D02*
G75*
G02*
X32400000Y-49265000I-2500000J0D01*
G01*
X32400000Y-49265000D02*
G75*
G02*
X37400000Y-49265000I2500000J0D01*
G01*
X34900048Y-46275000D02*
G75*
G02*
X36444830Y-51825000I-48J-2990000D01*
G01*
X33355170Y-51825000D02*
G75*
G02*
X34899952Y-46275000I1544830J2560000D01*
G01*
X33355000Y-51825000D02*
X36445000Y-51825000D01*
%TO.C,R5*%
X35225000Y-85000000D02*
G75*
G02*
X32485000Y-85000000I-1370000J0D01*
G01*
X32485000Y-85000000D02*
G75*
G02*
X35225000Y-85000000I1370000J0D01*
G01*
X35225000Y-85000000D02*
X35295000Y-85000000D01*
%TO.C,D6*%
X43900000Y-76265000D02*
G75*
G02*
X38900000Y-76265000I-2500000J0D01*
G01*
X38900000Y-76265000D02*
G75*
G02*
X43900000Y-76265000I2500000J0D01*
G01*
X41400048Y-73275000D02*
G75*
G02*
X42944830Y-78825000I-48J-2990000D01*
G01*
X39855170Y-78825000D02*
G75*
G02*
X41399952Y-73275000I1544830J2560000D01*
G01*
X39855000Y-78825000D02*
X42945000Y-78825000D01*
%TO.C,D4*%
X30900000Y-62765000D02*
G75*
G02*
X25900000Y-62765000I-2500000J0D01*
G01*
X25900000Y-62765000D02*
G75*
G02*
X30900000Y-62765000I2500000J0D01*
G01*
X28400048Y-59775000D02*
G75*
G02*
X29944830Y-65325000I-48J-2990000D01*
G01*
X26855170Y-65325000D02*
G75*
G02*
X28399952Y-59775000I1544830J2560000D01*
G01*
X26855000Y-65325000D02*
X29945000Y-65325000D01*
%TO.C,R3*%
X22225000Y-44500000D02*
G75*
G02*
X19485000Y-44500000I-1370000J0D01*
G01*
X19485000Y-44500000D02*
G75*
G02*
X22225000Y-44500000I1370000J0D01*
G01*
X22225000Y-44500000D02*
X22295000Y-44500000D01*
%TO.C,R4*%
X28725000Y-85000000D02*
G75*
G02*
X25985000Y-85000000I-1370000J0D01*
G01*
X25985000Y-85000000D02*
G75*
G02*
X28725000Y-85000000I1370000J0D01*
G01*
X28725000Y-85000000D02*
X28795000Y-85000000D01*
%TO.C,R5*%
X35225000Y-58000000D02*
G75*
G02*
X32485000Y-58000000I-1370000J0D01*
G01*
X32485000Y-58000000D02*
G75*
G02*
X35225000Y-58000000I1370000J0D01*
G01*
X35225000Y-58000000D02*
X35295000Y-58000000D01*
%TO.C,D3*%
X24400000Y-76265000D02*
G75*
G02*
X19400000Y-76265000I-2500000J0D01*
G01*
X19400000Y-76265000D02*
G75*
G02*
X24400000Y-76265000I2500000J0D01*
G01*
X21900048Y-73275000D02*
G75*
G02*
X23444830Y-78825000I-48J-2990000D01*
G01*
X20355170Y-78825000D02*
G75*
G02*
X21899952Y-73275000I1544830J2560000D01*
G01*
X20355000Y-78825000D02*
X23445000Y-78825000D01*
%TO.C,R3*%
X22225000Y-71500000D02*
G75*
G02*
X19485000Y-71500000I-1370000J0D01*
G01*
X19485000Y-71500000D02*
G75*
G02*
X22225000Y-71500000I1370000J0D01*
G01*
X22225000Y-71500000D02*
X22295000Y-71500000D01*
%TO.C,R6*%
X41725000Y-31000000D02*
G75*
G02*
X38985000Y-31000000I-1370000J0D01*
G01*
X38985000Y-31000000D02*
G75*
G02*
X41725000Y-31000000I1370000J0D01*
G01*
X41725000Y-31000000D02*
X41795000Y-31000000D01*
%TO.C,D4*%
X30900000Y-22265000D02*
G75*
G02*
X25900000Y-22265000I-2500000J0D01*
G01*
X25900000Y-22265000D02*
G75*
G02*
X30900000Y-22265000I2500000J0D01*
G01*
X28400048Y-19275000D02*
G75*
G02*
X29944830Y-24825000I-48J-2990000D01*
G01*
X26855170Y-24825000D02*
G75*
G02*
X28399952Y-19275000I1544830J2560000D01*
G01*
X26855000Y-24825000D02*
X29945000Y-24825000D01*
X30900000Y-49265000D02*
G75*
G02*
X25900000Y-49265000I-2500000J0D01*
G01*
X25900000Y-49265000D02*
G75*
G02*
X30900000Y-49265000I2500000J0D01*
G01*
X28400048Y-46275000D02*
G75*
G02*
X29944830Y-51825000I-48J-2990000D01*
G01*
X26855170Y-51825000D02*
G75*
G02*
X28399952Y-46275000I1544830J2560000D01*
G01*
X26855000Y-51825000D02*
X29945000Y-51825000D01*
%TO.C,R6*%
X41725000Y-71500000D02*
G75*
G02*
X38985000Y-71500000I-1370000J0D01*
G01*
X38985000Y-71500000D02*
G75*
G02*
X41725000Y-71500000I1370000J0D01*
G01*
X41725000Y-71500000D02*
X41795000Y-71500000D01*
%TO.C,D4*%
X30900000Y-35765000D02*
G75*
G02*
X25900000Y-35765000I-2500000J0D01*
G01*
X25900000Y-35765000D02*
G75*
G02*
X30900000Y-35765000I2500000J0D01*
G01*
X28400048Y-32775000D02*
G75*
G02*
X29944830Y-38325000I-48J-2990000D01*
G01*
X26855170Y-38325000D02*
G75*
G02*
X28399952Y-32775000I1544830J2560000D01*
G01*
X26855000Y-38325000D02*
X29945000Y-38325000D01*
%TO.C,R3*%
X22225000Y-17500000D02*
G75*
G02*
X19485000Y-17500000I-1370000J0D01*
G01*
X19485000Y-17500000D02*
G75*
G02*
X22225000Y-17500000I1370000J0D01*
G01*
X22225000Y-17500000D02*
X22295000Y-17500000D01*
%TO.C,D6*%
X43900000Y-22265000D02*
G75*
G02*
X38900000Y-22265000I-2500000J0D01*
G01*
X38900000Y-22265000D02*
G75*
G02*
X43900000Y-22265000I2500000J0D01*
G01*
X41400048Y-19275000D02*
G75*
G02*
X42944830Y-24825000I-48J-2990000D01*
G01*
X39855170Y-24825000D02*
G75*
G02*
X41399952Y-19275000I1544830J2560000D01*
G01*
X39855000Y-24825000D02*
X42945000Y-24825000D01*
%TO.C,D2*%
X13855000Y-24825000D02*
X16945000Y-24825000D01*
X13855170Y-24825000D02*
G75*
G02*
X15399952Y-19275000I1544830J2560000D01*
G01*
X15400048Y-19275000D02*
G75*
G02*
X16944830Y-24825000I-48J-2990000D01*
G01*
X17900000Y-22265000D02*
G75*
G02*
X12900000Y-22265000I-2500000J0D01*
G01*
X12900000Y-22265000D02*
G75*
G02*
X17900000Y-22265000I2500000J0D01*
G01*
%TO.C,D1*%
X7355000Y-38325000D02*
X10445000Y-38325000D01*
X7355170Y-38325000D02*
G75*
G02*
X8899952Y-32775000I1544830J2560000D01*
G01*
X8900048Y-32775000D02*
G75*
G02*
X10444830Y-38325000I-48J-2990000D01*
G01*
X11400000Y-35765000D02*
G75*
G02*
X6400000Y-35765000I-2500000J0D01*
G01*
X6400000Y-35765000D02*
G75*
G02*
X11400000Y-35765000I2500000J0D01*
G01*
X7355000Y-51825000D02*
X10445000Y-51825000D01*
X7355170Y-51825000D02*
G75*
G02*
X8899952Y-46275000I1544830J2560000D01*
G01*
X8900048Y-46275000D02*
G75*
G02*
X10444830Y-51825000I-48J-2990000D01*
G01*
X11400000Y-49265000D02*
G75*
G02*
X6400000Y-49265000I-2500000J0D01*
G01*
X6400000Y-49265000D02*
G75*
G02*
X11400000Y-49265000I2500000J0D01*
G01*
X7355000Y-92325000D02*
X10445000Y-92325000D01*
X7355170Y-92325000D02*
G75*
G02*
X8899952Y-86775000I1544830J2560000D01*
G01*
X8900048Y-86775000D02*
G75*
G02*
X10444830Y-92325000I-48J-2990000D01*
G01*
X11400000Y-89765000D02*
G75*
G02*
X6400000Y-89765000I-2500000J0D01*
G01*
X6400000Y-89765000D02*
G75*
G02*
X11400000Y-89765000I2500000J0D01*
G01*
%TO.C,J2*%
X45620000Y-89735000D02*
X45620000Y-87085000D01*
X48380000Y-87085000D02*
X45620000Y-87085000D01*
X48380000Y-89735000D02*
X45620000Y-89735000D01*
X48380000Y-89735000D02*
X48380000Y-87085000D01*
X48380000Y-91005000D02*
X48380000Y-92385000D01*
X48380000Y-92385000D02*
X47000000Y-92385000D01*
%TO.C,J1*%
X1620000Y-35735000D02*
X1620000Y-33085000D01*
X4380000Y-33085000D02*
X1620000Y-33085000D01*
X4380000Y-35735000D02*
X1620000Y-35735000D01*
X4380000Y-35735000D02*
X4380000Y-33085000D01*
X4380000Y-37005000D02*
X4380000Y-38385000D01*
X4380000Y-38385000D02*
X3000000Y-38385000D01*
%TO.C,D1*%
X7355000Y-24825000D02*
X10445000Y-24825000D01*
X7355170Y-24825000D02*
G75*
G02*
X8899952Y-19275000I1544830J2560000D01*
G01*
X8900048Y-19275000D02*
G75*
G02*
X10444830Y-24825000I-48J-2990000D01*
G01*
X11400000Y-22265000D02*
G75*
G02*
X6400000Y-22265000I-2500000J0D01*
G01*
X6400000Y-22265000D02*
G75*
G02*
X11400000Y-22265000I2500000J0D01*
G01*
%TO.C,R2*%
X15725000Y-17500000D02*
X15795000Y-17500000D01*
X15725000Y-17500000D02*
G75*
G02*
X12985000Y-17500000I-1370000J0D01*
G01*
X12985000Y-17500000D02*
G75*
G02*
X15725000Y-17500000I1370000J0D01*
G01*
%TO.C,D4*%
X26855000Y-92325000D02*
X29945000Y-92325000D01*
X26855170Y-92325000D02*
G75*
G02*
X28399952Y-86775000I1544830J2560000D01*
G01*
X28400048Y-86775000D02*
G75*
G02*
X29944830Y-92325000I-48J-2990000D01*
G01*
X30900000Y-89765000D02*
G75*
G02*
X25900000Y-89765000I-2500000J0D01*
G01*
X25900000Y-89765000D02*
G75*
G02*
X30900000Y-89765000I2500000J0D01*
G01*
%TO.C,J2*%
X45620000Y-8735000D02*
X45620000Y-6085000D01*
X48380000Y-6085000D02*
X45620000Y-6085000D01*
X48380000Y-8735000D02*
X45620000Y-8735000D01*
X48380000Y-8735000D02*
X48380000Y-6085000D01*
X48380000Y-10005000D02*
X48380000Y-11385000D01*
X48380000Y-11385000D02*
X47000000Y-11385000D01*
%TO.C,D1*%
X7355000Y-65325000D02*
X10445000Y-65325000D01*
X7355170Y-65325000D02*
G75*
G02*
X8899952Y-59775000I1544830J2560000D01*
G01*
X8900048Y-59775000D02*
G75*
G02*
X10444830Y-65325000I-48J-2990000D01*
G01*
X11400000Y-62765000D02*
G75*
G02*
X6400000Y-62765000I-2500000J0D01*
G01*
X6400000Y-62765000D02*
G75*
G02*
X11400000Y-62765000I2500000J0D01*
G01*
%TO.C,D2*%
X13855000Y-92325000D02*
X16945000Y-92325000D01*
X13855170Y-92325000D02*
G75*
G02*
X15399952Y-86775000I1544830J2560000D01*
G01*
X15400048Y-86775000D02*
G75*
G02*
X16944830Y-92325000I-48J-2990000D01*
G01*
X17900000Y-89765000D02*
G75*
G02*
X12900000Y-89765000I-2500000J0D01*
G01*
X12900000Y-89765000D02*
G75*
G02*
X17900000Y-89765000I2500000J0D01*
G01*
%TO.C,J1*%
X1620000Y-76235000D02*
X1620000Y-73585000D01*
X4380000Y-73585000D02*
X1620000Y-73585000D01*
X4380000Y-76235000D02*
X1620000Y-76235000D01*
X4380000Y-76235000D02*
X4380000Y-73585000D01*
X4380000Y-77505000D02*
X4380000Y-78885000D01*
X4380000Y-78885000D02*
X3000000Y-78885000D01*
%TO.C,D4*%
X26855000Y-11325000D02*
X29945000Y-11325000D01*
X26855170Y-11325000D02*
G75*
G02*
X28399952Y-5775000I1544830J2560000D01*
G01*
X28400048Y-5775000D02*
G75*
G02*
X29944830Y-11325000I-48J-2990000D01*
G01*
X30900000Y-8765000D02*
G75*
G02*
X25900000Y-8765000I-2500000J0D01*
G01*
X25900000Y-8765000D02*
G75*
G02*
X30900000Y-8765000I2500000J0D01*
G01*
%TO.C,D3*%
X20355000Y-11325000D02*
X23445000Y-11325000D01*
X20355170Y-11325000D02*
G75*
G02*
X21899952Y-5775000I1544830J2560000D01*
G01*
X21900048Y-5775000D02*
G75*
G02*
X23444830Y-11325000I-48J-2990000D01*
G01*
X24400000Y-8765000D02*
G75*
G02*
X19400000Y-8765000I-2500000J0D01*
G01*
X19400000Y-8765000D02*
G75*
G02*
X24400000Y-8765000I2500000J0D01*
G01*
%TO.C,R3*%
X22225000Y-4000000D02*
X22295000Y-4000000D01*
X22225000Y-4000000D02*
G75*
G02*
X19485000Y-4000000I-1370000J0D01*
G01*
X19485000Y-4000000D02*
G75*
G02*
X22225000Y-4000000I1370000J0D01*
G01*
%TO.C,J1*%
X1620000Y-8735000D02*
X1620000Y-6085000D01*
X4380000Y-6085000D02*
X1620000Y-6085000D01*
X4380000Y-8735000D02*
X1620000Y-8735000D01*
X4380000Y-8735000D02*
X4380000Y-6085000D01*
X4380000Y-10005000D02*
X4380000Y-11385000D01*
X4380000Y-11385000D02*
X3000000Y-11385000D01*
%TO.C,J2*%
X45620000Y-76235000D02*
X45620000Y-73585000D01*
X48380000Y-73585000D02*
X45620000Y-73585000D01*
X48380000Y-76235000D02*
X45620000Y-76235000D01*
X48380000Y-76235000D02*
X48380000Y-73585000D01*
X48380000Y-77505000D02*
X48380000Y-78885000D01*
X48380000Y-78885000D02*
X47000000Y-78885000D01*
%TO.C,D2*%
X13855000Y-11325000D02*
X16945000Y-11325000D01*
X13855170Y-11325000D02*
G75*
G02*
X15399952Y-5775000I1544830J2560000D01*
G01*
X15400048Y-5775000D02*
G75*
G02*
X16944830Y-11325000I-48J-2990000D01*
G01*
X17900000Y-8765000D02*
G75*
G02*
X12900000Y-8765000I-2500000J0D01*
G01*
X12900000Y-8765000D02*
G75*
G02*
X17900000Y-8765000I2500000J0D01*
G01*
%TO.C,R1*%
X9225000Y-4000000D02*
X9295000Y-4000000D01*
X9225000Y-4000000D02*
G75*
G02*
X6485000Y-4000000I-1370000J0D01*
G01*
X6485000Y-4000000D02*
G75*
G02*
X9225000Y-4000000I1370000J0D01*
G01*
%TO.C,D5*%
X33355000Y-11325000D02*
X36445000Y-11325000D01*
X33355170Y-11325000D02*
G75*
G02*
X34899952Y-5775000I1544830J2560000D01*
G01*
X34900048Y-5775000D02*
G75*
G02*
X36444830Y-11325000I-48J-2990000D01*
G01*
X37400000Y-8765000D02*
G75*
G02*
X32400000Y-8765000I-2500000J0D01*
G01*
X32400000Y-8765000D02*
G75*
G02*
X37400000Y-8765000I2500000J0D01*
G01*
%TO.C,J2*%
X45620000Y-62735000D02*
X45620000Y-60085000D01*
X48380000Y-60085000D02*
X45620000Y-60085000D01*
X48380000Y-62735000D02*
X45620000Y-62735000D01*
X48380000Y-62735000D02*
X48380000Y-60085000D01*
X48380000Y-64005000D02*
X48380000Y-65385000D01*
X48380000Y-65385000D02*
X47000000Y-65385000D01*
%TO.C,R1*%
X9225000Y-85000000D02*
X9295000Y-85000000D01*
X9225000Y-85000000D02*
G75*
G02*
X6485000Y-85000000I-1370000J0D01*
G01*
X6485000Y-85000000D02*
G75*
G02*
X9225000Y-85000000I1370000J0D01*
G01*
%TO.C,D2*%
X13855000Y-38325000D02*
X16945000Y-38325000D01*
X13855170Y-38325000D02*
G75*
G02*
X15399952Y-32775000I1544830J2560000D01*
G01*
X15400048Y-32775000D02*
G75*
G02*
X16944830Y-38325000I-48J-2990000D01*
G01*
X17900000Y-35765000D02*
G75*
G02*
X12900000Y-35765000I-2500000J0D01*
G01*
X12900000Y-35765000D02*
G75*
G02*
X17900000Y-35765000I2500000J0D01*
G01*
%TO.C,D1*%
X7355000Y-78825000D02*
X10445000Y-78825000D01*
X7355170Y-78825000D02*
G75*
G02*
X8899952Y-73275000I1544830J2560000D01*
G01*
X8900048Y-73275000D02*
G75*
G02*
X10444830Y-78825000I-48J-2990000D01*
G01*
X11400000Y-76265000D02*
G75*
G02*
X6400000Y-76265000I-2500000J0D01*
G01*
X6400000Y-76265000D02*
G75*
G02*
X11400000Y-76265000I2500000J0D01*
G01*
%TO.C,J1*%
X1620000Y-49235000D02*
X1620000Y-46585000D01*
X4380000Y-46585000D02*
X1620000Y-46585000D01*
X4380000Y-49235000D02*
X1620000Y-49235000D01*
X4380000Y-49235000D02*
X4380000Y-46585000D01*
X4380000Y-50505000D02*
X4380000Y-51885000D01*
X4380000Y-51885000D02*
X3000000Y-51885000D01*
%TO.C,D6*%
X39855000Y-92325000D02*
X42945000Y-92325000D01*
X39855170Y-92325000D02*
G75*
G02*
X41399952Y-86775000I1544830J2560000D01*
G01*
X41400048Y-86775000D02*
G75*
G02*
X42944830Y-92325000I-48J-2990000D01*
G01*
X43900000Y-89765000D02*
G75*
G02*
X38900000Y-89765000I-2500000J0D01*
G01*
X38900000Y-89765000D02*
G75*
G02*
X43900000Y-89765000I2500000J0D01*
G01*
%TO.C,J2*%
X45620000Y-22235000D02*
X45620000Y-19585000D01*
X48380000Y-19585000D02*
X45620000Y-19585000D01*
X48380000Y-22235000D02*
X45620000Y-22235000D01*
X48380000Y-22235000D02*
X48380000Y-19585000D01*
X48380000Y-23505000D02*
X48380000Y-24885000D01*
X48380000Y-24885000D02*
X47000000Y-24885000D01*
%TO.C,R2*%
X15725000Y-4000000D02*
X15795000Y-4000000D01*
X15725000Y-4000000D02*
G75*
G02*
X12985000Y-4000000I-1370000J0D01*
G01*
X12985000Y-4000000D02*
G75*
G02*
X15725000Y-4000000I1370000J0D01*
G01*
%TO.C,J2*%
X45620000Y-49235000D02*
X45620000Y-46585000D01*
X48380000Y-46585000D02*
X45620000Y-46585000D01*
X48380000Y-49235000D02*
X45620000Y-49235000D01*
X48380000Y-49235000D02*
X48380000Y-46585000D01*
X48380000Y-50505000D02*
X48380000Y-51885000D01*
X48380000Y-51885000D02*
X47000000Y-51885000D01*
%TO.C,D5*%
X33355000Y-92325000D02*
X36445000Y-92325000D01*
X33355170Y-92325000D02*
G75*
G02*
X34899952Y-86775000I1544830J2560000D01*
G01*
X34900048Y-86775000D02*
G75*
G02*
X36444830Y-92325000I-48J-2990000D01*
G01*
X37400000Y-89765000D02*
G75*
G02*
X32400000Y-89765000I-2500000J0D01*
G01*
X32400000Y-89765000D02*
G75*
G02*
X37400000Y-89765000I2500000J0D01*
G01*
%TO.C,R1*%
X9225000Y-71500000D02*
X9295000Y-71500000D01*
X9225000Y-71500000D02*
G75*
G02*
X6485000Y-71500000I-1370000J0D01*
G01*
X6485000Y-71500000D02*
G75*
G02*
X9225000Y-71500000I1370000J0D01*
G01*
%TO.C,R2*%
X15725000Y-71500000D02*
X15795000Y-71500000D01*
X15725000Y-71500000D02*
G75*
G02*
X12985000Y-71500000I-1370000J0D01*
G01*
X12985000Y-71500000D02*
G75*
G02*
X15725000Y-71500000I1370000J0D01*
G01*
%TO.C,R1*%
X9225000Y-44500000D02*
X9295000Y-44500000D01*
X9225000Y-44500000D02*
G75*
G02*
X6485000Y-44500000I-1370000J0D01*
G01*
X6485000Y-44500000D02*
G75*
G02*
X9225000Y-44500000I1370000J0D01*
G01*
%TO.C,D2*%
X13855000Y-78825000D02*
X16945000Y-78825000D01*
X13855170Y-78825000D02*
G75*
G02*
X15399952Y-73275000I1544830J2560000D01*
G01*
X15400048Y-73275000D02*
G75*
G02*
X16944830Y-78825000I-48J-2990000D01*
G01*
X17900000Y-76265000D02*
G75*
G02*
X12900000Y-76265000I-2500000J0D01*
G01*
X12900000Y-76265000D02*
G75*
G02*
X17900000Y-76265000I2500000J0D01*
G01*
%TO.C,R2*%
X15725000Y-85000000D02*
X15795000Y-85000000D01*
X15725000Y-85000000D02*
G75*
G02*
X12985000Y-85000000I-1370000J0D01*
G01*
X12985000Y-85000000D02*
G75*
G02*
X15725000Y-85000000I1370000J0D01*
G01*
%TO.C,R5*%
X35225000Y-4000000D02*
X35295000Y-4000000D01*
X35225000Y-4000000D02*
G75*
G02*
X32485000Y-4000000I-1370000J0D01*
G01*
X32485000Y-4000000D02*
G75*
G02*
X35225000Y-4000000I1370000J0D01*
G01*
%TO.C,R1*%
X9225000Y-58000000D02*
X9295000Y-58000000D01*
X9225000Y-58000000D02*
G75*
G02*
X6485000Y-58000000I-1370000J0D01*
G01*
X6485000Y-58000000D02*
G75*
G02*
X9225000Y-58000000I1370000J0D01*
G01*
X9225000Y-17500000D02*
X9295000Y-17500000D01*
X9225000Y-17500000D02*
G75*
G02*
X6485000Y-17500000I-1370000J0D01*
G01*
X6485000Y-17500000D02*
G75*
G02*
X9225000Y-17500000I1370000J0D01*
G01*
%TO.C,R6*%
X41725000Y-4000000D02*
X41795000Y-4000000D01*
X41725000Y-4000000D02*
G75*
G02*
X38985000Y-4000000I-1370000J0D01*
G01*
X38985000Y-4000000D02*
G75*
G02*
X41725000Y-4000000I1370000J0D01*
G01*
%TO.C,D3*%
X20355000Y-92325000D02*
X23445000Y-92325000D01*
X20355170Y-92325000D02*
G75*
G02*
X21899952Y-86775000I1544830J2560000D01*
G01*
X21900048Y-86775000D02*
G75*
G02*
X23444830Y-92325000I-48J-2990000D01*
G01*
X24400000Y-89765000D02*
G75*
G02*
X19400000Y-89765000I-2500000J0D01*
G01*
X19400000Y-89765000D02*
G75*
G02*
X24400000Y-89765000I2500000J0D01*
G01*
%TO.C,D1*%
X7355000Y-11325000D02*
X10445000Y-11325000D01*
X7355170Y-11325000D02*
G75*
G02*
X8899952Y-5775000I1544830J2560000D01*
G01*
X8900048Y-5775000D02*
G75*
G02*
X10444830Y-11325000I-48J-2990000D01*
G01*
X11400000Y-8765000D02*
G75*
G02*
X6400000Y-8765000I-2500000J0D01*
G01*
X6400000Y-8765000D02*
G75*
G02*
X11400000Y-8765000I2500000J0D01*
G01*
%TO.C,R1*%
X9225000Y-31000000D02*
X9295000Y-31000000D01*
X9225000Y-31000000D02*
G75*
G02*
X6485000Y-31000000I-1370000J0D01*
G01*
X6485000Y-31000000D02*
G75*
G02*
X9225000Y-31000000I1370000J0D01*
G01*
%TO.C,R2*%
X15725000Y-44500000D02*
X15795000Y-44500000D01*
X15725000Y-44500000D02*
G75*
G02*
X12985000Y-44500000I-1370000J0D01*
G01*
X12985000Y-44500000D02*
G75*
G02*
X15725000Y-44500000I1370000J0D01*
G01*
%TO.C,J1*%
X1620000Y-62735000D02*
X1620000Y-60085000D01*
X4380000Y-60085000D02*
X1620000Y-60085000D01*
X4380000Y-62735000D02*
X1620000Y-62735000D01*
X4380000Y-62735000D02*
X4380000Y-60085000D01*
X4380000Y-64005000D02*
X4380000Y-65385000D01*
X4380000Y-65385000D02*
X3000000Y-65385000D01*
X1620000Y-22235000D02*
X1620000Y-19585000D01*
X4380000Y-19585000D02*
X1620000Y-19585000D01*
X4380000Y-22235000D02*
X1620000Y-22235000D01*
X4380000Y-22235000D02*
X4380000Y-19585000D01*
X4380000Y-23505000D02*
X4380000Y-24885000D01*
X4380000Y-24885000D02*
X3000000Y-24885000D01*
%TO.C,R4*%
X28725000Y-4000000D02*
X28795000Y-4000000D01*
X28725000Y-4000000D02*
G75*
G02*
X25985000Y-4000000I-1370000J0D01*
G01*
X25985000Y-4000000D02*
G75*
G02*
X28725000Y-4000000I1370000J0D01*
G01*
%TO.C,R2*%
X15725000Y-58000000D02*
X15795000Y-58000000D01*
X15725000Y-58000000D02*
G75*
G02*
X12985000Y-58000000I-1370000J0D01*
G01*
X12985000Y-58000000D02*
G75*
G02*
X15725000Y-58000000I1370000J0D01*
G01*
%TO.C,J1*%
X1620000Y-89735000D02*
X1620000Y-87085000D01*
X4380000Y-87085000D02*
X1620000Y-87085000D01*
X4380000Y-89735000D02*
X1620000Y-89735000D01*
X4380000Y-89735000D02*
X4380000Y-87085000D01*
X4380000Y-91005000D02*
X4380000Y-92385000D01*
X4380000Y-92385000D02*
X3000000Y-92385000D01*
%TO.C,D6*%
X39855000Y-11325000D02*
X42945000Y-11325000D01*
X39855170Y-11325000D02*
G75*
G02*
X41399952Y-5775000I1544830J2560000D01*
G01*
X41400048Y-5775000D02*
G75*
G02*
X42944830Y-11325000I-48J-2990000D01*
G01*
X43900000Y-8765000D02*
G75*
G02*
X38900000Y-8765000I-2500000J0D01*
G01*
X38900000Y-8765000D02*
G75*
G02*
X43900000Y-8765000I2500000J0D01*
G01*
%TO.C,D2*%
X13855000Y-51825000D02*
X16945000Y-51825000D01*
X13855170Y-51825000D02*
G75*
G02*
X15399952Y-46275000I1544830J2560000D01*
G01*
X15400048Y-46275000D02*
G75*
G02*
X16944830Y-51825000I-48J-2990000D01*
G01*
X17900000Y-49265000D02*
G75*
G02*
X12900000Y-49265000I-2500000J0D01*
G01*
X12900000Y-49265000D02*
G75*
G02*
X17900000Y-49265000I2500000J0D01*
G01*
%TO.C,R2*%
X15725000Y-31000000D02*
X15795000Y-31000000D01*
X15725000Y-31000000D02*
G75*
G02*
X12985000Y-31000000I-1370000J0D01*
G01*
X12985000Y-31000000D02*
G75*
G02*
X15725000Y-31000000I1370000J0D01*
G01*
%TO.C,J2*%
X45620000Y-35735000D02*
X45620000Y-33085000D01*
X48380000Y-33085000D02*
X45620000Y-33085000D01*
X48380000Y-35735000D02*
X45620000Y-35735000D01*
X48380000Y-35735000D02*
X48380000Y-33085000D01*
X48380000Y-37005000D02*
X48380000Y-38385000D01*
X48380000Y-38385000D02*
X47000000Y-38385000D01*
%TO.C,D2*%
X13855000Y-65325000D02*
X16945000Y-65325000D01*
X13855170Y-65325000D02*
G75*
G02*
X15399952Y-59775000I1544830J2560000D01*
G01*
X15400048Y-59775000D02*
G75*
G02*
X16944830Y-65325000I-48J-2990000D01*
G01*
X17900000Y-62765000D02*
G75*
G02*
X12900000Y-62765000I-2500000J0D01*
G01*
X12900000Y-62765000D02*
G75*
G02*
X17900000Y-62765000I2500000J0D01*
G01*
%TD*%
%LPC*%
D13*
%TO.C,KiKit_MB_2_21*%
X16225807Y-80600000D03*
%TD*%
%TO.C,KiKit_MB_2_10*%
X7354839Y-80600000D03*
%TD*%
%TO.C,KiKit_MB_2_17*%
X13000000Y-80600000D03*
%TD*%
%TO.C,KiKit_MB_2_44*%
X34774193Y-80600000D03*
%TD*%
%TO.C,KiKit_MB_2_20*%
X15419355Y-80600000D03*
%TD*%
%TO.C,KiKit_MB_2_3*%
X1709678Y-80600000D03*
%TD*%
%TO.C,KiKit_MB_2_34*%
X26709677Y-80600000D03*
%TD*%
%TO.C,KiKit_MB_2_13*%
X9774194Y-80600000D03*
%TD*%
%TO.C,KiKit_MB_2_43*%
X33967741Y-80600000D03*
%TD*%
%TO.C,KiKit_MB_2_24*%
X18645162Y-80600000D03*
%TD*%
%TO.C,KiKit_MB_2_16*%
X12193549Y-80600000D03*
%TD*%
%TO.C,KiKit_MB_2_5*%
X3322581Y-80600000D03*
%TD*%
%TO.C,KiKit_MB_2_53*%
X42032257Y-80600000D03*
%TD*%
%TO.C,KiKit_MB_2_6*%
X4129033Y-80600000D03*
%TD*%
%TO.C,KiKit_MB_2_46*%
X36387096Y-80600000D03*
%TD*%
%TO.C,KiKit_MB_2_15*%
X11387097Y-80600000D03*
%TD*%
%TO.C,KiKit_MB_2_12*%
X8967742Y-80600000D03*
%TD*%
%TO.C,KiKit_MB_2_61*%
X48483870Y-80600000D03*
%TD*%
%TO.C,KiKit_MB_2_31*%
X24290323Y-80600000D03*
%TD*%
%TO.C,KiKit_MB_2_19*%
X14612904Y-80600000D03*
%TD*%
%TO.C,KiKit_MB_2_27*%
X21064516Y-80600000D03*
%TD*%
%TO.C,KiKit_MB_2_54*%
X42838709Y-80600000D03*
%TD*%
%TO.C,KiKit_MB_2_48*%
X37999999Y-80600000D03*
%TD*%
%TO.C,KiKit_MB_2_28*%
X21870968Y-80600000D03*
%TD*%
%TO.C,KiKit_MB_2_55*%
X43645161Y-80600000D03*
%TD*%
%TO.C,KiKit_MB_2_25*%
X19451613Y-80600000D03*
%TD*%
%TO.C,KiKit_MB_2_40*%
X31548386Y-80600000D03*
%TD*%
%TO.C,KiKit_MB_2_35*%
X27516128Y-80600000D03*
%TD*%
%TO.C,KiKit_MB_2_60*%
X47677419Y-80600000D03*
%TD*%
%TO.C,KiKit_MB_2_8*%
X5741936Y-80600000D03*
%TD*%
%TO.C,KiKit_MB_2_23*%
X17838710Y-80600000D03*
%TD*%
%TO.C,KiKit_MB_2_1*%
X96774Y-80600000D03*
%TD*%
%TO.C,KiKit_MB_2_57*%
X45258064Y-80600000D03*
%TD*%
%TO.C,KiKit_MB_2_30*%
X23483871Y-80600000D03*
%TD*%
%TO.C,KiKit_MB_2_41*%
X32354838Y-80600000D03*
%TD*%
%TO.C,KiKit_MB_2_45*%
X35580644Y-80600000D03*
%TD*%
%TO.C,KiKit_MB_2_52*%
X41225806Y-80600000D03*
%TD*%
%TO.C,KiKit_MB_2_26*%
X20258065Y-80600000D03*
%TD*%
%TO.C,KiKit_MB_2_59*%
X46870967Y-80600000D03*
%TD*%
%TO.C,KiKit_MB_2_7*%
X4935484Y-80600000D03*
%TD*%
%TO.C,KiKit_MB_2_50*%
X39612903Y-80600000D03*
%TD*%
%TO.C,KiKit_MB_2_33*%
X25903225Y-80600000D03*
%TD*%
%TO.C,KiKit_MB_2_4*%
X2516129Y-80600000D03*
%TD*%
%TO.C,KiKit_MB_2_14*%
X10580645Y-80600000D03*
%TD*%
%TO.C,KiKit_MB_2_39*%
X30741935Y-80600000D03*
%TD*%
%TO.C,KiKit_MB_2_62*%
X49290322Y-80600000D03*
%TD*%
%TO.C,KiKit_MB_2_49*%
X38806451Y-80600000D03*
%TD*%
%TO.C,KiKit_MB_2_56*%
X44451612Y-80600000D03*
%TD*%
%TO.C,KiKit_MB_2_42*%
X33161290Y-80600000D03*
%TD*%
%TO.C,KiKit_MB_2_29*%
X22677420Y-80600000D03*
%TD*%
%TO.C,KiKit_MB_2_63*%
X50096774Y-80600000D03*
%TD*%
%TO.C,KiKit_MB_2_36*%
X28322580Y-80600000D03*
%TD*%
%TO.C,KiKit_MB_2_38*%
X29935483Y-80600000D03*
%TD*%
%TO.C,KiKit_MB_2_9*%
X6548387Y-80600000D03*
%TD*%
%TO.C,KiKit_MB_2_18*%
X13806452Y-80600000D03*
%TD*%
%TO.C,KiKit_MB_2_22*%
X17032258Y-80600000D03*
%TD*%
%TO.C,KiKit_MB_2_11*%
X8161291Y-80600000D03*
%TD*%
%TO.C,KiKit_MB_2_51*%
X40419354Y-80600000D03*
%TD*%
%TO.C,KiKit_MB_2_58*%
X46064515Y-80600000D03*
%TD*%
%TO.C,KiKit_MB_2_2*%
X903226Y-80600000D03*
%TD*%
%TO.C,KiKit_MB_2_32*%
X25096774Y-80600000D03*
%TD*%
%TO.C,KiKit_MB_2_37*%
X29129032Y-80600000D03*
%TD*%
%TO.C,KiKit_MB_2_47*%
X37193548Y-80600000D03*
%TD*%
%TO.C,KiKit_MB_2_21*%
X16125807Y-67000000D03*
%TD*%
%TO.C,KiKit_MB_2_10*%
X7254839Y-67000000D03*
%TD*%
%TO.C,KiKit_MB_2_17*%
X12900000Y-67000000D03*
%TD*%
%TO.C,KiKit_MB_2_44*%
X34674193Y-67000000D03*
%TD*%
%TO.C,KiKit_MB_2_20*%
X15319355Y-67000000D03*
%TD*%
%TO.C,KiKit_MB_2_3*%
X1609678Y-67000000D03*
%TD*%
%TO.C,KiKit_MB_2_34*%
X26609677Y-67000000D03*
%TD*%
%TO.C,KiKit_MB_2_13*%
X9674194Y-67000000D03*
%TD*%
%TO.C,KiKit_MB_2_43*%
X33867741Y-67000000D03*
%TD*%
%TO.C,KiKit_MB_2_24*%
X18545162Y-67000000D03*
%TD*%
%TO.C,KiKit_MB_2_16*%
X12093549Y-67000000D03*
%TD*%
%TO.C,KiKit_MB_2_5*%
X3222581Y-67000000D03*
%TD*%
%TO.C,KiKit_MB_2_53*%
X41932257Y-67000000D03*
%TD*%
%TO.C,KiKit_MB_2_6*%
X4029033Y-67000000D03*
%TD*%
%TO.C,KiKit_MB_2_46*%
X36287096Y-67000000D03*
%TD*%
%TO.C,KiKit_MB_2_15*%
X11287097Y-67000000D03*
%TD*%
%TO.C,KiKit_MB_2_12*%
X8867742Y-67000000D03*
%TD*%
%TO.C,KiKit_MB_2_61*%
X48383870Y-67000000D03*
%TD*%
%TO.C,KiKit_MB_2_31*%
X24190323Y-67000000D03*
%TD*%
%TO.C,KiKit_MB_2_19*%
X14512904Y-67000000D03*
%TD*%
%TO.C,KiKit_MB_2_27*%
X20964516Y-67000000D03*
%TD*%
%TO.C,KiKit_MB_2_54*%
X42738709Y-67000000D03*
%TD*%
%TO.C,KiKit_MB_2_48*%
X37899999Y-67000000D03*
%TD*%
%TO.C,KiKit_MB_2_28*%
X21770968Y-67000000D03*
%TD*%
%TO.C,KiKit_MB_2_55*%
X43545161Y-67000000D03*
%TD*%
%TO.C,KiKit_MB_2_25*%
X19351613Y-67000000D03*
%TD*%
%TO.C,KiKit_MB_2_40*%
X31448386Y-67000000D03*
%TD*%
%TO.C,KiKit_MB_2_35*%
X27416128Y-67000000D03*
%TD*%
%TO.C,KiKit_MB_2_60*%
X47577419Y-67000000D03*
%TD*%
%TO.C,KiKit_MB_2_8*%
X5641936Y-67000000D03*
%TD*%
%TO.C,KiKit_MB_2_23*%
X17738710Y-67000000D03*
%TD*%
%TO.C,KiKit_MB_2_1*%
X-3226Y-67000000D03*
%TD*%
%TO.C,KiKit_MB_2_57*%
X45158064Y-67000000D03*
%TD*%
%TO.C,KiKit_MB_2_30*%
X23383871Y-67000000D03*
%TD*%
%TO.C,KiKit_MB_2_41*%
X32254838Y-67000000D03*
%TD*%
%TO.C,KiKit_MB_2_45*%
X35480644Y-67000000D03*
%TD*%
%TO.C,KiKit_MB_2_52*%
X41125806Y-67000000D03*
%TD*%
%TO.C,KiKit_MB_2_26*%
X20158065Y-67000000D03*
%TD*%
%TO.C,KiKit_MB_2_59*%
X46770967Y-67000000D03*
%TD*%
%TO.C,KiKit_MB_2_7*%
X4835484Y-67000000D03*
%TD*%
%TO.C,KiKit_MB_2_50*%
X39512903Y-67000000D03*
%TD*%
%TO.C,KiKit_MB_2_33*%
X25803225Y-67000000D03*
%TD*%
%TO.C,KiKit_MB_2_4*%
X2416129Y-67000000D03*
%TD*%
%TO.C,KiKit_MB_2_14*%
X10480645Y-67000000D03*
%TD*%
%TO.C,KiKit_MB_2_39*%
X30641935Y-67000000D03*
%TD*%
%TO.C,KiKit_MB_2_62*%
X49190322Y-67000000D03*
%TD*%
%TO.C,KiKit_MB_2_49*%
X38706451Y-67000000D03*
%TD*%
%TO.C,KiKit_MB_2_56*%
X44351612Y-67000000D03*
%TD*%
%TO.C,KiKit_MB_2_42*%
X33061290Y-67000000D03*
%TD*%
%TO.C,KiKit_MB_2_29*%
X22577420Y-67000000D03*
%TD*%
%TO.C,KiKit_MB_2_63*%
X49996774Y-67000000D03*
%TD*%
%TO.C,KiKit_MB_2_36*%
X28222580Y-67000000D03*
%TD*%
%TO.C,KiKit_MB_2_38*%
X29835483Y-67000000D03*
%TD*%
%TO.C,KiKit_MB_2_9*%
X6448387Y-67000000D03*
%TD*%
%TO.C,KiKit_MB_2_18*%
X13706452Y-67000000D03*
%TD*%
%TO.C,KiKit_MB_2_22*%
X16932258Y-67000000D03*
%TD*%
%TO.C,KiKit_MB_2_11*%
X8061291Y-67000000D03*
%TD*%
%TO.C,KiKit_MB_2_51*%
X40319354Y-67000000D03*
%TD*%
%TO.C,KiKit_MB_2_58*%
X45964515Y-67000000D03*
%TD*%
%TO.C,KiKit_MB_2_2*%
X803226Y-67000000D03*
%TD*%
%TO.C,KiKit_MB_2_32*%
X24996774Y-67000000D03*
%TD*%
%TO.C,KiKit_MB_2_37*%
X29029032Y-67000000D03*
%TD*%
%TO.C,KiKit_MB_2_47*%
X37093548Y-67000000D03*
%TD*%
%TO.C,KiKit_MB_2_21*%
X16161292Y-54000000D03*
%TD*%
%TO.C,KiKit_MB_2_10*%
X7290324Y-54000000D03*
%TD*%
%TO.C,KiKit_MB_2_17*%
X12935485Y-54000000D03*
%TD*%
%TO.C,KiKit_MB_2_44*%
X34709678Y-54000000D03*
%TD*%
%TO.C,KiKit_MB_2_20*%
X15354840Y-54000000D03*
%TD*%
%TO.C,KiKit_MB_2_3*%
X1645163Y-54000000D03*
%TD*%
%TO.C,KiKit_MB_2_34*%
X26645162Y-54000000D03*
%TD*%
%TO.C,KiKit_MB_2_13*%
X9709679Y-54000000D03*
%TD*%
%TO.C,KiKit_MB_2_43*%
X33903226Y-54000000D03*
%TD*%
%TO.C,KiKit_MB_2_24*%
X18580647Y-54000000D03*
%TD*%
%TO.C,KiKit_MB_2_16*%
X12129034Y-54000000D03*
%TD*%
%TO.C,KiKit_MB_2_5*%
X3258066Y-54000000D03*
%TD*%
%TO.C,KiKit_MB_2_53*%
X41967742Y-54000000D03*
%TD*%
%TO.C,KiKit_MB_2_6*%
X4064518Y-54000000D03*
%TD*%
%TO.C,KiKit_MB_2_46*%
X36322581Y-54000000D03*
%TD*%
%TO.C,KiKit_MB_2_15*%
X11322582Y-54000000D03*
%TD*%
%TO.C,KiKit_MB_2_12*%
X8903227Y-54000000D03*
%TD*%
%TO.C,KiKit_MB_2_61*%
X48419355Y-54000000D03*
%TD*%
%TO.C,KiKit_MB_2_31*%
X24225808Y-54000000D03*
%TD*%
%TO.C,KiKit_MB_2_19*%
X14548389Y-54000000D03*
%TD*%
%TO.C,KiKit_MB_2_27*%
X21000001Y-54000000D03*
%TD*%
%TO.C,KiKit_MB_2_54*%
X42774194Y-54000000D03*
%TD*%
%TO.C,KiKit_MB_2_48*%
X37935484Y-54000000D03*
%TD*%
%TO.C,KiKit_MB_2_28*%
X21806453Y-54000000D03*
%TD*%
%TO.C,KiKit_MB_2_55*%
X43580646Y-54000000D03*
%TD*%
%TO.C,KiKit_MB_2_25*%
X19387098Y-54000000D03*
%TD*%
%TO.C,KiKit_MB_2_40*%
X31483871Y-54000000D03*
%TD*%
%TO.C,KiKit_MB_2_35*%
X27451613Y-54000000D03*
%TD*%
%TO.C,KiKit_MB_2_60*%
X47612904Y-54000000D03*
%TD*%
%TO.C,KiKit_MB_2_8*%
X5677421Y-54000000D03*
%TD*%
%TO.C,KiKit_MB_2_23*%
X17774195Y-54000000D03*
%TD*%
%TO.C,KiKit_MB_2_1*%
X32259Y-54000000D03*
%TD*%
%TO.C,KiKit_MB_2_57*%
X45193549Y-54000000D03*
%TD*%
%TO.C,KiKit_MB_2_30*%
X23419356Y-54000000D03*
%TD*%
%TO.C,KiKit_MB_2_41*%
X32290323Y-54000000D03*
%TD*%
%TO.C,KiKit_MB_2_45*%
X35516129Y-54000000D03*
%TD*%
%TO.C,KiKit_MB_2_52*%
X41161291Y-54000000D03*
%TD*%
%TO.C,KiKit_MB_2_26*%
X20193550Y-54000000D03*
%TD*%
%TO.C,KiKit_MB_2_59*%
X46806452Y-54000000D03*
%TD*%
%TO.C,KiKit_MB_2_7*%
X4870969Y-54000000D03*
%TD*%
%TO.C,KiKit_MB_2_50*%
X39548388Y-54000000D03*
%TD*%
%TO.C,KiKit_MB_2_33*%
X25838710Y-54000000D03*
%TD*%
%TO.C,KiKit_MB_2_4*%
X2451614Y-54000000D03*
%TD*%
%TO.C,KiKit_MB_2_14*%
X10516130Y-54000000D03*
%TD*%
%TO.C,KiKit_MB_2_39*%
X30677420Y-54000000D03*
%TD*%
%TO.C,KiKit_MB_2_62*%
X49225807Y-54000000D03*
%TD*%
%TO.C,KiKit_MB_2_49*%
X38741936Y-54000000D03*
%TD*%
%TO.C,KiKit_MB_2_56*%
X44387097Y-54000000D03*
%TD*%
%TO.C,KiKit_MB_2_42*%
X33096775Y-54000000D03*
%TD*%
%TO.C,KiKit_MB_2_29*%
X22612905Y-54000000D03*
%TD*%
%TO.C,KiKit_MB_2_63*%
X50032259Y-54000000D03*
%TD*%
%TO.C,KiKit_MB_2_36*%
X28258065Y-54000000D03*
%TD*%
%TO.C,KiKit_MB_2_38*%
X29870968Y-54000000D03*
%TD*%
%TO.C,KiKit_MB_2_9*%
X6483872Y-54000000D03*
%TD*%
%TO.C,KiKit_MB_2_18*%
X13741937Y-54000000D03*
%TD*%
%TO.C,KiKit_MB_2_22*%
X16967743Y-54000000D03*
%TD*%
%TO.C,KiKit_MB_2_11*%
X8096776Y-54000000D03*
%TD*%
%TO.C,KiKit_MB_2_51*%
X40354839Y-54000000D03*
%TD*%
%TO.C,KiKit_MB_2_58*%
X46000000Y-54000000D03*
%TD*%
%TO.C,KiKit_MB_2_2*%
X838711Y-54000000D03*
%TD*%
%TO.C,KiKit_MB_2_32*%
X25032259Y-54000000D03*
%TD*%
%TO.C,KiKit_MB_2_37*%
X29064517Y-54000000D03*
%TD*%
%TO.C,KiKit_MB_2_47*%
X37129033Y-54000000D03*
%TD*%
%TO.C,KiKit_MB_2_21*%
X16125807Y-39900000D03*
%TD*%
%TO.C,KiKit_MB_2_10*%
X7254839Y-39900000D03*
%TD*%
%TO.C,KiKit_MB_2_17*%
X12900000Y-39900000D03*
%TD*%
%TO.C,KiKit_MB_2_44*%
X34674193Y-39900000D03*
%TD*%
%TO.C,KiKit_MB_2_20*%
X15319355Y-39900000D03*
%TD*%
%TO.C,KiKit_MB_2_3*%
X1609678Y-39900000D03*
%TD*%
%TO.C,KiKit_MB_2_34*%
X26609677Y-39900000D03*
%TD*%
%TO.C,KiKit_MB_2_13*%
X9674194Y-39900000D03*
%TD*%
%TO.C,KiKit_MB_2_43*%
X33867741Y-39900000D03*
%TD*%
%TO.C,KiKit_MB_2_24*%
X18545162Y-39900000D03*
%TD*%
%TO.C,KiKit_MB_2_16*%
X12093549Y-39900000D03*
%TD*%
%TO.C,KiKit_MB_2_5*%
X3222581Y-39900000D03*
%TD*%
%TO.C,KiKit_MB_2_53*%
X41932257Y-39900000D03*
%TD*%
%TO.C,KiKit_MB_2_6*%
X4029033Y-39900000D03*
%TD*%
%TO.C,KiKit_MB_2_46*%
X36287096Y-39900000D03*
%TD*%
%TO.C,KiKit_MB_2_15*%
X11287097Y-39900000D03*
%TD*%
%TO.C,KiKit_MB_2_12*%
X8867742Y-39900000D03*
%TD*%
%TO.C,KiKit_MB_2_61*%
X48383870Y-39900000D03*
%TD*%
%TO.C,KiKit_MB_2_31*%
X24190323Y-39900000D03*
%TD*%
%TO.C,KiKit_MB_2_19*%
X14512904Y-39900000D03*
%TD*%
%TO.C,KiKit_MB_2_27*%
X20964516Y-39900000D03*
%TD*%
%TO.C,KiKit_MB_2_54*%
X42738709Y-39900000D03*
%TD*%
%TO.C,KiKit_MB_2_48*%
X37899999Y-39900000D03*
%TD*%
%TO.C,KiKit_MB_2_28*%
X21770968Y-39900000D03*
%TD*%
%TO.C,KiKit_MB_2_55*%
X43545161Y-39900000D03*
%TD*%
%TO.C,KiKit_MB_2_25*%
X19351613Y-39900000D03*
%TD*%
%TO.C,KiKit_MB_2_40*%
X31448386Y-39900000D03*
%TD*%
%TO.C,KiKit_MB_2_35*%
X27416128Y-39900000D03*
%TD*%
%TO.C,KiKit_MB_2_60*%
X47577419Y-39900000D03*
%TD*%
%TO.C,KiKit_MB_2_8*%
X5641936Y-39900000D03*
%TD*%
%TO.C,KiKit_MB_2_23*%
X17738710Y-39900000D03*
%TD*%
%TO.C,KiKit_MB_2_1*%
X-3226Y-39900000D03*
%TD*%
%TO.C,KiKit_MB_2_57*%
X45158064Y-39900000D03*
%TD*%
%TO.C,KiKit_MB_2_30*%
X23383871Y-39900000D03*
%TD*%
%TO.C,KiKit_MB_2_41*%
X32254838Y-39900000D03*
%TD*%
%TO.C,KiKit_MB_2_45*%
X35480644Y-39900000D03*
%TD*%
%TO.C,KiKit_MB_2_52*%
X41125806Y-39900000D03*
%TD*%
%TO.C,KiKit_MB_2_26*%
X20158065Y-39900000D03*
%TD*%
%TO.C,KiKit_MB_2_59*%
X46770967Y-39900000D03*
%TD*%
%TO.C,KiKit_MB_2_7*%
X4835484Y-39900000D03*
%TD*%
%TO.C,KiKit_MB_2_50*%
X39512903Y-39900000D03*
%TD*%
%TO.C,KiKit_MB_2_33*%
X25803225Y-39900000D03*
%TD*%
%TO.C,KiKit_MB_2_4*%
X2416129Y-39900000D03*
%TD*%
%TO.C,KiKit_MB_2_14*%
X10480645Y-39900000D03*
%TD*%
%TO.C,KiKit_MB_2_39*%
X30641935Y-39900000D03*
%TD*%
%TO.C,KiKit_MB_2_62*%
X49190322Y-39900000D03*
%TD*%
%TO.C,KiKit_MB_2_49*%
X38706451Y-39900000D03*
%TD*%
%TO.C,KiKit_MB_2_56*%
X44351612Y-39900000D03*
%TD*%
%TO.C,KiKit_MB_2_42*%
X33061290Y-39900000D03*
%TD*%
%TO.C,KiKit_MB_2_29*%
X22577420Y-39900000D03*
%TD*%
%TO.C,KiKit_MB_2_63*%
X49996774Y-39900000D03*
%TD*%
%TO.C,KiKit_MB_2_36*%
X28222580Y-39900000D03*
%TD*%
%TO.C,KiKit_MB_2_38*%
X29835483Y-39900000D03*
%TD*%
%TO.C,KiKit_MB_2_9*%
X6448387Y-39900000D03*
%TD*%
%TO.C,KiKit_MB_2_18*%
X13706452Y-39900000D03*
%TD*%
%TO.C,KiKit_MB_2_22*%
X16932258Y-39900000D03*
%TD*%
%TO.C,KiKit_MB_2_11*%
X8061291Y-39900000D03*
%TD*%
%TO.C,KiKit_MB_2_51*%
X40319354Y-39900000D03*
%TD*%
%TO.C,KiKit_MB_2_58*%
X45964515Y-39900000D03*
%TD*%
%TO.C,KiKit_MB_2_2*%
X803226Y-39900000D03*
%TD*%
%TO.C,KiKit_MB_2_32*%
X24996774Y-39900000D03*
%TD*%
%TO.C,KiKit_MB_2_37*%
X29029032Y-39900000D03*
%TD*%
%TO.C,KiKit_MB_2_47*%
X37093548Y-39900000D03*
%TD*%
%TO.C,KiKit_MB_2_21*%
X16019356Y-26600000D03*
%TD*%
%TO.C,KiKit_MB_2_10*%
X7148388Y-26600000D03*
%TD*%
%TO.C,KiKit_MB_2_17*%
X12793549Y-26600000D03*
%TD*%
%TO.C,KiKit_MB_2_44*%
X34567742Y-26600000D03*
%TD*%
%TO.C,KiKit_MB_2_20*%
X15212904Y-26600000D03*
%TD*%
%TO.C,KiKit_MB_2_3*%
X1503227Y-26600000D03*
%TD*%
%TO.C,KiKit_MB_2_34*%
X26503226Y-26600000D03*
%TD*%
%TO.C,KiKit_MB_2_13*%
X9567743Y-26600000D03*
%TD*%
%TO.C,KiKit_MB_2_43*%
X33761290Y-26600000D03*
%TD*%
%TO.C,KiKit_MB_2_24*%
X18438711Y-26600000D03*
%TD*%
%TO.C,KiKit_MB_2_16*%
X11987098Y-26600000D03*
%TD*%
%TO.C,KiKit_MB_2_5*%
X3116130Y-26600000D03*
%TD*%
%TO.C,KiKit_MB_2_53*%
X41825806Y-26600000D03*
%TD*%
%TO.C,KiKit_MB_2_6*%
X3922582Y-26600000D03*
%TD*%
%TO.C,KiKit_MB_2_46*%
X36180645Y-26600000D03*
%TD*%
%TO.C,KiKit_MB_2_15*%
X11180646Y-26600000D03*
%TD*%
%TO.C,KiKit_MB_2_12*%
X8761291Y-26600000D03*
%TD*%
%TO.C,KiKit_MB_2_61*%
X48277419Y-26600000D03*
%TD*%
%TO.C,KiKit_MB_2_31*%
X24083872Y-26600000D03*
%TD*%
%TO.C,KiKit_MB_2_19*%
X14406453Y-26600000D03*
%TD*%
%TO.C,KiKit_MB_2_27*%
X20858065Y-26600000D03*
%TD*%
%TO.C,KiKit_MB_2_54*%
X42632258Y-26600000D03*
%TD*%
%TO.C,KiKit_MB_2_48*%
X37793548Y-26600000D03*
%TD*%
%TO.C,KiKit_MB_2_28*%
X21664517Y-26600000D03*
%TD*%
%TO.C,KiKit_MB_2_55*%
X43438710Y-26600000D03*
%TD*%
%TO.C,KiKit_MB_2_25*%
X19245162Y-26600000D03*
%TD*%
%TO.C,KiKit_MB_2_40*%
X31341935Y-26600000D03*
%TD*%
%TO.C,KiKit_MB_2_35*%
X27309677Y-26600000D03*
%TD*%
%TO.C,KiKit_MB_2_60*%
X47470968Y-26600000D03*
%TD*%
%TO.C,KiKit_MB_2_8*%
X5535485Y-26600000D03*
%TD*%
%TO.C,KiKit_MB_2_23*%
X17632259Y-26600000D03*
%TD*%
%TO.C,KiKit_MB_2_1*%
X-109677Y-26600000D03*
%TD*%
%TO.C,KiKit_MB_2_57*%
X45051613Y-26600000D03*
%TD*%
%TO.C,KiKit_MB_2_30*%
X23277420Y-26600000D03*
%TD*%
%TO.C,KiKit_MB_2_41*%
X32148387Y-26600000D03*
%TD*%
%TO.C,KiKit_MB_2_45*%
X35374193Y-26600000D03*
%TD*%
%TO.C,KiKit_MB_2_52*%
X41019355Y-26600000D03*
%TD*%
%TO.C,KiKit_MB_2_26*%
X20051614Y-26600000D03*
%TD*%
%TO.C,KiKit_MB_2_59*%
X46664516Y-26600000D03*
%TD*%
%TO.C,KiKit_MB_2_7*%
X4729033Y-26600000D03*
%TD*%
%TO.C,KiKit_MB_2_50*%
X39406452Y-26600000D03*
%TD*%
%TO.C,KiKit_MB_2_33*%
X25696774Y-26600000D03*
%TD*%
%TO.C,KiKit_MB_2_4*%
X2309678Y-26600000D03*
%TD*%
%TO.C,KiKit_MB_2_14*%
X10374194Y-26600000D03*
%TD*%
%TO.C,KiKit_MB_2_39*%
X30535484Y-26600000D03*
%TD*%
%TO.C,KiKit_MB_2_62*%
X49083871Y-26600000D03*
%TD*%
%TO.C,KiKit_MB_2_49*%
X38600000Y-26600000D03*
%TD*%
%TO.C,KiKit_MB_2_56*%
X44245161Y-26600000D03*
%TD*%
%TO.C,KiKit_MB_2_42*%
X32954839Y-26600000D03*
%TD*%
%TO.C,KiKit_MB_2_29*%
X22470969Y-26600000D03*
%TD*%
%TO.C,KiKit_MB_2_63*%
X49890323Y-26600000D03*
%TD*%
%TO.C,KiKit_MB_2_36*%
X28116129Y-26600000D03*
%TD*%
%TO.C,KiKit_MB_2_38*%
X29729032Y-26600000D03*
%TD*%
%TO.C,KiKit_MB_2_9*%
X6341936Y-26600000D03*
%TD*%
%TO.C,KiKit_MB_2_18*%
X13600001Y-26600000D03*
%TD*%
%TO.C,KiKit_MB_2_22*%
X16825807Y-26600000D03*
%TD*%
%TO.C,KiKit_MB_2_11*%
X7954840Y-26600000D03*
%TD*%
%TO.C,KiKit_MB_2_51*%
X40212903Y-26600000D03*
%TD*%
%TO.C,KiKit_MB_2_58*%
X45858064Y-26600000D03*
%TD*%
%TO.C,KiKit_MB_2_2*%
X696775Y-26600000D03*
%TD*%
%TO.C,KiKit_MB_2_32*%
X24890323Y-26600000D03*
%TD*%
%TO.C,KiKit_MB_2_37*%
X28922581Y-26600000D03*
%TD*%
%TO.C,KiKit_MB_2_47*%
X36987097Y-26600000D03*
%TD*%
%TO.C,KiKit_MB_2_21*%
X16125807Y-13000000D03*
%TD*%
%TO.C,KiKit_MB_2_10*%
X7254839Y-13000000D03*
%TD*%
%TO.C,KiKit_MB_2_17*%
X12900000Y-13000000D03*
%TD*%
%TO.C,KiKit_MB_2_44*%
X34674193Y-13000000D03*
%TD*%
%TO.C,KiKit_MB_2_20*%
X15319355Y-13000000D03*
%TD*%
%TO.C,KiKit_MB_2_3*%
X1609678Y-13000000D03*
%TD*%
%TO.C,KiKit_MB_2_34*%
X26609677Y-13000000D03*
%TD*%
%TO.C,KiKit_MB_2_13*%
X9674194Y-13000000D03*
%TD*%
%TO.C,KiKit_MB_2_43*%
X33867741Y-13000000D03*
%TD*%
%TO.C,KiKit_MB_2_24*%
X18545162Y-13000000D03*
%TD*%
%TO.C,KiKit_MB_2_16*%
X12093549Y-13000000D03*
%TD*%
%TO.C,KiKit_MB_2_5*%
X3222581Y-13000000D03*
%TD*%
%TO.C,KiKit_MB_2_53*%
X41932257Y-13000000D03*
%TD*%
%TO.C,KiKit_MB_2_6*%
X4029033Y-13000000D03*
%TD*%
%TO.C,KiKit_MB_2_46*%
X36287096Y-13000000D03*
%TD*%
%TO.C,KiKit_MB_2_15*%
X11287097Y-13000000D03*
%TD*%
%TO.C,KiKit_MB_2_12*%
X8867742Y-13000000D03*
%TD*%
%TO.C,KiKit_MB_2_61*%
X48383870Y-13000000D03*
%TD*%
%TO.C,KiKit_MB_2_31*%
X24190323Y-13000000D03*
%TD*%
%TO.C,KiKit_MB_2_19*%
X14512904Y-13000000D03*
%TD*%
%TO.C,KiKit_MB_2_27*%
X20964516Y-13000000D03*
%TD*%
%TO.C,KiKit_MB_2_54*%
X42738709Y-13000000D03*
%TD*%
%TO.C,KiKit_MB_2_48*%
X37899999Y-13000000D03*
%TD*%
%TO.C,KiKit_MB_2_28*%
X21770968Y-13000000D03*
%TD*%
%TO.C,KiKit_MB_2_55*%
X43545161Y-13000000D03*
%TD*%
%TO.C,KiKit_MB_2_25*%
X19351613Y-13000000D03*
%TD*%
%TO.C,KiKit_MB_2_40*%
X31448386Y-13000000D03*
%TD*%
%TO.C,KiKit_MB_2_35*%
X27416128Y-13000000D03*
%TD*%
%TO.C,KiKit_MB_2_60*%
X47577419Y-13000000D03*
%TD*%
%TO.C,KiKit_MB_2_8*%
X5641936Y-13000000D03*
%TD*%
%TO.C,KiKit_MB_2_23*%
X17738710Y-13000000D03*
%TD*%
%TO.C,KiKit_MB_2_1*%
X-3226Y-13000000D03*
%TD*%
%TO.C,KiKit_MB_2_57*%
X45158064Y-13000000D03*
%TD*%
%TO.C,KiKit_MB_2_30*%
X23383871Y-13000000D03*
%TD*%
%TO.C,KiKit_MB_2_41*%
X32254838Y-13000000D03*
%TD*%
%TO.C,KiKit_MB_2_45*%
X35480644Y-13000000D03*
%TD*%
%TO.C,KiKit_MB_2_52*%
X41125806Y-13000000D03*
%TD*%
%TO.C,KiKit_MB_2_26*%
X20158065Y-13000000D03*
%TD*%
%TO.C,KiKit_MB_2_59*%
X46770967Y-13000000D03*
%TD*%
%TO.C,KiKit_MB_2_7*%
X4835484Y-13000000D03*
%TD*%
%TO.C,KiKit_MB_2_50*%
X39512903Y-13000000D03*
%TD*%
%TO.C,KiKit_MB_2_33*%
X25803225Y-13000000D03*
%TD*%
%TO.C,KiKit_MB_2_4*%
X2416129Y-13000000D03*
%TD*%
%TO.C,KiKit_MB_2_14*%
X10480645Y-13000000D03*
%TD*%
%TO.C,KiKit_MB_2_39*%
X30641935Y-13000000D03*
%TD*%
%TO.C,KiKit_MB_2_62*%
X49190322Y-13000000D03*
%TD*%
%TO.C,KiKit_MB_2_49*%
X38706451Y-13000000D03*
%TD*%
%TO.C,KiKit_MB_2_56*%
X44351612Y-13000000D03*
%TD*%
%TO.C,KiKit_MB_2_42*%
X33061290Y-13000000D03*
%TD*%
%TO.C,KiKit_MB_2_29*%
X22577420Y-13000000D03*
%TD*%
%TO.C,KiKit_MB_2_63*%
X49996774Y-13000000D03*
%TD*%
%TO.C,KiKit_MB_2_36*%
X28222580Y-13000000D03*
%TD*%
%TO.C,KiKit_MB_2_38*%
X29835483Y-13000000D03*
%TD*%
%TO.C,KiKit_MB_2_9*%
X6448387Y-13000000D03*
%TD*%
%TO.C,KiKit_MB_2_18*%
X13706452Y-13000000D03*
%TD*%
%TO.C,KiKit_MB_2_22*%
X16932258Y-13000000D03*
%TD*%
%TO.C,KiKit_MB_2_11*%
X8061291Y-13000000D03*
%TD*%
%TO.C,KiKit_MB_2_51*%
X40319354Y-13000000D03*
%TD*%
%TO.C,KiKit_MB_2_58*%
X45964515Y-13000000D03*
%TD*%
%TO.C,KiKit_MB_2_2*%
X803226Y-13000000D03*
%TD*%
%TO.C,KiKit_MB_2_32*%
X24996774Y-13000000D03*
%TD*%
%TO.C,KiKit_MB_2_37*%
X29029032Y-13000000D03*
%TD*%
%TO.C,KiKit_MB_2_47*%
X37093548Y-13000000D03*
%TD*%
D14*
%TO.C,R5*%
X36395000Y-44500000D03*
D15*
X33855000Y-44500000D03*
%TD*%
D14*
%TO.C,R3*%
X23395000Y-58000000D03*
D15*
X20855000Y-58000000D03*
%TD*%
D16*
%TO.C,D5*%
X34900000Y-74995000D03*
D17*
X34900000Y-77535000D03*
%TD*%
D16*
%TO.C,D3*%
X21900000Y-61495000D03*
D17*
X21900000Y-64035000D03*
%TD*%
D14*
%TO.C,R5*%
X36395000Y-71500000D03*
D15*
X33855000Y-71500000D03*
%TD*%
D16*
%TO.C,D3*%
X21900000Y-47995000D03*
D17*
X21900000Y-50535000D03*
%TD*%
D14*
%TO.C,R4*%
X29895000Y-58000000D03*
D15*
X27355000Y-58000000D03*
%TD*%
D14*
%TO.C,R3*%
X23395000Y-85000000D03*
D15*
X20855000Y-85000000D03*
%TD*%
D16*
%TO.C,D5*%
X34900000Y-34495000D03*
D17*
X34900000Y-37035000D03*
%TD*%
D14*
%TO.C,R6*%
X42895000Y-58000000D03*
D15*
X40355000Y-58000000D03*
%TD*%
D14*
%TO.C,R6*%
X42895000Y-85000000D03*
D15*
X40355000Y-85000000D03*
%TD*%
D14*
%TO.C,R4*%
X29895000Y-17500000D03*
D15*
X27355000Y-17500000D03*
%TD*%
D14*
%TO.C,R6*%
X42895000Y-44500000D03*
D15*
X40355000Y-44500000D03*
%TD*%
D16*
%TO.C,D6*%
X41400000Y-61495000D03*
D17*
X41400000Y-64035000D03*
%TD*%
D14*
%TO.C,R6*%
X42895000Y-17500000D03*
D15*
X40355000Y-17500000D03*
%TD*%
D16*
%TO.C,D6*%
X41400000Y-34495000D03*
D17*
X41400000Y-37035000D03*
%TD*%
D16*
%TO.C,D6*%
X41400000Y-47995000D03*
D17*
X41400000Y-50535000D03*
%TD*%
D16*
%TO.C,D4*%
X28400000Y-74995000D03*
D17*
X28400000Y-77535000D03*
%TD*%
D14*
%TO.C,R5*%
X36395000Y-17500000D03*
D15*
X33855000Y-17500000D03*
%TD*%
D16*
%TO.C,D5*%
X34900000Y-20995000D03*
D17*
X34900000Y-23535000D03*
%TD*%
D16*
%TO.C,D3*%
X21900000Y-20995000D03*
D17*
X21900000Y-23535000D03*
%TD*%
D14*
%TO.C,R4*%
X29895000Y-71500000D03*
D15*
X27355000Y-71500000D03*
%TD*%
D14*
%TO.C,R3*%
X23395000Y-31000000D03*
D15*
X20855000Y-31000000D03*
%TD*%
D16*
%TO.C,D3*%
X21900000Y-34495000D03*
D17*
X21900000Y-37035000D03*
%TD*%
D16*
%TO.C,D5*%
X34900000Y-61495000D03*
D17*
X34900000Y-64035000D03*
%TD*%
D14*
%TO.C,R5*%
X36395000Y-31000000D03*
D15*
X33855000Y-31000000D03*
%TD*%
D14*
%TO.C,R4*%
X29895000Y-31000000D03*
D15*
X27355000Y-31000000D03*
%TD*%
D14*
%TO.C,R4*%
X29895000Y-44500000D03*
D15*
X27355000Y-44500000D03*
%TD*%
D16*
%TO.C,D5*%
X34900000Y-47995000D03*
D17*
X34900000Y-50535000D03*
%TD*%
D14*
%TO.C,R5*%
X36395000Y-85000000D03*
D15*
X33855000Y-85000000D03*
%TD*%
D16*
%TO.C,D6*%
X41400000Y-74995000D03*
D17*
X41400000Y-77535000D03*
%TD*%
D16*
%TO.C,D4*%
X28400000Y-61495000D03*
D17*
X28400000Y-64035000D03*
%TD*%
D14*
%TO.C,R3*%
X23395000Y-44500000D03*
D15*
X20855000Y-44500000D03*
%TD*%
D14*
%TO.C,R4*%
X29895000Y-85000000D03*
D15*
X27355000Y-85000000D03*
%TD*%
D14*
%TO.C,R5*%
X36395000Y-58000000D03*
D15*
X33855000Y-58000000D03*
%TD*%
D16*
%TO.C,D3*%
X21900000Y-74995000D03*
D17*
X21900000Y-77535000D03*
%TD*%
D14*
%TO.C,R3*%
X23395000Y-71500000D03*
D15*
X20855000Y-71500000D03*
%TD*%
D14*
%TO.C,R6*%
X42895000Y-31000000D03*
D15*
X40355000Y-31000000D03*
%TD*%
D16*
%TO.C,D4*%
X28400000Y-20995000D03*
D17*
X28400000Y-23535000D03*
%TD*%
D16*
%TO.C,D4*%
X28400000Y-47995000D03*
D17*
X28400000Y-50535000D03*
%TD*%
D14*
%TO.C,R6*%
X42895000Y-71500000D03*
D15*
X40355000Y-71500000D03*
%TD*%
D16*
%TO.C,D4*%
X28400000Y-34495000D03*
D17*
X28400000Y-37035000D03*
%TD*%
D14*
%TO.C,R3*%
X23395000Y-17500000D03*
D15*
X20855000Y-17500000D03*
%TD*%
D16*
%TO.C,D6*%
X41400000Y-20995000D03*
D17*
X41400000Y-23535000D03*
%TD*%
%TO.C,D2*%
X15400000Y-23535000D03*
D16*
X15400000Y-20995000D03*
%TD*%
D17*
%TO.C,D1*%
X8900000Y-37035000D03*
D16*
X8900000Y-34495000D03*
%TD*%
D17*
%TO.C,D1*%
X8900000Y-50535000D03*
D16*
X8900000Y-47995000D03*
%TD*%
D17*
%TO.C,D1*%
X8900000Y-91035000D03*
D16*
X8900000Y-88495000D03*
%TD*%
D18*
%TO.C,J2*%
X47000000Y-91005000D03*
D19*
X47000000Y-88465000D03*
%TD*%
D18*
%TO.C,J1*%
X3000000Y-37005000D03*
D19*
X3000000Y-34465000D03*
%TD*%
D17*
%TO.C,D1*%
X8900000Y-23535000D03*
D16*
X8900000Y-20995000D03*
%TD*%
D15*
%TO.C,R2*%
X14355000Y-17500000D03*
D14*
X16895000Y-17500000D03*
%TD*%
D17*
%TO.C,D4*%
X28400000Y-91035000D03*
D16*
X28400000Y-88495000D03*
%TD*%
D18*
%TO.C,J2*%
X47000000Y-10005000D03*
D19*
X47000000Y-7465000D03*
%TD*%
D17*
%TO.C,D1*%
X8900000Y-64035000D03*
D16*
X8900000Y-61495000D03*
%TD*%
D17*
%TO.C,D2*%
X15400000Y-91035000D03*
D16*
X15400000Y-88495000D03*
%TD*%
D18*
%TO.C,J1*%
X3000000Y-77505000D03*
D19*
X3000000Y-74965000D03*
%TD*%
D17*
%TO.C,D4*%
X28400000Y-10035000D03*
D16*
X28400000Y-7495000D03*
%TD*%
D17*
%TO.C,D3*%
X21900000Y-10035000D03*
D16*
X21900000Y-7495000D03*
%TD*%
D15*
%TO.C,R3*%
X20855000Y-4000000D03*
D14*
X23395000Y-4000000D03*
%TD*%
D18*
%TO.C,J1*%
X3000000Y-10005000D03*
D19*
X3000000Y-7465000D03*
%TD*%
D18*
%TO.C,J2*%
X47000000Y-77505000D03*
D19*
X47000000Y-74965000D03*
%TD*%
D17*
%TO.C,D2*%
X15400000Y-10035000D03*
D16*
X15400000Y-7495000D03*
%TD*%
D15*
%TO.C,R1*%
X7855000Y-4000000D03*
D14*
X10395000Y-4000000D03*
%TD*%
D17*
%TO.C,D5*%
X34900000Y-10035000D03*
D16*
X34900000Y-7495000D03*
%TD*%
D18*
%TO.C,J2*%
X47000000Y-64005000D03*
D19*
X47000000Y-61465000D03*
%TD*%
D15*
%TO.C,R1*%
X7855000Y-85000000D03*
D14*
X10395000Y-85000000D03*
%TD*%
D17*
%TO.C,D2*%
X15400000Y-37035000D03*
D16*
X15400000Y-34495000D03*
%TD*%
D17*
%TO.C,D1*%
X8900000Y-77535000D03*
D16*
X8900000Y-74995000D03*
%TD*%
D18*
%TO.C,J1*%
X3000000Y-50505000D03*
D19*
X3000000Y-47965000D03*
%TD*%
D17*
%TO.C,D6*%
X41400000Y-91035000D03*
D16*
X41400000Y-88495000D03*
%TD*%
D18*
%TO.C,J2*%
X47000000Y-23505000D03*
D19*
X47000000Y-20965000D03*
%TD*%
D15*
%TO.C,R2*%
X14355000Y-4000000D03*
D14*
X16895000Y-4000000D03*
%TD*%
D18*
%TO.C,J2*%
X47000000Y-50505000D03*
D19*
X47000000Y-47965000D03*
%TD*%
D17*
%TO.C,D5*%
X34900000Y-91035000D03*
D16*
X34900000Y-88495000D03*
%TD*%
D15*
%TO.C,R1*%
X7855000Y-71500000D03*
D14*
X10395000Y-71500000D03*
%TD*%
D15*
%TO.C,R2*%
X14355000Y-71500000D03*
D14*
X16895000Y-71500000D03*
%TD*%
D15*
%TO.C,R1*%
X7855000Y-44500000D03*
D14*
X10395000Y-44500000D03*
%TD*%
D17*
%TO.C,D2*%
X15400000Y-77535000D03*
D16*
X15400000Y-74995000D03*
%TD*%
D15*
%TO.C,R2*%
X14355000Y-85000000D03*
D14*
X16895000Y-85000000D03*
%TD*%
D15*
%TO.C,R5*%
X33855000Y-4000000D03*
D14*
X36395000Y-4000000D03*
%TD*%
D15*
%TO.C,R1*%
X7855000Y-58000000D03*
D14*
X10395000Y-58000000D03*
%TD*%
D15*
%TO.C,R1*%
X7855000Y-17500000D03*
D14*
X10395000Y-17500000D03*
%TD*%
D15*
%TO.C,R6*%
X40355000Y-4000000D03*
D14*
X42895000Y-4000000D03*
%TD*%
D17*
%TO.C,D3*%
X21900000Y-91035000D03*
D16*
X21900000Y-88495000D03*
%TD*%
D17*
%TO.C,D1*%
X8900000Y-10035000D03*
D16*
X8900000Y-7495000D03*
%TD*%
D15*
%TO.C,R1*%
X7855000Y-31000000D03*
D14*
X10395000Y-31000000D03*
%TD*%
D15*
%TO.C,R2*%
X14355000Y-44500000D03*
D14*
X16895000Y-44500000D03*
%TD*%
D18*
%TO.C,J1*%
X3000000Y-64005000D03*
D19*
X3000000Y-61465000D03*
%TD*%
D18*
%TO.C,J1*%
X3000000Y-23505000D03*
D19*
X3000000Y-20965000D03*
%TD*%
D15*
%TO.C,R4*%
X27355000Y-4000000D03*
D14*
X29895000Y-4000000D03*
%TD*%
D15*
%TO.C,R2*%
X14355000Y-58000000D03*
D14*
X16895000Y-58000000D03*
%TD*%
D18*
%TO.C,J1*%
X3000000Y-91005000D03*
D19*
X3000000Y-88465000D03*
%TD*%
D17*
%TO.C,D6*%
X41400000Y-10035000D03*
D16*
X41400000Y-7495000D03*
%TD*%
D17*
%TO.C,D2*%
X15400000Y-50535000D03*
D16*
X15400000Y-47995000D03*
%TD*%
D15*
%TO.C,R2*%
X14355000Y-31000000D03*
D14*
X16895000Y-31000000D03*
%TD*%
D18*
%TO.C,J2*%
X47000000Y-37005000D03*
D19*
X47000000Y-34465000D03*
%TD*%
D17*
%TO.C,D2*%
X15400000Y-64035000D03*
D16*
X15400000Y-61495000D03*
%TD*%
%LPD*%
M02*
