%TF.GenerationSoftware,KiCad,Pcbnew,9.0.1*%
%TF.CreationDate,2025-05-11T12:35:00+01:00*%
%TF.ProjectId,Led_bar_Panelize,4c65645f-6261-4725-9f50-616e656c697a,rev?*%
%TF.SameCoordinates,Original*%
%TF.FileFunction,Soldermask,Top*%
%TF.FilePolarity,Negative*%
%FSLAX46Y46*%
G04 Gerber Fmt 4.6, Leading zero omitted, Abs format (unit mm)*
G04 Created by KiCad (PCBNEW 9.0.1) date 2025-05-11 12:35:00*
%MOMM*%
%LPD*%
G01*
G04 APERTURE LIST*
%ADD10O,1.600000X1.600000*%
%ADD11C,1.600000*%
%ADD12C,1.800000*%
%ADD13R,1.800000X1.800000*%
%ADD14R,1.700000X1.700000*%
%ADD15C,1.700000*%
G04 APERTURE END LIST*
D10*
%TO.C,R5*%
X36395000Y-44500000D03*
D11*
X33855000Y-44500000D03*
%TD*%
D10*
%TO.C,R3*%
X23395000Y-58000000D03*
D11*
X20855000Y-58000000D03*
%TD*%
D12*
%TO.C,D5*%
X34900000Y-74995000D03*
D13*
X34900000Y-77535000D03*
%TD*%
D12*
%TO.C,D3*%
X21900000Y-61495000D03*
D13*
X21900000Y-64035000D03*
%TD*%
D10*
%TO.C,R5*%
X36395000Y-71500000D03*
D11*
X33855000Y-71500000D03*
%TD*%
D12*
%TO.C,D3*%
X21900000Y-47995000D03*
D13*
X21900000Y-50535000D03*
%TD*%
D10*
%TO.C,R4*%
X29895000Y-58000000D03*
D11*
X27355000Y-58000000D03*
%TD*%
D10*
%TO.C,R3*%
X23395000Y-85000000D03*
D11*
X20855000Y-85000000D03*
%TD*%
D12*
%TO.C,D5*%
X34900000Y-34495000D03*
D13*
X34900000Y-37035000D03*
%TD*%
D10*
%TO.C,R6*%
X42895000Y-58000000D03*
D11*
X40355000Y-58000000D03*
%TD*%
D10*
%TO.C,R6*%
X42895000Y-85000000D03*
D11*
X40355000Y-85000000D03*
%TD*%
D10*
%TO.C,R4*%
X29895000Y-17500000D03*
D11*
X27355000Y-17500000D03*
%TD*%
D10*
%TO.C,R6*%
X42895000Y-44500000D03*
D11*
X40355000Y-44500000D03*
%TD*%
D12*
%TO.C,D6*%
X41400000Y-61495000D03*
D13*
X41400000Y-64035000D03*
%TD*%
D10*
%TO.C,R6*%
X42895000Y-17500000D03*
D11*
X40355000Y-17500000D03*
%TD*%
D12*
%TO.C,D6*%
X41400000Y-34495000D03*
D13*
X41400000Y-37035000D03*
%TD*%
D12*
%TO.C,D6*%
X41400000Y-47995000D03*
D13*
X41400000Y-50535000D03*
%TD*%
D12*
%TO.C,D4*%
X28400000Y-74995000D03*
D13*
X28400000Y-77535000D03*
%TD*%
D10*
%TO.C,R5*%
X36395000Y-17500000D03*
D11*
X33855000Y-17500000D03*
%TD*%
D12*
%TO.C,D5*%
X34900000Y-20995000D03*
D13*
X34900000Y-23535000D03*
%TD*%
D12*
%TO.C,D3*%
X21900000Y-20995000D03*
D13*
X21900000Y-23535000D03*
%TD*%
D10*
%TO.C,R4*%
X29895000Y-71500000D03*
D11*
X27355000Y-71500000D03*
%TD*%
D10*
%TO.C,R3*%
X23395000Y-31000000D03*
D11*
X20855000Y-31000000D03*
%TD*%
D12*
%TO.C,D3*%
X21900000Y-34495000D03*
D13*
X21900000Y-37035000D03*
%TD*%
D12*
%TO.C,D5*%
X34900000Y-61495000D03*
D13*
X34900000Y-64035000D03*
%TD*%
D10*
%TO.C,R5*%
X36395000Y-31000000D03*
D11*
X33855000Y-31000000D03*
%TD*%
D10*
%TO.C,R4*%
X29895000Y-31000000D03*
D11*
X27355000Y-31000000D03*
%TD*%
D10*
%TO.C,R4*%
X29895000Y-44500000D03*
D11*
X27355000Y-44500000D03*
%TD*%
D12*
%TO.C,D5*%
X34900000Y-47995000D03*
D13*
X34900000Y-50535000D03*
%TD*%
D10*
%TO.C,R5*%
X36395000Y-85000000D03*
D11*
X33855000Y-85000000D03*
%TD*%
D12*
%TO.C,D6*%
X41400000Y-74995000D03*
D13*
X41400000Y-77535000D03*
%TD*%
D12*
%TO.C,D4*%
X28400000Y-61495000D03*
D13*
X28400000Y-64035000D03*
%TD*%
D10*
%TO.C,R3*%
X23395000Y-44500000D03*
D11*
X20855000Y-44500000D03*
%TD*%
D10*
%TO.C,R4*%
X29895000Y-85000000D03*
D11*
X27355000Y-85000000D03*
%TD*%
D10*
%TO.C,R5*%
X36395000Y-58000000D03*
D11*
X33855000Y-58000000D03*
%TD*%
D12*
%TO.C,D3*%
X21900000Y-74995000D03*
D13*
X21900000Y-77535000D03*
%TD*%
D10*
%TO.C,R3*%
X23395000Y-71500000D03*
D11*
X20855000Y-71500000D03*
%TD*%
D10*
%TO.C,R6*%
X42895000Y-31000000D03*
D11*
X40355000Y-31000000D03*
%TD*%
D12*
%TO.C,D4*%
X28400000Y-20995000D03*
D13*
X28400000Y-23535000D03*
%TD*%
D12*
%TO.C,D4*%
X28400000Y-47995000D03*
D13*
X28400000Y-50535000D03*
%TD*%
D10*
%TO.C,R6*%
X42895000Y-71500000D03*
D11*
X40355000Y-71500000D03*
%TD*%
D12*
%TO.C,D4*%
X28400000Y-34495000D03*
D13*
X28400000Y-37035000D03*
%TD*%
D10*
%TO.C,R3*%
X23395000Y-17500000D03*
D11*
X20855000Y-17500000D03*
%TD*%
D12*
%TO.C,D6*%
X41400000Y-20995000D03*
D13*
X41400000Y-23535000D03*
%TD*%
%TO.C,D2*%
X15400000Y-23535000D03*
D12*
X15400000Y-20995000D03*
%TD*%
D13*
%TO.C,D1*%
X8900000Y-37035000D03*
D12*
X8900000Y-34495000D03*
%TD*%
D13*
%TO.C,D1*%
X8900000Y-50535000D03*
D12*
X8900000Y-47995000D03*
%TD*%
D13*
%TO.C,D1*%
X8900000Y-91035000D03*
D12*
X8900000Y-88495000D03*
%TD*%
D14*
%TO.C,J2*%
X47000000Y-91005000D03*
D15*
X47000000Y-88465000D03*
%TD*%
D14*
%TO.C,J1*%
X3000000Y-37005000D03*
D15*
X3000000Y-34465000D03*
%TD*%
D13*
%TO.C,D1*%
X8900000Y-23535000D03*
D12*
X8900000Y-20995000D03*
%TD*%
D11*
%TO.C,R2*%
X14355000Y-17500000D03*
D10*
X16895000Y-17500000D03*
%TD*%
D13*
%TO.C,D4*%
X28400000Y-91035000D03*
D12*
X28400000Y-88495000D03*
%TD*%
D14*
%TO.C,J2*%
X47000000Y-10005000D03*
D15*
X47000000Y-7465000D03*
%TD*%
D13*
%TO.C,D1*%
X8900000Y-64035000D03*
D12*
X8900000Y-61495000D03*
%TD*%
D13*
%TO.C,D2*%
X15400000Y-91035000D03*
D12*
X15400000Y-88495000D03*
%TD*%
D14*
%TO.C,J1*%
X3000000Y-77505000D03*
D15*
X3000000Y-74965000D03*
%TD*%
D13*
%TO.C,D4*%
X28400000Y-10035000D03*
D12*
X28400000Y-7495000D03*
%TD*%
D13*
%TO.C,D3*%
X21900000Y-10035000D03*
D12*
X21900000Y-7495000D03*
%TD*%
D11*
%TO.C,R3*%
X20855000Y-4000000D03*
D10*
X23395000Y-4000000D03*
%TD*%
D14*
%TO.C,J1*%
X3000000Y-10005000D03*
D15*
X3000000Y-7465000D03*
%TD*%
D14*
%TO.C,J2*%
X47000000Y-77505000D03*
D15*
X47000000Y-74965000D03*
%TD*%
D13*
%TO.C,D2*%
X15400000Y-10035000D03*
D12*
X15400000Y-7495000D03*
%TD*%
D11*
%TO.C,R1*%
X7855000Y-4000000D03*
D10*
X10395000Y-4000000D03*
%TD*%
D13*
%TO.C,D5*%
X34900000Y-10035000D03*
D12*
X34900000Y-7495000D03*
%TD*%
D14*
%TO.C,J2*%
X47000000Y-64005000D03*
D15*
X47000000Y-61465000D03*
%TD*%
D11*
%TO.C,R1*%
X7855000Y-85000000D03*
D10*
X10395000Y-85000000D03*
%TD*%
D13*
%TO.C,D2*%
X15400000Y-37035000D03*
D12*
X15400000Y-34495000D03*
%TD*%
D13*
%TO.C,D1*%
X8900000Y-77535000D03*
D12*
X8900000Y-74995000D03*
%TD*%
D14*
%TO.C,J1*%
X3000000Y-50505000D03*
D15*
X3000000Y-47965000D03*
%TD*%
D13*
%TO.C,D6*%
X41400000Y-91035000D03*
D12*
X41400000Y-88495000D03*
%TD*%
D14*
%TO.C,J2*%
X47000000Y-23505000D03*
D15*
X47000000Y-20965000D03*
%TD*%
D11*
%TO.C,R2*%
X14355000Y-4000000D03*
D10*
X16895000Y-4000000D03*
%TD*%
D14*
%TO.C,J2*%
X47000000Y-50505000D03*
D15*
X47000000Y-47965000D03*
%TD*%
D13*
%TO.C,D5*%
X34900000Y-91035000D03*
D12*
X34900000Y-88495000D03*
%TD*%
D11*
%TO.C,R1*%
X7855000Y-71500000D03*
D10*
X10395000Y-71500000D03*
%TD*%
D11*
%TO.C,R2*%
X14355000Y-71500000D03*
D10*
X16895000Y-71500000D03*
%TD*%
D11*
%TO.C,R1*%
X7855000Y-44500000D03*
D10*
X10395000Y-44500000D03*
%TD*%
D13*
%TO.C,D2*%
X15400000Y-77535000D03*
D12*
X15400000Y-74995000D03*
%TD*%
D11*
%TO.C,R2*%
X14355000Y-85000000D03*
D10*
X16895000Y-85000000D03*
%TD*%
D11*
%TO.C,R5*%
X33855000Y-4000000D03*
D10*
X36395000Y-4000000D03*
%TD*%
D11*
%TO.C,R1*%
X7855000Y-58000000D03*
D10*
X10395000Y-58000000D03*
%TD*%
D11*
%TO.C,R1*%
X7855000Y-17500000D03*
D10*
X10395000Y-17500000D03*
%TD*%
D11*
%TO.C,R6*%
X40355000Y-4000000D03*
D10*
X42895000Y-4000000D03*
%TD*%
D13*
%TO.C,D3*%
X21900000Y-91035000D03*
D12*
X21900000Y-88495000D03*
%TD*%
D13*
%TO.C,D1*%
X8900000Y-10035000D03*
D12*
X8900000Y-7495000D03*
%TD*%
D11*
%TO.C,R1*%
X7855000Y-31000000D03*
D10*
X10395000Y-31000000D03*
%TD*%
D11*
%TO.C,R2*%
X14355000Y-44500000D03*
D10*
X16895000Y-44500000D03*
%TD*%
D14*
%TO.C,J1*%
X3000000Y-64005000D03*
D15*
X3000000Y-61465000D03*
%TD*%
D14*
%TO.C,J1*%
X3000000Y-23505000D03*
D15*
X3000000Y-20965000D03*
%TD*%
D11*
%TO.C,R4*%
X27355000Y-4000000D03*
D10*
X29895000Y-4000000D03*
%TD*%
D11*
%TO.C,R2*%
X14355000Y-58000000D03*
D10*
X16895000Y-58000000D03*
%TD*%
D14*
%TO.C,J1*%
X3000000Y-91005000D03*
D15*
X3000000Y-88465000D03*
%TD*%
D13*
%TO.C,D6*%
X41400000Y-10035000D03*
D12*
X41400000Y-7495000D03*
%TD*%
D13*
%TO.C,D2*%
X15400000Y-50535000D03*
D12*
X15400000Y-47995000D03*
%TD*%
D11*
%TO.C,R2*%
X14355000Y-31000000D03*
D10*
X16895000Y-31000000D03*
%TD*%
D14*
%TO.C,J2*%
X47000000Y-37005000D03*
D15*
X47000000Y-34465000D03*
%TD*%
D13*
%TO.C,D2*%
X15400000Y-64035000D03*
D12*
X15400000Y-61495000D03*
%TD*%
M02*
