%TF.GenerationSoftware,KiCad,Pcbnew,9.0.1*%
%TF.CreationDate,2025-05-11T12:35:01+01:00*%
%TF.ProjectId,Led_bar_Panelize,4c65645f-6261-4725-9f50-616e656c697a,rev?*%
%TF.SameCoordinates,Original*%
%TF.FileFunction,Profile,NP*%
%FSLAX46Y46*%
G04 Gerber Fmt 4.6, Leading zero omitted, Abs format (unit mm)*
G04 Created by KiCad (PCBNEW 9.0.1) date 2025-05-11 12:35:01*
%MOMM*%
%LPD*%
G01*
G04 APERTURE LIST*
%TA.AperFunction,Profile*%
%ADD10C,0.100000*%
%TD*%
G04 APERTURE END LIST*
D10*
X50000000Y-40500000D02*
X50000000Y-54000000D01*
X50000000Y0D02*
X50000000Y-13500000D01*
X0Y-81000000D02*
X0Y-67500000D01*
X0Y-40500000D02*
X0Y-27000000D01*
X2645179Y-58662558D02*
X2727832Y-58678071D01*
X1898338Y-31294736D02*
X1963716Y-31347633D01*
X46978974Y-18199869D02*
X47063064Y-18198829D01*
X45415692Y-17116416D02*
X45448115Y-17194012D01*
X4308262Y-69414436D02*
X4252976Y-69351066D01*
X45614851Y-69514422D02*
X45567805Y-69584129D01*
X3557219Y-41893915D02*
X3477110Y-41868324D01*
X1775824Y-71679574D02*
X1835656Y-71738670D01*
X47713153Y-14956817D02*
X47635964Y-14923437D01*
X48360347Y-69480463D02*
X48308262Y-69414436D01*
X48697919Y-43415928D02*
X48691684Y-43332063D01*
X4568576Y-2344584D02*
X4534244Y-2267814D01*
X2811152Y-14810521D02*
X2727832Y-14821928D01*
X4599069Y-42922958D02*
X4568576Y-42844584D01*
X2894934Y-85696750D02*
X2978974Y-85699869D01*
X4534244Y-44232185D02*
X4568576Y-44155415D01*
X48409102Y-84951015D02*
X48454409Y-84880166D01*
X3862110Y-44965184D02*
X3933514Y-44920757D01*
X1775824Y-31179574D02*
X1835656Y-31238670D01*
X4648251Y-16083747D02*
X4625649Y-16002744D01*
X48697919Y-83915928D02*
X48691684Y-83832063D01*
X46727832Y-1321928D02*
X46645179Y-1337441D01*
X2727832Y-41821928D02*
X2645179Y-41837441D01*
X1304679Y-43626042D02*
X1312986Y-43709728D01*
X3635964Y-58576562D02*
X3713153Y-58543182D01*
X45567805Y-17415870D02*
X45614851Y-17485577D01*
X1567805Y-69584129D02*
X1524264Y-69656077D01*
X2811152Y-45189478D02*
X2894934Y-45196750D01*
X46894934Y-58696750D02*
X46978974Y-58699869D01*
X46482676Y-68880624D02*
X46403225Y-68908189D01*
X48700000Y-30000000D02*
X48697919Y-29915928D01*
X47933514Y-55579242D02*
X47862110Y-55534815D01*
X46563393Y-28357022D02*
X46482676Y-28380624D01*
X45835656Y-55761329D02*
X45775824Y-55820425D01*
X46978974Y-31699869D02*
X47063064Y-31698829D01*
X48681309Y-43248608D02*
X48666820Y-43165769D01*
X46645179Y-72162558D02*
X46727832Y-72178071D01*
X48360347Y-85019536D02*
X48409102Y-84951015D01*
X4133349Y-69232908D02*
X4069299Y-69178410D01*
X1325422Y-29707099D02*
X1312986Y-29790271D01*
X4454409Y-69619833D02*
X4409102Y-69548984D01*
X47230577Y-55315709D02*
X47147001Y-55306367D01*
X1718988Y-55882409D02*
X1665286Y-55947127D01*
X4069299Y-28678410D02*
X4002634Y-28627147D01*
X45341956Y-70875356D02*
X45362548Y-70956893D01*
X45614851Y-57985577D02*
X45665286Y-58052872D01*
X1665286Y-4052872D02*
X1718988Y-4117590D01*
X1312986Y-56790271D02*
X1304679Y-56873957D01*
X2978974Y-58699869D02*
X3063064Y-58698829D01*
X47147001Y-28306367D02*
X47063064Y-28301170D01*
X4681309Y-56748608D02*
X4666820Y-56665769D01*
X1898338Y-15205263D02*
X1835656Y-15261329D01*
X46482676Y-55380624D02*
X46403225Y-55408189D01*
X45312986Y-83790271D02*
X45304679Y-83873957D01*
X4252976Y-28851066D02*
X4194624Y-28790507D01*
X45300520Y-70542048D02*
X45304679Y-70626042D01*
X46563393Y-4642977D02*
X46645179Y-4662558D01*
X45312986Y-56790271D02*
X45304679Y-56873957D01*
X4681309Y-16248608D02*
X4666820Y-16165769D01*
X4308262Y-58085563D02*
X4360347Y-58019536D01*
X1300520Y-43457951D02*
X1300520Y-43542048D01*
X1415692Y-42883583D02*
X1387146Y-42962687D01*
X46248895Y-28474929D02*
X46174393Y-28513940D01*
X2325234Y-85560349D02*
X2403225Y-85591810D01*
X4599069Y-69922958D02*
X4568576Y-69844584D01*
X47230577Y-72184290D02*
X47313589Y-72170826D01*
X3395834Y-85653273D02*
X3477110Y-85631675D01*
X1775824Y-4179574D02*
X1835656Y-4238670D01*
X2325234Y-28439650D02*
X2248895Y-28474929D01*
X1963716Y-15152366D02*
X1898338Y-15205263D01*
X48648251Y-70083747D02*
X48625649Y-70002744D01*
X1775824Y-1820425D02*
X1718988Y-1882409D01*
X45718988Y-82882409D02*
X45665286Y-82947127D01*
X1415692Y-29383583D02*
X1387146Y-29462687D01*
X4625649Y-70997255D02*
X4648251Y-70916252D01*
X3635964Y-31576562D02*
X3713153Y-31543182D01*
X46101912Y-82556587D02*
X46031629Y-82602767D01*
X2325234Y-41939650D02*
X2248895Y-41974929D01*
X1304679Y-16373957D02*
X1300520Y-16457951D01*
X48599069Y-69922958D02*
X48568576Y-69844584D01*
X47713153Y-85543182D02*
X47788596Y-85506026D01*
X4069299Y-17821589D02*
X4133349Y-17767091D01*
X4308262Y-44585563D02*
X4360347Y-44519536D01*
X2978974Y-14800130D02*
X2894934Y-14803249D01*
X48069299Y-1678410D02*
X48002634Y-1627147D01*
X46031629Y-85397232D02*
X46101912Y-85443412D01*
X2727832Y-55321928D02*
X2645179Y-55337441D01*
X3147001Y-85693632D02*
X3230577Y-85684290D01*
X3395834Y-82346726D02*
X3313589Y-82329173D01*
X1835656Y-69261329D02*
X1775824Y-69320425D01*
X4697919Y-2915928D02*
X4691684Y-2832063D01*
X4568576Y-42844584D02*
X4534244Y-42767814D01*
X45963716Y-4347633D02*
X46031629Y-4397232D01*
X3147001Y-72193632D02*
X3230577Y-72184290D01*
X1963716Y-44847633D02*
X2031629Y-44897232D01*
X48252976Y-31148933D02*
X48308262Y-31085563D01*
X2248895Y-28474929D02*
X2174393Y-28513940D01*
X46403225Y-18091810D02*
X46482676Y-18119375D01*
X50000000Y-81000000D02*
X50000000Y-93000000D01*
X4599069Y-17077041D02*
X4625649Y-16997255D01*
X48666820Y-30334230D02*
X48681309Y-30251391D01*
X46894934Y-82303249D02*
X46811152Y-82310521D01*
X45415692Y-42883583D02*
X45387146Y-42962687D01*
X1718988Y-15382409D02*
X1665286Y-15447127D01*
X48069299Y-69178410D02*
X48002634Y-69127147D01*
X48666820Y-16834230D02*
X48681309Y-16751391D01*
X4069299Y-15178410D02*
X4002634Y-15127147D01*
X48681309Y-57251391D02*
X48691684Y-57167936D01*
X3713153Y-31543182D02*
X3788596Y-31506026D01*
X48496157Y-30807163D02*
X48534244Y-30732185D01*
X46563393Y-85642977D02*
X46645179Y-85662558D01*
X2563393Y-82357022D02*
X2482676Y-82380624D01*
X1898338Y-44794736D02*
X1963716Y-44847633D01*
X1524264Y-83156077D02*
X1484335Y-83230090D01*
X4691684Y-57167936D02*
X4697919Y-57084071D01*
X3313589Y-55329173D02*
X3230577Y-55315709D01*
X3313589Y-31670826D02*
X3395834Y-31653273D01*
X46031629Y-15102767D02*
X45963716Y-15152366D01*
X45341956Y-30375356D02*
X45362548Y-30456893D01*
X47477110Y-1368324D02*
X47395834Y-1346726D01*
X46482676Y-82380624D02*
X46403225Y-82408189D01*
X45415692Y-30616416D02*
X45448115Y-30694012D01*
X3477110Y-45131675D02*
X3557219Y-45106084D01*
X46894934Y-1303249D02*
X46811152Y-1310521D01*
X48252976Y-71648933D02*
X48308262Y-71585563D01*
X46174393Y-44986059D02*
X46248895Y-45025070D01*
X4069299Y-4321589D02*
X4133349Y-4267091D01*
X3395834Y-58653273D02*
X3477110Y-58631675D01*
X4625649Y-16997255D02*
X4648251Y-16916252D01*
X2727832Y-72178071D02*
X2811152Y-72189478D01*
X4409102Y-83048984D02*
X4360347Y-82980463D01*
X48599069Y-42922958D02*
X48568576Y-42844584D01*
X48496157Y-15692836D02*
X48454409Y-15619833D01*
X1898338Y-85294736D02*
X1963716Y-85347633D01*
X45524264Y-71343922D02*
X45567805Y-71415870D01*
X45312986Y-16709728D02*
X45325422Y-16792900D01*
X1312986Y-30209728D02*
X1325422Y-30292900D01*
X4069299Y-42178410D02*
X4002634Y-42127147D01*
X48409102Y-15548984D02*
X48360347Y-15480463D01*
X4534244Y-56267814D02*
X4496157Y-56192836D01*
X45300520Y-16457951D02*
X45300520Y-16542048D01*
X4691684Y-16332063D02*
X4681309Y-16248608D01*
X4496157Y-71307163D02*
X4534244Y-71232185D01*
X48625649Y-2502744D02*
X48599069Y-2422958D01*
X4194624Y-17709492D02*
X4252976Y-17648933D01*
X3788596Y-18006026D02*
X3862110Y-17965184D01*
X45567805Y-15584129D02*
X45524264Y-15656077D01*
X48002634Y-31372852D02*
X48069299Y-31321589D01*
X45300520Y-2957951D02*
X45300520Y-3042048D01*
X1524264Y-3843922D02*
X1567805Y-3915870D01*
X3713153Y-82456817D02*
X3635964Y-82423437D01*
X2563393Y-41857022D02*
X2482676Y-41880624D01*
X46174393Y-69013940D02*
X46101912Y-69056587D01*
X45614851Y-17485577D02*
X45665286Y-17552872D01*
X3230577Y-58684290D02*
X3313589Y-58670826D01*
X1415692Y-84616416D02*
X1448115Y-84694012D01*
X3063064Y-1301170D02*
X2978974Y-1300130D01*
X48691684Y-43332063D02*
X48681309Y-43248608D01*
X47477110Y-4631675D02*
X47557219Y-4606084D01*
X48697919Y-29915928D02*
X48691684Y-29832063D01*
X47313589Y-18170826D02*
X47395834Y-18153273D01*
X1312986Y-3209728D02*
X1325422Y-3292900D01*
X2101912Y-82556587D02*
X2031629Y-82602767D01*
X4133349Y-4267091D02*
X4194624Y-4209492D01*
X46325234Y-55439650D02*
X46248895Y-55474929D01*
X45312986Y-70290271D02*
X45304679Y-70373957D01*
X4599069Y-29422958D02*
X4568576Y-29344584D01*
X46403225Y-72091810D02*
X46482676Y-72119375D01*
X4308262Y-71585563D02*
X4360347Y-71519536D01*
X2894934Y-18196750D02*
X2978974Y-18199869D01*
X2727832Y-31678071D02*
X2811152Y-31689478D01*
X46811152Y-45189478D02*
X46894934Y-45196750D01*
X46101912Y-15056587D02*
X46031629Y-15102767D01*
X48534244Y-71232185D02*
X48568576Y-71155415D01*
X45415692Y-2383583D02*
X45387146Y-2462687D01*
X48568576Y-84655415D02*
X48599069Y-84577041D01*
X48568576Y-29344584D02*
X48534244Y-29267814D01*
X48454409Y-15619833D02*
X48409102Y-15548984D01*
X4691684Y-16667936D02*
X4697919Y-16584071D01*
X48194624Y-4209492D02*
X48252976Y-4148933D01*
X48625649Y-16002744D02*
X48599069Y-15922958D01*
X46325234Y-85560349D02*
X46403225Y-85591810D01*
X47635964Y-58576562D02*
X47713153Y-58543182D01*
X46325234Y-4560349D02*
X46403225Y-4591810D01*
X1665286Y-85052872D02*
X1718988Y-85117590D01*
X3933514Y-82579242D02*
X3862110Y-82534815D01*
X1387146Y-71037312D02*
X1415692Y-71116416D01*
X1448115Y-3694012D02*
X1484335Y-3769909D01*
X47713153Y-31543182D02*
X47788596Y-31506026D01*
X48496157Y-71307163D02*
X48534244Y-71232185D01*
X2248895Y-14974929D02*
X2174393Y-15013940D01*
X45775824Y-44679574D02*
X45835656Y-44738670D01*
X3147001Y-28306367D02*
X3063064Y-28301170D01*
X47788596Y-82493973D02*
X47713153Y-82456817D01*
X46325234Y-28439650D02*
X46248895Y-28474929D01*
X1898338Y-58294736D02*
X1963716Y-58347633D01*
X2174393Y-58486059D02*
X2248895Y-58525070D01*
X4697919Y-16415928D02*
X4691684Y-16332063D01*
X48648251Y-56583747D02*
X48625649Y-56502744D01*
X2894934Y-14803249D02*
X2811152Y-14810521D01*
X48069299Y-42178410D02*
X48002634Y-42127147D01*
X48360347Y-31019536D02*
X48409102Y-30951015D01*
X3557219Y-55393915D02*
X3477110Y-55368324D01*
X45304679Y-84126042D02*
X45312986Y-84209728D01*
X48133349Y-55732908D02*
X48069299Y-55678410D01*
X47147001Y-4693632D02*
X47230577Y-4684290D01*
X48534244Y-29267814D02*
X48496157Y-29192836D01*
X4568576Y-84655415D02*
X4599069Y-84577041D01*
X46403225Y-31591810D02*
X46482676Y-31619375D01*
X2325234Y-82439650D02*
X2248895Y-82474929D01*
X3147001Y-45193632D02*
X3230577Y-45184290D01*
X48496157Y-17307163D02*
X48534244Y-17232185D01*
X2482676Y-85619375D02*
X2563393Y-85642977D01*
X4133349Y-1732908D02*
X4069299Y-1678410D01*
X2811152Y-68810521D02*
X2727832Y-68821928D01*
X45665286Y-69447127D02*
X45614851Y-69514422D01*
X1614851Y-71485577D02*
X1665286Y-71552872D01*
X3635964Y-68923437D02*
X3557219Y-68893915D01*
X48409102Y-69548984D02*
X48360347Y-69480463D01*
X4252976Y-1851066D02*
X4194624Y-1790507D01*
X3147001Y-82306367D02*
X3063064Y-82301170D01*
X2403225Y-14908189D02*
X2325234Y-14939650D01*
X48133349Y-82732908D02*
X48069299Y-82678410D01*
X47395834Y-18153273D02*
X47477110Y-18131675D01*
X48599069Y-44077041D02*
X48625649Y-43997255D01*
X3788596Y-55493973D02*
X3713153Y-55456817D01*
X47063064Y-1301170D02*
X46978974Y-1300130D01*
X3713153Y-68956817D02*
X3635964Y-68923437D01*
X2325234Y-72060349D02*
X2403225Y-72091810D01*
X45312986Y-2790271D02*
X45304679Y-2873957D01*
X1448115Y-71194012D02*
X1484335Y-71269909D01*
X47395834Y-72153273D02*
X47477110Y-72131675D01*
X4360347Y-42480463D02*
X4308262Y-42414436D01*
X46811152Y-55310521D02*
X46727832Y-55321928D01*
X47557219Y-85606084D02*
X47635964Y-85576562D01*
X4700000Y-43500000D02*
X4697919Y-43415928D01*
X1835656Y-71738670D02*
X1898338Y-71794736D01*
X3635964Y-1423437D02*
X3557219Y-1393915D01*
X46403225Y-28408189D02*
X46325234Y-28439650D01*
X1448115Y-2305987D02*
X1415692Y-2383583D01*
X48496157Y-69692836D02*
X48454409Y-69619833D01*
X1312986Y-29790271D02*
X1304679Y-29873957D01*
X3313589Y-45170826D02*
X3395834Y-45153273D01*
X2727832Y-28321928D02*
X2645179Y-28337441D01*
X46811152Y-68810521D02*
X46727832Y-68821928D01*
X45775824Y-17679574D02*
X45835656Y-17738670D01*
X4454409Y-15619833D02*
X4409102Y-15548984D01*
X1835656Y-44738670D02*
X1898338Y-44794736D01*
X2031629Y-17897232D02*
X2101912Y-17943412D01*
X4534244Y-42767814D02*
X4496157Y-42692836D01*
X4409102Y-3951015D02*
X4454409Y-3880166D01*
X2811152Y-4689478D02*
X2894934Y-4696750D01*
X47788596Y-55493973D02*
X47713153Y-55456817D01*
X48069299Y-71821589D02*
X48133349Y-71767091D01*
X1341956Y-16875356D02*
X1362548Y-16956893D01*
X45835656Y-17738670D02*
X45898338Y-17794736D01*
X48697919Y-84084071D02*
X48700000Y-84000000D01*
X2811152Y-41810521D02*
X2727832Y-41821928D01*
X2101912Y-58443412D02*
X2174393Y-58486059D01*
X48308262Y-4085563D02*
X48360347Y-4019536D01*
X1362548Y-43956893D02*
X1387146Y-44037312D01*
X1312986Y-84209728D02*
X1325422Y-84292900D01*
X45312986Y-57209728D02*
X45325422Y-57292900D01*
X48625649Y-70002744D02*
X48599069Y-69922958D01*
X47147001Y-18193632D02*
X47230577Y-18184290D01*
X2563393Y-1357022D02*
X2482676Y-1380624D01*
X48691684Y-16332063D02*
X48681309Y-16248608D01*
X2101912Y-28556587D02*
X2031629Y-28602767D01*
X46482676Y-28380624D02*
X46403225Y-28408189D01*
X2031629Y-42102767D02*
X1963716Y-42152366D01*
X47313589Y-41829173D02*
X47230577Y-41815709D01*
X1484335Y-44269909D02*
X1524264Y-44343922D01*
X1835656Y-85238670D02*
X1898338Y-85294736D01*
X4625649Y-29502744D02*
X4599069Y-29422958D01*
X2174393Y-44986059D02*
X2248895Y-45025070D01*
X3635964Y-18076562D02*
X3713153Y-18043182D01*
X2645179Y-68837441D02*
X2563393Y-68857022D01*
X45362548Y-3456893D02*
X45387146Y-3537312D01*
X1567805Y-3915870D02*
X1614851Y-3985577D01*
X47395834Y-45153273D02*
X47477110Y-45131675D01*
X47477110Y-28368324D02*
X47395834Y-28346726D01*
X45304679Y-70373957D02*
X45300520Y-70457951D01*
X45835656Y-28761329D02*
X45775824Y-28820425D01*
X4666820Y-3334230D02*
X4681309Y-3251391D01*
X2031629Y-15102767D02*
X1963716Y-15152366D01*
X45963716Y-58347633D02*
X46031629Y-58397232D01*
X1614851Y-42514422D02*
X1567805Y-42584129D01*
X48534244Y-2267814D02*
X48496157Y-2192836D01*
X1341956Y-30375356D02*
X1362548Y-30456893D01*
X1300520Y-2957951D02*
X1300520Y-3042048D01*
X1300520Y-16457951D02*
X1300520Y-16542048D01*
X47713153Y-68956817D02*
X47635964Y-68923437D01*
X46978974Y-55300130D02*
X46894934Y-55303249D01*
X46563393Y-45142977D02*
X46645179Y-45162558D01*
X47477110Y-85631675D02*
X47557219Y-85606084D01*
X47395834Y-55346726D02*
X47313589Y-55329173D01*
X2482676Y-82380624D02*
X2403225Y-82408189D01*
X45898338Y-71794736D02*
X45963716Y-71847633D01*
X4681309Y-43751391D02*
X4691684Y-43667936D01*
X45312986Y-30209728D02*
X45325422Y-30292900D01*
X47063064Y-82301170D02*
X46978974Y-82300130D01*
X4599069Y-15922958D02*
X4568576Y-15844584D01*
X47230577Y-18184290D02*
X47313589Y-18170826D01*
X45898338Y-4294736D02*
X45963716Y-4347633D01*
X48648251Y-57416252D02*
X48666820Y-57334230D01*
X1415692Y-83383583D02*
X1387146Y-83462687D01*
X48069299Y-58321589D02*
X48133349Y-58267091D01*
X3933514Y-31420757D02*
X4002634Y-31372852D01*
X45484335Y-42730090D02*
X45448115Y-42805987D01*
X45448115Y-83305987D02*
X45415692Y-83383583D01*
X3557219Y-18106084D02*
X3635964Y-18076562D01*
X2894934Y-58696750D02*
X2978974Y-58699869D01*
X2894934Y-55303249D02*
X2811152Y-55310521D01*
X48534244Y-17232185D02*
X48568576Y-17155415D01*
X48534244Y-3732185D02*
X48568576Y-3655415D01*
X48308262Y-15414436D02*
X48252976Y-15351066D01*
X48691684Y-56832063D02*
X48681309Y-56748608D01*
X1665286Y-55947127D02*
X1614851Y-56014422D01*
X4625649Y-16002744D02*
X4599069Y-15922958D01*
X47788596Y-41993973D02*
X47713153Y-41956817D01*
X48454409Y-3880166D02*
X48496157Y-3807163D01*
X1835656Y-31238670D02*
X1898338Y-31294736D01*
X3147001Y-58693632D02*
X3230577Y-58684290D01*
X45484335Y-3769909D02*
X45524264Y-3843922D01*
X2248895Y-82474929D02*
X2174393Y-82513940D01*
X48691684Y-16667936D02*
X48697919Y-16584071D01*
X4308262Y-42414436D02*
X4252976Y-42351066D01*
X45362548Y-29543106D02*
X45341956Y-29624643D01*
X48360347Y-28980463D02*
X48308262Y-28914436D01*
X48454409Y-44380166D02*
X48496157Y-44307163D01*
X45963716Y-69152366D02*
X45898338Y-69205263D01*
X47933514Y-71920757D02*
X48002634Y-71872852D01*
X2101912Y-42056587D02*
X2031629Y-42102767D01*
X46645179Y-14837441D02*
X46563393Y-14857022D01*
X47713153Y-58543182D02*
X47788596Y-58506026D01*
X1484335Y-17269909D02*
X1524264Y-17343922D01*
X2174393Y-28513940D02*
X2101912Y-28556587D01*
X50000000Y-54000000D02*
X50000000Y-67500000D01*
X47862110Y-44965184D02*
X47933514Y-44920757D01*
X46894934Y-85696750D02*
X46978974Y-85699869D01*
X48454409Y-57880166D02*
X48496157Y-57807163D01*
X4252976Y-69351066D02*
X4194624Y-69290507D01*
X4697919Y-83915928D02*
X4691684Y-83832063D01*
X3147001Y-1306367D02*
X3063064Y-1301170D01*
X1362548Y-56543106D02*
X1341956Y-56624643D01*
X48697919Y-30084071D02*
X48700000Y-30000000D01*
X45524264Y-2156077D02*
X45484335Y-2230090D01*
X1304679Y-57126042D02*
X1312986Y-57209728D01*
X3063064Y-68801170D02*
X2978974Y-68800130D01*
X48069299Y-17821589D02*
X48133349Y-17767091D01*
X46727832Y-58678071D02*
X46811152Y-58689478D01*
X45775824Y-69320425D02*
X45718988Y-69382409D01*
X46645179Y-82337441D02*
X46563393Y-82357022D01*
X48691684Y-70332063D02*
X48681309Y-70248608D01*
X3230577Y-1315709D02*
X3147001Y-1306367D01*
X4625649Y-57497255D02*
X4648251Y-57416252D01*
X46101912Y-44943412D02*
X46174393Y-44986059D01*
X2894934Y-68803249D02*
X2811152Y-68810521D01*
X1718988Y-31117590D02*
X1775824Y-31179574D01*
X4194624Y-28790507D02*
X4133349Y-28732908D01*
X48194624Y-85209492D02*
X48252976Y-85148933D01*
X46101912Y-71943412D02*
X46174393Y-71986059D01*
X4194624Y-44709492D02*
X4252976Y-44648933D01*
X4454409Y-57880166D02*
X4496157Y-57807163D01*
X45614851Y-56014422D02*
X45567805Y-56084129D01*
X3635964Y-28423437D02*
X3557219Y-28393915D01*
X2978974Y-28300130D02*
X2894934Y-28303249D01*
X3557219Y-1393915D02*
X3477110Y-1368324D01*
X3862110Y-85465184D02*
X3933514Y-85420757D01*
X47862110Y-82534815D02*
X47788596Y-82493973D01*
X3788596Y-4506026D02*
X3862110Y-4465184D01*
X1325422Y-16792900D02*
X1341956Y-16875356D01*
X4625649Y-43002744D02*
X4599069Y-42922958D01*
X47557219Y-82393915D02*
X47477110Y-82368324D01*
X47395834Y-31653273D02*
X47477110Y-31631675D01*
X4700000Y-3000000D02*
X4697919Y-2915928D01*
X48133349Y-28732908D02*
X48069299Y-28678410D01*
X3477110Y-31631675D02*
X3557219Y-31606084D01*
X47395834Y-68846726D02*
X47313589Y-68829173D01*
X4360347Y-82980463D02*
X4308262Y-82914436D01*
X46101912Y-69056587D02*
X46031629Y-69102767D01*
X46811152Y-41810521D02*
X46727832Y-41821928D01*
X1718988Y-1882409D02*
X1665286Y-1947127D01*
X3862110Y-31465184D02*
X3933514Y-31420757D01*
X4700000Y-70500000D02*
X4697919Y-70415928D01*
X4133349Y-85267091D02*
X4194624Y-85209492D01*
X2174393Y-1513940D02*
X2101912Y-1556587D01*
X1300520Y-70542048D02*
X1304679Y-70626042D01*
X45524264Y-84843922D02*
X45567805Y-84915870D01*
X45341956Y-83624643D02*
X45325422Y-83707099D01*
X4648251Y-3416252D02*
X4666820Y-3334230D01*
X2403225Y-4591810D02*
X2482676Y-4619375D01*
X1415692Y-69883583D02*
X1387146Y-69962687D01*
X46248895Y-1474929D02*
X46174393Y-1513940D01*
X3933514Y-4420757D02*
X4002634Y-4372852D01*
X45567805Y-42584129D02*
X45524264Y-42656077D01*
X2031629Y-58397232D02*
X2101912Y-58443412D01*
X1614851Y-84985577D02*
X1665286Y-85052872D01*
X3477110Y-55368324D02*
X3395834Y-55346726D01*
X48409102Y-42548984D02*
X48360347Y-42480463D01*
X2978974Y-72199869D02*
X3063064Y-72198829D01*
X1312986Y-70290271D02*
X1304679Y-70373957D01*
X4069299Y-58321589D02*
X4133349Y-58267091D01*
X48002634Y-15127147D02*
X47933514Y-15079242D01*
X1300520Y-16542048D02*
X1304679Y-16626042D01*
X1300520Y-83957951D02*
X1300520Y-84042048D01*
X3788596Y-31506026D02*
X3862110Y-31465184D01*
X48069299Y-82678410D02*
X48002634Y-82627147D01*
X45341956Y-70124643D02*
X45325422Y-70207099D01*
X3147001Y-14806367D02*
X3063064Y-14801170D01*
X1835656Y-15261329D02*
X1775824Y-15320425D01*
X1341956Y-83624643D02*
X1325422Y-83707099D01*
X4360347Y-44519536D02*
X4409102Y-44451015D01*
X45567805Y-29084129D02*
X45524264Y-29156077D01*
X4666820Y-70834230D02*
X4681309Y-70751391D01*
X48194624Y-31209492D02*
X48252976Y-31148933D01*
X2403225Y-18091810D02*
X2482676Y-18119375D01*
X2563393Y-85642977D02*
X2645179Y-85662558D01*
X45387146Y-15962687D02*
X45362548Y-16043106D01*
X1835656Y-28761329D02*
X1775824Y-28820425D01*
X2811152Y-18189478D02*
X2894934Y-18196750D01*
X0Y-13500000D02*
X0Y0D01*
X1300520Y-56957951D02*
X1300520Y-57042048D01*
X50000000Y-67500000D02*
X50000000Y-81000000D01*
X46174393Y-55513940D02*
X46101912Y-55556587D01*
X46645179Y-68837441D02*
X46563393Y-68857022D01*
X48666820Y-3334230D02*
X48681309Y-3251391D01*
X48308262Y-17585563D02*
X48360347Y-17519536D01*
X48625649Y-3497255D02*
X48648251Y-3416252D01*
X46894934Y-14803249D02*
X46811152Y-14810521D01*
X45665286Y-58052872D02*
X45718988Y-58117590D01*
X4360347Y-15480463D02*
X4308262Y-15414436D01*
X46248895Y-4525070D02*
X46325234Y-4560349D01*
X46482676Y-4619375D02*
X46563393Y-4642977D01*
X46174393Y-1513940D02*
X46101912Y-1556587D01*
X3557219Y-4606084D02*
X3635964Y-4576562D01*
X46248895Y-18025070D02*
X46325234Y-18060349D01*
X48133349Y-17767091D02*
X48194624Y-17709492D01*
X3230577Y-41815709D02*
X3147001Y-41806367D01*
X2174393Y-82513940D02*
X2101912Y-82556587D01*
X1524264Y-42656077D02*
X1484335Y-42730090D01*
X4648251Y-2583747D02*
X4625649Y-2502744D01*
X48700000Y-43500000D02*
X48697919Y-43415928D01*
X46811152Y-18189478D02*
X46894934Y-18196750D01*
X2482676Y-41880624D02*
X2403225Y-41908189D01*
X48700000Y-70500000D02*
X48697919Y-70415928D01*
X4133349Y-31267091D02*
X4194624Y-31209492D01*
X1448115Y-84694012D02*
X1484335Y-84769909D01*
X2811152Y-31689478D02*
X2894934Y-31696750D01*
X4069299Y-1678410D02*
X4002634Y-1627147D01*
X46325234Y-82439650D02*
X46248895Y-82474929D01*
X48599069Y-15922958D02*
X48568576Y-15844584D01*
X4002634Y-1627147D02*
X3933514Y-1579242D01*
X2811152Y-58689478D02*
X2894934Y-58696750D01*
X1567805Y-42584129D02*
X1524264Y-42656077D01*
X4360347Y-85019536D02*
X4409102Y-84951015D01*
X2101912Y-55556587D02*
X2031629Y-55602767D01*
X45718988Y-1882409D02*
X45665286Y-1947127D01*
X45304679Y-30126042D02*
X45312986Y-30209728D01*
X2727832Y-68821928D02*
X2645179Y-68837441D01*
X2174393Y-17986059D02*
X2248895Y-18025070D01*
X48496157Y-29192836D02*
X48454409Y-29119833D01*
X2325234Y-45060349D02*
X2403225Y-45091810D01*
X48681309Y-83748608D02*
X48666820Y-83665769D01*
X48648251Y-70916252D02*
X48666820Y-70834230D01*
X45300520Y-70457951D02*
X45300520Y-70542048D01*
X48496157Y-56192836D02*
X48454409Y-56119833D01*
X48691684Y-2832063D02*
X48681309Y-2748608D01*
X45718988Y-15382409D02*
X45665286Y-15447127D01*
X46978974Y-14800130D02*
X46894934Y-14803249D01*
X45387146Y-56462687D02*
X45362548Y-56543106D01*
X46031629Y-58397232D02*
X46101912Y-58443412D01*
X48002634Y-71872852D02*
X48069299Y-71821589D01*
X1665286Y-1947127D02*
X1614851Y-2014422D01*
X4666820Y-2665769D02*
X4648251Y-2583747D01*
X3933514Y-69079242D02*
X3862110Y-69034815D01*
X1665286Y-28947127D02*
X1614851Y-29014422D01*
X1415692Y-2383583D02*
X1387146Y-2462687D01*
X4691684Y-3167936D02*
X4697919Y-3084071D01*
X47933514Y-42079242D02*
X47862110Y-42034815D01*
X47635964Y-72076562D02*
X47713153Y-72043182D01*
X1775824Y-28820425D02*
X1718988Y-28882409D01*
X4002634Y-17872852D02*
X4069299Y-17821589D01*
X1665286Y-17552872D02*
X1718988Y-17617590D01*
X48697919Y-70415928D02*
X48691684Y-70332063D01*
X48308262Y-82914436D02*
X48252976Y-82851066D01*
X50000000Y-13500000D02*
X50000000Y-27000000D01*
X3713153Y-72043182D02*
X3788596Y-72006026D01*
X45387146Y-17037312D02*
X45415692Y-17116416D01*
X4002634Y-28627147D02*
X3933514Y-28579242D01*
X47147001Y-58693632D02*
X47230577Y-58684290D01*
X2031629Y-1602767D02*
X1963716Y-1652366D01*
X4409102Y-57951015D02*
X4454409Y-57880166D01*
X45304679Y-16373957D02*
X45300520Y-16457951D01*
X48625649Y-56502744D02*
X48599069Y-56422958D01*
X4308262Y-1914436D02*
X4252976Y-1851066D01*
X3230577Y-31684290D02*
X3313589Y-31670826D01*
X1718988Y-85117590D02*
X1775824Y-85179574D01*
X45304679Y-70626042D02*
X45312986Y-70709728D01*
X1614851Y-3985577D02*
X1665286Y-4052872D01*
X47313589Y-31670826D02*
X47395834Y-31653273D01*
X48252976Y-82851066D02*
X48194624Y-82790507D01*
X4496157Y-30807163D02*
X4534244Y-30732185D01*
X48648251Y-84416252D02*
X48666820Y-84334230D01*
X46031629Y-1602767D02*
X45963716Y-1652366D01*
X45775824Y-82820425D02*
X45718988Y-82882409D01*
X46811152Y-72189478D02*
X46894934Y-72196750D01*
X45362548Y-83543106D02*
X45341956Y-83624643D01*
X47063064Y-45198829D02*
X47147001Y-45193632D01*
X45567805Y-71415870D02*
X45614851Y-71485577D01*
X48308262Y-31085563D02*
X48360347Y-31019536D01*
X48666820Y-2665769D02*
X48648251Y-2583747D01*
X2031629Y-31397232D02*
X2101912Y-31443412D01*
X1524264Y-2156077D02*
X1484335Y-2230090D01*
X4194624Y-15290507D02*
X4133349Y-15232908D01*
X48681309Y-16751391D02*
X48691684Y-16667936D01*
X46325234Y-1439650D02*
X46248895Y-1474929D01*
X1300520Y-43542048D02*
X1304679Y-43626042D01*
X1963716Y-71847633D02*
X2031629Y-71897232D01*
X1341956Y-2624643D02*
X1325422Y-2707099D01*
X45387146Y-71037312D02*
X45415692Y-71116416D01*
X47788596Y-68993973D02*
X47713153Y-68956817D01*
X2978974Y-82300130D02*
X2894934Y-82303249D01*
X1312986Y-16709728D02*
X1325422Y-16792900D01*
X2031629Y-85397232D02*
X2101912Y-85443412D01*
X45718988Y-31117590D02*
X45775824Y-31179574D01*
X4133349Y-15232908D02*
X4069299Y-15178410D01*
X2894934Y-28303249D02*
X2811152Y-28310521D01*
X1341956Y-57375356D02*
X1362548Y-57456893D01*
X45835656Y-15261329D02*
X45775824Y-15320425D01*
X1387146Y-2462687D02*
X1362548Y-2543106D01*
X45665286Y-31052872D02*
X45718988Y-31117590D01*
X1415692Y-15883583D02*
X1387146Y-15962687D01*
X47862110Y-58465184D02*
X47933514Y-58420757D01*
X3147001Y-18193632D02*
X3230577Y-18184290D01*
X4625649Y-56502744D02*
X4599069Y-56422958D01*
X45835656Y-85238670D02*
X45898338Y-85294736D01*
X1898338Y-1705263D02*
X1835656Y-1761329D01*
X45362548Y-43956893D02*
X45387146Y-44037312D01*
X4409102Y-56048984D02*
X4360347Y-55980463D01*
X45567805Y-83084129D02*
X45524264Y-83156077D01*
X48700000Y-84000000D02*
X48697919Y-83915928D01*
X2403225Y-28408189D02*
X2325234Y-28439650D01*
X46174393Y-85486059D02*
X46248895Y-85525070D01*
X4648251Y-70916252D02*
X4666820Y-70834230D01*
X1567805Y-17415870D02*
X1614851Y-17485577D01*
X1963716Y-85347633D02*
X2031629Y-85397232D01*
X46101912Y-4443412D02*
X46174393Y-4486059D01*
X4069299Y-82678410D02*
X4002634Y-82627147D01*
X45341956Y-2624643D02*
X45325422Y-2707099D01*
X47063064Y-72198829D02*
X47147001Y-72193632D01*
X4409102Y-17451015D02*
X4454409Y-17380166D01*
X3862110Y-71965184D02*
X3933514Y-71920757D01*
X2563393Y-58642977D02*
X2645179Y-58662558D01*
X1775824Y-85179574D02*
X1835656Y-85238670D01*
X45325422Y-2707099D02*
X45312986Y-2790271D01*
X4648251Y-43083747D02*
X4625649Y-43002744D01*
X48568576Y-3655415D02*
X48599069Y-3577041D01*
X45325422Y-56707099D02*
X45312986Y-56790271D01*
X47477110Y-55368324D02*
X47395834Y-55346726D01*
X1341956Y-70875356D02*
X1362548Y-70956893D01*
X3477110Y-18131675D02*
X3557219Y-18106084D01*
X45524264Y-3843922D02*
X45567805Y-3915870D01*
X2482676Y-14880624D02*
X2403225Y-14908189D01*
X46978974Y-4699869D02*
X47063064Y-4698829D01*
X4252976Y-82851066D02*
X4194624Y-82790507D01*
X1718988Y-42382409D02*
X1665286Y-42447127D01*
X46174393Y-17986059D02*
X46248895Y-18025070D01*
X2403225Y-1408189D02*
X2325234Y-1439650D01*
X47635964Y-55423437D02*
X47557219Y-55393915D01*
X47230577Y-58684290D02*
X47313589Y-58670826D01*
X47635964Y-82423437D02*
X47557219Y-82393915D01*
X47635964Y-31576562D02*
X47713153Y-31543182D01*
X47313589Y-55329173D02*
X47230577Y-55315709D01*
X1325422Y-16207099D02*
X1312986Y-16290271D01*
X3635964Y-45076562D02*
X3713153Y-45043182D01*
X48534244Y-57732185D02*
X48568576Y-57655415D01*
X46325234Y-41939650D02*
X46248895Y-41974929D01*
X2811152Y-28310521D02*
X2727832Y-28321928D01*
X48360347Y-55980463D02*
X48308262Y-55914436D01*
X48252976Y-42351066D02*
X48194624Y-42290507D01*
X1448115Y-17194012D02*
X1484335Y-17269909D01*
X4625649Y-43997255D02*
X4648251Y-43916252D01*
X1718988Y-44617590D02*
X1775824Y-44679574D01*
X1718988Y-58117590D02*
X1775824Y-58179574D01*
X4360347Y-4019536D02*
X4409102Y-3951015D01*
X2727832Y-4678071D02*
X2811152Y-4689478D01*
X45963716Y-15152366D02*
X45898338Y-15205263D01*
X46978974Y-28300130D02*
X46894934Y-28303249D01*
X1415692Y-71116416D02*
X1448115Y-71194012D01*
X4568576Y-56344584D02*
X4534244Y-56267814D01*
X45775824Y-15320425D02*
X45718988Y-15382409D01*
X46894934Y-72196750D02*
X46978974Y-72199869D01*
X47147001Y-85693632D02*
X47230577Y-85684290D01*
X4252976Y-71648933D02*
X4308262Y-71585563D01*
X45325422Y-43207099D02*
X45312986Y-43290271D01*
X2894934Y-1303249D02*
X2811152Y-1310521D01*
X48252976Y-4148933D02*
X48308262Y-4085563D01*
X48534244Y-44232185D02*
X48568576Y-44155415D01*
X4625649Y-70002744D02*
X4599069Y-69922958D01*
X4666820Y-43165769D02*
X4648251Y-43083747D01*
X2563393Y-4642977D02*
X2645179Y-4662558D01*
X48133349Y-15232908D02*
X48069299Y-15178410D01*
X48133349Y-85267091D02*
X48194624Y-85209492D01*
X1300520Y-84042048D02*
X1304679Y-84126042D01*
X48454409Y-69619833D02*
X48409102Y-69548984D01*
X45665286Y-15447127D02*
X45614851Y-15514422D01*
X45963716Y-85347633D02*
X46031629Y-85397232D01*
X45304679Y-83873957D02*
X45300520Y-83957951D01*
X2645179Y-82337441D02*
X2563393Y-82357022D01*
X48252976Y-44648933D02*
X48308262Y-44585563D01*
X2727832Y-82321928D02*
X2645179Y-82337441D01*
X46978974Y-72199869D02*
X47063064Y-72198829D01*
X45325422Y-70792900D02*
X45341956Y-70875356D01*
X2325234Y-68939650D02*
X2248895Y-68974929D01*
X2101912Y-1556587D02*
X2031629Y-1602767D01*
X47713153Y-1456817D02*
X47635964Y-1423437D01*
X2101912Y-17943412D02*
X2174393Y-17986059D01*
X46563393Y-82357022D02*
X46482676Y-82380624D01*
X48409102Y-83048984D02*
X48360347Y-82980463D01*
X3230577Y-14815709D02*
X3147001Y-14806367D01*
X46403225Y-1408189D02*
X46325234Y-1439650D01*
X48534244Y-30732185D02*
X48568576Y-30655415D01*
X4568576Y-3655415D02*
X4599069Y-3577041D01*
X48409102Y-57951015D02*
X48454409Y-57880166D01*
X4308262Y-82914436D02*
X4252976Y-82851066D01*
X4360347Y-17519536D02*
X4409102Y-17451015D01*
X47788596Y-85506026D02*
X47862110Y-85465184D01*
X4681309Y-3251391D02*
X4691684Y-3167936D01*
X1963716Y-31347633D02*
X2031629Y-31397232D01*
X48002634Y-44872852D02*
X48069299Y-44821589D01*
X48360347Y-71519536D02*
X48409102Y-71451015D01*
X45898338Y-15205263D02*
X45835656Y-15261329D01*
X46482676Y-45119375D02*
X46563393Y-45142977D01*
X45718988Y-71617590D02*
X45775824Y-71679574D01*
X4697919Y-3084071D02*
X4700000Y-3000000D01*
X47933514Y-85420757D02*
X48002634Y-85372852D01*
X1304679Y-3126042D02*
X1312986Y-3209728D01*
X1614851Y-30985577D02*
X1665286Y-31052872D01*
X2248895Y-4525070D02*
X2325234Y-4560349D01*
X45325422Y-57292900D02*
X45341956Y-57375356D01*
X3635964Y-82423437D02*
X3557219Y-82393915D01*
X46811152Y-85689478D02*
X46894934Y-85696750D01*
X47147001Y-68806367D02*
X47063064Y-68801170D01*
X4133349Y-82732908D02*
X4069299Y-82678410D01*
X1387146Y-42962687D02*
X1362548Y-43043106D01*
X2248895Y-55474929D02*
X2174393Y-55513940D01*
X47557219Y-58606084D02*
X47635964Y-58576562D01*
X48454409Y-17380166D02*
X48496157Y-17307163D01*
X4308262Y-17585563D02*
X4360347Y-17519536D01*
X47477110Y-45131675D02*
X47557219Y-45106084D01*
X48308262Y-1914436D02*
X48252976Y-1851066D01*
X1341956Y-56624643D02*
X1325422Y-56707099D01*
X2727832Y-45178071D02*
X2811152Y-45189478D01*
X2645179Y-1337441D02*
X2563393Y-1357022D01*
X48648251Y-83583747D02*
X48625649Y-83502744D01*
X46482676Y-18119375D02*
X46563393Y-18142977D01*
X3933514Y-1579242D02*
X3862110Y-1534815D01*
X2031629Y-44897232D02*
X2101912Y-44943412D01*
X0Y-27000000D02*
X0Y-13500000D01*
X1448115Y-57694012D02*
X1484335Y-57769909D01*
X45567805Y-84915870D02*
X45614851Y-84985577D01*
X2645179Y-45162558D02*
X2727832Y-45178071D01*
X2811152Y-82310521D02*
X2727832Y-82321928D01*
X46645179Y-4662558D02*
X46727832Y-4678071D01*
X45341956Y-3375356D02*
X45362548Y-3456893D01*
X45614851Y-44485577D02*
X45665286Y-44552872D01*
X45835656Y-69261329D02*
X45775824Y-69320425D01*
X45898338Y-69205263D02*
X45835656Y-69261329D01*
X4252976Y-31148933D02*
X4308262Y-31085563D01*
X47862110Y-17965184D02*
X47933514Y-17920757D01*
X3313589Y-72170826D02*
X3395834Y-72153273D01*
X46563393Y-14857022D02*
X46482676Y-14880624D01*
X46645179Y-58662558D02*
X46727832Y-58678071D01*
X4599069Y-71077041D02*
X4625649Y-70997255D01*
X1362548Y-70043106D02*
X1341956Y-70124643D01*
X47862110Y-1534815D02*
X47788596Y-1493973D01*
X4069299Y-85321589D02*
X4133349Y-85267091D01*
X4568576Y-17155415D02*
X4599069Y-17077041D01*
X3862110Y-4465184D02*
X3933514Y-4420757D01*
X48069299Y-55678410D02*
X48002634Y-55627147D01*
X48697919Y-57084071D02*
X48700000Y-57000000D01*
X2894934Y-82303249D02*
X2811152Y-82310521D01*
X48308262Y-58085563D02*
X48360347Y-58019536D01*
X45665286Y-55947127D02*
X45614851Y-56014422D01*
X48625649Y-30497255D02*
X48648251Y-30416252D01*
X1362548Y-83543106D02*
X1341956Y-83624643D01*
X3063064Y-55301170D02*
X2978974Y-55300130D01*
X3713153Y-28456817D02*
X3635964Y-28423437D01*
X1718988Y-17617590D02*
X1775824Y-17679574D01*
X48691684Y-30167936D02*
X48697919Y-30084071D01*
X4648251Y-29583747D02*
X4625649Y-29502744D01*
X4681309Y-84251391D02*
X4691684Y-84167936D01*
X45614851Y-42514422D02*
X45567805Y-42584129D01*
X1614851Y-56014422D02*
X1567805Y-56084129D01*
X45835656Y-1761329D02*
X45775824Y-1820425D01*
X1665286Y-58052872D02*
X1718988Y-58117590D01*
X3395834Y-72153273D02*
X3477110Y-72131675D01*
X1304679Y-70373957D02*
X1300520Y-70457951D01*
X2978974Y-1300130D02*
X2894934Y-1303249D01*
X4691684Y-83832063D02*
X4681309Y-83748608D01*
X47557219Y-55393915D02*
X47477110Y-55368324D01*
X47933514Y-15079242D02*
X47862110Y-15034815D01*
X1567805Y-83084129D02*
X1524264Y-83156077D01*
X45524264Y-29156077D02*
X45484335Y-29230090D01*
X1300520Y-70457951D02*
X1300520Y-70542048D01*
X46031629Y-17897232D02*
X46101912Y-17943412D01*
X45341956Y-84375356D02*
X45362548Y-84456893D01*
X3147001Y-31693632D02*
X3230577Y-31684290D01*
X48599069Y-30577041D02*
X48625649Y-30497255D01*
X2325234Y-55439650D02*
X2248895Y-55474929D01*
X46248895Y-41974929D02*
X46174393Y-42013940D01*
X2482676Y-1380624D02*
X2403225Y-1408189D01*
X48360347Y-17519536D02*
X48409102Y-17451015D01*
X46811152Y-82310521D02*
X46727832Y-82321928D01*
X4454409Y-30880166D02*
X4496157Y-30807163D01*
X45300520Y-43457951D02*
X45300520Y-43542048D01*
X4681309Y-16751391D02*
X4691684Y-16667936D01*
X1524264Y-30843922D02*
X1567805Y-30915870D01*
X46811152Y-31689478D02*
X46894934Y-31696750D01*
X47788596Y-28493973D02*
X47713153Y-28456817D01*
X45775824Y-71679574D02*
X45835656Y-71738670D01*
X47933514Y-58420757D02*
X48002634Y-58372852D01*
X1614851Y-2014422D02*
X1567805Y-2084129D01*
X45387146Y-69962687D02*
X45362548Y-70043106D01*
X3713153Y-41956817D02*
X3635964Y-41923437D01*
X1387146Y-29462687D02*
X1362548Y-29543106D01*
X2248895Y-68974929D02*
X2174393Y-69013940D01*
X3313589Y-4670826D02*
X3395834Y-4653273D01*
X3313589Y-58670826D02*
X3395834Y-58653273D01*
X1325422Y-2707099D02*
X1312986Y-2790271D01*
X48534244Y-15767814D02*
X48496157Y-15692836D01*
X48308262Y-55914436D02*
X48252976Y-55851066D01*
X47230577Y-68815709D02*
X47147001Y-68806367D01*
X48252976Y-15351066D02*
X48194624Y-15290507D01*
X48409102Y-17451015D02*
X48454409Y-17380166D01*
X4666820Y-84334230D02*
X4681309Y-84251391D01*
X3147001Y-4693632D02*
X3230577Y-4684290D01*
X45362548Y-70956893D02*
X45387146Y-71037312D01*
X2248895Y-58525070D02*
X2325234Y-58560349D01*
X47788596Y-1493973D02*
X47713153Y-1456817D01*
X46248895Y-58525070D02*
X46325234Y-58560349D01*
X3933514Y-71920757D02*
X4002634Y-71872852D01*
X46031629Y-71897232D02*
X46101912Y-71943412D01*
X48681309Y-84251391D02*
X48691684Y-84167936D01*
X4599069Y-30577041D02*
X4625649Y-30497255D01*
X46325234Y-58560349D02*
X46403225Y-58591810D01*
X1614851Y-69514422D02*
X1567805Y-69584129D01*
X46563393Y-58642977D02*
X46645179Y-58662558D01*
X4697919Y-84084071D02*
X4700000Y-84000000D01*
X1484335Y-56230090D02*
X1448115Y-56305987D01*
X1614851Y-29014422D02*
X1567805Y-29084129D01*
X4360347Y-1980463D02*
X4308262Y-1914436D01*
X1567805Y-2084129D02*
X1524264Y-2156077D01*
X48002634Y-58372852D02*
X48069299Y-58321589D01*
X2403225Y-31591810D02*
X2482676Y-31619375D01*
X45524264Y-44343922D02*
X45567805Y-44415870D01*
X45325422Y-16792900D02*
X45341956Y-16875356D01*
X2894934Y-45196750D02*
X2978974Y-45199869D01*
X45665286Y-82947127D02*
X45614851Y-83014422D01*
X4002634Y-42127147D02*
X3933514Y-42079242D01*
X45898338Y-31294736D02*
X45963716Y-31347633D01*
X3788596Y-68993973D02*
X3713153Y-68956817D01*
X45448115Y-42805987D02*
X45415692Y-42883583D01*
X48002634Y-82627147D02*
X47933514Y-82579242D01*
X4496157Y-57807163D02*
X4534244Y-57732185D01*
X46403225Y-55408189D02*
X46325234Y-55439650D01*
X46645179Y-31662558D02*
X46727832Y-31678071D01*
X1524264Y-17343922D02*
X1567805Y-17415870D01*
X2101912Y-4443412D02*
X2174393Y-4486059D01*
X46563393Y-72142977D02*
X46645179Y-72162558D01*
X4360347Y-71519536D02*
X4409102Y-71451015D01*
X4252976Y-4148933D02*
X4308262Y-4085563D01*
X45524264Y-57843922D02*
X45567805Y-57915870D01*
X45448115Y-71194012D02*
X45484335Y-71269909D01*
X1448115Y-44194012D02*
X1484335Y-44269909D01*
X45387146Y-29462687D02*
X45362548Y-29543106D01*
X45567805Y-56084129D02*
X45524264Y-56156077D01*
X1835656Y-1761329D02*
X1775824Y-1820425D01*
X4252976Y-58148933D02*
X4308262Y-58085563D01*
X48360347Y-42480463D02*
X48308262Y-42414436D01*
X45614851Y-29014422D02*
X45567805Y-29084129D01*
X2894934Y-41803249D02*
X2811152Y-41810521D01*
X48648251Y-29583747D02*
X48625649Y-29502744D01*
X4069299Y-69178410D02*
X4002634Y-69127147D01*
X48691684Y-43667936D02*
X48697919Y-43584071D01*
X2645179Y-55337441D02*
X2563393Y-55357022D01*
X3713153Y-1456817D02*
X3635964Y-1423437D01*
X2727832Y-85678071D02*
X2811152Y-85689478D01*
X1341956Y-84375356D02*
X1362548Y-84456893D01*
X1325422Y-3292900D02*
X1341956Y-3375356D01*
X45362548Y-30456893D02*
X45387146Y-30537312D01*
X46978974Y-85699869D02*
X47063064Y-85698829D01*
X4496157Y-69692836D02*
X4454409Y-69619833D01*
X48666820Y-29665769D02*
X48648251Y-29583747D01*
X3933514Y-28579242D02*
X3862110Y-28534815D01*
X2894934Y-72196750D02*
X2978974Y-72199869D01*
X4454409Y-71380166D02*
X4496157Y-71307163D01*
X46978974Y-41800130D02*
X46894934Y-41803249D01*
X46174393Y-42013940D02*
X46101912Y-42056587D01*
X1665286Y-42447127D02*
X1614851Y-42514422D01*
X4648251Y-84416252D02*
X4666820Y-84334230D01*
X45387146Y-30537312D02*
X45415692Y-30616416D01*
X4648251Y-83583747D02*
X4625649Y-83502744D01*
X2978974Y-18199869D02*
X3063064Y-18198829D01*
X2978974Y-68800130D02*
X2894934Y-68803249D01*
X48002634Y-28627147D02*
X47933514Y-28579242D01*
X4697919Y-29915928D02*
X4691684Y-29832063D01*
X2403225Y-55408189D02*
X2325234Y-55439650D01*
X4069299Y-31321589D02*
X4133349Y-31267091D01*
X4534244Y-29267814D02*
X4496157Y-29192836D01*
X47063064Y-68801170D02*
X46978974Y-68800130D01*
X46101912Y-55556587D02*
X46031629Y-55602767D01*
X45415692Y-57616416D02*
X45448115Y-57694012D01*
X48360347Y-15480463D02*
X48308262Y-15414436D01*
X45300520Y-16542048D02*
X45304679Y-16626042D01*
X1567805Y-29084129D02*
X1524264Y-29156077D01*
X4700000Y-84000000D02*
X4697919Y-83915928D01*
X45300520Y-57042048D02*
X45304679Y-57126042D01*
X46645179Y-28337441D02*
X46563393Y-28357022D01*
X1835656Y-82761329D02*
X1775824Y-82820425D01*
X48666820Y-43834230D02*
X48681309Y-43751391D01*
X4409102Y-84951015D02*
X4454409Y-84880166D01*
X4666820Y-83665769D02*
X4648251Y-83583747D01*
X1304679Y-29873957D02*
X1300520Y-29957951D01*
X4002634Y-69127147D02*
X3933514Y-69079242D01*
X45898338Y-17794736D02*
X45963716Y-17847633D01*
X2325234Y-58560349D02*
X2403225Y-58591810D01*
X48625649Y-70997255D02*
X48648251Y-70916252D01*
X45718988Y-85117590D02*
X45775824Y-85179574D01*
X45448115Y-3694012D02*
X45484335Y-3769909D01*
X47395834Y-41846726D02*
X47313589Y-41829173D01*
X4568576Y-44155415D02*
X4599069Y-44077041D01*
X45387146Y-57537312D02*
X45415692Y-57616416D01*
X1614851Y-15514422D02*
X1567805Y-15584129D01*
X4133349Y-42232908D02*
X4069299Y-42178410D01*
X1484335Y-15730090D02*
X1448115Y-15805987D01*
X48409102Y-2048984D02*
X48360347Y-1980463D01*
X1775824Y-15320425D02*
X1718988Y-15382409D01*
X45484335Y-69730090D02*
X45448115Y-69805987D01*
X3477110Y-14868324D02*
X3395834Y-14846726D01*
X3557219Y-14893915D02*
X3477110Y-14868324D01*
X2403225Y-58591810D02*
X2482676Y-58619375D01*
X45775824Y-85179574D02*
X45835656Y-85238670D01*
X47063064Y-28301170D02*
X46978974Y-28300130D01*
X2482676Y-68880624D02*
X2403225Y-68908189D01*
X46645179Y-45162558D02*
X46727832Y-45178071D01*
X3557219Y-58606084D02*
X3635964Y-58576562D01*
X46403225Y-58591810D02*
X46482676Y-58619375D01*
X46482676Y-1380624D02*
X46403225Y-1408189D01*
X1963716Y-82652366D02*
X1898338Y-82705263D01*
X45387146Y-84537312D02*
X45415692Y-84616416D01*
X46563393Y-55357022D02*
X46482676Y-55380624D01*
X4496157Y-17307163D02*
X4534244Y-17232185D01*
X1567805Y-15584129D02*
X1524264Y-15656077D01*
X46727832Y-18178071D02*
X46811152Y-18189478D01*
X1312986Y-16290271D02*
X1304679Y-16373957D01*
X47313589Y-82329173D02*
X47230577Y-82315709D01*
X48308262Y-85085563D02*
X48360347Y-85019536D01*
X3788596Y-45006026D02*
X3862110Y-44965184D01*
X47230577Y-41815709D02*
X47147001Y-41806367D01*
X45300520Y-3042048D02*
X45304679Y-3126042D01*
X1567805Y-57915870D02*
X1614851Y-57985577D01*
X45304679Y-57126042D02*
X45312986Y-57209728D01*
X3477110Y-72131675D02*
X3557219Y-72106084D01*
X46403225Y-85591810D02*
X46482676Y-85619375D01*
X46563393Y-31642977D02*
X46645179Y-31662558D01*
X4409102Y-44451015D02*
X4454409Y-44380166D01*
X1362548Y-29543106D02*
X1341956Y-29624643D01*
X2482676Y-45119375D02*
X2563393Y-45142977D01*
X48666820Y-56665769D02*
X48648251Y-56583747D01*
X45484335Y-44269909D02*
X45524264Y-44343922D01*
X1775824Y-17679574D02*
X1835656Y-17738670D01*
X46031629Y-69102767D02*
X45963716Y-69152366D01*
X3230577Y-4684290D02*
X3313589Y-4670826D01*
X46031629Y-4397232D02*
X46101912Y-4443412D01*
X48454409Y-2119833D02*
X48409102Y-2048984D01*
X47862110Y-71965184D02*
X47933514Y-71920757D01*
X46811152Y-58689478D02*
X46894934Y-58696750D01*
X48454409Y-30880166D02*
X48496157Y-30807163D01*
X45387146Y-2462687D02*
X45362548Y-2543106D01*
X46894934Y-18196750D02*
X46978974Y-18199869D01*
X3147001Y-41806367D02*
X3063064Y-41801170D01*
X4069299Y-44821589D02*
X4133349Y-44767091D01*
X4133349Y-58267091D02*
X4194624Y-58209492D01*
X1300520Y-3042048D02*
X1304679Y-3126042D01*
X45718988Y-17617590D02*
X45775824Y-17679574D01*
X2248895Y-1474929D02*
X2174393Y-1513940D01*
X46248895Y-45025070D02*
X46325234Y-45060349D01*
X4599069Y-57577041D02*
X4625649Y-57497255D01*
X45898338Y-85294736D02*
X45963716Y-85347633D01*
X45362548Y-2543106D02*
X45341956Y-2624643D01*
X45718988Y-58117590D02*
X45775824Y-58179574D01*
X3230577Y-68815709D02*
X3147001Y-68806367D01*
X3788596Y-14993973D02*
X3713153Y-14956817D01*
X45484335Y-15730090D02*
X45448115Y-15805987D01*
X1448115Y-29305987D02*
X1415692Y-29383583D01*
X46978974Y-1300130D02*
X46894934Y-1303249D01*
X4666820Y-57334230D02*
X4681309Y-57251391D01*
X45898338Y-28705263D02*
X45835656Y-28761329D01*
X47313589Y-45170826D02*
X47395834Y-45153273D01*
X45524264Y-56156077D02*
X45484335Y-56230090D01*
X48625649Y-57497255D02*
X48648251Y-57416252D01*
X4568576Y-57655415D02*
X4599069Y-57577041D01*
X1665286Y-44552872D02*
X1718988Y-44617590D01*
X48496157Y-2192836D02*
X48454409Y-2119833D01*
X4648251Y-16916252D02*
X4666820Y-16834230D01*
X3788596Y-82493973D02*
X3713153Y-82456817D01*
X2174393Y-42013940D02*
X2101912Y-42056587D01*
X48194624Y-55790507D02*
X48133349Y-55732908D01*
X1835656Y-58238670D02*
X1898338Y-58294736D01*
X3862110Y-42034815D02*
X3788596Y-41993973D01*
X45963716Y-71847633D02*
X46031629Y-71897232D01*
X45484335Y-56230090D02*
X45448115Y-56305987D01*
X45898338Y-42205263D02*
X45835656Y-42261329D01*
X2403225Y-82408189D02*
X2325234Y-82439650D01*
X45304679Y-2873957D02*
X45300520Y-2957951D01*
X48308262Y-71585563D02*
X48360347Y-71519536D01*
X47477110Y-18131675D02*
X47557219Y-18106084D01*
X46811152Y-4689478D02*
X46894934Y-4696750D01*
X48691684Y-3167936D02*
X48697919Y-3084071D01*
X2248895Y-72025070D02*
X2325234Y-72060349D01*
X47063064Y-41801170D02*
X46978974Y-41800130D01*
X46894934Y-41803249D02*
X46811152Y-41810521D01*
X2563393Y-31642977D02*
X2645179Y-31662558D01*
X1304679Y-43373957D02*
X1300520Y-43457951D01*
X2727832Y-14821928D02*
X2645179Y-14837441D01*
X48568576Y-69844584D02*
X48534244Y-69767814D01*
X48002634Y-1627147D02*
X47933514Y-1579242D01*
X3395834Y-45153273D02*
X3477110Y-45131675D01*
X1484335Y-42730090D02*
X1448115Y-42805987D01*
X2978974Y-85699869D02*
X3063064Y-85698829D01*
X47230577Y-82315709D02*
X47147001Y-82306367D01*
X48409102Y-56048984D02*
X48360347Y-55980463D01*
X46563393Y-18142977D02*
X46645179Y-18162558D01*
X45312986Y-3209728D02*
X45325422Y-3292900D01*
X46727832Y-45178071D02*
X46811152Y-45189478D01*
X2174393Y-31486059D02*
X2248895Y-31525070D01*
X45963716Y-55652366D02*
X45898338Y-55705263D01*
X3635964Y-72076562D02*
X3713153Y-72043182D01*
X45415692Y-3616416D02*
X45448115Y-3694012D01*
X48534244Y-84732185D02*
X48568576Y-84655415D01*
X45567805Y-2084129D02*
X45524264Y-2156077D01*
X1387146Y-57537312D02*
X1415692Y-57616416D01*
X45484335Y-29230090D02*
X45448115Y-29305987D01*
X47477110Y-72131675D02*
X47557219Y-72106084D01*
X1325422Y-70792900D02*
X1341956Y-70875356D01*
X3063064Y-45198829D02*
X3147001Y-45193632D01*
X48568576Y-17155415D02*
X48599069Y-17077041D01*
X1312986Y-43290271D02*
X1304679Y-43373957D01*
X4648251Y-56583747D02*
X4625649Y-56502744D01*
X1341956Y-16124643D02*
X1325422Y-16207099D01*
X3713153Y-14956817D02*
X3635964Y-14923437D01*
X45835656Y-71738670D02*
X45898338Y-71794736D01*
X1775824Y-82820425D02*
X1718988Y-82882409D01*
X46978974Y-82300130D02*
X46894934Y-82303249D01*
X1341956Y-29624643D02*
X1325422Y-29707099D01*
X3635964Y-85576562D02*
X3713153Y-85543182D01*
X1448115Y-56305987D02*
X1415692Y-56383583D01*
X3313589Y-68829173D02*
X3230577Y-68815709D01*
X1898338Y-4294736D02*
X1963716Y-4347633D01*
X1415692Y-3616416D02*
X1448115Y-3694012D01*
X48252976Y-17648933D02*
X48308262Y-17585563D01*
X4691684Y-29832063D02*
X4681309Y-29748608D01*
X4496157Y-56192836D02*
X4454409Y-56119833D01*
X47862110Y-28534815D02*
X47788596Y-28493973D01*
X45665286Y-28947127D02*
X45614851Y-29014422D01*
X48568576Y-83344584D02*
X48534244Y-83267814D01*
X3713153Y-55456817D02*
X3635964Y-55423437D01*
X2174393Y-85486059D02*
X2248895Y-85525070D01*
X47147001Y-82306367D02*
X47063064Y-82301170D01*
X4599069Y-44077041D02*
X4625649Y-43997255D01*
X3862110Y-58465184D02*
X3933514Y-58420757D01*
X4133349Y-55732908D02*
X4069299Y-55678410D01*
X45484335Y-84769909D02*
X45524264Y-84843922D01*
X3557219Y-72106084D02*
X3635964Y-72076562D01*
X2645179Y-72162558D02*
X2727832Y-72178071D01*
X48534244Y-56267814D02*
X48496157Y-56192836D01*
X47230577Y-14815709D02*
X47147001Y-14806367D01*
X2101912Y-44943412D02*
X2174393Y-44986059D01*
X48666820Y-70165769D02*
X48648251Y-70083747D01*
X4133349Y-17767091D02*
X4194624Y-17709492D01*
X4360347Y-31019536D02*
X4409102Y-30951015D01*
X2174393Y-15013940D02*
X2101912Y-15056587D01*
X3063064Y-28301170D02*
X2978974Y-28300130D01*
X45300520Y-83957951D02*
X45300520Y-84042048D01*
X46248895Y-85525070D02*
X46325234Y-85560349D01*
X3557219Y-28393915D02*
X3477110Y-28368324D01*
X4666820Y-43834230D02*
X4681309Y-43751391D01*
X2563393Y-45142977D02*
X2645179Y-45162558D01*
X45614851Y-71485577D02*
X45665286Y-71552872D01*
X47230577Y-45184290D02*
X47313589Y-45170826D01*
X1341956Y-70124643D02*
X1325422Y-70207099D01*
X45898338Y-82705263D02*
X45835656Y-82761329D01*
X1415692Y-56383583D02*
X1387146Y-56462687D01*
X3313589Y-1329173D02*
X3230577Y-1315709D01*
X1362548Y-70956893D02*
X1387146Y-71037312D01*
X48691684Y-57167936D02*
X48697919Y-57084071D01*
X47313589Y-4670826D02*
X47395834Y-4653273D01*
X4409102Y-30951015D02*
X4454409Y-30880166D01*
X3063064Y-85698829D02*
X3147001Y-85693632D01*
X1362548Y-43043106D02*
X1341956Y-43124643D01*
X1963716Y-4347633D02*
X2031629Y-4397232D01*
X3313589Y-41829173D02*
X3230577Y-41815709D01*
X1387146Y-83462687D02*
X1362548Y-83543106D01*
X4625649Y-3497255D02*
X4648251Y-3416252D01*
X3230577Y-82315709D02*
X3147001Y-82306367D01*
X1312986Y-2790271D02*
X1304679Y-2873957D01*
X48681309Y-30251391D02*
X48691684Y-30167936D01*
X4534244Y-3732185D02*
X4568576Y-3655415D01*
X45614851Y-30985577D02*
X45665286Y-31052872D01*
X46727832Y-68821928D02*
X46645179Y-68837441D01*
X47230577Y-31684290D02*
X47313589Y-31670826D01*
X4069299Y-71821589D02*
X4133349Y-71767091D01*
X47557219Y-4606084D02*
X47635964Y-4576562D01*
X4568576Y-71155415D02*
X4599069Y-71077041D01*
X1304679Y-83873957D02*
X1300520Y-83957951D01*
X3230577Y-85684290D02*
X3313589Y-85670826D01*
X45341956Y-43875356D02*
X45362548Y-43956893D01*
X46727832Y-41821928D02*
X46645179Y-41837441D01*
X3313589Y-82329173D02*
X3230577Y-82315709D01*
X47477110Y-14868324D02*
X47395834Y-14846726D01*
X45963716Y-82652366D02*
X45898338Y-82705263D01*
X46563393Y-1357022D02*
X46482676Y-1380624D01*
X46248895Y-72025070D02*
X46325234Y-72060349D01*
X45898338Y-55705263D02*
X45835656Y-55761329D01*
X48409102Y-30951015D02*
X48454409Y-30880166D01*
X4568576Y-15844584D02*
X4534244Y-15767814D01*
X1312986Y-43709728D02*
X1325422Y-43792900D01*
X45963716Y-1652366D02*
X45898338Y-1705263D01*
X3788596Y-72006026D02*
X3862110Y-71965184D01*
X48568576Y-15844584D02*
X48534244Y-15767814D01*
X45312986Y-43290271D02*
X45304679Y-43373957D01*
X47933514Y-1579242D02*
X47862110Y-1534815D01*
X3477110Y-85631675D02*
X3557219Y-85606084D01*
X47147001Y-41806367D02*
X47063064Y-41801170D01*
X3933514Y-15079242D02*
X3862110Y-15034815D01*
X1387146Y-84537312D02*
X1415692Y-84616416D01*
X45524264Y-15656077D02*
X45484335Y-15730090D01*
X45665286Y-42447127D02*
X45614851Y-42514422D01*
X45362548Y-16043106D02*
X45341956Y-16124643D01*
X45835656Y-44738670D02*
X45898338Y-44794736D01*
X4194624Y-82790507D02*
X4133349Y-82732908D01*
X1898338Y-42205263D02*
X1835656Y-42261329D01*
X48496157Y-57807163D02*
X48534244Y-57732185D01*
X4697919Y-70415928D02*
X4691684Y-70332063D01*
X46645179Y-1337441D02*
X46563393Y-1357022D01*
X45484335Y-17269909D02*
X45524264Y-17343922D01*
X3788596Y-1493973D02*
X3713153Y-1456817D01*
X3933514Y-55579242D02*
X3862110Y-55534815D01*
X3933514Y-42079242D02*
X3862110Y-42034815D01*
X47395834Y-85653273D02*
X47477110Y-85631675D01*
X1963716Y-17847633D02*
X2031629Y-17897232D01*
X1524264Y-44343922D02*
X1567805Y-44415870D01*
X47477110Y-41868324D02*
X47395834Y-41846726D01*
X48133349Y-1732908D02*
X48069299Y-1678410D01*
X48454409Y-42619833D02*
X48409102Y-42548984D01*
X4496157Y-2192836D02*
X4454409Y-2119833D01*
X48409102Y-3951015D02*
X48454409Y-3880166D01*
X47147001Y-45193632D02*
X47230577Y-45184290D01*
X47477110Y-58631675D02*
X47557219Y-58606084D01*
X1775824Y-44679574D02*
X1835656Y-44738670D01*
X0Y0D02*
X50000000Y0D01*
X46248895Y-31525070D02*
X46325234Y-31560349D01*
X4002634Y-85372852D02*
X4069299Y-85321589D01*
X1387146Y-30537312D02*
X1415692Y-30616416D01*
X45567805Y-69584129D02*
X45524264Y-69656077D01*
X48194624Y-17709492D02*
X48252976Y-17648933D01*
X48691684Y-70667936D02*
X48697919Y-70584071D01*
X45325422Y-83707099D02*
X45312986Y-83790271D01*
X47788596Y-4506026D02*
X47862110Y-4465184D01*
X46894934Y-28303249D02*
X46811152Y-28310521D01*
X45614851Y-84985577D02*
X45665286Y-85052872D01*
X48534244Y-69767814D02*
X48496157Y-69692836D01*
X1567805Y-56084129D02*
X1524264Y-56156077D01*
X47713153Y-45043182D02*
X47788596Y-45006026D01*
X4002634Y-15127147D02*
X3933514Y-15079242D01*
X45718988Y-4117590D02*
X45775824Y-4179574D01*
X45312986Y-70709728D02*
X45325422Y-70792900D01*
X48599069Y-2422958D02*
X48568576Y-2344584D01*
X3313589Y-18170826D02*
X3395834Y-18153273D01*
X47713153Y-28456817D02*
X47635964Y-28423437D01*
X47713153Y-18043182D02*
X47788596Y-18006026D01*
X3063064Y-82301170D02*
X2978974Y-82300130D01*
X45387146Y-44037312D02*
X45415692Y-44116416D01*
X4666820Y-16834230D02*
X4681309Y-16751391D01*
X1835656Y-42261329D02*
X1775824Y-42320425D01*
X47635964Y-85576562D02*
X47713153Y-85543182D01*
X48534244Y-83267814D02*
X48496157Y-83192836D01*
X47477110Y-82368324D02*
X47395834Y-82346726D01*
X45835656Y-58238670D02*
X45898338Y-58294736D01*
X47635964Y-4576562D02*
X47713153Y-4543182D01*
X45665286Y-17552872D02*
X45718988Y-17617590D01*
X45614851Y-83014422D02*
X45567805Y-83084129D01*
X1448115Y-30694012D02*
X1484335Y-30769909D01*
X4194624Y-31209492D02*
X4252976Y-31148933D01*
X48496157Y-83192836D02*
X48454409Y-83119833D01*
X3557219Y-82393915D02*
X3477110Y-82368324D01*
X2563393Y-14857022D02*
X2482676Y-14880624D01*
X45325422Y-3292900D02*
X45341956Y-3375356D01*
X47313589Y-1329173D02*
X47230577Y-1315709D01*
X1362548Y-2543106D02*
X1341956Y-2624643D01*
X2727832Y-18178071D02*
X2811152Y-18189478D01*
X47557219Y-45106084D02*
X47635964Y-45076562D01*
X3063064Y-31698829D02*
X3147001Y-31693632D01*
X45415692Y-69883583D02*
X45387146Y-69962687D01*
X48666820Y-57334230D02*
X48681309Y-57251391D01*
X48496157Y-42692836D02*
X48454409Y-42619833D01*
X48252976Y-69351066D02*
X48194624Y-69290507D01*
X3557219Y-68893915D02*
X3477110Y-68868324D01*
X1448115Y-69805987D02*
X1415692Y-69883583D01*
X4194624Y-71709492D02*
X4252976Y-71648933D01*
X1718988Y-82882409D02*
X1665286Y-82947127D01*
X48360347Y-4019536D02*
X48409102Y-3951015D01*
X1325422Y-43792900D02*
X1341956Y-43875356D01*
X47862110Y-69034815D02*
X47788596Y-68993973D01*
X1325422Y-70207099D02*
X1312986Y-70290271D01*
X48409102Y-71451015D02*
X48454409Y-71380166D01*
X45775824Y-55820425D02*
X45718988Y-55882409D01*
X4454409Y-29119833D02*
X4409102Y-29048984D01*
X46325234Y-72060349D02*
X46403225Y-72091810D01*
X46563393Y-68857022D02*
X46482676Y-68880624D01*
X1614851Y-17485577D02*
X1665286Y-17552872D01*
X47063064Y-55301170D02*
X46978974Y-55300130D01*
X46811152Y-1310521D02*
X46727832Y-1321928D01*
X45362548Y-70043106D02*
X45341956Y-70124643D01*
X48700000Y-16500000D02*
X48697919Y-16415928D01*
X47557219Y-41893915D02*
X47477110Y-41868324D01*
X2894934Y-31696750D02*
X2978974Y-31699869D01*
X4308262Y-15414436D02*
X4252976Y-15351066D01*
X2482676Y-18119375D02*
X2563393Y-18142977D01*
X45312986Y-43709728D02*
X45325422Y-43792900D01*
X45325422Y-70207099D02*
X45312986Y-70290271D01*
X48697919Y-2915928D02*
X48691684Y-2832063D01*
X4681309Y-83748608D02*
X4666820Y-83665769D01*
X1835656Y-17738670D02*
X1898338Y-17794736D01*
X48599069Y-29422958D02*
X48568576Y-29344584D01*
X48648251Y-2583747D02*
X48625649Y-2502744D01*
X48360347Y-44519536D02*
X48409102Y-44451015D01*
X45835656Y-31238670D02*
X45898338Y-31294736D01*
X2978974Y-55300130D02*
X2894934Y-55303249D01*
X2031629Y-69102767D02*
X1963716Y-69152366D01*
X48599069Y-84577041D02*
X48625649Y-84497255D01*
X4700000Y-57000000D02*
X4697919Y-56915928D01*
X2031629Y-28602767D02*
X1963716Y-28652366D01*
X3713153Y-4543182D02*
X3788596Y-4506026D01*
X45718988Y-55882409D02*
X45665286Y-55947127D01*
X1362548Y-16956893D02*
X1387146Y-17037312D01*
X3395834Y-4653273D02*
X3477110Y-4631675D01*
X3230577Y-28315709D02*
X3147001Y-28306367D01*
X4002634Y-82627147D02*
X3933514Y-82579242D01*
X47933514Y-44920757D02*
X48002634Y-44872852D01*
X4360347Y-58019536D02*
X4409102Y-57951015D01*
X4534244Y-83267814D02*
X4496157Y-83192836D01*
X45775824Y-58179574D02*
X45835656Y-58238670D01*
X1312986Y-70709728D02*
X1325422Y-70792900D01*
X48648251Y-30416252D02*
X48666820Y-30334230D01*
X2811152Y-1310521D02*
X2727832Y-1321928D01*
X48360347Y-82980463D02*
X48308262Y-82914436D01*
X45300520Y-30042048D02*
X45304679Y-30126042D01*
X46174393Y-71986059D02*
X46248895Y-72025070D01*
X4568576Y-83344584D02*
X4534244Y-83267814D01*
X1718988Y-28882409D02*
X1665286Y-28947127D01*
X4496157Y-42692836D02*
X4454409Y-42619833D01*
X46174393Y-4486059D02*
X46248895Y-4525070D01*
X3635964Y-41923437D02*
X3557219Y-41893915D01*
X45665286Y-4052872D02*
X45718988Y-4117590D01*
X3713153Y-18043182D02*
X3788596Y-18006026D01*
X4002634Y-44872852D02*
X4069299Y-44821589D01*
X3862110Y-1534815D02*
X3788596Y-1493973D01*
X2101912Y-15056587D02*
X2031629Y-15102767D01*
X46031629Y-82602767D02*
X45963716Y-82652366D01*
X4534244Y-17232185D02*
X4568576Y-17155415D01*
X2894934Y-4696750D02*
X2978974Y-4699869D01*
X47862110Y-85465184D02*
X47933514Y-85420757D01*
X3395834Y-55346726D02*
X3313589Y-55329173D01*
X1325422Y-30292900D02*
X1341956Y-30375356D01*
X0Y-93000000D02*
X0Y-81000000D01*
X4534244Y-84732185D02*
X4568576Y-84655415D01*
X1325422Y-83707099D02*
X1312986Y-83790271D01*
X1718988Y-71617590D02*
X1775824Y-71679574D01*
X48666820Y-84334230D02*
X48681309Y-84251391D01*
X1304679Y-84126042D02*
X1312986Y-84209728D01*
X3788596Y-85506026D02*
X3862110Y-85465184D01*
X47788596Y-58506026D02*
X47862110Y-58465184D01*
X45312986Y-29790271D02*
X45304679Y-29873957D01*
X4691684Y-84167936D02*
X4697919Y-84084071D01*
X45448115Y-17194012D02*
X45484335Y-17269909D01*
X4697919Y-43584071D02*
X4700000Y-43500000D01*
X4599069Y-56422958D02*
X4568576Y-56344584D01*
X47557219Y-28393915D02*
X47477110Y-28368324D01*
X45325422Y-43792900D02*
X45341956Y-43875356D01*
X45325422Y-84292900D02*
X45341956Y-84375356D01*
X48568576Y-42844584D02*
X48534244Y-42767814D01*
X2403225Y-45091810D02*
X2482676Y-45119375D01*
X48599069Y-3577041D02*
X48625649Y-3497255D01*
X48568576Y-30655415D02*
X48599069Y-30577041D01*
X4252976Y-42351066D02*
X4194624Y-42290507D01*
X2563393Y-18142977D02*
X2645179Y-18162558D01*
X3713153Y-85543182D02*
X3788596Y-85506026D01*
X1524264Y-84843922D02*
X1567805Y-84915870D01*
X48069299Y-4321589D02*
X48133349Y-4267091D01*
X1718988Y-69382409D02*
X1665286Y-69447127D01*
X45484335Y-2230090D02*
X45448115Y-2305987D01*
X48568576Y-71155415D02*
X48599069Y-71077041D01*
X4002634Y-31372852D02*
X4069299Y-31321589D01*
X3063064Y-58698829D02*
X3147001Y-58693632D01*
X4534244Y-57732185D02*
X4568576Y-57655415D01*
X48194624Y-44709492D02*
X48252976Y-44648933D01*
X46248895Y-82474929D02*
X46174393Y-82513940D01*
X48133349Y-71767091D02*
X48194624Y-71709492D01*
X45775824Y-28820425D02*
X45718988Y-28882409D01*
X2645179Y-4662558D02*
X2727832Y-4678071D01*
X48194624Y-82790507D02*
X48133349Y-82732908D01*
X45567805Y-44415870D02*
X45614851Y-44485577D01*
X48194624Y-28790507D02*
X48133349Y-28732908D01*
X1775824Y-42320425D02*
X1718988Y-42382409D01*
X4194624Y-55790507D02*
X4133349Y-55732908D01*
X1898338Y-82705263D02*
X1835656Y-82761329D01*
X4700000Y-30000000D02*
X4697919Y-29915928D01*
X47313589Y-28329173D02*
X47230577Y-28315709D01*
X47147001Y-14806367D02*
X47063064Y-14801170D01*
X4308262Y-55914436D02*
X4252976Y-55851066D01*
X46482676Y-72119375D02*
X46563393Y-72142977D01*
X46101912Y-28556587D02*
X46031629Y-28602767D01*
X47557219Y-68893915D02*
X47477110Y-68868324D01*
X4409102Y-42548984D02*
X4360347Y-42480463D01*
X48625649Y-83502744D02*
X48599069Y-83422958D01*
X1312986Y-83790271D02*
X1304679Y-83873957D01*
X45341956Y-57375356D02*
X45362548Y-57456893D01*
X48252976Y-58148933D02*
X48308262Y-58085563D01*
X45387146Y-3537312D02*
X45415692Y-3616416D01*
X48002634Y-55627147D02*
X47933514Y-55579242D01*
X48194624Y-69290507D02*
X48133349Y-69232908D01*
X3063064Y-72198829D02*
X3147001Y-72193632D01*
X47147001Y-1306367D02*
X47063064Y-1301170D01*
X4360347Y-69480463D02*
X4308262Y-69414436D01*
X1898338Y-17794736D02*
X1963716Y-17847633D01*
X46727832Y-28321928D02*
X46645179Y-28337441D01*
X3395834Y-14846726D02*
X3313589Y-14829173D01*
X1898338Y-55705263D02*
X1835656Y-55761329D01*
X2174393Y-69013940D02*
X2101912Y-69056587D01*
X1898338Y-28705263D02*
X1835656Y-28761329D01*
X45448115Y-69805987D02*
X45415692Y-69883583D01*
X46727832Y-55321928D02*
X46645179Y-55337441D01*
X45341956Y-56624643D02*
X45325422Y-56707099D01*
X3230577Y-45184290D02*
X3313589Y-45170826D01*
X48700000Y-57000000D02*
X48697919Y-56915928D01*
X45448115Y-2305987D02*
X45415692Y-2383583D01*
X47788596Y-45006026D02*
X47862110Y-44965184D01*
X45963716Y-17847633D02*
X46031629Y-17897232D01*
X46645179Y-41837441D02*
X46563393Y-41857022D01*
X2174393Y-4486059D02*
X2248895Y-4525070D01*
X48133349Y-4267091D02*
X48194624Y-4209492D01*
X4409102Y-69548984D02*
X4360347Y-69480463D01*
X47635964Y-45076562D02*
X47713153Y-45043182D01*
X45362548Y-56543106D02*
X45341956Y-56624643D01*
X46031629Y-28602767D02*
X45963716Y-28652366D01*
X2645179Y-28337441D02*
X2563393Y-28357022D01*
X47635964Y-28423437D02*
X47557219Y-28393915D01*
X1898338Y-69205263D02*
X1835656Y-69261329D01*
X2031629Y-82602767D02*
X1963716Y-82652366D01*
X2978974Y-4699869D02*
X3063064Y-4698829D01*
X4454409Y-3880166D02*
X4496157Y-3807163D01*
X3557219Y-45106084D02*
X3635964Y-45076562D01*
X45963716Y-28652366D02*
X45898338Y-28705263D01*
X4697919Y-70584071D02*
X4700000Y-70500000D01*
X46403225Y-41908189D02*
X46325234Y-41939650D01*
X48691684Y-83832063D02*
X48681309Y-83748608D01*
X45448115Y-44194012D02*
X45484335Y-44269909D01*
X4496157Y-15692836D02*
X4454409Y-15619833D01*
X4691684Y-70667936D02*
X4697919Y-70584071D01*
X47862110Y-55534815D02*
X47788596Y-55493973D01*
X4194624Y-1790507D02*
X4133349Y-1732908D01*
X4002634Y-55627147D02*
X3933514Y-55579242D01*
X4360347Y-28980463D02*
X4308262Y-28914436D01*
X1718988Y-4117590D02*
X1775824Y-4179574D01*
X2482676Y-31619375D02*
X2563393Y-31642977D01*
X4252976Y-44648933D02*
X4308262Y-44585563D01*
X1775824Y-69320425D02*
X1718988Y-69382409D01*
X4568576Y-29344584D02*
X4534244Y-29267814D01*
X1362548Y-16043106D02*
X1341956Y-16124643D01*
X2482676Y-72119375D02*
X2563393Y-72142977D01*
X47063064Y-31698829D02*
X47147001Y-31693632D01*
X47862110Y-31465184D02*
X47933514Y-31420757D01*
X1898338Y-71794736D02*
X1963716Y-71847633D01*
X46174393Y-82513940D02*
X46101912Y-82556587D01*
X3477110Y-82368324D02*
X3395834Y-82346726D01*
X45448115Y-56305987D02*
X45415692Y-56383583D01*
X45362548Y-57456893D02*
X45387146Y-57537312D01*
X48681309Y-70248608D02*
X48666820Y-70165769D01*
X3395834Y-18153273D02*
X3477110Y-18131675D01*
X3635964Y-14923437D02*
X3557219Y-14893915D01*
X45300520Y-43542048D02*
X45304679Y-43626042D01*
X46978974Y-45199869D02*
X47063064Y-45198829D01*
X1484335Y-57769909D02*
X1524264Y-57843922D01*
X46894934Y-31696750D02*
X46978974Y-31699869D01*
X46727832Y-4678071D02*
X46811152Y-4689478D01*
X1341956Y-3375356D02*
X1362548Y-3456893D01*
X1304679Y-30126042D02*
X1312986Y-30209728D01*
X48069299Y-28678410D02*
X48002634Y-28627147D01*
X48666820Y-70834230D02*
X48681309Y-70751391D01*
X47313589Y-58670826D02*
X47395834Y-58653273D01*
X45300520Y-84042048D02*
X45304679Y-84126042D01*
X45484335Y-71269909D02*
X45524264Y-71343922D01*
X1524264Y-57843922D02*
X1567805Y-57915870D01*
X3147001Y-55306367D02*
X3063064Y-55301170D01*
X45415692Y-44116416D02*
X45448115Y-44194012D01*
X4681309Y-29748608D02*
X4666820Y-29665769D01*
X3788596Y-28493973D02*
X3713153Y-28456817D01*
X48666820Y-16165769D02*
X48648251Y-16083747D01*
X2482676Y-4619375D02*
X2563393Y-4642977D01*
X0Y-67500000D02*
X0Y-54000000D01*
X46894934Y-68803249D02*
X46811152Y-68810521D01*
X2811152Y-55310521D02*
X2727832Y-55321928D01*
X47635964Y-14923437D02*
X47557219Y-14893915D01*
X3477110Y-68868324D02*
X3395834Y-68846726D01*
X1362548Y-57456893D02*
X1387146Y-57537312D01*
X1415692Y-44116416D02*
X1448115Y-44194012D01*
X3313589Y-14829173D02*
X3230577Y-14815709D01*
X48534244Y-42767814D02*
X48496157Y-42692836D01*
X45835656Y-4238670D02*
X45898338Y-4294736D01*
X48133349Y-42232908D02*
X48069299Y-42178410D01*
X1304679Y-16626042D02*
X1312986Y-16709728D01*
X46811152Y-28310521D02*
X46727832Y-28321928D01*
X48697919Y-16584071D02*
X48700000Y-16500000D01*
X47788596Y-14993973D02*
X47713153Y-14956817D01*
X1448115Y-83305987D02*
X1415692Y-83383583D01*
X2645179Y-14837441D02*
X2563393Y-14857022D01*
X48625649Y-29502744D02*
X48599069Y-29422958D01*
X48599069Y-83422958D02*
X48568576Y-83344584D01*
X4625649Y-83502744D02*
X4599069Y-83422958D01*
X3933514Y-44920757D02*
X4002634Y-44872852D01*
X47063064Y-14801170D02*
X46978974Y-14800130D01*
X4454409Y-56119833D02*
X4409102Y-56048984D01*
X45341956Y-29624643D02*
X45325422Y-29707099D01*
X45300520Y-56957951D02*
X45300520Y-57042048D01*
X4691684Y-30167936D02*
X4697919Y-30084071D01*
X45775824Y-1820425D02*
X45718988Y-1882409D01*
X47713153Y-82456817D02*
X47635964Y-82423437D01*
X1524264Y-71343922D02*
X1567805Y-71415870D01*
X1614851Y-57985577D02*
X1665286Y-58052872D01*
X1362548Y-3456893D02*
X1387146Y-3537312D01*
X48568576Y-2344584D02*
X48534244Y-2267814D01*
X3147001Y-68806367D02*
X3063064Y-68801170D01*
X1325422Y-57292900D02*
X1341956Y-57375356D01*
X47395834Y-4653273D02*
X47477110Y-4631675D01*
X46101912Y-1556587D02*
X46031629Y-1602767D01*
X46174393Y-58486059D02*
X46248895Y-58525070D01*
X3788596Y-41993973D02*
X3713153Y-41956817D01*
X3862110Y-55534815D02*
X3788596Y-55493973D01*
X46645179Y-55337441D02*
X46563393Y-55357022D01*
X4625649Y-2502744D02*
X4599069Y-2422958D01*
X3862110Y-28534815D02*
X3788596Y-28493973D01*
X4681309Y-57251391D02*
X4691684Y-57167936D01*
X2645179Y-85662558D02*
X2727832Y-85678071D01*
X4308262Y-31085563D02*
X4360347Y-31019536D01*
X3862110Y-15034815D02*
X3788596Y-14993973D01*
X46727832Y-82321928D02*
X46645179Y-82337441D01*
X2174393Y-71986059D02*
X2248895Y-72025070D01*
X46403225Y-45091810D02*
X46482676Y-45119375D01*
X46101912Y-42056587D02*
X46031629Y-42102767D01*
X45665286Y-85052872D02*
X45718988Y-85117590D01*
X48360347Y-58019536D02*
X48409102Y-57951015D01*
X48002634Y-4372852D02*
X48069299Y-4321589D01*
X45614851Y-15514422D02*
X45567805Y-15584129D01*
X4002634Y-58372852D02*
X4069299Y-58321589D01*
X4360347Y-55980463D02*
X4308262Y-55914436D01*
X45325422Y-29707099D02*
X45312986Y-29790271D01*
X47862110Y-15034815D02*
X47788596Y-14993973D01*
X4496157Y-44307163D02*
X4534244Y-44232185D01*
X1484335Y-2230090D02*
X1448115Y-2305987D01*
X2645179Y-41837441D02*
X2563393Y-41857022D01*
X3862110Y-82534815D02*
X3788596Y-82493973D01*
X1300520Y-29957951D02*
X1300520Y-30042048D01*
X1387146Y-69962687D02*
X1362548Y-70043106D01*
X2031629Y-55602767D02*
X1963716Y-55652366D01*
X45898338Y-1705263D02*
X45835656Y-1761329D01*
X2811152Y-85689478D02*
X2894934Y-85696750D01*
X45718988Y-69382409D02*
X45665286Y-69447127D01*
X46894934Y-55303249D02*
X46811152Y-55310521D01*
X4252976Y-15351066D02*
X4194624Y-15290507D01*
X4409102Y-2048984D02*
X4360347Y-1980463D01*
X46645179Y-85662558D02*
X46727832Y-85678071D01*
X4002634Y-4372852D02*
X4069299Y-4321589D01*
X46482676Y-85619375D02*
X46563393Y-85642977D01*
X48700000Y-3000000D02*
X48697919Y-2915928D01*
X48496157Y-84807163D02*
X48534244Y-84732185D01*
X48252976Y-55851066D02*
X48194624Y-55790507D01*
X1448115Y-15805987D02*
X1415692Y-15883583D01*
X47557219Y-1393915D02*
X47477110Y-1368324D01*
X3395834Y-31653273D02*
X3477110Y-31631675D01*
X47557219Y-72106084D02*
X47635964Y-72076562D01*
X3063064Y-14801170D02*
X2978974Y-14800130D01*
X4454409Y-44380166D02*
X4496157Y-44307163D01*
X46031629Y-44897232D02*
X46101912Y-44943412D01*
X47933514Y-31420757D02*
X48002634Y-31372852D01*
X48069299Y-31321589D02*
X48133349Y-31267091D01*
X45614851Y-2014422D02*
X45567805Y-2084129D01*
X45448115Y-84694012D02*
X45484335Y-84769909D01*
X1387146Y-56462687D02*
X1362548Y-56543106D01*
X48697919Y-3084071D02*
X48700000Y-3000000D01*
X3557219Y-85606084D02*
X3635964Y-85576562D01*
X1775824Y-58179574D02*
X1835656Y-58238670D01*
X1665286Y-71552872D02*
X1718988Y-71617590D01*
X45448115Y-30694012D02*
X45484335Y-30769909D01*
X46482676Y-58619375D02*
X46563393Y-58642977D01*
X45362548Y-43043106D02*
X45341956Y-43124643D01*
X48681309Y-2748608D02*
X48666820Y-2665769D01*
X4496157Y-83192836D02*
X4454409Y-83119833D01*
X45775824Y-42320425D02*
X45718988Y-42382409D01*
X2101912Y-71943412D02*
X2174393Y-71986059D01*
X4308262Y-4085563D02*
X4360347Y-4019536D01*
X45665286Y-1947127D02*
X45614851Y-2014422D01*
X3395834Y-28346726D02*
X3313589Y-28329173D01*
X48002634Y-42127147D02*
X47933514Y-42079242D01*
X48194624Y-15290507D02*
X48133349Y-15232908D01*
X2325234Y-4560349D02*
X2403225Y-4591810D01*
X1484335Y-83230090D02*
X1448115Y-83305987D01*
X2978974Y-31699869D02*
X3063064Y-31698829D01*
X47230577Y-4684290D02*
X47313589Y-4670826D01*
X47862110Y-4465184D02*
X47933514Y-4420757D01*
X4194624Y-58209492D02*
X4252976Y-58148933D01*
X47063064Y-4698829D02*
X47147001Y-4693632D01*
X2248895Y-18025070D02*
X2325234Y-18060349D01*
X1387146Y-3537312D02*
X1415692Y-3616416D01*
X4002634Y-71872852D02*
X4069299Y-71821589D01*
X48454409Y-29119833D02*
X48409102Y-29048984D01*
X48194624Y-71709492D02*
X48252976Y-71648933D01*
X1963716Y-42152366D02*
X1898338Y-42205263D01*
X48002634Y-17872852D02*
X48069299Y-17821589D01*
X47313589Y-14829173D02*
X47230577Y-14815709D01*
X45718988Y-44617590D02*
X45775824Y-44679574D01*
X2248895Y-45025070D02*
X2325234Y-45060349D01*
X2248895Y-85525070D02*
X2325234Y-85560349D01*
X46248895Y-68974929D02*
X46174393Y-69013940D01*
X1665286Y-15447127D02*
X1614851Y-15514422D01*
X46248895Y-55474929D02*
X46174393Y-55513940D01*
X45835656Y-82761329D02*
X45775824Y-82820425D01*
X0Y-54000000D02*
X0Y-40500000D01*
X46978974Y-58699869D02*
X47063064Y-58698829D01*
X1387146Y-17037312D02*
X1415692Y-17116416D01*
X4697919Y-43415928D02*
X4691684Y-43332063D01*
X47395834Y-14846726D02*
X47313589Y-14829173D01*
X3395834Y-41846726D02*
X3313589Y-41829173D01*
X2482676Y-58619375D02*
X2563393Y-58642977D01*
X2325234Y-14939650D02*
X2248895Y-14974929D01*
X3635964Y-4576562D02*
X3713153Y-4543182D01*
X45341956Y-16875356D02*
X45362548Y-16956893D01*
X47713153Y-55456817D02*
X47635964Y-55423437D01*
X47230577Y-28315709D02*
X47147001Y-28306367D01*
X47557219Y-14893915D02*
X47477110Y-14868324D01*
X4691684Y-2832063D02*
X4681309Y-2748608D01*
X46482676Y-31619375D02*
X46563393Y-31642977D01*
X45300520Y-29957951D02*
X45300520Y-30042048D01*
X48681309Y-29748608D02*
X48666820Y-29665769D01*
X1341956Y-43124643D02*
X1325422Y-43207099D01*
X1387146Y-44037312D02*
X1415692Y-44116416D01*
X4666820Y-30334230D02*
X4681309Y-30251391D01*
X46101912Y-17943412D02*
X46174393Y-17986059D01*
X45898338Y-44794736D02*
X45963716Y-44847633D01*
X48648251Y-43083747D02*
X48625649Y-43002744D01*
X1484335Y-69730090D02*
X1448115Y-69805987D01*
X2101912Y-69056587D02*
X2031629Y-69102767D01*
X48454409Y-84880166D02*
X48496157Y-84807163D01*
X47557219Y-31606084D02*
X47635964Y-31576562D01*
X2101912Y-85443412D02*
X2174393Y-85486059D01*
X4700000Y-16500000D02*
X4697919Y-16415928D01*
X4666820Y-16165769D02*
X4648251Y-16083747D01*
X1963716Y-58347633D02*
X2031629Y-58397232D01*
X45567805Y-30915870D02*
X45614851Y-30985577D01*
X47313589Y-72170826D02*
X47395834Y-72153273D01*
X4666820Y-70165769D02*
X4648251Y-70083747D01*
X3933514Y-58420757D02*
X4002634Y-58372852D01*
X3230577Y-55315709D02*
X3147001Y-55306367D01*
X45524264Y-30843922D02*
X45567805Y-30915870D01*
X48648251Y-43916252D02*
X48666820Y-43834230D01*
X1325422Y-56707099D02*
X1312986Y-56790271D01*
X45304679Y-3126042D02*
X45312986Y-3209728D01*
X4252976Y-85148933D02*
X4308262Y-85085563D01*
X1387146Y-15962687D02*
X1362548Y-16043106D01*
X4681309Y-70751391D02*
X4691684Y-70667936D01*
X46325234Y-68939650D02*
X46248895Y-68974929D01*
X4454409Y-83119833D02*
X4409102Y-83048984D01*
X48002634Y-85372852D02*
X48069299Y-85321589D01*
X45524264Y-42656077D02*
X45484335Y-42730090D01*
X4666820Y-56665769D02*
X4648251Y-56583747D01*
X48697919Y-70584071D02*
X48700000Y-70500000D01*
X48308262Y-28914436D02*
X48252976Y-28851066D01*
X46174393Y-28513940D02*
X46101912Y-28556587D01*
X47147001Y-31693632D02*
X47230577Y-31684290D01*
X2403225Y-85591810D02*
X2482676Y-85619375D01*
X48194624Y-1790507D02*
X48133349Y-1732908D01*
X1567805Y-44415870D02*
X1614851Y-44485577D01*
X4194624Y-42290507D02*
X4133349Y-42232908D01*
X4133349Y-71767091D02*
X4194624Y-71709492D01*
X1665286Y-69447127D02*
X1614851Y-69514422D01*
X45304679Y-43626042D02*
X45312986Y-43709728D01*
X50000000Y-93000000D02*
X0Y-93000000D01*
X4681309Y-70248608D02*
X4666820Y-70165769D01*
X2978974Y-41800130D02*
X2894934Y-41803249D01*
X3230577Y-18184290D02*
X3313589Y-18170826D01*
X1835656Y-4238670D02*
X1898338Y-4294736D01*
X45304679Y-16626042D02*
X45312986Y-16709728D01*
X48691684Y-84167936D02*
X48697919Y-84084071D01*
X47313589Y-85670826D02*
X47395834Y-85653273D01*
X48133349Y-58267091D02*
X48194624Y-58209492D01*
X48625649Y-43002744D02*
X48599069Y-42922958D01*
X1484335Y-30769909D02*
X1524264Y-30843922D01*
X45325422Y-30292900D02*
X45341956Y-30375356D01*
X1484335Y-84769909D02*
X1524264Y-84843922D01*
X4697919Y-57084071D02*
X4700000Y-57000000D01*
X4308262Y-28914436D02*
X4252976Y-28851066D01*
X2325234Y-1439650D02*
X2248895Y-1474929D01*
X2031629Y-71897232D02*
X2101912Y-71943412D01*
X47063064Y-85698829D02*
X47147001Y-85693632D01*
X45484335Y-30769909D02*
X45524264Y-30843922D01*
X48454409Y-83119833D02*
X48409102Y-83048984D01*
X48069299Y-15178410D02*
X48002634Y-15127147D01*
X48697919Y-16415928D02*
X48691684Y-16332063D01*
X2727832Y-58678071D02*
X2811152Y-58689478D01*
X4454409Y-2119833D02*
X4409102Y-2048984D01*
X2563393Y-55357022D02*
X2482676Y-55380624D01*
X46403225Y-68908189D02*
X46325234Y-68939650D01*
X45524264Y-83156077D02*
X45484335Y-83230090D01*
X1963716Y-1652366D02*
X1898338Y-1705263D01*
X47313589Y-68829173D02*
X47230577Y-68815709D01*
X4496157Y-84807163D02*
X4534244Y-84732185D01*
X4697919Y-16584071D02*
X4700000Y-16500000D01*
X4194624Y-69290507D02*
X4133349Y-69232908D01*
X1524264Y-69656077D02*
X1484335Y-69730090D01*
X48681309Y-3251391D02*
X48691684Y-3167936D01*
X48681309Y-56748608D02*
X48666820Y-56665769D01*
X4681309Y-43248608D02*
X4666820Y-43165769D01*
X1304679Y-70626042D02*
X1312986Y-70709728D01*
X1415692Y-17116416D02*
X1448115Y-17194012D01*
X45312986Y-16290271D02*
X45304679Y-16373957D01*
X1415692Y-30616416D02*
X1448115Y-30694012D01*
X46727832Y-31678071D02*
X46811152Y-31689478D01*
X47933514Y-69079242D02*
X47862110Y-69034815D01*
X46563393Y-41857022D02*
X46482676Y-41880624D01*
X4599069Y-83422958D02*
X4568576Y-83344584D01*
X3063064Y-4698829D02*
X3147001Y-4693632D01*
X48681309Y-43751391D02*
X48691684Y-43667936D01*
X4697919Y-30084071D02*
X4700000Y-30000000D01*
X46403225Y-4591810D02*
X46482676Y-4619375D01*
X2482676Y-55380624D02*
X2403225Y-55408189D01*
X45963716Y-44847633D02*
X46031629Y-44897232D01*
X48599069Y-17077041D02*
X48625649Y-16997255D01*
X48648251Y-3416252D02*
X48666820Y-3334230D01*
X48666820Y-83665769D02*
X48648251Y-83583747D01*
X1415692Y-57616416D02*
X1448115Y-57694012D01*
X47395834Y-28346726D02*
X47313589Y-28329173D01*
X1963716Y-28652366D02*
X1898338Y-28705263D01*
X48568576Y-57655415D02*
X48599069Y-57577041D01*
X4496157Y-3807163D02*
X4534244Y-3732185D01*
X2563393Y-72142977D02*
X2645179Y-72162558D01*
X48625649Y-43997255D02*
X48648251Y-43916252D01*
X1484335Y-29230090D02*
X1448115Y-29305987D01*
X46727832Y-14821928D02*
X46645179Y-14837441D01*
X4568576Y-69844584D02*
X4534244Y-69767814D01*
X45362548Y-16956893D02*
X45387146Y-17037312D01*
X47395834Y-1346726D02*
X47313589Y-1329173D01*
X46031629Y-42102767D02*
X45963716Y-42152366D01*
X48496157Y-3807163D02*
X48534244Y-3732185D01*
X4252976Y-17648933D02*
X4308262Y-17585563D01*
X45524264Y-69656077D02*
X45484335Y-69730090D01*
X48252976Y-85148933D02*
X48308262Y-85085563D01*
X4697919Y-56915928D02*
X4691684Y-56832063D01*
X2325234Y-18060349D02*
X2403225Y-18091810D01*
X45415692Y-71116416D02*
X45448115Y-71194012D01*
X1312986Y-57209728D02*
X1325422Y-57292900D01*
X4648251Y-43916252D02*
X4666820Y-43834230D01*
X45415692Y-56383583D02*
X45387146Y-56462687D01*
X3635964Y-55423437D02*
X3557219Y-55393915D01*
X45341956Y-43124643D02*
X45325422Y-43207099D01*
X2403225Y-72091810D02*
X2482676Y-72119375D01*
X45718988Y-42382409D02*
X45665286Y-42447127D01*
X45362548Y-84456893D02*
X45387146Y-84537312D01*
X45963716Y-31347633D02*
X46031629Y-31397232D01*
X2645179Y-18162558D02*
X2727832Y-18178071D01*
X3862110Y-69034815D02*
X3788596Y-68993973D01*
X3933514Y-17920757D02*
X4002634Y-17872852D01*
X46727832Y-85678071D02*
X46811152Y-85689478D01*
X1567805Y-71415870D02*
X1614851Y-71485577D01*
X46403225Y-82408189D02*
X46325234Y-82439650D01*
X4681309Y-2748608D02*
X4666820Y-2665769D01*
X3313589Y-28329173D02*
X3230577Y-28315709D01*
X47788596Y-72006026D02*
X47862110Y-71965184D01*
X47557219Y-18106084D02*
X47635964Y-18076562D01*
X4534244Y-69767814D02*
X4496157Y-69692836D01*
X48697919Y-56915928D02*
X48691684Y-56832063D01*
X2403225Y-41908189D02*
X2325234Y-41939650D01*
X45448115Y-29305987D02*
X45415692Y-29383583D01*
X4691684Y-43667936D02*
X4697919Y-43584071D01*
X1567805Y-84915870D02*
X1614851Y-84985577D01*
X45614851Y-3985577D02*
X45665286Y-4052872D01*
X2727832Y-1321928D02*
X2645179Y-1337441D01*
X48681309Y-16248608D02*
X48666820Y-16165769D01*
X45415692Y-15883583D02*
X45387146Y-15962687D01*
X48648251Y-16916252D02*
X48666820Y-16834230D01*
X47147001Y-72193632D02*
X47230577Y-72184290D01*
X4691684Y-43332063D02*
X4681309Y-43248608D01*
X48194624Y-42290507D02*
X48133349Y-42232908D01*
X4308262Y-85085563D02*
X4360347Y-85019536D01*
X48409102Y-29048984D02*
X48360347Y-28980463D01*
X1775824Y-55820425D02*
X1718988Y-55882409D01*
X3395834Y-1346726D02*
X3313589Y-1329173D01*
X46248895Y-14974929D02*
X46174393Y-15013940D01*
X2248895Y-31525070D02*
X2325234Y-31560349D01*
X48133349Y-31267091D02*
X48194624Y-31209492D01*
X47477110Y-31631675D02*
X47557219Y-31606084D01*
X48308262Y-42414436D02*
X48252976Y-42351066D01*
X1614851Y-83014422D02*
X1567805Y-83084129D01*
X47788596Y-31506026D02*
X47862110Y-31465184D01*
X46325234Y-31560349D02*
X46403225Y-31591810D01*
X4409102Y-71451015D02*
X4454409Y-71380166D01*
X2403225Y-68908189D02*
X2325234Y-68939650D01*
X3557219Y-31606084D02*
X3635964Y-31576562D01*
X3477110Y-1368324D02*
X3395834Y-1346726D01*
X46811152Y-14810521D02*
X46727832Y-14821928D01*
X45415692Y-83383583D02*
X45387146Y-83462687D01*
X48599069Y-56422958D02*
X48568576Y-56344584D01*
X1448115Y-42805987D02*
X1415692Y-42883583D01*
X48648251Y-16083747D02*
X48625649Y-16002744D01*
X2563393Y-68857022D02*
X2482676Y-68880624D01*
X4133349Y-28732908D02*
X4069299Y-28678410D01*
X4194624Y-85209492D02*
X4252976Y-85148933D01*
X46403225Y-14908189D02*
X46325234Y-14939650D01*
X45524264Y-17343922D02*
X45567805Y-17415870D01*
X45835656Y-42261329D02*
X45775824Y-42320425D01*
X45312986Y-84209728D02*
X45325422Y-84292900D01*
X4599069Y-2422958D02*
X4568576Y-2344584D01*
X47230577Y-85684290D02*
X47313589Y-85670826D01*
X1341956Y-43875356D02*
X1362548Y-43956893D01*
X2248895Y-41974929D02*
X2174393Y-42013940D01*
X47477110Y-68868324D02*
X47395834Y-68846726D01*
X4681309Y-30251391D02*
X4691684Y-30167936D01*
X1300520Y-57042048D02*
X1304679Y-57126042D01*
X1300520Y-30042048D02*
X1304679Y-30126042D01*
X48599069Y-57577041D02*
X48625649Y-57497255D01*
X4625649Y-84497255D02*
X4648251Y-84416252D01*
X1524264Y-56156077D02*
X1484335Y-56230090D01*
X45567805Y-3915870D02*
X45614851Y-3985577D01*
X46894934Y-45196750D02*
X46978974Y-45199869D01*
X4534244Y-15767814D02*
X4496157Y-15692836D01*
X47788596Y-18006026D02*
X47862110Y-17965184D01*
X48308262Y-69414436D02*
X48252976Y-69351066D01*
X3477110Y-4631675D02*
X3557219Y-4606084D01*
X46101912Y-58443412D02*
X46174393Y-58486059D01*
X46174393Y-15013940D02*
X46101912Y-15056587D01*
X4454409Y-42619833D02*
X4409102Y-42548984D01*
X4252976Y-55851066D02*
X4194624Y-55790507D01*
X3713153Y-58543182D02*
X3788596Y-58506026D01*
X3395834Y-68846726D02*
X3313589Y-68829173D01*
X46325234Y-45060349D02*
X46403225Y-45091810D01*
X4534244Y-2267814D02*
X4496157Y-2192836D01*
X4409102Y-29048984D02*
X4360347Y-28980463D01*
X48252976Y-28851066D02*
X48194624Y-28790507D01*
X3063064Y-18198829D02*
X3147001Y-18193632D01*
X4454409Y-17380166D02*
X4496157Y-17307163D01*
X3477110Y-28368324D02*
X3395834Y-28346726D01*
X48360347Y-1980463D02*
X48308262Y-1914436D01*
X3230577Y-72184290D02*
X3313589Y-72170826D01*
X2645179Y-31662558D02*
X2727832Y-31678071D01*
X45775824Y-4179574D02*
X45835656Y-4238670D01*
X4648251Y-30416252D02*
X4666820Y-30334230D01*
X47395834Y-82346726D02*
X47313589Y-82329173D01*
X4691684Y-56832063D02*
X4681309Y-56748608D01*
X4648251Y-70083747D02*
X4625649Y-70002744D01*
X45448115Y-15805987D02*
X45415692Y-15883583D01*
X4069299Y-55678410D02*
X4002634Y-55627147D01*
X48409102Y-44451015D02*
X48454409Y-44380166D01*
X1567805Y-30915870D02*
X1614851Y-30985577D01*
X2101912Y-31443412D02*
X2174393Y-31486059D01*
X2811152Y-72189478D02*
X2894934Y-72196750D01*
X45665286Y-71552872D02*
X45718988Y-71617590D01*
X47713153Y-41956817D02*
X47635964Y-41923437D01*
X45484335Y-57769909D02*
X45524264Y-57843922D01*
X1362548Y-30456893D02*
X1387146Y-30537312D01*
X1835656Y-55761329D02*
X1775824Y-55820425D01*
X4568576Y-30655415D02*
X4599069Y-30577041D01*
X48625649Y-84497255D02*
X48648251Y-84416252D01*
X48681309Y-70751391D02*
X48691684Y-70667936D01*
X48133349Y-69232908D02*
X48069299Y-69178410D01*
X45415692Y-29383583D02*
X45387146Y-29462687D01*
X50000000Y-27000000D02*
X50000000Y-40500000D01*
X47063064Y-58698829D02*
X47147001Y-58693632D01*
X1304679Y-2873957D02*
X1300520Y-2957951D01*
X48691684Y-29832063D02*
X48681309Y-29748608D01*
X47635964Y-68923437D02*
X47557219Y-68893915D01*
X45304679Y-29873957D02*
X45300520Y-29957951D01*
X45325422Y-16207099D02*
X45312986Y-16290271D01*
X45665286Y-44552872D02*
X45718988Y-44617590D01*
X47713153Y-4543182D02*
X47788596Y-4506026D01*
X46101912Y-31443412D02*
X46174393Y-31486059D01*
X45567805Y-57915870D02*
X45614851Y-57985577D01*
X45341956Y-16124643D02*
X45325422Y-16207099D01*
X46325234Y-18060349D02*
X46403225Y-18091810D01*
X45387146Y-83462687D02*
X45362548Y-83543106D01*
X45304679Y-56873957D02*
X45300520Y-56957951D01*
X1325422Y-84292900D02*
X1341956Y-84375356D01*
X3713153Y-45043182D02*
X3788596Y-45006026D01*
X4194624Y-4209492D02*
X4252976Y-4148933D01*
X3788596Y-58506026D02*
X3862110Y-58465184D01*
X1484335Y-71269909D02*
X1524264Y-71343922D01*
X45898338Y-58294736D02*
X45963716Y-58347633D01*
X46482676Y-14880624D02*
X46403225Y-14908189D01*
X48625649Y-16997255D02*
X48648251Y-16916252D01*
X4625649Y-30497255D02*
X4648251Y-30416252D01*
X1524264Y-29156077D02*
X1484335Y-29230090D01*
X46031629Y-55602767D02*
X45963716Y-55652366D01*
X3477110Y-41868324D02*
X3395834Y-41846726D01*
X48308262Y-44585563D02*
X48360347Y-44519536D01*
X45718988Y-28882409D02*
X45665286Y-28947127D01*
X47933514Y-17920757D02*
X48002634Y-17872852D01*
X1484335Y-3769909D02*
X1524264Y-3843922D01*
X45484335Y-83230090D02*
X45448115Y-83305987D01*
X48194624Y-58209492D02*
X48252976Y-58148933D01*
X47862110Y-42034815D02*
X47788596Y-41993973D01*
X48002634Y-69127147D02*
X47933514Y-69079242D01*
X4496157Y-29192836D02*
X4454409Y-29119833D01*
X4648251Y-57416252D02*
X4666820Y-57334230D01*
X47635964Y-1423437D02*
X47557219Y-1393915D01*
X1362548Y-84456893D02*
X1387146Y-84537312D01*
X3063064Y-41801170D02*
X2978974Y-41800130D01*
X4534244Y-30732185D02*
X4568576Y-30655415D01*
X46645179Y-18162558D02*
X46727832Y-18178071D01*
X48599069Y-71077041D02*
X48625649Y-70997255D01*
X2978974Y-45199869D02*
X3063064Y-45198829D01*
X1325422Y-43207099D02*
X1312986Y-43290271D01*
X46482676Y-41880624D02*
X46403225Y-41908189D01*
X4534244Y-71232185D02*
X4568576Y-71155415D01*
X3933514Y-85420757D02*
X4002634Y-85372852D01*
X48568576Y-56344584D02*
X48534244Y-56267814D01*
X3862110Y-17965184D02*
X3933514Y-17920757D01*
X47933514Y-4420757D02*
X48002634Y-4372852D01*
X1665286Y-82947127D02*
X1614851Y-83014422D01*
X3313589Y-85670826D02*
X3395834Y-85653273D01*
X45415692Y-84616416D02*
X45448115Y-84694012D01*
X45304679Y-43373957D02*
X45300520Y-43457951D01*
X47063064Y-18198829D02*
X47147001Y-18193632D01*
X2031629Y-4397232D02*
X2101912Y-4443412D01*
X47635964Y-18076562D02*
X47713153Y-18043182D01*
X4691684Y-70332063D02*
X4681309Y-70248608D01*
X1963716Y-55652366D02*
X1898338Y-55705263D01*
X2482676Y-28380624D02*
X2403225Y-28408189D01*
X48069299Y-44821589D02*
X48133349Y-44767091D01*
X4133349Y-44767091D02*
X4194624Y-44709492D01*
X46174393Y-31486059D02*
X46248895Y-31525070D01*
X46101912Y-85443412D02*
X46174393Y-85486059D01*
X47933514Y-28579242D02*
X47862110Y-28534815D01*
X46978974Y-68800130D02*
X46894934Y-68803249D01*
X1304679Y-56873957D02*
X1300520Y-56957951D01*
X48454409Y-71380166D02*
X48496157Y-71307163D01*
X48496157Y-44307163D02*
X48534244Y-44232185D01*
X47713153Y-72043182D02*
X47788596Y-72006026D01*
X1614851Y-44485577D02*
X1665286Y-44552872D01*
X45387146Y-42962687D02*
X45362548Y-43043106D01*
X47147001Y-55306367D02*
X47063064Y-55301170D01*
X45775824Y-31179574D02*
X45835656Y-31238670D01*
X45448115Y-57694012D02*
X45484335Y-57769909D01*
X2325234Y-31560349D02*
X2403225Y-31591810D01*
X4599069Y-3577041D02*
X4625649Y-3497255D01*
X1665286Y-31052872D02*
X1718988Y-31117590D01*
X48069299Y-85321589D02*
X48133349Y-85267091D01*
X48133349Y-44767091D02*
X48194624Y-44709492D01*
X47933514Y-82579242D02*
X47862110Y-82534815D01*
X4409102Y-15548984D02*
X4360347Y-15480463D01*
X46325234Y-14939650D02*
X46248895Y-14974929D01*
X46727832Y-72178071D02*
X46811152Y-72189478D01*
X48568576Y-44155415D02*
X48599069Y-44077041D01*
X47230577Y-1315709D02*
X47147001Y-1306367D01*
X45963716Y-42152366D02*
X45898338Y-42205263D01*
X1963716Y-69152366D02*
X1898338Y-69205263D01*
X1524264Y-15656077D02*
X1484335Y-15730090D01*
X4454409Y-84880166D02*
X4496157Y-84807163D01*
X3477110Y-58631675D02*
X3557219Y-58606084D01*
X48454409Y-56119833D02*
X48409102Y-56048984D01*
X46894934Y-4696750D02*
X46978974Y-4699869D01*
X46031629Y-31397232D02*
X46101912Y-31443412D01*
X2563393Y-28357022D02*
X2482676Y-28380624D01*
X47395834Y-58653273D02*
X47477110Y-58631675D01*
X48252976Y-1851066D02*
X48194624Y-1790507D01*
X4666820Y-29665769D02*
X4648251Y-29583747D01*
X47635964Y-41923437D02*
X47557219Y-41893915D01*
X2174393Y-55513940D02*
X2101912Y-55556587D01*
X48697919Y-43584071D02*
X48700000Y-43500000D01*
X48666820Y-43165769D02*
X48648251Y-43083747D01*
X4599069Y-84577041D02*
X4625649Y-84497255D01*
M02*
