M48
; DRILL file {KiCad 9.0.1} date 2025-05-11T12:35:01+0100
; FORMAT={-:-/ absolute / inch / decimal}
; #@! TF.CreationDate,2025-05-11T12:35:01+01:00
; #@! TF.GenerationSoftware,Kicad,Pcbnew,9.0.1
; #@! TF.FileFunction,NonPlated,1,2,NPTH
FMAT,2
INCH
; #@! TA.AperFunction,NonPlated,NPTH,ComponentDrill
T1C0.0197
%
G90
G05
T1
X-0.0043Y-1.0472
X-0.0001Y-0.5118
X-0.0001Y-1.5709
X-0.0001Y-2.6378
X0.0013Y-2.126
X0.0038Y-3.1732
X0.0274Y-1.0472
X0.0316Y-0.5118
X0.0316Y-1.5709
X0.0316Y-2.6378
X0.033Y-2.126
X0.0356Y-3.1732
X0.0592Y-1.0472
X0.0634Y-0.5118
X0.0634Y-1.5709
X0.0634Y-2.6378
X0.0648Y-2.126
X0.0673Y-3.1732
X0.0909Y-1.0472
X0.0951Y-0.5118
X0.0951Y-1.5709
X0.0951Y-2.6378
X0.0965Y-2.126
X0.0991Y-3.1732
X0.1227Y-1.0472
X0.1269Y-0.5118
X0.1269Y-1.5709
X0.1269Y-2.6378
X0.1283Y-2.126
X0.1308Y-3.1732
X0.1544Y-1.0472
X0.1586Y-0.5118
X0.1586Y-1.5709
X0.1586Y-2.6378
X0.16Y-2.126
X0.1626Y-3.1732
X0.1862Y-1.0472
X0.1904Y-0.5118
X0.1904Y-1.5709
X0.1904Y-2.6378
X0.1918Y-2.126
X0.1943Y-3.1732
X0.2179Y-1.0472
X0.2221Y-0.5118
X0.2221Y-1.5709
X0.2221Y-2.6378
X0.2235Y-2.126
X0.2261Y-3.1732
X0.2497Y-1.0472
X0.2539Y-0.5118
X0.2539Y-1.5709
X0.2539Y-2.6378
X0.2553Y-2.126
X0.2578Y-3.1732
X0.2814Y-1.0472
X0.2856Y-0.5118
X0.2856Y-1.5709
X0.2856Y-2.6378
X0.287Y-2.126
X0.2896Y-3.1732
X0.3132Y-1.0472
X0.3174Y-0.5118
X0.3174Y-1.5709
X0.3174Y-2.6378
X0.3188Y-2.126
X0.3213Y-3.1732
X0.3449Y-1.0472
X0.3491Y-0.5118
X0.3491Y-1.5709
X0.3491Y-2.6378
X0.3505Y-2.126
X0.3531Y-3.1732
X0.3767Y-1.0472
X0.3809Y-0.5118
X0.3809Y-1.5709
X0.3809Y-2.6378
X0.3823Y-2.126
X0.3848Y-3.1732
X0.4084Y-1.0472
X0.4126Y-0.5118
X0.4126Y-1.5709
X0.4126Y-2.6378
X0.414Y-2.126
X0.4166Y-3.1732
X0.4402Y-1.0472
X0.4444Y-0.5118
X0.4444Y-1.5709
X0.4444Y-2.6378
X0.4458Y-2.126
X0.4483Y-3.1732
X0.4719Y-1.0472
X0.4761Y-0.5118
X0.4761Y-1.5709
X0.4761Y-2.6378
X0.4775Y-2.126
X0.4801Y-3.1732
X0.5037Y-1.0472
X0.5079Y-0.5118
X0.5079Y-1.5709
X0.5079Y-2.6378
X0.5093Y-2.126
X0.5118Y-3.1732
X0.5354Y-1.0472
X0.5396Y-0.5118
X0.5396Y-1.5709
X0.5396Y-2.6378
X0.541Y-2.126
X0.5436Y-3.1732
X0.5672Y-1.0472
X0.5714Y-0.5118
X0.5714Y-1.5709
X0.5714Y-2.6378
X0.5728Y-2.126
X0.5753Y-3.1732
X0.5989Y-1.0472
X0.6031Y-0.5118
X0.6031Y-1.5709
X0.6031Y-2.6378
X0.6045Y-2.126
X0.6071Y-3.1732
X0.6307Y-1.0472
X0.6349Y-0.5118
X0.6349Y-1.5709
X0.6349Y-2.6378
X0.6363Y-2.126
X0.6388Y-3.1732
X0.6624Y-1.0472
X0.6666Y-0.5118
X0.6666Y-1.5709
X0.6666Y-2.6378
X0.668Y-2.126
X0.6706Y-3.1732
X0.6942Y-1.0472
X0.6984Y-0.5118
X0.6984Y-1.5709
X0.6984Y-2.6378
X0.6998Y-2.126
X0.7023Y-3.1732
X0.7259Y-1.0472
X0.7301Y-0.5118
X0.7301Y-1.5709
X0.7301Y-2.6378
X0.7315Y-2.126
X0.7341Y-3.1732
X0.7577Y-1.0472
X0.7619Y-0.5118
X0.7619Y-1.5709
X0.7619Y-2.6378
X0.7633Y-2.126
X0.7658Y-3.1732
X0.7894Y-1.0472
X0.7936Y-0.5118
X0.7936Y-1.5709
X0.7936Y-2.6378
X0.795Y-2.126
X0.7976Y-3.1732
X0.8212Y-1.0472
X0.8254Y-0.5118
X0.8254Y-1.5709
X0.8254Y-2.6378
X0.8268Y-2.126
X0.8293Y-3.1732
X0.8529Y-1.0472
X0.8571Y-0.5118
X0.8571Y-1.5709
X0.8571Y-2.6378
X0.8585Y-2.126
X0.8611Y-3.1732
X0.8847Y-1.0472
X0.8889Y-0.5118
X0.8889Y-1.5709
X0.8889Y-2.6378
X0.8903Y-2.126
X0.8928Y-3.1732
X0.9164Y-1.0472
X0.9206Y-0.5118
X0.9206Y-1.5709
X0.9206Y-2.6378
X0.922Y-2.126
X0.9246Y-3.1732
X0.9482Y-1.0472
X0.9524Y-0.5118
X0.9524Y-1.5709
X0.9524Y-2.6378
X0.9538Y-2.126
X0.9563Y-3.1732
X0.9799Y-1.0472
X0.9841Y-0.5118
X0.9841Y-1.5709
X0.9841Y-2.6378
X0.9855Y-2.126
X0.9881Y-3.1732
X1.0117Y-1.0472
X1.0159Y-0.5118
X1.0159Y-1.5709
X1.0159Y-2.6378
X1.0173Y-2.126
X1.0198Y-3.1732
X1.0434Y-1.0472
X1.0476Y-0.5118
X1.0476Y-1.5709
X1.0476Y-2.6378
X1.049Y-2.126
X1.0516Y-3.1732
X1.0752Y-1.0472
X1.0794Y-0.5118
X1.0794Y-1.5709
X1.0794Y-2.6378
X1.0808Y-2.126
X1.0833Y-3.1732
X1.1069Y-1.0472
X1.1111Y-0.5118
X1.1111Y-1.5709
X1.1111Y-2.6378
X1.1125Y-2.126
X1.1151Y-3.1732
X1.1387Y-1.0472
X1.1429Y-0.5118
X1.1429Y-1.5709
X1.1429Y-2.6378
X1.1443Y-2.126
X1.1468Y-3.1732
X1.1704Y-1.0472
X1.1746Y-0.5118
X1.1746Y-1.5709
X1.1746Y-2.6378
X1.176Y-2.126
X1.1786Y-3.1732
X1.2022Y-1.0472
X1.2064Y-0.5118
X1.2064Y-1.5709
X1.2064Y-2.6378
X1.2078Y-2.126
X1.2103Y-3.1732
X1.2339Y-1.0472
X1.2381Y-0.5118
X1.2381Y-1.5709
X1.2381Y-2.6378
X1.2395Y-2.126
X1.2421Y-3.1732
X1.2657Y-1.0472
X1.2699Y-0.5118
X1.2699Y-1.5709
X1.2699Y-2.6378
X1.2713Y-2.126
X1.2738Y-3.1732
X1.2974Y-1.0472
X1.3016Y-0.5118
X1.3016Y-1.5709
X1.3016Y-2.6378
X1.303Y-2.126
X1.3056Y-3.1732
X1.3292Y-1.0472
X1.3334Y-0.5118
X1.3334Y-1.5709
X1.3334Y-2.6378
X1.3348Y-2.126
X1.3373Y-3.1732
X1.3609Y-1.0472
X1.3651Y-0.5118
X1.3651Y-1.5709
X1.3651Y-2.6378
X1.3665Y-2.126
X1.3691Y-3.1732
X1.3927Y-1.0472
X1.3969Y-0.5118
X1.3969Y-1.5709
X1.3969Y-2.6378
X1.3983Y-2.126
X1.4008Y-3.1732
X1.4244Y-1.0472
X1.4286Y-0.5118
X1.4286Y-1.5709
X1.4286Y-2.6378
X1.43Y-2.126
X1.4326Y-3.1732
X1.4562Y-1.0472
X1.4604Y-0.5118
X1.4604Y-1.5709
X1.4604Y-2.6378
X1.4618Y-2.126
X1.4643Y-3.1732
X1.4879Y-1.0472
X1.4921Y-0.5118
X1.4921Y-1.5709
X1.4921Y-2.6378
X1.4935Y-2.126
X1.4961Y-3.1732
X1.5197Y-1.0472
X1.5239Y-0.5118
X1.5239Y-1.5709
X1.5239Y-2.6378
X1.5253Y-2.126
X1.5278Y-3.1732
X1.5514Y-1.0472
X1.5556Y-0.5118
X1.5556Y-1.5709
X1.5556Y-2.6378
X1.557Y-2.126
X1.5596Y-3.1732
X1.5832Y-1.0472
X1.5874Y-0.5118
X1.5874Y-1.5709
X1.5874Y-2.6378
X1.5888Y-2.126
X1.5913Y-3.1732
X1.6149Y-1.0472
X1.6191Y-0.5118
X1.6191Y-1.5709
X1.6191Y-2.6378
X1.6205Y-2.126
X1.6231Y-3.1732
X1.6467Y-1.0472
X1.6509Y-0.5118
X1.6509Y-1.5709
X1.6509Y-2.6378
X1.6523Y-2.126
X1.6548Y-3.1732
X1.6784Y-1.0472
X1.6826Y-0.5118
X1.6826Y-1.5709
X1.6826Y-2.6378
X1.684Y-2.126
X1.6866Y-3.1732
X1.7102Y-1.0472
X1.7144Y-0.5118
X1.7144Y-1.5709
X1.7144Y-2.6378
X1.7158Y-2.126
X1.7183Y-3.1732
X1.7419Y-1.0472
X1.7461Y-0.5118
X1.7461Y-1.5709
X1.7461Y-2.6378
X1.7475Y-2.126
X1.7501Y-3.1732
X1.7737Y-1.0472
X1.7779Y-0.5118
X1.7779Y-1.5709
X1.7779Y-2.6378
X1.7793Y-2.126
X1.7818Y-3.1732
X1.8054Y-1.0472
X1.8096Y-0.5118
X1.8096Y-1.5709
X1.8096Y-2.6378
X1.811Y-2.126
X1.8136Y-3.1732
X1.8372Y-1.0472
X1.8414Y-0.5118
X1.8414Y-1.5709
X1.8414Y-2.6378
X1.8428Y-2.126
X1.8453Y-3.1732
X1.8689Y-1.0472
X1.8731Y-0.5118
X1.8731Y-1.5709
X1.8731Y-2.6378
X1.8745Y-2.126
X1.8771Y-3.1732
X1.9007Y-1.0472
X1.9049Y-0.5118
X1.9049Y-1.5709
X1.9049Y-2.6378
X1.9063Y-2.126
X1.9088Y-3.1732
X1.9324Y-1.0472
X1.9366Y-0.5118
X1.9366Y-1.5709
X1.9366Y-2.6378
X1.938Y-2.126
X1.9406Y-3.1732
X1.9642Y-1.0472
X1.9684Y-0.5118
X1.9684Y-1.5709
X1.9684Y-2.6378
X1.9698Y-2.126
X1.9723Y-3.1732
M30
