G04 #@! TF.GenerationSoftware,KiCad,Pcbnew,7.0.2*
G04 #@! TF.CreationDate,2025-01-03T12:39:58+00:00*
G04 #@! TF.ProjectId,Main_PCB,4d61696e-5f50-4434-922e-6b696361645f,rev?*
G04 #@! TF.SameCoordinates,Original*
G04 #@! TF.FileFunction,Legend,Bot*
G04 #@! TF.FilePolarity,Positive*
%FSLAX46Y46*%
G04 Gerber Fmt 4.6, Leading zero omitted, Abs format (unit mm)*
G04 Created by KiCad (PCBNEW 7.0.2) date 2025-01-03 12:39:58*
%MOMM*%
%LPD*%
G01*
G04 APERTURE LIST*
G04 Aperture macros list*
%AMRoundRect*
0 Rectangle with rounded corners*
0 $1 Rounding radius*
0 $2 $3 $4 $5 $6 $7 $8 $9 X,Y pos of 4 corners*
0 Add a 4 corners polygon primitive as box body*
4,1,4,$2,$3,$4,$5,$6,$7,$8,$9,$2,$3,0*
0 Add four circle primitives for the rounded corners*
1,1,$1+$1,$2,$3*
1,1,$1+$1,$4,$5*
1,1,$1+$1,$6,$7*
1,1,$1+$1,$8,$9*
0 Add four rect primitives between the rounded corners*
20,1,$1+$1,$2,$3,$4,$5,0*
20,1,$1+$1,$4,$5,$6,$7,0*
20,1,$1+$1,$6,$7,$8,$9,0*
20,1,$1+$1,$8,$9,$2,$3,0*%
G04 Aperture macros list end*
%ADD10C,0.100000*%
%ADD11C,0.120000*%
%ADD12C,1.600000*%
%ADD13O,1.600000X1.600000*%
%ADD14R,1.700000X1.700000*%
%ADD15O,1.700000X1.700000*%
%ADD16C,1.524000*%
%ADD17R,1.600000X1.600000*%
%ADD18RoundRect,0.450000X0.450000X-0.450000X0.450000X0.450000X-0.450000X0.450000X-0.450000X-0.450000X0*%
%ADD19C,1.800000*%
%ADD20C,1.700000*%
%ADD21C,2.700000*%
%ADD22R,3.000000X3.000000*%
%ADD23C,3.000000*%
%ADD24R,2.000000X2.000000*%
%ADD25C,2.000000*%
%ADD26C,1.778000*%
G04 APERTURE END LIST*
D10*
X187153143Y-166357619D02*
X187486476Y-165881428D01*
X187724571Y-166357619D02*
X187724571Y-165357619D01*
X187724571Y-165357619D02*
X187343619Y-165357619D01*
X187343619Y-165357619D02*
X187248381Y-165405238D01*
X187248381Y-165405238D02*
X187200762Y-165452857D01*
X187200762Y-165452857D02*
X187153143Y-165548095D01*
X187153143Y-165548095D02*
X187153143Y-165690952D01*
X187153143Y-165690952D02*
X187200762Y-165786190D01*
X187200762Y-165786190D02*
X187248381Y-165833809D01*
X187248381Y-165833809D02*
X187343619Y-165881428D01*
X187343619Y-165881428D02*
X187724571Y-165881428D01*
X186296000Y-166357619D02*
X186296000Y-165833809D01*
X186296000Y-165833809D02*
X186343619Y-165738571D01*
X186343619Y-165738571D02*
X186438857Y-165690952D01*
X186438857Y-165690952D02*
X186629333Y-165690952D01*
X186629333Y-165690952D02*
X186724571Y-165738571D01*
X186296000Y-166310000D02*
X186391238Y-166357619D01*
X186391238Y-166357619D02*
X186629333Y-166357619D01*
X186629333Y-166357619D02*
X186724571Y-166310000D01*
X186724571Y-166310000D02*
X186772190Y-166214761D01*
X186772190Y-166214761D02*
X186772190Y-166119523D01*
X186772190Y-166119523D02*
X186724571Y-166024285D01*
X186724571Y-166024285D02*
X186629333Y-165976666D01*
X186629333Y-165976666D02*
X186391238Y-165976666D01*
X186391238Y-165976666D02*
X186296000Y-165929047D01*
X185867428Y-166310000D02*
X185772190Y-166357619D01*
X185772190Y-166357619D02*
X185581714Y-166357619D01*
X185581714Y-166357619D02*
X185486476Y-166310000D01*
X185486476Y-166310000D02*
X185438857Y-166214761D01*
X185438857Y-166214761D02*
X185438857Y-166167142D01*
X185438857Y-166167142D02*
X185486476Y-166071904D01*
X185486476Y-166071904D02*
X185581714Y-166024285D01*
X185581714Y-166024285D02*
X185724571Y-166024285D01*
X185724571Y-166024285D02*
X185819809Y-165976666D01*
X185819809Y-165976666D02*
X185867428Y-165881428D01*
X185867428Y-165881428D02*
X185867428Y-165833809D01*
X185867428Y-165833809D02*
X185819809Y-165738571D01*
X185819809Y-165738571D02*
X185724571Y-165690952D01*
X185724571Y-165690952D02*
X185581714Y-165690952D01*
X185581714Y-165690952D02*
X185486476Y-165738571D01*
X185010285Y-165690952D02*
X185010285Y-166690952D01*
X185010285Y-165738571D02*
X184915047Y-165690952D01*
X184915047Y-165690952D02*
X184724571Y-165690952D01*
X184724571Y-165690952D02*
X184629333Y-165738571D01*
X184629333Y-165738571D02*
X184581714Y-165786190D01*
X184581714Y-165786190D02*
X184534095Y-165881428D01*
X184534095Y-165881428D02*
X184534095Y-166167142D01*
X184534095Y-166167142D02*
X184581714Y-166262380D01*
X184581714Y-166262380D02*
X184629333Y-166310000D01*
X184629333Y-166310000D02*
X184724571Y-166357619D01*
X184724571Y-166357619D02*
X184915047Y-166357619D01*
X184915047Y-166357619D02*
X185010285Y-166310000D01*
X184105523Y-166357619D02*
X184105523Y-165357619D01*
X184105523Y-165738571D02*
X184010285Y-165690952D01*
X184010285Y-165690952D02*
X183819809Y-165690952D01*
X183819809Y-165690952D02*
X183724571Y-165738571D01*
X183724571Y-165738571D02*
X183676952Y-165786190D01*
X183676952Y-165786190D02*
X183629333Y-165881428D01*
X183629333Y-165881428D02*
X183629333Y-166167142D01*
X183629333Y-166167142D02*
X183676952Y-166262380D01*
X183676952Y-166262380D02*
X183724571Y-166310000D01*
X183724571Y-166310000D02*
X183819809Y-166357619D01*
X183819809Y-166357619D02*
X184010285Y-166357619D01*
X184010285Y-166357619D02*
X184105523Y-166310000D01*
X182819809Y-166310000D02*
X182915047Y-166357619D01*
X182915047Y-166357619D02*
X183105523Y-166357619D01*
X183105523Y-166357619D02*
X183200761Y-166310000D01*
X183200761Y-166310000D02*
X183248380Y-166214761D01*
X183248380Y-166214761D02*
X183248380Y-165833809D01*
X183248380Y-165833809D02*
X183200761Y-165738571D01*
X183200761Y-165738571D02*
X183105523Y-165690952D01*
X183105523Y-165690952D02*
X182915047Y-165690952D01*
X182915047Y-165690952D02*
X182819809Y-165738571D01*
X182819809Y-165738571D02*
X182772190Y-165833809D01*
X182772190Y-165833809D02*
X182772190Y-165929047D01*
X182772190Y-165929047D02*
X183248380Y-166024285D01*
X182343618Y-166357619D02*
X182343618Y-165690952D01*
X182343618Y-165881428D02*
X182295999Y-165786190D01*
X182295999Y-165786190D02*
X182248380Y-165738571D01*
X182248380Y-165738571D02*
X182153142Y-165690952D01*
X182153142Y-165690952D02*
X182057904Y-165690952D01*
X181724570Y-166357619D02*
X181724570Y-165690952D01*
X181724570Y-165881428D02*
X181676951Y-165786190D01*
X181676951Y-165786190D02*
X181629332Y-165738571D01*
X181629332Y-165738571D02*
X181534094Y-165690952D01*
X181534094Y-165690952D02*
X181438856Y-165690952D01*
X181200760Y-165690952D02*
X180962665Y-166357619D01*
X180724570Y-165690952D02*
X180962665Y-166357619D01*
X180962665Y-166357619D02*
X181057903Y-166595714D01*
X181057903Y-166595714D02*
X181105522Y-166643333D01*
X181105522Y-166643333D02*
X181200760Y-166690952D01*
X179581712Y-166357619D02*
X179581712Y-165357619D01*
X179581712Y-165357619D02*
X179200760Y-165357619D01*
X179200760Y-165357619D02*
X179105522Y-165405238D01*
X179105522Y-165405238D02*
X179057903Y-165452857D01*
X179057903Y-165452857D02*
X179010284Y-165548095D01*
X179010284Y-165548095D02*
X179010284Y-165690952D01*
X179010284Y-165690952D02*
X179057903Y-165786190D01*
X179057903Y-165786190D02*
X179105522Y-165833809D01*
X179105522Y-165833809D02*
X179200760Y-165881428D01*
X179200760Y-165881428D02*
X179581712Y-165881428D01*
X178581712Y-166357619D02*
X178581712Y-165690952D01*
X178581712Y-165357619D02*
X178629331Y-165405238D01*
X178629331Y-165405238D02*
X178581712Y-165452857D01*
X178581712Y-165452857D02*
X178534093Y-165405238D01*
X178534093Y-165405238D02*
X178581712Y-165357619D01*
X178581712Y-165357619D02*
X178581712Y-165452857D01*
X176867427Y-165357619D02*
X177343617Y-165357619D01*
X177343617Y-165357619D02*
X177391236Y-165833809D01*
X177391236Y-165833809D02*
X177343617Y-165786190D01*
X177343617Y-165786190D02*
X177248379Y-165738571D01*
X177248379Y-165738571D02*
X177010284Y-165738571D01*
X177010284Y-165738571D02*
X176915046Y-165786190D01*
X176915046Y-165786190D02*
X176867427Y-165833809D01*
X176867427Y-165833809D02*
X176819808Y-165929047D01*
X176819808Y-165929047D02*
X176819808Y-166167142D01*
X176819808Y-166167142D02*
X176867427Y-166262380D01*
X176867427Y-166262380D02*
X176915046Y-166310000D01*
X176915046Y-166310000D02*
X177010284Y-166357619D01*
X177010284Y-166357619D02*
X177248379Y-166357619D01*
X177248379Y-166357619D02*
X177343617Y-166310000D01*
X177343617Y-166310000D02*
X177391236Y-166262380D01*
D11*
X226723000Y-159525000D02*
X226723000Y-164725000D01*
X175803000Y-159525000D02*
X226723000Y-159525000D01*
X175803000Y-159525000D02*
X175803000Y-162125000D01*
X178403000Y-162125000D02*
X178403000Y-164725000D01*
X175803000Y-162125000D02*
X178403000Y-162125000D01*
X175803000Y-163395000D02*
X175803000Y-164725000D01*
X178403000Y-164725000D02*
X226723000Y-164725000D01*
X175803000Y-164725000D02*
X177133000Y-164725000D01*
%LPC*%
D12*
X176581000Y-202743000D03*
D13*
X174041000Y-202743000D03*
D14*
X177978000Y-82601000D03*
D15*
X180518000Y-82601000D03*
X183058000Y-82601000D03*
X185598000Y-82601000D03*
X188138000Y-82601000D03*
X190678000Y-82601000D03*
D14*
X204824000Y-115631000D03*
D15*
X204824000Y-118171000D03*
X204824000Y-120711000D03*
X204824000Y-123251000D03*
D16*
X172009000Y-128199000D03*
X172009000Y-125659000D03*
X172009000Y-123119000D03*
X172009000Y-120579000D03*
X172009000Y-118039000D03*
D12*
X174520000Y-196393000D03*
D13*
X177060000Y-196393000D03*
D12*
X211252000Y-107366000D03*
D13*
X213792000Y-107366000D03*
D17*
X224333000Y-195250000D03*
D13*
X226873000Y-195250000D03*
X229413000Y-195250000D03*
X229413000Y-187630000D03*
X226873000Y-187630000D03*
X224333000Y-187630000D03*
D18*
X168707000Y-204013000D03*
D19*
X170231000Y-202235000D03*
X168707000Y-200711000D03*
X170231000Y-199187000D03*
D12*
X178994000Y-86636000D03*
D13*
X178994000Y-89176000D03*
D12*
X186360000Y-210334000D03*
D13*
X186360000Y-212874000D03*
D20*
X194234000Y-139116000D03*
D14*
X196774000Y-139116000D03*
D15*
X194234000Y-141656000D03*
D14*
X196774000Y-141656000D03*
D15*
X194234000Y-144196000D03*
D14*
X196774000Y-144196000D03*
D15*
X194234000Y-146736000D03*
D14*
X196774000Y-146736000D03*
D12*
X220650000Y-212424000D03*
D13*
X220650000Y-209884000D03*
D17*
X223129113Y-179375000D03*
D12*
X221129113Y-179375000D03*
D14*
X217729000Y-82601000D03*
D15*
X220269000Y-82601000D03*
X222809000Y-82601000D03*
X225349000Y-82601000D03*
X227889000Y-82601000D03*
X230429000Y-82601000D03*
D14*
X230429000Y-216205000D03*
D15*
X227889000Y-216205000D03*
X225349000Y-216205000D03*
X222809000Y-216205000D03*
X220269000Y-216205000D03*
X217729000Y-216205000D03*
D12*
X171287000Y-156134000D03*
X173787000Y-156134000D03*
X174491000Y-205791000D03*
D13*
X177031000Y-205791000D03*
D12*
X223825000Y-210334000D03*
D13*
X223825000Y-212874000D03*
D12*
X188519000Y-88726000D03*
D13*
X188519000Y-86186000D03*
D14*
X186233000Y-216205000D03*
D15*
X183693000Y-216205000D03*
X181153000Y-216205000D03*
X178613000Y-216205000D03*
X176073000Y-216205000D03*
X173533000Y-216205000D03*
D12*
X183185000Y-212424000D03*
D13*
X183185000Y-209884000D03*
D16*
X208712000Y-103683000D03*
X211252000Y-103683000D03*
X213792000Y-103683000D03*
X211252000Y-83363000D03*
X213792000Y-83363000D03*
D21*
X172263000Y-211125000D03*
X172263000Y-162125000D03*
D12*
X217475000Y-210334000D03*
D13*
X217475000Y-212874000D03*
D14*
X209474000Y-115631000D03*
D15*
X209474000Y-118171000D03*
X209474000Y-120711000D03*
X209474000Y-123251000D03*
D16*
X196612000Y-103683000D03*
X199152000Y-103683000D03*
X201692000Y-103683000D03*
X199152000Y-83363000D03*
X201692000Y-83363000D03*
D14*
X169977000Y-109779000D03*
D15*
X172517000Y-109779000D03*
D21*
X256241320Y-83028755D03*
D12*
X199187000Y-107366000D03*
D13*
X201727000Y-107366000D03*
D20*
X201219000Y-145847000D03*
X203759000Y-145847000D03*
X206299000Y-145847000D03*
X208839000Y-145847000D03*
X211379000Y-145847000D03*
X213919000Y-145847000D03*
X216459000Y-145847000D03*
X218999000Y-145847000D03*
X221539000Y-145847000D03*
X224079000Y-145847000D03*
X226619000Y-145847000D03*
X229159000Y-145847000D03*
X201219000Y-128067000D03*
X203759000Y-128067000D03*
X206299000Y-128067000D03*
X208839000Y-128067000D03*
X211379000Y-128067000D03*
X213919000Y-128067000D03*
X216459000Y-128067000D03*
X218999000Y-128067000D03*
X221539000Y-128067000D03*
X224079000Y-128067000D03*
X226619000Y-128067000D03*
X229159000Y-128067000D03*
D22*
X169850000Y-89586000D03*
D23*
X169850000Y-94666000D03*
X169850000Y-99746000D03*
X169850000Y-104826000D03*
D12*
X190268000Y-190805000D03*
D13*
X192808000Y-190805000D03*
D21*
X256241320Y-152028755D03*
D14*
X218774000Y-115631000D03*
D15*
X218774000Y-118171000D03*
X218774000Y-120711000D03*
X218774000Y-123251000D03*
D12*
X203378000Y-190805000D03*
D13*
X205918000Y-190805000D03*
D12*
X219888000Y-88726000D03*
D13*
X219888000Y-86186000D03*
D16*
X195774000Y-194615000D03*
X193234000Y-194615000D03*
X190694000Y-194615000D03*
X193234000Y-214935000D03*
X190694000Y-214935000D03*
D12*
X176835000Y-212424000D03*
D13*
X176835000Y-209884000D03*
D12*
X182169000Y-88726000D03*
D13*
X182169000Y-86186000D03*
D12*
X174491000Y-199723000D03*
D13*
X177031000Y-199723000D03*
D12*
X229794000Y-86636000D03*
D13*
X229794000Y-89176000D03*
D24*
X188412000Y-180137000D03*
D25*
X196012000Y-180137000D03*
D26*
X239416000Y-146636000D03*
X239416000Y-88348000D03*
X241956000Y-146636000D03*
X241956000Y-88348000D03*
X244496000Y-146636000D03*
X244496000Y-88348000D03*
X247036000Y-146636000D03*
X247036000Y-88348000D03*
X249576000Y-146636000D03*
X249576000Y-88348000D03*
X252116000Y-146636000D03*
X252116000Y-88348000D03*
D12*
X223317000Y-175057000D03*
X220817000Y-175057000D03*
D17*
X171561888Y-151816000D03*
D12*
X173561888Y-151816000D03*
D26*
X172009000Y-136322000D03*
X172009000Y-138862000D03*
X172009000Y-141402000D03*
X172009000Y-143942000D03*
X172009000Y-146482000D03*
D12*
X227000000Y-212424000D03*
D13*
X227000000Y-209884000D03*
D12*
X185344000Y-86636000D03*
D13*
X185344000Y-89176000D03*
D14*
X214124000Y-115631000D03*
D15*
X214124000Y-118171000D03*
X214124000Y-120711000D03*
X214124000Y-123251000D03*
D12*
X180010000Y-210334000D03*
D13*
X180010000Y-212874000D03*
D12*
X176610000Y-193274000D03*
D13*
X174070000Y-193274000D03*
D12*
X174520000Y-190170000D03*
D13*
X177060000Y-190170000D03*
D15*
X225857000Y-152959000D03*
X223317000Y-152959000D03*
D14*
X220777000Y-152959000D03*
D15*
X218237000Y-152959000D03*
X215697000Y-152959000D03*
X213157000Y-152959000D03*
X210617000Y-152959000D03*
D14*
X208077000Y-152959000D03*
D15*
X205537000Y-152959000D03*
X202997000Y-152959000D03*
X200457000Y-152959000D03*
X197917000Y-152959000D03*
D14*
X195377000Y-152959000D03*
D15*
X192837000Y-152959000D03*
X190297000Y-152959000D03*
X187757000Y-152959000D03*
X185217000Y-152959000D03*
D14*
X182677000Y-152959000D03*
D15*
X180137000Y-152959000D03*
X177597000Y-152959000D03*
X177597000Y-170739000D03*
X180137000Y-170739000D03*
D14*
X182677000Y-170739000D03*
D15*
X185217000Y-170739000D03*
X187757000Y-170739000D03*
X190297000Y-170739000D03*
X192837000Y-170739000D03*
D14*
X195377000Y-170739000D03*
D15*
X197917000Y-170739000D03*
X200457000Y-170739000D03*
X202997000Y-170739000D03*
X205537000Y-170739000D03*
D14*
X208077000Y-170739000D03*
D15*
X210617000Y-170739000D03*
X213157000Y-170739000D03*
X215697000Y-170739000D03*
X218237000Y-170739000D03*
D14*
X220777000Y-170739000D03*
D15*
X223317000Y-170739000D03*
X225857000Y-170739000D03*
D14*
X223424000Y-115631000D03*
D15*
X223424000Y-118171000D03*
X223424000Y-120711000D03*
X223424000Y-123251000D03*
D12*
X223190000Y-86636000D03*
D13*
X223190000Y-89176000D03*
D18*
X168707000Y-196901000D03*
D19*
X170231000Y-195123000D03*
X168707000Y-193599000D03*
X170231000Y-192075000D03*
D16*
X208585000Y-194615000D03*
X206045000Y-194615000D03*
X203505000Y-194615000D03*
X206045000Y-214935000D03*
X203505000Y-214935000D03*
D21*
X172263000Y-83028755D03*
D12*
X226492000Y-88726000D03*
D13*
X226492000Y-86186000D03*
D14*
X177133000Y-163395000D03*
D15*
X177133000Y-160855000D03*
X179673000Y-163395000D03*
X179673000Y-160855000D03*
X182213000Y-163395000D03*
X182213000Y-160855000D03*
X184753000Y-163395000D03*
X184753000Y-160855000D03*
X187293000Y-163395000D03*
X187293000Y-160855000D03*
X189833000Y-163395000D03*
X189833000Y-160855000D03*
X192373000Y-163395000D03*
X192373000Y-160855000D03*
X194913000Y-163395000D03*
X194913000Y-160855000D03*
X197453000Y-163395000D03*
X197453000Y-160855000D03*
X199993000Y-163395000D03*
X199993000Y-160855000D03*
X202533000Y-163395000D03*
X202533000Y-160855000D03*
X205073000Y-163395000D03*
X205073000Y-160855000D03*
X207613000Y-163395000D03*
X207613000Y-160855000D03*
X210153000Y-163395000D03*
X210153000Y-160855000D03*
X212693000Y-163395000D03*
X212693000Y-160855000D03*
X215233000Y-163395000D03*
X215233000Y-160855000D03*
X217773000Y-163395000D03*
X217773000Y-160855000D03*
X220313000Y-163395000D03*
X220313000Y-160855000D03*
X222853000Y-163395000D03*
X222853000Y-160855000D03*
X225393000Y-163395000D03*
X225393000Y-160855000D03*
%LPD*%
M02*
