M48
; DRILL file {KiCad 7.0.2} date Fri Jan  3 12:40:25 2025
; FORMAT={-:-/ absolute / metric / decimal}
; #@! TF.CreationDate,2025-01-03T12:40:25+00:00
; #@! TF.GenerationSoftware,Kicad,Pcbnew,7.0.2
; #@! TF.FileFunction,Plated,1,2,PTH
FMAT,2
METRIC
; #@! TA.AperFunction,Plated,PTH,ViaDrill
T1C0.400
; #@! TA.AperFunction,Plated,PTH,ViaDrill
T2C0.500
; #@! TA.AperFunction,Plated,PTH,ComponentDrill
T3C0.762
; #@! TA.AperFunction,Plated,PTH,ComponentDrill
T4C0.800
; #@! TA.AperFunction,Plated,PTH,ComponentDrill
T5C0.900
; #@! TA.AperFunction,Plated,PTH,ComponentDrill
T6C1.000
; #@! TA.AperFunction,Plated,PTH,ComponentDrill
T7C1.020
; #@! TA.AperFunction,Plated,PTH,ComponentDrill
T8C1.520
%
G90
G05
T1
X164.897Y-163.915
X164.897Y-164.795
X164.897Y-165.659
X164.897Y-166.506
X164.897Y-167.386
X164.897Y-168.258
X164.897Y-169.139
X164.897Y-170.019
X164.897Y-170.9
X164.897Y-171.916
X164.897Y-172.796
X164.897Y-173.66
X164.897Y-174.507
X164.897Y-175.387
X164.897Y-176.259
X164.897Y-177.14
X164.897Y-178.02
X164.897Y-178.901
X164.897Y-179.917
X164.897Y-180.797
X164.897Y-181.661
X164.897Y-182.508
X164.897Y-183.388
X164.897Y-184.26
X164.897Y-185.141
X164.897Y-186.021
X164.897Y-186.902
X168.453Y-163.873
X168.453Y-164.753
X168.453Y-165.617
X168.453Y-166.463
X168.453Y-167.344
X168.453Y-168.216
X168.453Y-169.096
X168.453Y-169.977
X168.453Y-170.858
X168.453Y-171.874
X168.453Y-172.754
X168.453Y-173.618
X168.453Y-174.464
X168.453Y-175.345
X168.453Y-176.217
X168.453Y-177.097
X168.453Y-177.978
X168.453Y-178.859
X168.453Y-179.875
X168.453Y-180.755
X168.453Y-181.619
X168.453Y-182.465
X168.453Y-183.346
X168.453Y-184.218
X168.453Y-185.098
X168.453Y-185.979
X168.453Y-186.86
X169.342Y-134.468
X169.342Y-135.314
X169.342Y-136.195
X169.342Y-137.067
X169.342Y-137.948
X169.342Y-138.828
X170.231Y-134.84
X170.231Y-135.687
X170.231Y-136.568
X170.231Y-137.44
X170.231Y-138.32
X170.231Y-139.201
X171.12Y-134.544
X171.501Y-178.486
X171.755Y-177.597
X171.882Y-180.01
X172.136Y-134.544
X172.136Y-179.121
X172.39Y-178.232
X172.517Y-180.772
X172.771Y-179.883
X173.025Y-178.994
X173.152Y-181.407
X173.406Y-180.518
X173.66Y-179.629
X173.787Y-182.042
X174.041Y-181.153
X174.295Y-180.264
X174.422Y-182.677
X174.549Y-101.524
X174.676Y-181.788
X174.803Y-114.097
X174.803Y-114.978
X174.803Y-115.841
X174.803Y-116.688
X174.803Y-117.568
X174.803Y-118.44
X174.803Y-119.321
X174.803Y-120.201
X174.803Y-121.082
X174.803Y-122.098
X174.803Y-122.979
X174.803Y-123.842
X174.803Y-124.689
X174.803Y-125.569
X174.803Y-126.441
X174.803Y-127.322
X174.803Y-128.202
X174.803Y-129.083
X174.803Y-130.099
X174.803Y-130.98
X174.803Y-131.843
X174.803Y-132.69
X174.803Y-133.57
X174.803Y-134.442
X174.803Y-135.323
X174.803Y-136.203
X174.803Y-137.084
X174.93Y-180.899
X175.057Y-100.635
X175.057Y-183.439
X175.311Y-182.55
X175.438Y-101.524
X175.565Y-181.661
X175.819Y-111.557
X175.946Y-100.635
X176.327Y-101.524
X176.708Y-111.557
X176.835Y-100.635
X177.089Y-112.446
X177.089Y-174.803
X177.216Y-101.524
X177.343Y-114.224
X177.343Y-115.105
X177.343Y-115.968
X177.343Y-116.815
X177.343Y-117.695
X177.343Y-118.567
X177.343Y-119.448
X177.343Y-120.328
X177.343Y-121.209
X177.343Y-122.225
X177.343Y-123.106
X177.343Y-123.969
X177.343Y-124.816
X177.343Y-125.696
X177.343Y-126.568
X177.343Y-127.449
X177.343Y-128.329
X177.343Y-129.21
X177.343Y-130.226
X177.343Y-131.107
X177.343Y-131.97
X177.343Y-132.817
X177.343Y-133.697
X177.343Y-134.569
X177.343Y-135.45
X177.343Y-136.33
X177.343Y-137.211
X177.597Y-111.557
X177.724Y-100.635
X177.724Y-175.438
X177.978Y-112.446
X177.978Y-174.422
X178.105Y-101.524
X178.359Y-176.2
X178.486Y-111.557
X178.613Y-100.635
X178.613Y-175.184
X178.867Y-112.446
X178.994Y-101.524
X178.994Y-176.835
X179.248Y-175.819
X179.375Y-111.557
X179.502Y-100.635
X179.629Y-177.47
X179.756Y-112.446
X179.883Y-101.524
X179.883Y-176.454
X180.264Y-111.557
X180.518Y-100.635
X180.645Y-112.446
X180.772Y-101.524
X181.153Y-111.557
X181.407Y-100.635
X181.534Y-112.446
X183.947Y-96.571
X183.947Y-97.587
X183.947Y-98.476
X183.947Y-99.365
X183.947Y-100.254
X183.947Y-101.143
X184.836Y-96.317
X184.836Y-97.206
X184.836Y-98.095
X184.836Y-98.984
X184.836Y-99.873
X184.836Y-100.762
X184.836Y-101.651
X188.265Y-96.317
X188.265Y-97.206
X188.265Y-98.095
X188.265Y-98.984
X188.265Y-99.873
X188.265Y-100.762
X188.265Y-101.651
X189.154Y-96.825
X189.154Y-97.714
X189.154Y-98.603
X189.154Y-99.492
X189.154Y-100.381
X189.154Y-101.397
X199.187Y-183.439
X199.441Y-182.423
X199.822Y-184.074
X200.076Y-183.058
X200.457Y-184.836
X200.711Y-183.82
X201.092Y-185.471
X201.346Y-184.455
X201.6Y-180.01
X201.727Y-186.106
X201.981Y-185.09
X202.235Y-180.645
X202.489Y-179.629
X202.489Y-186.614
X202.743Y-185.598
X202.87Y-181.28
X203.124Y-180.264
X203.124Y-187.249
X203.378Y-186.233
X203.632Y-182.042
X203.886Y-181.026
X203.886Y-188.011
X204.14Y-186.995
X204.267Y-182.677
X204.521Y-181.661
X204.521Y-188.646
X204.775Y-187.63
X205.029Y-183.185
X205.283Y-182.169
X205.41Y-188.265
X205.664Y-183.82
X205.918Y-182.804
X206.299Y-184.455
X206.553Y-183.439
X206.934Y-185.217
X207.188Y-184.201
X207.569Y-185.852
X207.823Y-184.836
X228.397Y-152.578
X229.159Y-151.689
X229.286Y-97.308
X229.286Y-98.188
X229.286Y-99.052
X229.286Y-99.898
X229.286Y-100.779
X229.286Y-101.651
X229.286Y-102.532
X229.286Y-103.412
X229.286Y-104.293
X229.286Y-105.309
X229.286Y-106.189
X229.286Y-107.053
X229.286Y-107.899
X229.286Y-108.78
X229.286Y-109.652
X229.286Y-110.533
X229.286Y-111.413
X229.286Y-112.294
X229.286Y-113.31
X229.286Y-114.19
X229.286Y-116.781
X229.286Y-117.653
X229.286Y-118.534
X229.286Y-119.414
X229.286Y-120.295
X229.286Y-121.353
X229.286Y-122.233
X229.286Y-123.114
X229.286Y-123.995
X229.286Y-130.497
X229.286Y-131.377
X229.286Y-132.393
X229.286Y-133.274
X229.286Y-134.138
X229.286Y-134.984
X229.286Y-135.865
X229.286Y-136.737
X229.286Y-137.617
X229.286Y-138.498
X229.286Y-139.378
X229.286Y-140.394
X229.286Y-141.275
X232.715Y-97.189
X232.715Y-98.07
X232.715Y-98.933
X232.715Y-99.78
X232.715Y-100.66
X232.715Y-101.532
X232.715Y-102.413
X232.715Y-103.294
X232.715Y-104.174
X232.715Y-105.19
X232.715Y-106.071
X232.715Y-106.934
X232.715Y-107.781
X232.715Y-108.661
X232.715Y-109.533
X232.715Y-110.414
X232.715Y-111.295
X232.715Y-112.175
X232.715Y-113.191
X232.715Y-114.072
X232.715Y-117.534
X232.715Y-118.415
X232.715Y-119.296
X232.715Y-120.176
X232.715Y-121.234
X232.715Y-122.115
X232.715Y-122.995
X232.715Y-123.876
X232.715Y-125.002
X232.715Y-125.883
X232.715Y-126.746
X232.715Y-127.593
X232.715Y-128.473
X232.715Y-129.345
X232.715Y-130.226
X232.715Y-131.107
X232.715Y-131.987
X232.715Y-133.003
X232.715Y-133.884
X232.715Y-134.747
X232.715Y-135.594
X232.715Y-136.474
X232.715Y-137.346
X232.715Y-138.227
X232.715Y-139.108
X232.715Y-139.988
X232.715Y-141.004
X232.715Y-141.885
X232.715Y-144.475
X242.621Y-149.784
X243.256Y-127.051
X243.256Y-127.932
X243.256Y-128.795
X243.256Y-129.642
X243.256Y-130.522
X243.256Y-131.394
X243.256Y-132.275
X243.256Y-133.155
X243.256Y-134.036
X243.256Y-135.052
X243.256Y-135.933
X243.256Y-136.796
X243.256Y-137.643
X243.256Y-138.523
X243.256Y-139.395
X243.256Y-140.276
X243.256Y-141.156
X243.256Y-142.037
X243.256Y-149.149
X243.891Y-148.514
X244.272Y-150.673
X244.907Y-150.038
X245.542Y-149.403
X245.796Y-128.812
X245.796Y-129.693
X245.796Y-130.565
X245.796Y-131.445
X245.796Y-132.292
X245.796Y-133.155
X245.796Y-134.036
X245.796Y-135.052
X245.796Y-135.933
X245.796Y-136.813
X245.796Y-137.694
X245.796Y-138.566
X245.796Y-139.446
X245.796Y-140.293
X245.796Y-141.156
X245.796Y-142.037
X248.336Y-131.471
X248.336Y-132.343
X248.336Y-133.223
X248.336Y-134.07
X248.336Y-134.933
X248.336Y-135.814
X248.336Y-136.83
X248.336Y-137.711
X248.336Y-138.591
X248.336Y-139.472
X248.336Y-140.344
X248.336Y-141.224
X248.336Y-142.071
X248.336Y-142.934
X248.336Y-143.815
T2
X171.628Y-186.487
X172.136Y-187.63
X172.644Y-185.344
X173.152Y-186.614
X174.168Y-185.725
X175.184Y-149.784
X176.708Y-85.903
X184.074Y-185.725
X184.074Y-187.122
X184.074Y-188.519
X184.074Y-189.916
X184.074Y-191.313
X184.074Y-192.71
X184.074Y-194.107
X184.074Y-195.504
X184.074Y-196.901
X184.074Y-198.298
X184.201Y-167.31
X184.455Y-158.547
X186.106Y-165.024
X187.884Y-166.04
X194.107Y-158.928
X201.727Y-159.182
X203.886Y-143.053
X205.029Y-166.04
X214.554Y-159.055
X217.348Y-85.395
X219.126Y-159.436
X220.396Y-168.326
X230.175Y-152.197
X232.715Y-148.006
T3
X172.009Y-118.039
X172.009Y-120.579
X172.009Y-123.119
X172.009Y-125.659
X172.009Y-128.199
X190.694Y-194.615
X190.694Y-214.935
X193.234Y-194.615
X193.234Y-214.935
X195.774Y-194.615
X196.612Y-103.683
X199.152Y-83.363
X199.152Y-103.683
X201.692Y-83.363
X201.692Y-103.683
X203.505Y-194.615
X203.505Y-214.935
X206.045Y-194.615
X206.045Y-214.935
X208.585Y-194.615
X208.712Y-103.683
X211.252Y-83.363
X211.252Y-103.683
X213.792Y-83.363
X213.792Y-103.683
T4
X171.287Y-156.134
X171.562Y-151.816
X173.562Y-151.816
X173.787Y-156.134
X174.041Y-202.743
X174.07Y-193.274
X174.491Y-199.723
X174.491Y-205.791
X174.52Y-190.17
X174.52Y-196.393
X176.581Y-202.743
X176.61Y-193.274
X176.835Y-209.884
X176.835Y-212.424
X177.031Y-199.723
X177.031Y-205.791
X177.06Y-190.17
X177.06Y-196.393
X178.994Y-86.636
X178.994Y-89.176
X180.01Y-210.334
X180.01Y-212.874
X182.169Y-86.186
X182.169Y-88.726
X183.185Y-209.884
X183.185Y-212.424
X185.344Y-86.636
X185.344Y-89.176
X186.36Y-210.334
X186.36Y-212.874
X188.519Y-86.186
X188.519Y-88.726
X190.268Y-190.805
X192.808Y-190.805
X199.187Y-107.366
X201.727Y-107.366
X203.378Y-190.805
X205.918Y-190.805
X211.252Y-107.366
X213.792Y-107.366
X217.475Y-210.334
X217.475Y-212.874
X219.888Y-86.186
X219.888Y-88.726
X220.65Y-209.884
X220.65Y-212.424
X220.817Y-175.057
X221.129Y-179.375
X223.129Y-179.375
X223.19Y-86.636
X223.19Y-89.176
X223.317Y-175.057
X223.825Y-210.334
X223.825Y-212.874
X224.333Y-187.63
X224.333Y-195.25
X226.492Y-86.186
X226.492Y-88.726
X226.873Y-187.63
X226.873Y-195.25
X227.0Y-209.884
X227.0Y-212.424
X229.413Y-187.63
X229.413Y-195.25
X229.794Y-86.636
X229.794Y-89.176
T5
X168.707Y-193.599
X168.707Y-196.901
X168.707Y-200.711
X168.707Y-204.013
X170.231Y-192.075
X170.231Y-195.123
X170.231Y-199.187
X170.231Y-202.235
T6
X169.977Y-109.779
X172.517Y-109.779
X173.533Y-216.205
X176.073Y-216.205
X177.133Y-160.855
X177.133Y-163.395
X177.978Y-82.601
X178.613Y-216.205
X179.673Y-160.855
X179.673Y-163.395
X180.518Y-82.601
X181.153Y-216.205
X182.213Y-160.855
X182.213Y-163.395
X183.058Y-82.601
X183.693Y-216.205
X184.753Y-160.855
X184.753Y-163.395
X185.598Y-82.601
X186.233Y-216.205
X187.293Y-160.855
X187.293Y-163.395
X188.138Y-82.601
X188.412Y-180.137
X189.833Y-160.855
X189.833Y-163.395
X190.678Y-82.601
X192.373Y-160.855
X192.373Y-163.395
X194.234Y-139.116
X194.234Y-141.656
X194.234Y-144.196
X194.234Y-146.736
X194.913Y-160.855
X194.913Y-163.395
X196.012Y-180.137
X196.774Y-139.116
X196.774Y-141.656
X196.774Y-144.196
X196.774Y-146.736
X197.453Y-160.855
X197.453Y-163.395
X199.993Y-160.855
X199.993Y-163.395
X201.219Y-128.067
X201.219Y-145.847
X202.533Y-160.855
X202.533Y-163.395
X203.759Y-128.067
X203.759Y-145.847
X204.824Y-115.631
X204.824Y-118.171
X204.824Y-120.711
X204.824Y-123.251
X205.073Y-160.855
X205.073Y-163.395
X206.299Y-128.067
X206.299Y-145.847
X207.613Y-160.855
X207.613Y-163.395
X208.839Y-128.067
X208.839Y-145.847
X209.474Y-115.631
X209.474Y-118.171
X209.474Y-120.711
X209.474Y-123.251
X210.153Y-160.855
X210.153Y-163.395
X211.379Y-128.067
X211.379Y-145.847
X212.693Y-160.855
X212.693Y-163.395
X213.919Y-128.067
X213.919Y-145.847
X214.124Y-115.631
X214.124Y-118.171
X214.124Y-120.711
X214.124Y-123.251
X215.233Y-160.855
X215.233Y-163.395
X216.459Y-128.067
X216.459Y-145.847
X217.729Y-82.601
X217.729Y-216.205
X217.773Y-160.855
X217.773Y-163.395
X218.774Y-115.631
X218.774Y-118.171
X218.774Y-120.711
X218.774Y-123.251
X218.999Y-128.067
X218.999Y-145.847
X220.269Y-82.601
X220.269Y-216.205
X220.313Y-160.855
X220.313Y-163.395
X221.539Y-128.067
X221.539Y-145.847
X222.809Y-82.601
X222.809Y-216.205
X222.853Y-160.855
X222.853Y-163.395
X223.424Y-115.631
X223.424Y-118.171
X223.424Y-120.711
X223.424Y-123.251
X224.079Y-128.067
X224.079Y-145.847
X225.349Y-82.601
X225.349Y-216.205
X225.393Y-160.855
X225.393Y-163.395
X226.619Y-128.067
X226.619Y-145.847
X227.889Y-82.601
X227.889Y-216.205
X229.159Y-128.067
X229.159Y-145.847
X230.429Y-82.601
X230.429Y-216.205
T7
X172.009Y-136.322
X172.009Y-138.862
X172.009Y-141.402
X172.009Y-143.942
X172.009Y-146.482
X177.597Y-152.959
X177.597Y-170.739
X180.137Y-152.959
X180.137Y-170.739
X182.677Y-152.959
X182.677Y-170.739
X185.217Y-152.959
X185.217Y-170.739
X187.757Y-152.959
X187.757Y-170.739
X190.297Y-152.959
X190.297Y-170.739
X192.837Y-152.959
X192.837Y-170.739
X195.377Y-152.959
X195.377Y-170.739
X197.917Y-152.959
X197.917Y-170.739
X200.457Y-152.959
X200.457Y-170.739
X202.997Y-152.959
X202.997Y-170.739
X205.537Y-152.959
X205.537Y-170.739
X208.077Y-152.959
X208.077Y-170.739
X210.617Y-152.959
X210.617Y-170.739
X213.157Y-152.959
X213.157Y-170.739
X215.697Y-152.959
X215.697Y-170.739
X218.237Y-152.959
X218.237Y-170.739
X220.777Y-152.959
X220.777Y-170.739
X223.317Y-152.959
X223.317Y-170.739
X225.857Y-152.959
X225.857Y-170.739
X239.416Y-88.348
X239.416Y-146.636
X241.956Y-88.348
X241.956Y-146.636
X244.496Y-88.348
X244.496Y-146.636
X247.036Y-88.348
X247.036Y-146.636
X249.576Y-88.348
X249.576Y-146.636
X252.116Y-88.348
X252.116Y-146.636
T8
X169.85Y-89.586
X169.85Y-94.666
X169.85Y-99.746
X169.85Y-104.826
T0
M30
