G04 #@! TF.GenerationSoftware,KiCad,Pcbnew,7.0.2*
G04 #@! TF.CreationDate,2025-01-03T12:39:58+00:00*
G04 #@! TF.ProjectId,Main_PCB,4d61696e-5f50-4434-922e-6b696361645f,rev?*
G04 #@! TF.SameCoordinates,Original*
G04 #@! TF.FileFunction,Soldermask,Top*
G04 #@! TF.FilePolarity,Negative*
%FSLAX46Y46*%
G04 Gerber Fmt 4.6, Leading zero omitted, Abs format (unit mm)*
G04 Created by KiCad (PCBNEW 7.0.2) date 2025-01-03 12:39:58*
%MOMM*%
%LPD*%
G01*
G04 APERTURE LIST*
G04 Aperture macros list*
%AMRoundRect*
0 Rectangle with rounded corners*
0 $1 Rounding radius*
0 $2 $3 $4 $5 $6 $7 $8 $9 X,Y pos of 4 corners*
0 Add a 4 corners polygon primitive as box body*
4,1,4,$2,$3,$4,$5,$6,$7,$8,$9,$2,$3,0*
0 Add four circle primitives for the rounded corners*
1,1,$1+$1,$2,$3*
1,1,$1+$1,$4,$5*
1,1,$1+$1,$6,$7*
1,1,$1+$1,$8,$9*
0 Add four rect primitives between the rounded corners*
20,1,$1+$1,$2,$3,$4,$5,0*
20,1,$1+$1,$4,$5,$6,$7,0*
20,1,$1+$1,$6,$7,$8,$9,0*
20,1,$1+$1,$8,$9,$2,$3,0*%
G04 Aperture macros list end*
%ADD10C,1.600000*%
%ADD11O,1.600000X1.600000*%
%ADD12R,1.700000X1.700000*%
%ADD13O,1.700000X1.700000*%
%ADD14C,1.524000*%
%ADD15R,1.600000X1.600000*%
%ADD16RoundRect,0.450000X0.450000X-0.450000X0.450000X0.450000X-0.450000X0.450000X-0.450000X-0.450000X0*%
%ADD17C,1.800000*%
%ADD18C,1.700000*%
%ADD19C,2.700000*%
%ADD20R,3.000000X3.000000*%
%ADD21C,3.000000*%
%ADD22R,2.000000X2.000000*%
%ADD23C,2.000000*%
%ADD24C,1.778000*%
%ADD25R,1.700000X3.500000*%
G04 APERTURE END LIST*
D10*
X176581000Y-202743000D03*
D11*
X174041000Y-202743000D03*
D12*
X177978000Y-82601000D03*
D13*
X180518000Y-82601000D03*
X183058000Y-82601000D03*
X185598000Y-82601000D03*
X188138000Y-82601000D03*
X190678000Y-82601000D03*
D12*
X204824000Y-115631000D03*
D13*
X204824000Y-118171000D03*
X204824000Y-120711000D03*
X204824000Y-123251000D03*
D14*
X172009000Y-128199000D03*
X172009000Y-125659000D03*
X172009000Y-123119000D03*
X172009000Y-120579000D03*
X172009000Y-118039000D03*
D10*
X174520000Y-196393000D03*
D11*
X177060000Y-196393000D03*
D10*
X211252000Y-107366000D03*
D11*
X213792000Y-107366000D03*
D15*
X224333000Y-195250000D03*
D11*
X226873000Y-195250000D03*
X229413000Y-195250000D03*
X229413000Y-187630000D03*
X226873000Y-187630000D03*
X224333000Y-187630000D03*
D16*
X168707000Y-204013000D03*
D17*
X170231000Y-202235000D03*
X168707000Y-200711000D03*
X170231000Y-199187000D03*
D10*
X178994000Y-86636000D03*
D11*
X178994000Y-89176000D03*
D10*
X186360000Y-210334000D03*
D11*
X186360000Y-212874000D03*
D18*
X194234000Y-139116000D03*
D12*
X196774000Y-139116000D03*
D13*
X194234000Y-141656000D03*
D12*
X196774000Y-141656000D03*
D13*
X194234000Y-144196000D03*
D12*
X196774000Y-144196000D03*
D13*
X194234000Y-146736000D03*
D12*
X196774000Y-146736000D03*
D10*
X220650000Y-212424000D03*
D11*
X220650000Y-209884000D03*
D15*
X223129113Y-179375000D03*
D10*
X221129113Y-179375000D03*
D12*
X217729000Y-82601000D03*
D13*
X220269000Y-82601000D03*
X222809000Y-82601000D03*
X225349000Y-82601000D03*
X227889000Y-82601000D03*
X230429000Y-82601000D03*
D12*
X230429000Y-216205000D03*
D13*
X227889000Y-216205000D03*
X225349000Y-216205000D03*
X222809000Y-216205000D03*
X220269000Y-216205000D03*
X217729000Y-216205000D03*
D10*
X171287000Y-156134000D03*
X173787000Y-156134000D03*
X174491000Y-205791000D03*
D11*
X177031000Y-205791000D03*
D10*
X223825000Y-210334000D03*
D11*
X223825000Y-212874000D03*
D10*
X188519000Y-88726000D03*
D11*
X188519000Y-86186000D03*
D12*
X186233000Y-216205000D03*
D13*
X183693000Y-216205000D03*
X181153000Y-216205000D03*
X178613000Y-216205000D03*
X176073000Y-216205000D03*
X173533000Y-216205000D03*
D10*
X183185000Y-212424000D03*
D11*
X183185000Y-209884000D03*
D14*
X208712000Y-103683000D03*
X211252000Y-103683000D03*
X213792000Y-103683000D03*
X211252000Y-83363000D03*
X213792000Y-83363000D03*
D19*
X172263000Y-211125000D03*
X172263000Y-162125000D03*
D10*
X217475000Y-210334000D03*
D11*
X217475000Y-212874000D03*
D12*
X209474000Y-115631000D03*
D13*
X209474000Y-118171000D03*
X209474000Y-120711000D03*
X209474000Y-123251000D03*
D14*
X196612000Y-103683000D03*
X199152000Y-103683000D03*
X201692000Y-103683000D03*
X199152000Y-83363000D03*
X201692000Y-83363000D03*
D12*
X169977000Y-109779000D03*
D13*
X172517000Y-109779000D03*
D19*
X256241320Y-83028755D03*
D10*
X199187000Y-107366000D03*
D11*
X201727000Y-107366000D03*
D18*
X201219000Y-145847000D03*
X203759000Y-145847000D03*
X206299000Y-145847000D03*
X208839000Y-145847000D03*
X211379000Y-145847000D03*
X213919000Y-145847000D03*
X216459000Y-145847000D03*
X218999000Y-145847000D03*
X221539000Y-145847000D03*
X224079000Y-145847000D03*
X226619000Y-145847000D03*
X229159000Y-145847000D03*
X201219000Y-128067000D03*
X203759000Y-128067000D03*
X206299000Y-128067000D03*
X208839000Y-128067000D03*
X211379000Y-128067000D03*
X213919000Y-128067000D03*
X216459000Y-128067000D03*
X218999000Y-128067000D03*
X221539000Y-128067000D03*
X224079000Y-128067000D03*
X226619000Y-128067000D03*
X229159000Y-128067000D03*
D20*
X169850000Y-89586000D03*
D21*
X169850000Y-94666000D03*
X169850000Y-99746000D03*
X169850000Y-104826000D03*
D10*
X190268000Y-190805000D03*
D11*
X192808000Y-190805000D03*
D19*
X256241320Y-152028755D03*
D12*
X218774000Y-115631000D03*
D13*
X218774000Y-118171000D03*
X218774000Y-120711000D03*
X218774000Y-123251000D03*
D10*
X203378000Y-190805000D03*
D11*
X205918000Y-190805000D03*
D10*
X219888000Y-88726000D03*
D11*
X219888000Y-86186000D03*
D14*
X195774000Y-194615000D03*
X193234000Y-194615000D03*
X190694000Y-194615000D03*
X193234000Y-214935000D03*
X190694000Y-214935000D03*
D10*
X176835000Y-212424000D03*
D11*
X176835000Y-209884000D03*
D10*
X182169000Y-88726000D03*
D11*
X182169000Y-86186000D03*
D10*
X174491000Y-199723000D03*
D11*
X177031000Y-199723000D03*
D10*
X229794000Y-86636000D03*
D11*
X229794000Y-89176000D03*
D22*
X188412000Y-180137000D03*
D23*
X196012000Y-180137000D03*
D24*
X239416000Y-146636000D03*
X239416000Y-88348000D03*
X241956000Y-146636000D03*
X241956000Y-88348000D03*
X244496000Y-146636000D03*
X244496000Y-88348000D03*
X247036000Y-146636000D03*
X247036000Y-88348000D03*
X249576000Y-146636000D03*
X249576000Y-88348000D03*
X252116000Y-146636000D03*
X252116000Y-88348000D03*
D10*
X223317000Y-175057000D03*
X220817000Y-175057000D03*
D15*
X171561888Y-151816000D03*
D10*
X173561888Y-151816000D03*
D24*
X172009000Y-136322000D03*
X172009000Y-138862000D03*
X172009000Y-141402000D03*
X172009000Y-143942000D03*
X172009000Y-146482000D03*
D10*
X227000000Y-212424000D03*
D11*
X227000000Y-209884000D03*
D10*
X185344000Y-86636000D03*
D11*
X185344000Y-89176000D03*
D12*
X214124000Y-115631000D03*
D13*
X214124000Y-118171000D03*
X214124000Y-120711000D03*
X214124000Y-123251000D03*
D10*
X180010000Y-210334000D03*
D11*
X180010000Y-212874000D03*
D10*
X176610000Y-193274000D03*
D11*
X174070000Y-193274000D03*
D10*
X174520000Y-190170000D03*
D11*
X177060000Y-190170000D03*
D13*
X225857000Y-152959000D03*
D25*
X225857000Y-152059000D03*
D13*
X223317000Y-152959000D03*
D25*
X223317000Y-152059000D03*
D12*
X220777000Y-152959000D03*
D25*
X220777000Y-152059000D03*
D13*
X218237000Y-152959000D03*
D25*
X218237000Y-152059000D03*
D13*
X215697000Y-152959000D03*
D25*
X215697000Y-152059000D03*
D13*
X213157000Y-152959000D03*
D25*
X213157000Y-152059000D03*
D13*
X210617000Y-152959000D03*
D25*
X210617000Y-152059000D03*
D12*
X208077000Y-152959000D03*
D25*
X208077000Y-152059000D03*
D13*
X205537000Y-152959000D03*
D25*
X205537000Y-152059000D03*
D13*
X202997000Y-152959000D03*
D25*
X202997000Y-152059000D03*
D13*
X200457000Y-152959000D03*
D25*
X200457000Y-152059000D03*
D13*
X197917000Y-152959000D03*
D25*
X197917000Y-152059000D03*
D12*
X195377000Y-152959000D03*
D25*
X195377000Y-152059000D03*
D13*
X192837000Y-152959000D03*
D25*
X192837000Y-152059000D03*
D13*
X190297000Y-152959000D03*
D25*
X190297000Y-152059000D03*
D13*
X187757000Y-152959000D03*
D25*
X187757000Y-152059000D03*
D13*
X185217000Y-152959000D03*
D25*
X185217000Y-152059000D03*
D12*
X182677000Y-152959000D03*
D25*
X182677000Y-152059000D03*
D13*
X180137000Y-152959000D03*
D25*
X180137000Y-152059000D03*
D13*
X177597000Y-152959000D03*
D25*
X177597000Y-152059000D03*
D13*
X177597000Y-170739000D03*
D25*
X177597000Y-171639000D03*
D13*
X180137000Y-170739000D03*
D25*
X180137000Y-171639000D03*
D12*
X182677000Y-170739000D03*
D25*
X182677000Y-171639000D03*
D13*
X185217000Y-170739000D03*
D25*
X185217000Y-171639000D03*
D13*
X187757000Y-170739000D03*
D25*
X187757000Y-171639000D03*
D13*
X190297000Y-170739000D03*
D25*
X190297000Y-171639000D03*
D13*
X192837000Y-170739000D03*
D25*
X192837000Y-171639000D03*
D12*
X195377000Y-170739000D03*
D25*
X195377000Y-171639000D03*
D13*
X197917000Y-170739000D03*
D25*
X197917000Y-171639000D03*
D13*
X200457000Y-170739000D03*
D25*
X200457000Y-171639000D03*
D13*
X202997000Y-170739000D03*
D25*
X202997000Y-171639000D03*
D13*
X205537000Y-170739000D03*
D25*
X205537000Y-171639000D03*
D12*
X208077000Y-170739000D03*
D25*
X208077000Y-171639000D03*
D13*
X210617000Y-170739000D03*
D25*
X210617000Y-171639000D03*
D13*
X213157000Y-170739000D03*
D25*
X213157000Y-171639000D03*
D13*
X215697000Y-170739000D03*
D25*
X215697000Y-171639000D03*
D13*
X218237000Y-170739000D03*
D25*
X218237000Y-171639000D03*
D12*
X220777000Y-170739000D03*
D25*
X220777000Y-171639000D03*
D13*
X223317000Y-170739000D03*
D25*
X223317000Y-171639000D03*
D13*
X225857000Y-170739000D03*
D25*
X225857000Y-171639000D03*
D12*
X223424000Y-115631000D03*
D13*
X223424000Y-118171000D03*
X223424000Y-120711000D03*
X223424000Y-123251000D03*
D10*
X223190000Y-86636000D03*
D11*
X223190000Y-89176000D03*
D16*
X168707000Y-196901000D03*
D17*
X170231000Y-195123000D03*
X168707000Y-193599000D03*
X170231000Y-192075000D03*
D14*
X208585000Y-194615000D03*
X206045000Y-194615000D03*
X203505000Y-194615000D03*
X206045000Y-214935000D03*
X203505000Y-214935000D03*
D19*
X172263000Y-83028755D03*
D10*
X226492000Y-88726000D03*
D11*
X226492000Y-86186000D03*
D12*
X177133000Y-163395000D03*
D13*
X177133000Y-160855000D03*
X179673000Y-163395000D03*
X179673000Y-160855000D03*
X182213000Y-163395000D03*
X182213000Y-160855000D03*
X184753000Y-163395000D03*
X184753000Y-160855000D03*
X187293000Y-163395000D03*
X187293000Y-160855000D03*
X189833000Y-163395000D03*
X189833000Y-160855000D03*
X192373000Y-163395000D03*
X192373000Y-160855000D03*
X194913000Y-163395000D03*
X194913000Y-160855000D03*
X197453000Y-163395000D03*
X197453000Y-160855000D03*
X199993000Y-163395000D03*
X199993000Y-160855000D03*
X202533000Y-163395000D03*
X202533000Y-160855000D03*
X205073000Y-163395000D03*
X205073000Y-160855000D03*
X207613000Y-163395000D03*
X207613000Y-160855000D03*
X210153000Y-163395000D03*
X210153000Y-160855000D03*
X212693000Y-163395000D03*
X212693000Y-160855000D03*
X215233000Y-163395000D03*
X215233000Y-160855000D03*
X217773000Y-163395000D03*
X217773000Y-160855000D03*
X220313000Y-163395000D03*
X220313000Y-160855000D03*
X222853000Y-163395000D03*
X222853000Y-160855000D03*
X225393000Y-163395000D03*
X225393000Y-160855000D03*
M02*
