M48
; DRILL file {KiCad 9.0.1} date 2025-05-11T12:38:49+0100
; FORMAT={-:-/ absolute / inch / decimal}
; #@! TF.CreationDate,2025-05-11T12:38:49+01:00
; #@! TF.GenerationSoftware,Kicad,Pcbnew,9.0.1
; #@! TF.FileFunction,Plated,1,2,PTH
FMAT,2
INCH
; #@! TA.AperFunction,Plated,PTH,ViaDrill
T1C0.0197
; #@! TA.AperFunction,Plated,PTH,ComponentDrill
T2C0.0300
; #@! TA.AperFunction,Plated,PTH,ComponentDrill
T3C0.0315
; #@! TA.AperFunction,Plated,PTH,ComponentDrill
T4C0.0354
; #@! TA.AperFunction,Plated,PTH,ComponentDrill
T5C0.0394
; #@! TA.AperFunction,Plated,PTH,ComponentDrill
T6C0.0400
; #@! TA.AperFunction,Plated,PTH,ComponentDrill
T7C0.0402
; #@! TA.AperFunction,Plated,PTH,ComponentDrill
T8C0.0598
%
G90
G05
T1
X4.7638Y-3.0709
X4.7638Y-3.1201
X4.7638Y-3.1693
X4.7638Y-3.2185
X4.7638Y-3.2677
X4.7638Y-3.3169
X4.7638Y-3.3661
X4.7638Y-3.4154
X4.7638Y-3.4646
X4.7638Y-3.5138
X4.7638Y-3.563
X4.7638Y-3.6122
X4.7638Y-3.6614
X4.7638Y-3.7106
X4.7638Y-3.7598
X4.7638Y-3.8091
X4.7638Y-3.8583
X4.7638Y-3.9075
X4.7638Y-3.9567
X4.7638Y-4.0059
X4.7638Y-4.0551
X4.7638Y-4.1043
X4.7638Y-4.1535
X4.7638Y-4.2028
X4.7638Y-4.252
X4.7638Y-4.3012
X4.7638Y-4.3504
X4.7638Y-4.3996
X4.7638Y-4.4488
X4.7638Y-4.498
X4.7638Y-4.5472
X4.7638Y-4.5965
X4.7638Y-4.6457
X4.7638Y-4.6949
X4.7638Y-4.7441
X4.7736Y-4.872
X4.7933Y-5.5807
X4.7933Y-5.6299
X4.8425Y-5.6299
X4.8819Y-3.3858
X4.8819Y-3.4646
X4.8819Y-3.5138
X4.8819Y-3.563
X4.8819Y-3.6122
X4.8819Y-3.6614
X4.8819Y-3.7106
X4.8819Y-3.7598
X4.8819Y-3.8091
X4.8819Y-3.8583
X4.8819Y-3.9075
X4.8819Y-3.9567
X4.8819Y-4.0059
X4.8819Y-4.0551
X4.8819Y-4.1043
X4.8819Y-4.1535
X4.8819Y-4.2028
X4.8819Y-4.252
X4.8819Y-4.3012
X4.8819Y-4.3504
X4.8819Y-4.3996
X4.8819Y-4.4488
X4.8819Y-4.498
X4.8819Y-4.5472
X4.8819Y-4.5965
X4.8819Y-4.6457
X4.8819Y-4.7343
X4.9114Y-4.7933
X4.9213Y-3.4252
X4.9213Y-4.6161
X4.9311Y-5.5315
X4.9508Y-4.7539
X4.9606Y-3.4646
X4.9606Y-4.5768
X4.9902Y-3.5039
X4.9902Y-4.7146
X4.9902Y-5.5315
X4.9902Y-5.5807
X5.0Y-3.0709
X5.0Y-3.1201
X5.0Y-3.1693
X5.0Y-3.2185
X5.0492Y-5.5315
X5.0492Y-5.5807
X5.0492Y-5.6299
X5.0984Y-3.1791
X5.1181Y-4.5571
X5.1299Y-4.4803
X5.1476Y-4.7146
X5.1476Y-4.7638
X5.1476Y-4.813
X5.1476Y-4.8622
X5.1476Y-4.9114
X5.1476Y-4.9606
X5.1476Y-5.0098
X5.1476Y-5.0591
X5.1476Y-5.1083
X5.1476Y-5.1575
X5.1476Y-5.2067
X5.1476Y-5.2559
X5.1476Y-5.3051
X5.1476Y-5.3543
X5.1476Y-5.4035
X5.1476Y-5.4528
X5.2559Y-1.7515
X5.2559Y-2.185
X5.2559Y-2.2343
X5.2559Y-3.0217
X5.2563Y-1.8012
X5.2657Y-2.6181
X5.2657Y-3.0709
X5.2657Y-3.1201
X5.2657Y-3.1693
X5.2657Y-3.2185
X5.2717Y-4.4055
X5.2756Y-2.8642
X5.2805Y-3.6467
X5.2953Y-2.9921
X5.3051Y-1.752
X5.3051Y-1.8012
X5.3051Y-2.185
X5.3051Y-2.2343
X5.3051Y-2.5787
X5.3248Y-2.7264
X5.3327Y-4.376
X5.3346Y-2.9528
X5.3346Y-4.7047
X5.3445Y-2.5394
X5.3543Y-1.752
X5.3543Y-1.8012
X5.3543Y-1.8602
X5.3543Y-2.185
X5.3543Y-2.2343
X5.3642Y-2.687
X5.374Y-2.9035
X5.3839Y-4.7539
X5.4035Y-2.6476
X5.4331Y-2.9035
X5.4429Y-2.6083
X5.4528Y-5.0591
X5.4528Y-5.1083
X5.4528Y-5.1575
X5.4528Y-5.2067
X5.4528Y-5.2559
X5.4528Y-5.3051
X5.4528Y-5.3543
X5.4528Y-5.4035
X5.4528Y-5.4528
X5.4528Y-5.5315
X5.4528Y-5.5807
X5.4528Y-5.6299
X5.4724Y-1.8504
X5.4724Y-1.9094
X5.4724Y-1.9685
X5.4724Y-5.8071
X5.5217Y-1.8799
X5.5217Y-1.939
X5.5217Y-1.998
X5.5217Y-2.0866
X5.5217Y-2.1358
X5.5217Y-2.185
X5.5217Y-2.2343
X5.5217Y-2.2835
X5.5217Y-2.3327
X5.5217Y-2.3819
X5.5217Y-2.4311
X5.5217Y-2.4803
X5.5217Y-2.5295
X5.5217Y-2.6772
X5.5217Y-2.7264
X5.5217Y-5.748
X5.522Y-2.5787
X5.522Y-2.628
X5.5413Y-4.9311
X5.5512Y-5.5315
X5.5512Y-5.5807
X5.5512Y-5.6299
X5.6299Y-4.685
X5.6594Y-4.9705
X5.6594Y-5.0197
X5.6594Y-5.0689
X5.6594Y-5.1181
X5.6594Y-5.1673
X5.6594Y-5.2165
X5.6594Y-5.2657
X5.6594Y-5.315
X5.6594Y-5.3642
X5.6594Y-5.4134
X5.6594Y-5.5315
X5.6594Y-5.5807
X5.6594Y-5.6299
X5.6988Y-4.0354
X5.7378Y-2.0866
X5.7378Y-2.1358
X5.7378Y-2.185
X5.7378Y-2.2343
X5.7378Y-2.2835
X5.7378Y-2.3327
X5.7378Y-2.3819
X5.7378Y-2.4311
X5.7378Y-2.4803
X5.7378Y-2.5295
X5.7378Y-2.6772
X5.7378Y-2.7264
X5.7382Y-1.8504
X5.7382Y-1.8996
X5.7382Y-1.9488
X5.7382Y-1.998
X5.7382Y-2.5787
X5.7382Y-2.628
X5.7382Y-2.8543
X5.7776Y-4.4488
X5.7776Y-4.872
X5.7776Y-5.5807
X5.7776Y-5.6299
X5.8268Y-5.6299
X5.8858Y-1.8504
X5.8858Y-1.8996
X5.8858Y-1.9488
X5.8858Y-1.998
X5.8858Y-2.0866
X5.8858Y-2.1358
X5.8858Y-2.185
X5.8858Y-2.2343
X5.8858Y-2.2835
X5.8858Y-2.3327
X5.8858Y-2.3819
X5.8858Y-2.4311
X5.8858Y-2.4803
X5.8858Y-2.5295
X5.8858Y-2.6772
X5.8858Y-2.7264
X5.8858Y-4.3406
X5.8862Y-2.5787
X5.8862Y-2.628
X5.8957Y-3.6614
X5.9055Y-5.5315
X5.9055Y-5.5807
X5.9547Y-5.2362
X5.9547Y-5.4626
X5.9744Y-5.5807
X5.9744Y-5.6299
X6.0079Y-5.4606
X6.0433Y-5.374
X6.0531Y-5.2362
X6.0862Y-4.0516
X6.1024Y-5.374
X6.122Y-3.2579
X6.2008Y-5.5118
X6.2598Y-5.3642
X6.2598Y-5.5118
X6.2992Y-5.3248
X6.3189Y-5.5118
X6.3386Y-2.8543
X6.3681Y-5.4823
X6.3913Y-4.0516
X6.3976Y-6.0728
X6.4075Y-5.4429
X6.437Y-5.3445
X6.437Y-5.3937
X6.4882Y-3.0039
X6.5846Y-1.2008
X6.6831Y-4.3343
X6.8209Y-2.1555
X6.8504Y-1.8406
X6.8504Y-1.8898
X6.8504Y-1.939
X6.8504Y-1.9882
X6.8799Y-4.0551
X6.9488Y-1.8406
X6.9488Y-1.8898
X6.9488Y-1.939
X6.9488Y-1.9882
X7.0079Y-4.439
X7.0276Y-1.7677
X7.0866Y-4.0551
X7.0984Y-1.811
X7.1654Y-6.1713
X7.3524Y-4.3209
X7.4606Y-6.1811
X7.4902Y-3.9469
X7.5394Y-3.9075
X7.5945Y-4.3701
X7.6457Y-4.4488
X8.1004Y-3.189
X8.1988Y-3.189
X8.2677Y-3.1988
X8.6122Y-2.3819
X8.6138Y-1.9276
X8.6138Y-2.8331
T2
X5.172Y-2.3936
X5.172Y-2.4936
X5.172Y-2.5936
X5.172Y-2.6936
X5.172Y-2.7936
X6.0122Y-5.289
X6.0122Y-6.089
X6.024Y-3.0236
X6.024Y-3.1236
X6.024Y-3.2236
X6.024Y-3.3236
X6.024Y-3.4236
X6.024Y-3.5236
X6.1122Y-5.289
X6.1122Y-6.089
X6.2122Y-5.289
X6.2722Y-2.0991
X6.3722Y-1.2991
X6.3722Y-2.0991
X6.4658Y-5.289
X6.4658Y-6.089
X6.4722Y-1.2991
X6.4722Y-2.0991
X6.5658Y-5.289
X6.5658Y-6.089
X6.624Y-3.0236
X6.624Y-3.1236
X6.624Y-3.2236
X6.624Y-3.3236
X6.624Y-3.4236
X6.624Y-3.5236
X6.6658Y-5.289
X6.7486Y-2.0991
X6.8486Y-1.2991
X6.8486Y-2.0991
X6.9486Y-1.2991
X6.9486Y-2.0991
T3
X4.7991Y-5.8663
X4.7991Y-5.9663
X4.9213Y-5.8841
X4.9213Y-5.9841
X5.0441Y-5.8663
X5.0441Y-5.9663
X5.1622Y-5.8663
X5.1622Y-5.9663
X5.186Y-3.9665
X5.1969Y-3.7965
X5.2756Y-3.7965
X5.2811Y-5.8841
X5.2811Y-5.9841
X5.2845Y-3.9665
X5.3909Y-6.1142
X5.4011Y-5.8663
X5.4011Y-5.9663
X5.4909Y-6.1142
X5.5502Y-1.2778
X5.5502Y-1.3778
X5.5965Y-6.0319
X5.5965Y-6.1319
X5.6752Y-1.26
X5.6752Y-1.36
X5.7215Y-6.0142
X5.7215Y-6.1142
X5.8002Y-1.2778
X5.8002Y-1.3778
X5.8465Y-6.0319
X5.8465Y-6.1319
X5.9252Y-1.26
X5.9252Y-1.36
X5.9954Y-5.139
X6.0954Y-5.139
X6.3736Y-2.2441
X6.4608Y-5.139
X6.4736Y-2.2441
X6.5608Y-5.139
X6.8486Y-2.2441
X6.9094Y-6.022
X6.9094Y-6.122
X6.9486Y-2.2441
X7.0344Y-6.0043
X7.0344Y-6.1043
X7.1665Y-4.7115
X7.1788Y-4.8815
X7.1887Y-1.26
X7.1887Y-1.36
X7.2576Y-4.8815
X7.265Y-4.7115
X7.2795Y-6.0219
X7.2795Y-6.1219
X7.3187Y-1.2778
X7.3187Y-1.3778
X7.3425Y-5.0937
X7.3425Y-5.3937
X7.4045Y-6.0041
X7.4045Y-6.1041
X7.4425Y-5.0937
X7.4425Y-5.3937
X7.4487Y-1.26
X7.4487Y-1.36
X7.5425Y-5.0937
X7.5425Y-5.3937
X7.5787Y-1.2778
X7.5787Y-1.3778
T4
X4.7816Y-6.2795
X4.8416Y-6.3395
X4.9016Y-6.2795
X4.9716Y-6.3395
X5.0616Y-6.2795
X5.1216Y-6.3395
X5.1816Y-6.2795
X5.2516Y-6.3395
T5
X4.9803Y-2.1746
X4.9803Y-2.2746
X5.3799Y-6.2598
X5.4437Y-4.1429
X5.4437Y-4.2429
X5.4799Y-6.2598
X5.5252Y-1.122
X5.5437Y-4.1429
X5.5437Y-4.2429
X5.5799Y-6.2598
X5.6252Y-1.122
X5.6437Y-4.1429
X5.6437Y-4.2429
X5.6799Y-6.2598
X5.7252Y-1.122
X5.7437Y-4.1429
X5.7437Y-4.2429
X5.7799Y-6.2598
X5.8252Y-1.122
X5.8437Y-4.1429
X5.8437Y-4.2429
X5.8799Y-6.2598
X5.9252Y-1.122
X5.9437Y-4.1429
X5.9437Y-4.2429
X6.0252Y-1.122
X6.0437Y-4.1429
X6.0437Y-4.2429
X6.1437Y-4.1429
X6.1437Y-4.2429
X6.2276Y-6.2598
X6.2437Y-4.1429
X6.2437Y-4.2429
X6.2878Y-2.4902
X6.2878Y-2.5902
X6.2878Y-2.6902
X6.2878Y-2.7902
X6.3276Y-6.2598
X6.3437Y-4.1429
X6.3437Y-4.2429
X6.3878Y-2.4902
X6.3878Y-2.5902
X6.3878Y-2.6902
X6.3878Y-2.7902
X6.4276Y-6.2598
X6.4437Y-4.1429
X6.4437Y-4.2429
X6.4567Y-1.122
X6.5276Y-6.2598
X6.5437Y-4.1429
X6.5437Y-4.2429
X6.5567Y-1.122
X6.6437Y-4.1429
X6.6437Y-4.2429
X6.6567Y-1.122
X6.6713Y-4.9114
X6.7437Y-4.1429
X6.7437Y-4.2429
X6.7567Y-1.122
X6.8081Y-2.4069
X6.8081Y-2.5069
X6.8081Y-2.6069
X6.8081Y-2.7069
X6.8081Y-2.8069
X6.8081Y-2.9069
X6.8081Y-3.0069
X6.8081Y-3.1069
X6.8081Y-3.2069
X6.8081Y-3.3069
X6.8081Y-3.4069
X6.8081Y-3.5069
X6.8437Y-4.1429
X6.8437Y-4.2429
X6.9437Y-4.1429
X6.9437Y-4.2429
X6.9665Y-6.2598
X6.9705Y-4.9114
X7.0437Y-4.1429
X7.0437Y-4.2429
X7.0665Y-6.2598
X7.1378Y-1.122
X7.1437Y-4.1429
X7.1437Y-4.2429
X7.1665Y-6.2598
X7.2378Y-1.122
X7.2437Y-4.1429
X7.2437Y-4.2429
X7.2665Y-6.2598
X7.3378Y-1.122
X7.3437Y-4.1429
X7.3437Y-4.2429
X7.3665Y-6.2598
X7.4378Y-1.122
X7.4665Y-6.2598
X7.5081Y-2.4069
X7.5081Y-2.5069
X7.5081Y-2.6069
X7.5081Y-2.7069
X7.5081Y-2.8069
X7.5081Y-2.9069
X7.5081Y-3.0069
X7.5081Y-3.1069
X7.5081Y-3.2069
X7.5081Y-3.3069
X7.5081Y-3.4069
X7.5081Y-3.5069
X7.5378Y-1.122
X7.6378Y-1.122
X8.3465Y-1.5671
X8.3465Y-1.6671
X8.3465Y-1.826
X8.3465Y-1.926
X8.3465Y-2.026
X8.3465Y-2.126
X8.3465Y-2.2835
X8.3465Y-2.3835
X8.3465Y-2.4835
X8.3465Y-2.5835
X8.3465Y-2.7362
X8.3465Y-2.8362
X8.3465Y-2.9362
X8.3465Y-3.0362
X8.3465Y-3.1921
X8.3465Y-3.2921
T6
X4.9268Y-4.9311
X4.9268Y-5.0311
X4.9268Y-5.1311
X4.9268Y-5.2311
X4.9268Y-5.3311
X4.9268Y-5.4311
X5.8268Y-4.9311
X5.8268Y-5.0311
X5.8268Y-5.1311
X5.8268Y-5.2311
X5.8268Y-5.3311
X5.8268Y-5.4311
T7
X5.172Y-3.1134
X5.172Y-3.2134
X5.172Y-3.3134
X5.172Y-3.4134
X5.172Y-3.5134
X5.462Y-3.832
X5.462Y-4.532
X5.562Y-3.832
X5.562Y-4.532
X5.662Y-3.832
X5.662Y-4.532
X5.762Y-3.832
X5.762Y-4.532
X5.862Y-3.832
X5.862Y-4.532
X5.962Y-3.832
X5.962Y-4.532
X6.062Y-3.832
X6.062Y-4.532
X6.162Y-3.832
X6.162Y-4.532
X6.262Y-3.832
X6.262Y-4.532
X6.362Y-3.832
X6.362Y-4.532
X6.462Y-3.832
X6.462Y-4.532
X6.562Y-3.832
X6.562Y-4.532
X6.662Y-3.832
X6.662Y-4.532
X6.762Y-3.832
X6.762Y-4.532
X6.862Y-3.832
X6.862Y-4.532
X6.962Y-3.832
X6.962Y-4.532
X7.062Y-3.832
X7.062Y-4.532
X7.162Y-3.832
X7.162Y-4.532
X7.262Y-3.832
X7.262Y-4.532
X7.362Y-3.832
X7.362Y-4.532
X7.8997Y-1.2883
X7.8997Y-3.5831
X7.9997Y-1.2883
X7.9997Y-3.5831
X8.0997Y-1.2883
X8.0997Y-3.5831
X8.1997Y-1.2883
X8.1997Y-3.5831
X8.2997Y-1.2883
X8.2997Y-3.5831
X8.3997Y-1.2883
X8.3997Y-3.5831
T8
X5.0591Y-1.3339
X5.0591Y-1.5339
X5.0591Y-1.7339
X5.0591Y-1.9339
M30
