%TF.GenerationSoftware,KiCad,Pcbnew,9.0.1*%
%TF.CreationDate,2025-05-11T12:38:49+01:00*%
%TF.ProjectId,Main_PCB,4d61696e-5f50-4434-922e-6b696361645f,rev?*%
%TF.SameCoordinates,Original*%
%TF.FileFunction,Legend,Bot*%
%TF.FilePolarity,Positive*%
%FSLAX46Y46*%
G04 Gerber Fmt 4.6, Leading zero omitted, Abs format (unit mm)*
G04 Created by KiCad (PCBNEW 9.0.1) date 2025-05-11 12:38:49*
%MOMM*%
%LPD*%
G01*
G04 APERTURE LIST*
G04 Aperture macros list*
%AMRoundRect*
0 Rectangle with rounded corners*
0 $1 Rounding radius*
0 $2 $3 $4 $5 $6 $7 $8 $9 X,Y pos of 4 corners*
0 Add a 4 corners polygon primitive as box body*
4,1,4,$2,$3,$4,$5,$6,$7,$8,$9,$2,$3,0*
0 Add four circle primitives for the rounded corners*
1,1,$1+$1,$2,$3*
1,1,$1+$1,$4,$5*
1,1,$1+$1,$6,$7*
1,1,$1+$1,$8,$9*
0 Add four rect primitives between the rounded corners*
20,1,$1+$1,$2,$3,$4,$5,0*
20,1,$1+$1,$4,$5,$6,$7,0*
20,1,$1+$1,$6,$7,$8,$9,0*
20,1,$1+$1,$8,$9,$2,$3,0*%
G04 Aperture macros list end*
%ADD10C,0.100000*%
%ADD11C,0.120000*%
%ADD12C,2.700000*%
%ADD13C,1.600000*%
%ADD14O,1.600000X1.600000*%
%ADD15R,1.700000X1.700000*%
%ADD16C,1.700000*%
%ADD17C,1.879600*%
%ADD18RoundRect,0.450000X0.450000X0.450000X-0.450000X0.450000X-0.450000X-0.450000X0.450000X-0.450000X0*%
%ADD19C,1.800000*%
%ADD20C,1.524000*%
%ADD21O,1.700000X1.700000*%
%ADD22C,1.778000*%
%ADD23R,1.600000X1.600000*%
%ADD24RoundRect,0.250000X0.550000X-0.550000X0.550000X0.550000X-0.550000X0.550000X-0.550000X-0.550000X0*%
%ADD25R,3.000000X3.000000*%
%ADD26C,3.000000*%
%ADD27R,2.000000X2.000000*%
%ADD28C,2.000000*%
G04 APERTURE END LIST*
D10*
X147124687Y-110872419D02*
X147458020Y-110396228D01*
X147696115Y-110872419D02*
X147696115Y-109872419D01*
X147696115Y-109872419D02*
X147315163Y-109872419D01*
X147315163Y-109872419D02*
X147219925Y-109920038D01*
X147219925Y-109920038D02*
X147172306Y-109967657D01*
X147172306Y-109967657D02*
X147124687Y-110062895D01*
X147124687Y-110062895D02*
X147124687Y-110205752D01*
X147124687Y-110205752D02*
X147172306Y-110300990D01*
X147172306Y-110300990D02*
X147219925Y-110348609D01*
X147219925Y-110348609D02*
X147315163Y-110396228D01*
X147315163Y-110396228D02*
X147696115Y-110396228D01*
X146267544Y-110872419D02*
X146267544Y-110348609D01*
X146267544Y-110348609D02*
X146315163Y-110253371D01*
X146315163Y-110253371D02*
X146410401Y-110205752D01*
X146410401Y-110205752D02*
X146600877Y-110205752D01*
X146600877Y-110205752D02*
X146696115Y-110253371D01*
X146267544Y-110824800D02*
X146362782Y-110872419D01*
X146362782Y-110872419D02*
X146600877Y-110872419D01*
X146600877Y-110872419D02*
X146696115Y-110824800D01*
X146696115Y-110824800D02*
X146743734Y-110729561D01*
X146743734Y-110729561D02*
X146743734Y-110634323D01*
X146743734Y-110634323D02*
X146696115Y-110539085D01*
X146696115Y-110539085D02*
X146600877Y-110491466D01*
X146600877Y-110491466D02*
X146362782Y-110491466D01*
X146362782Y-110491466D02*
X146267544Y-110443847D01*
X145838972Y-110824800D02*
X145743734Y-110872419D01*
X145743734Y-110872419D02*
X145553258Y-110872419D01*
X145553258Y-110872419D02*
X145458020Y-110824800D01*
X145458020Y-110824800D02*
X145410401Y-110729561D01*
X145410401Y-110729561D02*
X145410401Y-110681942D01*
X145410401Y-110681942D02*
X145458020Y-110586704D01*
X145458020Y-110586704D02*
X145553258Y-110539085D01*
X145553258Y-110539085D02*
X145696115Y-110539085D01*
X145696115Y-110539085D02*
X145791353Y-110491466D01*
X145791353Y-110491466D02*
X145838972Y-110396228D01*
X145838972Y-110396228D02*
X145838972Y-110348609D01*
X145838972Y-110348609D02*
X145791353Y-110253371D01*
X145791353Y-110253371D02*
X145696115Y-110205752D01*
X145696115Y-110205752D02*
X145553258Y-110205752D01*
X145553258Y-110205752D02*
X145458020Y-110253371D01*
X144981829Y-110205752D02*
X144981829Y-111205752D01*
X144981829Y-110253371D02*
X144886591Y-110205752D01*
X144886591Y-110205752D02*
X144696115Y-110205752D01*
X144696115Y-110205752D02*
X144600877Y-110253371D01*
X144600877Y-110253371D02*
X144553258Y-110300990D01*
X144553258Y-110300990D02*
X144505639Y-110396228D01*
X144505639Y-110396228D02*
X144505639Y-110681942D01*
X144505639Y-110681942D02*
X144553258Y-110777180D01*
X144553258Y-110777180D02*
X144600877Y-110824800D01*
X144600877Y-110824800D02*
X144696115Y-110872419D01*
X144696115Y-110872419D02*
X144886591Y-110872419D01*
X144886591Y-110872419D02*
X144981829Y-110824800D01*
X144077067Y-110872419D02*
X144077067Y-109872419D01*
X144077067Y-110253371D02*
X143981829Y-110205752D01*
X143981829Y-110205752D02*
X143791353Y-110205752D01*
X143791353Y-110205752D02*
X143696115Y-110253371D01*
X143696115Y-110253371D02*
X143648496Y-110300990D01*
X143648496Y-110300990D02*
X143600877Y-110396228D01*
X143600877Y-110396228D02*
X143600877Y-110681942D01*
X143600877Y-110681942D02*
X143648496Y-110777180D01*
X143648496Y-110777180D02*
X143696115Y-110824800D01*
X143696115Y-110824800D02*
X143791353Y-110872419D01*
X143791353Y-110872419D02*
X143981829Y-110872419D01*
X143981829Y-110872419D02*
X144077067Y-110824800D01*
X142791353Y-110824800D02*
X142886591Y-110872419D01*
X142886591Y-110872419D02*
X143077067Y-110872419D01*
X143077067Y-110872419D02*
X143172305Y-110824800D01*
X143172305Y-110824800D02*
X143219924Y-110729561D01*
X143219924Y-110729561D02*
X143219924Y-110348609D01*
X143219924Y-110348609D02*
X143172305Y-110253371D01*
X143172305Y-110253371D02*
X143077067Y-110205752D01*
X143077067Y-110205752D02*
X142886591Y-110205752D01*
X142886591Y-110205752D02*
X142791353Y-110253371D01*
X142791353Y-110253371D02*
X142743734Y-110348609D01*
X142743734Y-110348609D02*
X142743734Y-110443847D01*
X142743734Y-110443847D02*
X143219924Y-110539085D01*
X142315162Y-110872419D02*
X142315162Y-110205752D01*
X142315162Y-110396228D02*
X142267543Y-110300990D01*
X142267543Y-110300990D02*
X142219924Y-110253371D01*
X142219924Y-110253371D02*
X142124686Y-110205752D01*
X142124686Y-110205752D02*
X142029448Y-110205752D01*
X141696114Y-110872419D02*
X141696114Y-110205752D01*
X141696114Y-110396228D02*
X141648495Y-110300990D01*
X141648495Y-110300990D02*
X141600876Y-110253371D01*
X141600876Y-110253371D02*
X141505638Y-110205752D01*
X141505638Y-110205752D02*
X141410400Y-110205752D01*
X141172304Y-110205752D02*
X140934209Y-110872419D01*
X140696114Y-110205752D02*
X140934209Y-110872419D01*
X140934209Y-110872419D02*
X141029447Y-111110514D01*
X141029447Y-111110514D02*
X141077066Y-111158133D01*
X141077066Y-111158133D02*
X141172304Y-111205752D01*
X139553256Y-110872419D02*
X139553256Y-109872419D01*
X139553256Y-109872419D02*
X139172304Y-109872419D01*
X139172304Y-109872419D02*
X139077066Y-109920038D01*
X139077066Y-109920038D02*
X139029447Y-109967657D01*
X139029447Y-109967657D02*
X138981828Y-110062895D01*
X138981828Y-110062895D02*
X138981828Y-110205752D01*
X138981828Y-110205752D02*
X139029447Y-110300990D01*
X139029447Y-110300990D02*
X139077066Y-110348609D01*
X139077066Y-110348609D02*
X139172304Y-110396228D01*
X139172304Y-110396228D02*
X139553256Y-110396228D01*
X138553256Y-110872419D02*
X138553256Y-110205752D01*
X138553256Y-109872419D02*
X138600875Y-109920038D01*
X138600875Y-109920038D02*
X138553256Y-109967657D01*
X138553256Y-109967657D02*
X138505637Y-109920038D01*
X138505637Y-109920038D02*
X138553256Y-109872419D01*
X138553256Y-109872419D02*
X138553256Y-109967657D01*
X136838971Y-109872419D02*
X137315161Y-109872419D01*
X137315161Y-109872419D02*
X137362780Y-110348609D01*
X137362780Y-110348609D02*
X137315161Y-110300990D01*
X137315161Y-110300990D02*
X137219923Y-110253371D01*
X137219923Y-110253371D02*
X136981828Y-110253371D01*
X136981828Y-110253371D02*
X136886590Y-110300990D01*
X136886590Y-110300990D02*
X136838971Y-110348609D01*
X136838971Y-110348609D02*
X136791352Y-110443847D01*
X136791352Y-110443847D02*
X136791352Y-110681942D01*
X136791352Y-110681942D02*
X136838971Y-110777180D01*
X136838971Y-110777180D02*
X136886590Y-110824800D01*
X136886590Y-110824800D02*
X136981828Y-110872419D01*
X136981828Y-110872419D02*
X137219923Y-110872419D01*
X137219923Y-110872419D02*
X137315161Y-110824800D01*
X137315161Y-110824800D02*
X137362780Y-110777180D01*
D11*
%TO.C,J2*%
X136940000Y-103900000D02*
X136940000Y-106500000D01*
X136940000Y-103900000D02*
X187860000Y-103900000D01*
X136940000Y-106500000D02*
X139540000Y-106500000D01*
X136940000Y-107770000D02*
X136940000Y-109100000D01*
X136940000Y-109100000D02*
X138270000Y-109100000D01*
X139540000Y-106500000D02*
X139540000Y-109100000D01*
X139540000Y-109100000D02*
X187860000Y-109100000D01*
X187860000Y-103900000D02*
X187860000Y-109100000D01*
%TD*%
%LPC*%
D12*
%TO.C,*%
X133500000Y-155500000D03*
%TD*%
D13*
%TO.C,R2*%
X125000000Y-149455000D03*
D14*
X125000000Y-151995000D03*
%TD*%
D15*
%TO.C,J6*%
X212000000Y-39805000D03*
D16*
X212000000Y-42345000D03*
%TD*%
D13*
%TO.C,R21*%
X145325000Y-155300000D03*
D14*
X145325000Y-152760000D03*
%TD*%
D13*
%TO.C,R11*%
X185896000Y-32455000D03*
D14*
X185896000Y-34995000D03*
%TD*%
D13*
%TO.C,R25*%
X148500000Y-153210000D03*
D14*
X148500000Y-155750000D03*
%TD*%
D17*
%TO.C,IMU1*%
X125140000Y-137950000D03*
X125140000Y-135410000D03*
X125140000Y-132870000D03*
X125140000Y-130330000D03*
X125140000Y-127790000D03*
X125140000Y-125250000D03*
X148000000Y-137950000D03*
X148000000Y-135410000D03*
X148000000Y-132870000D03*
X148000000Y-130330000D03*
X148000000Y-127790000D03*
X148000000Y-125250000D03*
%TD*%
D12*
%TO.C,*%
X133500000Y-27500000D03*
%TD*%
D13*
%TO.C,R9*%
X164104000Y-130530000D03*
D14*
X166644000Y-130530000D03*
%TD*%
D18*
%TO.C,D1*%
X126278000Y-161024000D03*
D19*
X124500000Y-159500000D03*
X122976000Y-161024000D03*
X121452000Y-159500000D03*
%TD*%
D13*
%TO.C,R19*%
X188075000Y-155045000D03*
D14*
X188075000Y-152505000D03*
%TD*%
D13*
%TO.C,R7*%
X173955000Y-57000000D03*
D14*
X176495000Y-57000000D03*
%TD*%
D13*
%TO.C,R8*%
X161890000Y-57000000D03*
D14*
X164430000Y-57000000D03*
%TD*%
D20*
%TO.C,ESC1*%
X171415000Y-53317000D03*
X173955000Y-53317000D03*
X176495000Y-53317000D03*
X173955000Y-32997000D03*
X176495000Y-32997000D03*
%TD*%
%TO.C,ESC4*%
X157790000Y-134340000D03*
X155250000Y-134340000D03*
X152710000Y-134340000D03*
X155250000Y-154660000D03*
X152710000Y-154660000D03*
%TD*%
D15*
%TO.C,ToF3*%
X212000000Y-69500000D03*
D21*
X212000000Y-72040000D03*
X212000000Y-74580000D03*
X212000000Y-77120000D03*
%TD*%
D15*
%TO.C,J4*%
X126500000Y-57775000D03*
D16*
X126500000Y-55235000D03*
%TD*%
D15*
%TO.C,M4*%
X149350000Y-159000000D03*
D21*
X146810000Y-159000000D03*
X144270000Y-159000000D03*
X141730000Y-159000000D03*
X139190000Y-159000000D03*
X136650000Y-159000000D03*
%TD*%
D15*
%TO.C,M2*%
X140340000Y-28500000D03*
D21*
X142880000Y-28500000D03*
X145420000Y-28500000D03*
X147960000Y-28500000D03*
X150500000Y-28500000D03*
X153040000Y-28500000D03*
%TD*%
D13*
%TO.C,R13*%
X140975000Y-32455000D03*
D14*
X140975000Y-34995000D03*
%TD*%
D12*
%TO.C,*%
X217500000Y-96500000D03*
%TD*%
D15*
%TO.C,ToF1*%
X212000000Y-46380000D03*
D21*
X212000000Y-48920000D03*
X212000000Y-51460000D03*
X212000000Y-54000000D03*
%TD*%
D15*
%TO.C,ToF2*%
X212000000Y-58000000D03*
D21*
X212000000Y-60540000D03*
X212000000Y-63080000D03*
X212000000Y-65620000D03*
%TD*%
D13*
%TO.C,R1*%
X121896000Y-151545000D03*
D14*
X121896000Y-149005000D03*
%TD*%
D13*
%TO.C,R17*%
X144150000Y-34545000D03*
D14*
X144150000Y-32005000D03*
%TD*%
D22*
%TO.C,StepDown5V5A1*%
X131370000Y-79080000D03*
X131370000Y-81620000D03*
X131370000Y-84160000D03*
X131370000Y-86700000D03*
X131370000Y-89240000D03*
%TD*%
D23*
%TO.C,C4*%
X184342113Y-123991000D03*
D13*
X182342113Y-123991000D03*
%TD*%
%TO.C,R10*%
X152284000Y-130530000D03*
D14*
X154824000Y-130530000D03*
%TD*%
D20*
%TO.C,MotorDriver2*%
X153010000Y-89500000D03*
X153010000Y-86960000D03*
X153010000Y-84420000D03*
X153010000Y-81880000D03*
X153010000Y-79340000D03*
X153010000Y-76800000D03*
X168250000Y-89500000D03*
X168250000Y-86960000D03*
X168250000Y-84420000D03*
X168250000Y-81880000D03*
X168250000Y-79340000D03*
X168250000Y-76800000D03*
%TD*%
D13*
%TO.C,C3*%
X184530000Y-119673000D03*
X182030000Y-119673000D03*
%TD*%
D24*
%TO.C,SW1*%
X186500000Y-137000000D03*
D13*
X189040000Y-137000000D03*
X191580000Y-137000000D03*
X191580000Y-129380000D03*
X189040000Y-129380000D03*
X186500000Y-129380000D03*
%TD*%
%TO.C,C1*%
X131725112Y-100750000D03*
X134225112Y-100750000D03*
%TD*%
D25*
%TO.C,J1*%
X128500000Y-33880000D03*
D26*
X128500000Y-38960000D03*
X128500000Y-44040000D03*
X128500000Y-49120000D03*
%TD*%
D15*
%TO.C,ToF5*%
X165800000Y-159000000D03*
D21*
X163260000Y-159000000D03*
X160720000Y-159000000D03*
X158180000Y-159000000D03*
%TD*%
D15*
%TO.C,J5*%
X212000000Y-81080000D03*
D16*
X212000000Y-83620000D03*
%TD*%
D13*
%TO.C,R12*%
X192500000Y-32455000D03*
D14*
X192500000Y-34995000D03*
%TD*%
D12*
%TO.C,*%
X217500000Y-27500000D03*
%TD*%
D15*
%TO.C,M1*%
X181300000Y-28500000D03*
D21*
X183840000Y-28500000D03*
X186380000Y-28500000D03*
X188920000Y-28500000D03*
X191460000Y-28500000D03*
X194000000Y-28500000D03*
%TD*%
D13*
%TO.C,R24*%
X175500000Y-152960000D03*
D14*
X175500000Y-155500000D03*
%TD*%
D27*
%TO.C,Buzzer1*%
X177050000Y-124750000D03*
D28*
X169450000Y-124750000D03*
%TD*%
D13*
%TO.C,R23*%
X184900000Y-152955000D03*
D14*
X184900000Y-155495000D03*
%TD*%
D13*
%TO.C,R16*%
X189198000Y-34545000D03*
D14*
X189198000Y-32005000D03*
%TD*%
D20*
%TO.C,ESC2*%
X159315000Y-53317000D03*
X161855000Y-53317000D03*
X164395000Y-53317000D03*
X161855000Y-32997000D03*
X164395000Y-32997000D03*
%TD*%
D12*
%TO.C,*%
X133500000Y-106500000D03*
%TD*%
D22*
%TO.C,J3*%
X200653000Y-91011000D03*
X200653000Y-32723000D03*
X203193000Y-91011000D03*
X203193000Y-32723000D03*
X205733000Y-91011000D03*
X205733000Y-32723000D03*
X208273000Y-91011000D03*
X208273000Y-32723000D03*
X210813000Y-91011000D03*
X210813000Y-32723000D03*
X213353000Y-91011000D03*
X213353000Y-32723000D03*
%TD*%
D13*
%TO.C,R22*%
X136930000Y-155300000D03*
D14*
X139470000Y-155300000D03*
%TD*%
D20*
%TO.C,ESC3*%
X169311000Y-134340000D03*
X166771000Y-134340000D03*
X164231000Y-134340000D03*
X166771000Y-154660000D03*
X164231000Y-154660000D03*
%TD*%
D13*
%TO.C,R3*%
X128119000Y-151545000D03*
D14*
X128119000Y-149005000D03*
%TD*%
D18*
%TO.C,D2*%
X133390000Y-161024000D03*
D19*
X131612000Y-159500000D03*
X130088000Y-161024000D03*
X128564000Y-159500000D03*
%TD*%
D21*
%TO.C,U1*%
X186994000Y-97334000D03*
X184454000Y-97334000D03*
D15*
X181914000Y-97334000D03*
D21*
X179374000Y-97334000D03*
X176834000Y-97334000D03*
X174294000Y-97334000D03*
X171754000Y-97334000D03*
D15*
X169214000Y-97334000D03*
D21*
X166674000Y-97334000D03*
X164134000Y-97334000D03*
X161594000Y-97334000D03*
X159054000Y-97334000D03*
D15*
X156514000Y-97334000D03*
D21*
X153974000Y-97334000D03*
X151434000Y-97334000D03*
X148894000Y-97334000D03*
X146354000Y-97334000D03*
D15*
X143814000Y-97334000D03*
D21*
X141274000Y-97334000D03*
X138734000Y-97334000D03*
X138734000Y-115114000D03*
X141274000Y-115114000D03*
D15*
X143814000Y-115114000D03*
D21*
X146354000Y-115114000D03*
X148894000Y-115114000D03*
X151434000Y-115114000D03*
X153974000Y-115114000D03*
D15*
X156514000Y-115114000D03*
D21*
X159054000Y-115114000D03*
X161594000Y-115114000D03*
X164134000Y-115114000D03*
X166674000Y-115114000D03*
D15*
X169214000Y-115114000D03*
D21*
X171754000Y-115114000D03*
X174294000Y-115114000D03*
X176834000Y-115114000D03*
X179374000Y-115114000D03*
D15*
X181914000Y-115114000D03*
D21*
X184454000Y-115114000D03*
X186994000Y-115114000D03*
%TD*%
D13*
%TO.C,R20*%
X178675000Y-155050000D03*
D14*
X178675000Y-152510000D03*
%TD*%
D13*
%TO.C,R4*%
X131119000Y-151545000D03*
D14*
X131119000Y-149005000D03*
%TD*%
D12*
%TO.C,*%
X191500000Y-106500000D03*
%TD*%
D15*
%TO.C,ToF4*%
X164000000Y-28500000D03*
D21*
X166540000Y-28500000D03*
X169080000Y-28500000D03*
X171620000Y-28500000D03*
%TD*%
D13*
%TO.C,R18*%
X150500000Y-34545000D03*
D14*
X150500000Y-32005000D03*
%TD*%
D13*
%TO.C,R14*%
X147325000Y-32455000D03*
D14*
X147325000Y-34995000D03*
%TD*%
D13*
%TO.C,R26*%
X142150000Y-153210000D03*
D14*
X142150000Y-155750000D03*
%TD*%
D20*
%TO.C,StepDown5V3.2A1*%
X131370000Y-70957000D03*
X131370000Y-68417000D03*
X131370000Y-65877000D03*
X131370000Y-63337000D03*
X131370000Y-60797000D03*
%TD*%
D13*
%TO.C,R5*%
X134139000Y-149455000D03*
D14*
X134139000Y-151995000D03*
%TD*%
D12*
%TO.C,*%
X191500000Y-155500000D03*
%TD*%
D16*
%TO.C,TCA9548A1*%
X172925000Y-61135000D03*
X172925000Y-63675000D03*
X172925000Y-66215000D03*
X172925000Y-68755000D03*
X172925000Y-71295000D03*
X172925000Y-73835000D03*
X172925000Y-76375000D03*
X172925000Y-78915000D03*
X172925000Y-81455000D03*
X172925000Y-83995000D03*
X172925000Y-86535000D03*
X172925000Y-89075000D03*
X190705000Y-61135000D03*
X190705000Y-63675000D03*
X190705000Y-66215000D03*
X190705000Y-68755000D03*
X190705000Y-71295000D03*
X190705000Y-73835000D03*
X190705000Y-76375000D03*
X190705000Y-78915000D03*
X190705000Y-81455000D03*
X190705000Y-83995000D03*
X190705000Y-86535000D03*
X190705000Y-89075000D03*
%TD*%
D23*
%TO.C,C2*%
X132000000Y-96432000D03*
D13*
X134000000Y-96432000D03*
%TD*%
D15*
%TO.C,M3*%
X189650000Y-159000000D03*
D21*
X187110000Y-159000000D03*
X184570000Y-159000000D03*
X182030000Y-159000000D03*
X179490000Y-159000000D03*
X176950000Y-159000000D03*
%TD*%
D13*
%TO.C,R15*%
X182594000Y-34545000D03*
D14*
X182594000Y-32005000D03*
%TD*%
D16*
%TO.C,Power1*%
X159710000Y-63250000D03*
D15*
X162250000Y-63250000D03*
D21*
X159710000Y-65790000D03*
D15*
X162250000Y-65790000D03*
D21*
X159710000Y-68330000D03*
D15*
X162250000Y-68330000D03*
D21*
X159710000Y-70870000D03*
D15*
X162250000Y-70870000D03*
%TD*%
D13*
%TO.C,R6*%
X137187000Y-151545000D03*
D14*
X137187000Y-149005000D03*
%TD*%
D15*
%TO.C,J2*%
X138270000Y-107770000D03*
D21*
X138270000Y-105230000D03*
X140810000Y-107770000D03*
X140810000Y-105230000D03*
X143350000Y-107770000D03*
X143350000Y-105230000D03*
X145890000Y-107770000D03*
X145890000Y-105230000D03*
X148430000Y-107770000D03*
X148430000Y-105230000D03*
X150970000Y-107770000D03*
X150970000Y-105230000D03*
X153510000Y-107770000D03*
X153510000Y-105230000D03*
X156050000Y-107770000D03*
X156050000Y-105230000D03*
X158590000Y-107770000D03*
X158590000Y-105230000D03*
X161130000Y-107770000D03*
X161130000Y-105230000D03*
X163670000Y-107770000D03*
X163670000Y-105230000D03*
X166210000Y-107770000D03*
X166210000Y-105230000D03*
X168750000Y-107770000D03*
X168750000Y-105230000D03*
X171290000Y-107770000D03*
X171290000Y-105230000D03*
X173830000Y-107770000D03*
X173830000Y-105230000D03*
X176370000Y-107770000D03*
X176370000Y-105230000D03*
X178910000Y-107770000D03*
X178910000Y-105230000D03*
X181450000Y-107770000D03*
X181450000Y-105230000D03*
X183990000Y-107770000D03*
X183990000Y-105230000D03*
X186530000Y-107770000D03*
X186530000Y-105230000D03*
%TD*%
%LPD*%
M02*
