M48
; DRILL file {KiCad 9.0.1} date 2025-05-10T21:48:48+0100
; FORMAT={-:-/ absolute / inch / decimal}
; #@! TF.CreationDate,2025-05-10T21:48:48+01:00
; #@! TF.GenerationSoftware,Kicad,Pcbnew,9.0.1
; #@! TF.FileFunction,Plated,1,2,PTH
FMAT,2
INCH
; #@! TA.AperFunction,Plated,PTH,ComponentDrill
T1C0.0315
; #@! TA.AperFunction,Plated,PTH,ComponentDrill
T2C0.0354
; #@! TA.AperFunction,Plated,PTH,ComponentDrill
T3C0.0394
%
G90
G05
T1
X4.2463Y-4.0157
X4.3463Y-4.0157
X4.5022Y-4.0157
X4.6022Y-4.0157
X4.7581Y-4.0157
X4.8581Y-4.0157
X5.014Y-4.0157
X5.114Y-4.0157
X5.2699Y-4.0157
X5.3699Y-4.0157
X5.5258Y-4.0157
X5.6258Y-4.0157
T2
X4.2874Y-4.1533
X4.2874Y-4.2533
X4.5433Y-4.1533
X4.5433Y-4.2533
X4.7992Y-4.1533
X4.7992Y-4.2533
X5.0551Y-4.1533
X5.0551Y-4.2533
X5.311Y-4.1533
X5.311Y-4.2533
X5.5669Y-4.1533
X5.5669Y-4.2533
T3
X4.0551Y-4.1522
X4.0551Y-4.2522
X5.7874Y-4.1522
X5.7874Y-4.2522
M30
