%TF.GenerationSoftware,KiCad,Pcbnew,9.0.1*%
%TF.CreationDate,2025-05-10T21:48:48+01:00*%
%TF.ProjectId,Led_Bar,4c65645f-4261-4722-9e6b-696361645f70,rev?*%
%TF.SameCoordinates,Original*%
%TF.FileFunction,Legend,Top*%
%TF.FilePolarity,Positive*%
%FSLAX46Y46*%
G04 Gerber Fmt 4.6, Leading zero omitted, Abs format (unit mm)*
G04 Created by KiCad (PCBNEW 9.0.1) date 2025-05-10 21:48:48*
%MOMM*%
%LPD*%
G01*
G04 APERTURE LIST*
%ADD10C,0.100000*%
%ADD11C,0.150000*%
%ADD12C,0.120000*%
%ADD13C,1.600000*%
%ADD14O,1.600000X1.600000*%
%ADD15C,1.800000*%
%ADD16R,1.800000X1.800000*%
%ADD17C,1.700000*%
%ADD18R,1.700000X1.700000*%
G04 APERTURE END LIST*
D10*
X100403884Y-108191466D02*
X101165789Y-108191466D01*
X148903884Y-108091466D02*
X149665789Y-108091466D01*
X148903884Y-105491466D02*
X149665789Y-105491466D01*
X149284836Y-105872419D02*
X149284836Y-105110514D01*
X100403884Y-105491466D02*
X101165789Y-105491466D01*
X100784836Y-105872419D02*
X100784836Y-105110514D01*
D11*
X142733333Y-100954819D02*
X142400000Y-100478628D01*
X142161905Y-100954819D02*
X142161905Y-99954819D01*
X142161905Y-99954819D02*
X142542857Y-99954819D01*
X142542857Y-99954819D02*
X142638095Y-100002438D01*
X142638095Y-100002438D02*
X142685714Y-100050057D01*
X142685714Y-100050057D02*
X142733333Y-100145295D01*
X142733333Y-100145295D02*
X142733333Y-100288152D01*
X142733333Y-100288152D02*
X142685714Y-100383390D01*
X142685714Y-100383390D02*
X142638095Y-100431009D01*
X142638095Y-100431009D02*
X142542857Y-100478628D01*
X142542857Y-100478628D02*
X142161905Y-100478628D01*
X143590476Y-99954819D02*
X143400000Y-99954819D01*
X143400000Y-99954819D02*
X143304762Y-100002438D01*
X143304762Y-100002438D02*
X143257143Y-100050057D01*
X143257143Y-100050057D02*
X143161905Y-100192914D01*
X143161905Y-100192914D02*
X143114286Y-100383390D01*
X143114286Y-100383390D02*
X143114286Y-100764342D01*
X143114286Y-100764342D02*
X143161905Y-100859580D01*
X143161905Y-100859580D02*
X143209524Y-100907200D01*
X143209524Y-100907200D02*
X143304762Y-100954819D01*
X143304762Y-100954819D02*
X143495238Y-100954819D01*
X143495238Y-100954819D02*
X143590476Y-100907200D01*
X143590476Y-100907200D02*
X143638095Y-100859580D01*
X143638095Y-100859580D02*
X143685714Y-100764342D01*
X143685714Y-100764342D02*
X143685714Y-100526247D01*
X143685714Y-100526247D02*
X143638095Y-100431009D01*
X143638095Y-100431009D02*
X143590476Y-100383390D01*
X143590476Y-100383390D02*
X143495238Y-100335771D01*
X143495238Y-100335771D02*
X143304762Y-100335771D01*
X143304762Y-100335771D02*
X143209524Y-100383390D01*
X143209524Y-100383390D02*
X143161905Y-100431009D01*
X143161905Y-100431009D02*
X143114286Y-100526247D01*
X110861905Y-104289819D02*
X110861905Y-103289819D01*
X110861905Y-103289819D02*
X111100000Y-103289819D01*
X111100000Y-103289819D02*
X111242857Y-103337438D01*
X111242857Y-103337438D02*
X111338095Y-103432676D01*
X111338095Y-103432676D02*
X111385714Y-103527914D01*
X111385714Y-103527914D02*
X111433333Y-103718390D01*
X111433333Y-103718390D02*
X111433333Y-103861247D01*
X111433333Y-103861247D02*
X111385714Y-104051723D01*
X111385714Y-104051723D02*
X111338095Y-104146961D01*
X111338095Y-104146961D02*
X111242857Y-104242200D01*
X111242857Y-104242200D02*
X111100000Y-104289819D01*
X111100000Y-104289819D02*
X110861905Y-104289819D01*
X112385714Y-104289819D02*
X111814286Y-104289819D01*
X112100000Y-104289819D02*
X112100000Y-103289819D01*
X112100000Y-103289819D02*
X112004762Y-103432676D01*
X112004762Y-103432676D02*
X111909524Y-103527914D01*
X111909524Y-103527914D02*
X111814286Y-103575533D01*
X110233333Y-100954819D02*
X109900000Y-100478628D01*
X109661905Y-100954819D02*
X109661905Y-99954819D01*
X109661905Y-99954819D02*
X110042857Y-99954819D01*
X110042857Y-99954819D02*
X110138095Y-100002438D01*
X110138095Y-100002438D02*
X110185714Y-100050057D01*
X110185714Y-100050057D02*
X110233333Y-100145295D01*
X110233333Y-100145295D02*
X110233333Y-100288152D01*
X110233333Y-100288152D02*
X110185714Y-100383390D01*
X110185714Y-100383390D02*
X110138095Y-100431009D01*
X110138095Y-100431009D02*
X110042857Y-100478628D01*
X110042857Y-100478628D02*
X109661905Y-100478628D01*
X111185714Y-100954819D02*
X110614286Y-100954819D01*
X110900000Y-100954819D02*
X110900000Y-99954819D01*
X110900000Y-99954819D02*
X110804762Y-100097676D01*
X110804762Y-100097676D02*
X110709524Y-100192914D01*
X110709524Y-100192914D02*
X110614286Y-100240533D01*
X117361905Y-104249819D02*
X117361905Y-103249819D01*
X117361905Y-103249819D02*
X117600000Y-103249819D01*
X117600000Y-103249819D02*
X117742857Y-103297438D01*
X117742857Y-103297438D02*
X117838095Y-103392676D01*
X117838095Y-103392676D02*
X117885714Y-103487914D01*
X117885714Y-103487914D02*
X117933333Y-103678390D01*
X117933333Y-103678390D02*
X117933333Y-103821247D01*
X117933333Y-103821247D02*
X117885714Y-104011723D01*
X117885714Y-104011723D02*
X117838095Y-104106961D01*
X117838095Y-104106961D02*
X117742857Y-104202200D01*
X117742857Y-104202200D02*
X117600000Y-104249819D01*
X117600000Y-104249819D02*
X117361905Y-104249819D01*
X118314286Y-103345057D02*
X118361905Y-103297438D01*
X118361905Y-103297438D02*
X118457143Y-103249819D01*
X118457143Y-103249819D02*
X118695238Y-103249819D01*
X118695238Y-103249819D02*
X118790476Y-103297438D01*
X118790476Y-103297438D02*
X118838095Y-103345057D01*
X118838095Y-103345057D02*
X118885714Y-103440295D01*
X118885714Y-103440295D02*
X118885714Y-103535533D01*
X118885714Y-103535533D02*
X118838095Y-103678390D01*
X118838095Y-103678390D02*
X118266667Y-104249819D01*
X118266667Y-104249819D02*
X118885714Y-104249819D01*
X116733333Y-100954819D02*
X116400000Y-100478628D01*
X116161905Y-100954819D02*
X116161905Y-99954819D01*
X116161905Y-99954819D02*
X116542857Y-99954819D01*
X116542857Y-99954819D02*
X116638095Y-100002438D01*
X116638095Y-100002438D02*
X116685714Y-100050057D01*
X116685714Y-100050057D02*
X116733333Y-100145295D01*
X116733333Y-100145295D02*
X116733333Y-100288152D01*
X116733333Y-100288152D02*
X116685714Y-100383390D01*
X116685714Y-100383390D02*
X116638095Y-100431009D01*
X116638095Y-100431009D02*
X116542857Y-100478628D01*
X116542857Y-100478628D02*
X116161905Y-100478628D01*
X117114286Y-100050057D02*
X117161905Y-100002438D01*
X117161905Y-100002438D02*
X117257143Y-99954819D01*
X117257143Y-99954819D02*
X117495238Y-99954819D01*
X117495238Y-99954819D02*
X117590476Y-100002438D01*
X117590476Y-100002438D02*
X117638095Y-100050057D01*
X117638095Y-100050057D02*
X117685714Y-100145295D01*
X117685714Y-100145295D02*
X117685714Y-100240533D01*
X117685714Y-100240533D02*
X117638095Y-100383390D01*
X117638095Y-100383390D02*
X117066667Y-100954819D01*
X117066667Y-100954819D02*
X117685714Y-100954819D01*
X123861905Y-104249819D02*
X123861905Y-103249819D01*
X123861905Y-103249819D02*
X124100000Y-103249819D01*
X124100000Y-103249819D02*
X124242857Y-103297438D01*
X124242857Y-103297438D02*
X124338095Y-103392676D01*
X124338095Y-103392676D02*
X124385714Y-103487914D01*
X124385714Y-103487914D02*
X124433333Y-103678390D01*
X124433333Y-103678390D02*
X124433333Y-103821247D01*
X124433333Y-103821247D02*
X124385714Y-104011723D01*
X124385714Y-104011723D02*
X124338095Y-104106961D01*
X124338095Y-104106961D02*
X124242857Y-104202200D01*
X124242857Y-104202200D02*
X124100000Y-104249819D01*
X124100000Y-104249819D02*
X123861905Y-104249819D01*
X124766667Y-103249819D02*
X125385714Y-103249819D01*
X125385714Y-103249819D02*
X125052381Y-103630771D01*
X125052381Y-103630771D02*
X125195238Y-103630771D01*
X125195238Y-103630771D02*
X125290476Y-103678390D01*
X125290476Y-103678390D02*
X125338095Y-103726009D01*
X125338095Y-103726009D02*
X125385714Y-103821247D01*
X125385714Y-103821247D02*
X125385714Y-104059342D01*
X125385714Y-104059342D02*
X125338095Y-104154580D01*
X125338095Y-104154580D02*
X125290476Y-104202200D01*
X125290476Y-104202200D02*
X125195238Y-104249819D01*
X125195238Y-104249819D02*
X124909524Y-104249819D01*
X124909524Y-104249819D02*
X124814286Y-104202200D01*
X124814286Y-104202200D02*
X124766667Y-104154580D01*
X123233333Y-100954819D02*
X122900000Y-100478628D01*
X122661905Y-100954819D02*
X122661905Y-99954819D01*
X122661905Y-99954819D02*
X123042857Y-99954819D01*
X123042857Y-99954819D02*
X123138095Y-100002438D01*
X123138095Y-100002438D02*
X123185714Y-100050057D01*
X123185714Y-100050057D02*
X123233333Y-100145295D01*
X123233333Y-100145295D02*
X123233333Y-100288152D01*
X123233333Y-100288152D02*
X123185714Y-100383390D01*
X123185714Y-100383390D02*
X123138095Y-100431009D01*
X123138095Y-100431009D02*
X123042857Y-100478628D01*
X123042857Y-100478628D02*
X122661905Y-100478628D01*
X123566667Y-99954819D02*
X124185714Y-99954819D01*
X124185714Y-99954819D02*
X123852381Y-100335771D01*
X123852381Y-100335771D02*
X123995238Y-100335771D01*
X123995238Y-100335771D02*
X124090476Y-100383390D01*
X124090476Y-100383390D02*
X124138095Y-100431009D01*
X124138095Y-100431009D02*
X124185714Y-100526247D01*
X124185714Y-100526247D02*
X124185714Y-100764342D01*
X124185714Y-100764342D02*
X124138095Y-100859580D01*
X124138095Y-100859580D02*
X124090476Y-100907200D01*
X124090476Y-100907200D02*
X123995238Y-100954819D01*
X123995238Y-100954819D02*
X123709524Y-100954819D01*
X123709524Y-100954819D02*
X123614286Y-100907200D01*
X123614286Y-100907200D02*
X123566667Y-100859580D01*
X130261905Y-104249819D02*
X130261905Y-103249819D01*
X130261905Y-103249819D02*
X130500000Y-103249819D01*
X130500000Y-103249819D02*
X130642857Y-103297438D01*
X130642857Y-103297438D02*
X130738095Y-103392676D01*
X130738095Y-103392676D02*
X130785714Y-103487914D01*
X130785714Y-103487914D02*
X130833333Y-103678390D01*
X130833333Y-103678390D02*
X130833333Y-103821247D01*
X130833333Y-103821247D02*
X130785714Y-104011723D01*
X130785714Y-104011723D02*
X130738095Y-104106961D01*
X130738095Y-104106961D02*
X130642857Y-104202200D01*
X130642857Y-104202200D02*
X130500000Y-104249819D01*
X130500000Y-104249819D02*
X130261905Y-104249819D01*
X131690476Y-103583152D02*
X131690476Y-104249819D01*
X131452381Y-103202200D02*
X131214286Y-103916485D01*
X131214286Y-103916485D02*
X131833333Y-103916485D01*
X129633333Y-100954819D02*
X129300000Y-100478628D01*
X129061905Y-100954819D02*
X129061905Y-99954819D01*
X129061905Y-99954819D02*
X129442857Y-99954819D01*
X129442857Y-99954819D02*
X129538095Y-100002438D01*
X129538095Y-100002438D02*
X129585714Y-100050057D01*
X129585714Y-100050057D02*
X129633333Y-100145295D01*
X129633333Y-100145295D02*
X129633333Y-100288152D01*
X129633333Y-100288152D02*
X129585714Y-100383390D01*
X129585714Y-100383390D02*
X129538095Y-100431009D01*
X129538095Y-100431009D02*
X129442857Y-100478628D01*
X129442857Y-100478628D02*
X129061905Y-100478628D01*
X130490476Y-100288152D02*
X130490476Y-100954819D01*
X130252381Y-99907200D02*
X130014286Y-100621485D01*
X130014286Y-100621485D02*
X130633333Y-100621485D01*
X136861905Y-104249819D02*
X136861905Y-103249819D01*
X136861905Y-103249819D02*
X137100000Y-103249819D01*
X137100000Y-103249819D02*
X137242857Y-103297438D01*
X137242857Y-103297438D02*
X137338095Y-103392676D01*
X137338095Y-103392676D02*
X137385714Y-103487914D01*
X137385714Y-103487914D02*
X137433333Y-103678390D01*
X137433333Y-103678390D02*
X137433333Y-103821247D01*
X137433333Y-103821247D02*
X137385714Y-104011723D01*
X137385714Y-104011723D02*
X137338095Y-104106961D01*
X137338095Y-104106961D02*
X137242857Y-104202200D01*
X137242857Y-104202200D02*
X137100000Y-104249819D01*
X137100000Y-104249819D02*
X136861905Y-104249819D01*
X138338095Y-103249819D02*
X137861905Y-103249819D01*
X137861905Y-103249819D02*
X137814286Y-103726009D01*
X137814286Y-103726009D02*
X137861905Y-103678390D01*
X137861905Y-103678390D02*
X137957143Y-103630771D01*
X137957143Y-103630771D02*
X138195238Y-103630771D01*
X138195238Y-103630771D02*
X138290476Y-103678390D01*
X138290476Y-103678390D02*
X138338095Y-103726009D01*
X138338095Y-103726009D02*
X138385714Y-103821247D01*
X138385714Y-103821247D02*
X138385714Y-104059342D01*
X138385714Y-104059342D02*
X138338095Y-104154580D01*
X138338095Y-104154580D02*
X138290476Y-104202200D01*
X138290476Y-104202200D02*
X138195238Y-104249819D01*
X138195238Y-104249819D02*
X137957143Y-104249819D01*
X137957143Y-104249819D02*
X137861905Y-104202200D01*
X137861905Y-104202200D02*
X137814286Y-104154580D01*
X136233333Y-100954819D02*
X135900000Y-100478628D01*
X135661905Y-100954819D02*
X135661905Y-99954819D01*
X135661905Y-99954819D02*
X136042857Y-99954819D01*
X136042857Y-99954819D02*
X136138095Y-100002438D01*
X136138095Y-100002438D02*
X136185714Y-100050057D01*
X136185714Y-100050057D02*
X136233333Y-100145295D01*
X136233333Y-100145295D02*
X136233333Y-100288152D01*
X136233333Y-100288152D02*
X136185714Y-100383390D01*
X136185714Y-100383390D02*
X136138095Y-100431009D01*
X136138095Y-100431009D02*
X136042857Y-100478628D01*
X136042857Y-100478628D02*
X135661905Y-100478628D01*
X137138095Y-99954819D02*
X136661905Y-99954819D01*
X136661905Y-99954819D02*
X136614286Y-100431009D01*
X136614286Y-100431009D02*
X136661905Y-100383390D01*
X136661905Y-100383390D02*
X136757143Y-100335771D01*
X136757143Y-100335771D02*
X136995238Y-100335771D01*
X136995238Y-100335771D02*
X137090476Y-100383390D01*
X137090476Y-100383390D02*
X137138095Y-100431009D01*
X137138095Y-100431009D02*
X137185714Y-100526247D01*
X137185714Y-100526247D02*
X137185714Y-100764342D01*
X137185714Y-100764342D02*
X137138095Y-100859580D01*
X137138095Y-100859580D02*
X137090476Y-100907200D01*
X137090476Y-100907200D02*
X136995238Y-100954819D01*
X136995238Y-100954819D02*
X136757143Y-100954819D01*
X136757143Y-100954819D02*
X136661905Y-100907200D01*
X136661905Y-100907200D02*
X136614286Y-100859580D01*
X143461905Y-104354819D02*
X143461905Y-103354819D01*
X143461905Y-103354819D02*
X143700000Y-103354819D01*
X143700000Y-103354819D02*
X143842857Y-103402438D01*
X143842857Y-103402438D02*
X143938095Y-103497676D01*
X143938095Y-103497676D02*
X143985714Y-103592914D01*
X143985714Y-103592914D02*
X144033333Y-103783390D01*
X144033333Y-103783390D02*
X144033333Y-103926247D01*
X144033333Y-103926247D02*
X143985714Y-104116723D01*
X143985714Y-104116723D02*
X143938095Y-104211961D01*
X143938095Y-104211961D02*
X143842857Y-104307200D01*
X143842857Y-104307200D02*
X143700000Y-104354819D01*
X143700000Y-104354819D02*
X143461905Y-104354819D01*
X144890476Y-103354819D02*
X144700000Y-103354819D01*
X144700000Y-103354819D02*
X144604762Y-103402438D01*
X144604762Y-103402438D02*
X144557143Y-103450057D01*
X144557143Y-103450057D02*
X144461905Y-103592914D01*
X144461905Y-103592914D02*
X144414286Y-103783390D01*
X144414286Y-103783390D02*
X144414286Y-104164342D01*
X144414286Y-104164342D02*
X144461905Y-104259580D01*
X144461905Y-104259580D02*
X144509524Y-104307200D01*
X144509524Y-104307200D02*
X144604762Y-104354819D01*
X144604762Y-104354819D02*
X144795238Y-104354819D01*
X144795238Y-104354819D02*
X144890476Y-104307200D01*
X144890476Y-104307200D02*
X144938095Y-104259580D01*
X144938095Y-104259580D02*
X144985714Y-104164342D01*
X144985714Y-104164342D02*
X144985714Y-103926247D01*
X144985714Y-103926247D02*
X144938095Y-103831009D01*
X144938095Y-103831009D02*
X144890476Y-103783390D01*
X144890476Y-103783390D02*
X144795238Y-103735771D01*
X144795238Y-103735771D02*
X144604762Y-103735771D01*
X144604762Y-103735771D02*
X144509524Y-103783390D01*
X144509524Y-103783390D02*
X144461905Y-103831009D01*
X144461905Y-103831009D02*
X144414286Y-103926247D01*
D12*
%TO.C,R6*%
X141725000Y-102000000D02*
X141795000Y-102000000D01*
X141725000Y-102000000D02*
G75*
G02*
X138985000Y-102000000I-1370000J0D01*
G01*
X138985000Y-102000000D02*
G75*
G02*
X141725000Y-102000000I1370000J0D01*
G01*
%TO.C,D1*%
X111400000Y-106765000D02*
G75*
G02*
X106400000Y-106765000I-2500000J0D01*
G01*
X106400000Y-106765000D02*
G75*
G02*
X111400000Y-106765000I2500000J0D01*
G01*
X108900048Y-103775000D02*
G75*
G02*
X110444830Y-109325000I-48J-2990000D01*
G01*
X107355170Y-109325000D02*
G75*
G02*
X108899952Y-103775000I1544830J2560000D01*
G01*
X107355000Y-109325000D02*
X110445000Y-109325000D01*
%TO.C,R1*%
X109225000Y-102000000D02*
X109295000Y-102000000D01*
X109225000Y-102000000D02*
G75*
G02*
X106485000Y-102000000I-1370000J0D01*
G01*
X106485000Y-102000000D02*
G75*
G02*
X109225000Y-102000000I1370000J0D01*
G01*
%TO.C,D2*%
X117900000Y-106765000D02*
G75*
G02*
X112900000Y-106765000I-2500000J0D01*
G01*
X112900000Y-106765000D02*
G75*
G02*
X117900000Y-106765000I2500000J0D01*
G01*
X115400048Y-103775000D02*
G75*
G02*
X116944830Y-109325000I-48J-2990000D01*
G01*
X113855170Y-109325000D02*
G75*
G02*
X115399952Y-103775000I1544830J2560000D01*
G01*
X113855000Y-109325000D02*
X116945000Y-109325000D01*
%TO.C,R2*%
X115725000Y-102000000D02*
X115795000Y-102000000D01*
X115725000Y-102000000D02*
G75*
G02*
X112985000Y-102000000I-1370000J0D01*
G01*
X112985000Y-102000000D02*
G75*
G02*
X115725000Y-102000000I1370000J0D01*
G01*
%TO.C,D3*%
X124400000Y-106765000D02*
G75*
G02*
X119400000Y-106765000I-2500000J0D01*
G01*
X119400000Y-106765000D02*
G75*
G02*
X124400000Y-106765000I2500000J0D01*
G01*
X121900048Y-103775000D02*
G75*
G02*
X123444830Y-109325000I-48J-2990000D01*
G01*
X120355170Y-109325000D02*
G75*
G02*
X121899952Y-103775000I1544830J2560000D01*
G01*
X120355000Y-109325000D02*
X123445000Y-109325000D01*
%TO.C,R3*%
X122225000Y-102000000D02*
X122295000Y-102000000D01*
X122225000Y-102000000D02*
G75*
G02*
X119485000Y-102000000I-1370000J0D01*
G01*
X119485000Y-102000000D02*
G75*
G02*
X122225000Y-102000000I1370000J0D01*
G01*
%TO.C,D4*%
X130900000Y-106765000D02*
G75*
G02*
X125900000Y-106765000I-2500000J0D01*
G01*
X125900000Y-106765000D02*
G75*
G02*
X130900000Y-106765000I2500000J0D01*
G01*
X128400048Y-103775000D02*
G75*
G02*
X129944830Y-109325000I-48J-2990000D01*
G01*
X126855170Y-109325000D02*
G75*
G02*
X128399952Y-103775000I1544830J2560000D01*
G01*
X126855000Y-109325000D02*
X129945000Y-109325000D01*
%TO.C,R4*%
X128725000Y-102000000D02*
X128795000Y-102000000D01*
X128725000Y-102000000D02*
G75*
G02*
X125985000Y-102000000I-1370000J0D01*
G01*
X125985000Y-102000000D02*
G75*
G02*
X128725000Y-102000000I1370000J0D01*
G01*
%TO.C,D5*%
X133355000Y-109325000D02*
X136445000Y-109325000D01*
X133355170Y-109325000D02*
G75*
G02*
X134899952Y-103775000I1544830J2560000D01*
G01*
X134900048Y-103775000D02*
G75*
G02*
X136444830Y-109325000I-48J-2990000D01*
G01*
X137400000Y-106765000D02*
G75*
G02*
X132400000Y-106765000I-2500000J0D01*
G01*
X132400000Y-106765000D02*
G75*
G02*
X137400000Y-106765000I2500000J0D01*
G01*
%TO.C,R5*%
X135225000Y-102000000D02*
X135295000Y-102000000D01*
X135225000Y-102000000D02*
G75*
G02*
X132485000Y-102000000I-1370000J0D01*
G01*
X132485000Y-102000000D02*
G75*
G02*
X135225000Y-102000000I1370000J0D01*
G01*
%TO.C,D6*%
X143900000Y-106765000D02*
G75*
G02*
X138900000Y-106765000I-2500000J0D01*
G01*
X138900000Y-106765000D02*
G75*
G02*
X143900000Y-106765000I2500000J0D01*
G01*
X141400048Y-103775000D02*
G75*
G02*
X142944830Y-109325000I-48J-2990000D01*
G01*
X139855170Y-109325000D02*
G75*
G02*
X141399952Y-103775000I1544830J2560000D01*
G01*
X139855000Y-109325000D02*
X142945000Y-109325000D01*
%TO.C,J1*%
X101620000Y-106735000D02*
X101620000Y-104085000D01*
X104380000Y-104085000D02*
X101620000Y-104085000D01*
X104380000Y-106735000D02*
X101620000Y-106735000D01*
X104380000Y-106735000D02*
X104380000Y-104085000D01*
X104380000Y-108005000D02*
X104380000Y-109385000D01*
X104380000Y-109385000D02*
X103000000Y-109385000D01*
%TO.C,J2*%
X148380000Y-109385000D02*
X147000000Y-109385000D01*
X148380000Y-108005000D02*
X148380000Y-109385000D01*
X148380000Y-106735000D02*
X148380000Y-104085000D01*
X148380000Y-106735000D02*
X145620000Y-106735000D01*
X148380000Y-104085000D02*
X145620000Y-104085000D01*
X145620000Y-106735000D02*
X145620000Y-104085000D01*
%TD*%
%LPC*%
D13*
%TO.C,R6*%
X140355000Y-102000000D03*
D14*
X142895000Y-102000000D03*
%TD*%
D15*
%TO.C,D1*%
X108900000Y-105495000D03*
D16*
X108900000Y-108035000D03*
%TD*%
D13*
%TO.C,R1*%
X107855000Y-102000000D03*
D14*
X110395000Y-102000000D03*
%TD*%
D15*
%TO.C,D2*%
X115400000Y-105495000D03*
D16*
X115400000Y-108035000D03*
%TD*%
D13*
%TO.C,R2*%
X114355000Y-102000000D03*
D14*
X116895000Y-102000000D03*
%TD*%
D15*
%TO.C,D3*%
X121900000Y-105495000D03*
D16*
X121900000Y-108035000D03*
%TD*%
D13*
%TO.C,R3*%
X120855000Y-102000000D03*
D14*
X123395000Y-102000000D03*
%TD*%
D15*
%TO.C,D4*%
X128400000Y-105495000D03*
D16*
X128400000Y-108035000D03*
%TD*%
D13*
%TO.C,R4*%
X127355000Y-102000000D03*
D14*
X129895000Y-102000000D03*
%TD*%
D16*
%TO.C,D5*%
X134900000Y-108035000D03*
D15*
X134900000Y-105495000D03*
%TD*%
D13*
%TO.C,R5*%
X133855000Y-102000000D03*
D14*
X136395000Y-102000000D03*
%TD*%
D15*
%TO.C,D6*%
X141400000Y-105495000D03*
D16*
X141400000Y-108035000D03*
%TD*%
D17*
%TO.C,J1*%
X103000000Y-105465000D03*
D18*
X103000000Y-108005000D03*
%TD*%
%TO.C,J2*%
X147000000Y-108005000D03*
D17*
X147000000Y-105465000D03*
%TD*%
%LPD*%
M02*
