%TF.GenerationSoftware,KiCad,Pcbnew,9.0.1*%
%TF.CreationDate,2025-05-10T21:48:48+01:00*%
%TF.ProjectId,Led_Bar,4c65645f-4261-4722-9e6b-696361645f70,rev?*%
%TF.SameCoordinates,Original*%
%TF.FileFunction,Copper,L2,Bot*%
%TF.FilePolarity,Positive*%
%FSLAX46Y46*%
G04 Gerber Fmt 4.6, Leading zero omitted, Abs format (unit mm)*
G04 Created by KiCad (PCBNEW 9.0.1) date 2025-05-10 21:48:48*
%MOMM*%
%LPD*%
G01*
G04 APERTURE LIST*
%TA.AperFunction,ComponentPad*%
%ADD10C,1.600000*%
%TD*%
%TA.AperFunction,ComponentPad*%
%ADD11O,1.600000X1.600000*%
%TD*%
%TA.AperFunction,ComponentPad*%
%ADD12C,1.800000*%
%TD*%
%TA.AperFunction,ComponentPad*%
%ADD13R,1.800000X1.800000*%
%TD*%
%TA.AperFunction,ComponentPad*%
%ADD14C,1.700000*%
%TD*%
%TA.AperFunction,ComponentPad*%
%ADD15R,1.700000X1.700000*%
%TD*%
G04 APERTURE END LIST*
D10*
%TO.P,R6,1*%
%TO.N,Net-(D6-A)*%
X140355000Y-102000000D03*
D11*
%TO.P,R6,2*%
%TO.N,5V*%
X142895000Y-102000000D03*
%TD*%
D12*
%TO.P,D1,2,A*%
%TO.N,Net-(D1-A)*%
X108900000Y-105495000D03*
D13*
%TO.P,D1,1,K*%
%TO.N,GND*%
X108900000Y-108035000D03*
%TD*%
D10*
%TO.P,R1,1*%
%TO.N,Net-(D1-A)*%
X107855000Y-102000000D03*
D11*
%TO.P,R1,2*%
%TO.N,5V*%
X110395000Y-102000000D03*
%TD*%
D12*
%TO.P,D2,2,A*%
%TO.N,Net-(D2-A)*%
X115400000Y-105495000D03*
D13*
%TO.P,D2,1,K*%
%TO.N,GND*%
X115400000Y-108035000D03*
%TD*%
D10*
%TO.P,R2,1*%
%TO.N,Net-(D2-A)*%
X114355000Y-102000000D03*
D11*
%TO.P,R2,2*%
%TO.N,5V*%
X116895000Y-102000000D03*
%TD*%
D12*
%TO.P,D3,2,A*%
%TO.N,Net-(D3-A)*%
X121900000Y-105495000D03*
D13*
%TO.P,D3,1,K*%
%TO.N,GND*%
X121900000Y-108035000D03*
%TD*%
D10*
%TO.P,R3,1*%
%TO.N,Net-(D3-A)*%
X120855000Y-102000000D03*
D11*
%TO.P,R3,2*%
%TO.N,5V*%
X123395000Y-102000000D03*
%TD*%
D12*
%TO.P,D4,2,A*%
%TO.N,Net-(D4-A)*%
X128400000Y-105495000D03*
D13*
%TO.P,D4,1,K*%
%TO.N,GND*%
X128400000Y-108035000D03*
%TD*%
D10*
%TO.P,R4,1*%
%TO.N,Net-(D4-A)*%
X127355000Y-102000000D03*
D11*
%TO.P,R4,2*%
%TO.N,5V*%
X129895000Y-102000000D03*
%TD*%
D13*
%TO.P,D5,1,K*%
%TO.N,GND*%
X134900000Y-108035000D03*
D12*
%TO.P,D5,2,A*%
%TO.N,Net-(D5-A)*%
X134900000Y-105495000D03*
%TD*%
D10*
%TO.P,R5,1*%
%TO.N,Net-(D5-A)*%
X133855000Y-102000000D03*
D11*
%TO.P,R5,2*%
%TO.N,5V*%
X136395000Y-102000000D03*
%TD*%
D12*
%TO.P,D6,2,A*%
%TO.N,Net-(D6-A)*%
X141400000Y-105495000D03*
D13*
%TO.P,D6,1,K*%
%TO.N,GND*%
X141400000Y-108035000D03*
%TD*%
D14*
%TO.P,J1,2,Pin_2*%
%TO.N,5V*%
X103000000Y-105465000D03*
D15*
%TO.P,J1,1,Pin_1*%
%TO.N,GND*%
X103000000Y-108005000D03*
%TD*%
%TO.P,J2,1,Pin_1*%
%TO.N,GND*%
X147000000Y-108005000D03*
D14*
%TO.P,J2,2,Pin_2*%
%TO.N,5V*%
X147000000Y-105465000D03*
%TD*%
%TA.AperFunction,Conductor*%
%TO.N,GND*%
G36*
X149742539Y-98220185D02*
G01*
X149788294Y-98272989D01*
X149799500Y-98324500D01*
X149799500Y-109675500D01*
X149779815Y-109742539D01*
X149727011Y-109788294D01*
X149675500Y-109799500D01*
X100324500Y-109799500D01*
X100257461Y-109779815D01*
X100211706Y-109727011D01*
X100200500Y-109675500D01*
X100200500Y-105358713D01*
X101649500Y-105358713D01*
X101649500Y-105571286D01*
X101682753Y-105781239D01*
X101748444Y-105983414D01*
X101844951Y-106172820D01*
X101969890Y-106344786D01*
X102083818Y-106458714D01*
X102117303Y-106520037D01*
X102112319Y-106589729D01*
X102070447Y-106645662D01*
X102039471Y-106662577D01*
X101907912Y-106711646D01*
X101907906Y-106711649D01*
X101792812Y-106797809D01*
X101792809Y-106797812D01*
X101706649Y-106912906D01*
X101706645Y-106912913D01*
X101656403Y-107047620D01*
X101656401Y-107047627D01*
X101650000Y-107107155D01*
X101650000Y-107755000D01*
X102566988Y-107755000D01*
X102534075Y-107812007D01*
X102500000Y-107939174D01*
X102500000Y-108070826D01*
X102534075Y-108197993D01*
X102566988Y-108255000D01*
X101650000Y-108255000D01*
X101650000Y-108902844D01*
X101656401Y-108962372D01*
X101656403Y-108962379D01*
X101706645Y-109097086D01*
X101706649Y-109097093D01*
X101792809Y-109212187D01*
X101792812Y-109212190D01*
X101907906Y-109298350D01*
X101907913Y-109298354D01*
X102042620Y-109348596D01*
X102042627Y-109348598D01*
X102102155Y-109354999D01*
X102102172Y-109355000D01*
X102750000Y-109355000D01*
X102750000Y-108438012D01*
X102807007Y-108470925D01*
X102934174Y-108505000D01*
X103065826Y-108505000D01*
X103192993Y-108470925D01*
X103250000Y-108438012D01*
X103250000Y-109355000D01*
X103897828Y-109355000D01*
X103897844Y-109354999D01*
X103957372Y-109348598D01*
X103957379Y-109348596D01*
X104092086Y-109298354D01*
X104092093Y-109298350D01*
X104207187Y-109212190D01*
X104207190Y-109212187D01*
X104293350Y-109097093D01*
X104293354Y-109097086D01*
X104343596Y-108962379D01*
X104343598Y-108962372D01*
X104349999Y-108902844D01*
X104350000Y-108902827D01*
X104350000Y-108255000D01*
X103433012Y-108255000D01*
X103465925Y-108197993D01*
X103500000Y-108070826D01*
X103500000Y-107939174D01*
X103465925Y-107812007D01*
X103433012Y-107755000D01*
X104350000Y-107755000D01*
X104350000Y-107107172D01*
X104349999Y-107107155D01*
X104343598Y-107047627D01*
X104343596Y-107047620D01*
X104293354Y-106912913D01*
X104293350Y-106912906D01*
X104207190Y-106797812D01*
X104207187Y-106797809D01*
X104092093Y-106711649D01*
X104092088Y-106711646D01*
X103960528Y-106662577D01*
X103904595Y-106620705D01*
X103880178Y-106555241D01*
X103895030Y-106486968D01*
X103916175Y-106458720D01*
X104030104Y-106344792D01*
X104155051Y-106172816D01*
X104251557Y-105983412D01*
X104317246Y-105781243D01*
X104350500Y-105571287D01*
X104350500Y-105384778D01*
X107499500Y-105384778D01*
X107499500Y-105605221D01*
X107533985Y-105822952D01*
X107602103Y-106032603D01*
X107602104Y-106032606D01*
X107702187Y-106229025D01*
X107831752Y-106407358D01*
X107831756Y-106407363D01*
X107882316Y-106457923D01*
X107915801Y-106519246D01*
X107910817Y-106588938D01*
X107868945Y-106644871D01*
X107837969Y-106661785D01*
X107757918Y-106691643D01*
X107757906Y-106691649D01*
X107642812Y-106777809D01*
X107642809Y-106777812D01*
X107556649Y-106892906D01*
X107556645Y-106892913D01*
X107506403Y-107027620D01*
X107506401Y-107027627D01*
X107500000Y-107087155D01*
X107500000Y-107785000D01*
X108524722Y-107785000D01*
X108480667Y-107861306D01*
X108450000Y-107975756D01*
X108450000Y-108094244D01*
X108480667Y-108208694D01*
X108524722Y-108285000D01*
X107500000Y-108285000D01*
X107500000Y-108982844D01*
X107506401Y-109042372D01*
X107506403Y-109042379D01*
X107556645Y-109177086D01*
X107556649Y-109177093D01*
X107642809Y-109292187D01*
X107642812Y-109292190D01*
X107757906Y-109378350D01*
X107757913Y-109378354D01*
X107892620Y-109428596D01*
X107892627Y-109428598D01*
X107952155Y-109434999D01*
X107952172Y-109435000D01*
X108650000Y-109435000D01*
X108650000Y-108410277D01*
X108726306Y-108454333D01*
X108840756Y-108485000D01*
X108959244Y-108485000D01*
X109073694Y-108454333D01*
X109150000Y-108410277D01*
X109150000Y-109435000D01*
X109847828Y-109435000D01*
X109847844Y-109434999D01*
X109907372Y-109428598D01*
X109907379Y-109428596D01*
X110042086Y-109378354D01*
X110042093Y-109378350D01*
X110157187Y-109292190D01*
X110157190Y-109292187D01*
X110243350Y-109177093D01*
X110243354Y-109177086D01*
X110293596Y-109042379D01*
X110293598Y-109042372D01*
X110299999Y-108982844D01*
X110300000Y-108982827D01*
X110300000Y-108285000D01*
X109275278Y-108285000D01*
X109319333Y-108208694D01*
X109350000Y-108094244D01*
X109350000Y-107975756D01*
X109319333Y-107861306D01*
X109275278Y-107785000D01*
X110300000Y-107785000D01*
X110300000Y-107087172D01*
X110299999Y-107087155D01*
X110293598Y-107027627D01*
X110293596Y-107027620D01*
X110243354Y-106892913D01*
X110243350Y-106892906D01*
X110157190Y-106777812D01*
X110157187Y-106777809D01*
X110042093Y-106691649D01*
X110042087Y-106691646D01*
X109962030Y-106661786D01*
X109906097Y-106619914D01*
X109881680Y-106554450D01*
X109896532Y-106486177D01*
X109917681Y-106457925D01*
X109968242Y-106407365D01*
X110097815Y-106229022D01*
X110197895Y-106032606D01*
X110266015Y-105822951D01*
X110300500Y-105605222D01*
X110300500Y-105384778D01*
X113999500Y-105384778D01*
X113999500Y-105605221D01*
X114033985Y-105822952D01*
X114102103Y-106032603D01*
X114102104Y-106032606D01*
X114202187Y-106229025D01*
X114331752Y-106407358D01*
X114331756Y-106407363D01*
X114382316Y-106457923D01*
X114415801Y-106519246D01*
X114410817Y-106588938D01*
X114368945Y-106644871D01*
X114337969Y-106661785D01*
X114257918Y-106691643D01*
X114257906Y-106691649D01*
X114142812Y-106777809D01*
X114142809Y-106777812D01*
X114056649Y-106892906D01*
X114056645Y-106892913D01*
X114006403Y-107027620D01*
X114006401Y-107027627D01*
X114000000Y-107087155D01*
X114000000Y-107785000D01*
X115024722Y-107785000D01*
X114980667Y-107861306D01*
X114950000Y-107975756D01*
X114950000Y-108094244D01*
X114980667Y-108208694D01*
X115024722Y-108285000D01*
X114000000Y-108285000D01*
X114000000Y-108982844D01*
X114006401Y-109042372D01*
X114006403Y-109042379D01*
X114056645Y-109177086D01*
X114056649Y-109177093D01*
X114142809Y-109292187D01*
X114142812Y-109292190D01*
X114257906Y-109378350D01*
X114257913Y-109378354D01*
X114392620Y-109428596D01*
X114392627Y-109428598D01*
X114452155Y-109434999D01*
X114452172Y-109435000D01*
X115150000Y-109435000D01*
X115150000Y-108410277D01*
X115226306Y-108454333D01*
X115340756Y-108485000D01*
X115459244Y-108485000D01*
X115573694Y-108454333D01*
X115650000Y-108410277D01*
X115650000Y-109435000D01*
X116347828Y-109435000D01*
X116347844Y-109434999D01*
X116407372Y-109428598D01*
X116407379Y-109428596D01*
X116542086Y-109378354D01*
X116542093Y-109378350D01*
X116657187Y-109292190D01*
X116657190Y-109292187D01*
X116743350Y-109177093D01*
X116743354Y-109177086D01*
X116793596Y-109042379D01*
X116793598Y-109042372D01*
X116799999Y-108982844D01*
X116800000Y-108982827D01*
X116800000Y-108285000D01*
X115775278Y-108285000D01*
X115819333Y-108208694D01*
X115850000Y-108094244D01*
X115850000Y-107975756D01*
X115819333Y-107861306D01*
X115775278Y-107785000D01*
X116800000Y-107785000D01*
X116800000Y-107087172D01*
X116799999Y-107087155D01*
X116793598Y-107027627D01*
X116793596Y-107027620D01*
X116743354Y-106892913D01*
X116743350Y-106892906D01*
X116657190Y-106777812D01*
X116657187Y-106777809D01*
X116542093Y-106691649D01*
X116542087Y-106691646D01*
X116462030Y-106661786D01*
X116406097Y-106619914D01*
X116381680Y-106554450D01*
X116396532Y-106486177D01*
X116417681Y-106457925D01*
X116468242Y-106407365D01*
X116597815Y-106229022D01*
X116697895Y-106032606D01*
X116766015Y-105822951D01*
X116800500Y-105605222D01*
X116800500Y-105384778D01*
X120499500Y-105384778D01*
X120499500Y-105605221D01*
X120533985Y-105822952D01*
X120602103Y-106032603D01*
X120602104Y-106032606D01*
X120702187Y-106229025D01*
X120831752Y-106407358D01*
X120831756Y-106407363D01*
X120882316Y-106457923D01*
X120915801Y-106519246D01*
X120910817Y-106588938D01*
X120868945Y-106644871D01*
X120837969Y-106661785D01*
X120757918Y-106691643D01*
X120757906Y-106691649D01*
X120642812Y-106777809D01*
X120642809Y-106777812D01*
X120556649Y-106892906D01*
X120556645Y-106892913D01*
X120506403Y-107027620D01*
X120506401Y-107027627D01*
X120500000Y-107087155D01*
X120500000Y-107785000D01*
X121524722Y-107785000D01*
X121480667Y-107861306D01*
X121450000Y-107975756D01*
X121450000Y-108094244D01*
X121480667Y-108208694D01*
X121524722Y-108285000D01*
X120500000Y-108285000D01*
X120500000Y-108982844D01*
X120506401Y-109042372D01*
X120506403Y-109042379D01*
X120556645Y-109177086D01*
X120556649Y-109177093D01*
X120642809Y-109292187D01*
X120642812Y-109292190D01*
X120757906Y-109378350D01*
X120757913Y-109378354D01*
X120892620Y-109428596D01*
X120892627Y-109428598D01*
X120952155Y-109434999D01*
X120952172Y-109435000D01*
X121650000Y-109435000D01*
X121650000Y-108410277D01*
X121726306Y-108454333D01*
X121840756Y-108485000D01*
X121959244Y-108485000D01*
X122073694Y-108454333D01*
X122150000Y-108410277D01*
X122150000Y-109435000D01*
X122847828Y-109435000D01*
X122847844Y-109434999D01*
X122907372Y-109428598D01*
X122907379Y-109428596D01*
X123042086Y-109378354D01*
X123042093Y-109378350D01*
X123157187Y-109292190D01*
X123157190Y-109292187D01*
X123243350Y-109177093D01*
X123243354Y-109177086D01*
X123293596Y-109042379D01*
X123293598Y-109042372D01*
X123299999Y-108982844D01*
X123300000Y-108982827D01*
X123300000Y-108285000D01*
X122275278Y-108285000D01*
X122319333Y-108208694D01*
X122350000Y-108094244D01*
X122350000Y-107975756D01*
X122319333Y-107861306D01*
X122275278Y-107785000D01*
X123300000Y-107785000D01*
X123300000Y-107087172D01*
X123299999Y-107087155D01*
X123293598Y-107027627D01*
X123293596Y-107027620D01*
X123243354Y-106892913D01*
X123243350Y-106892906D01*
X123157190Y-106777812D01*
X123157187Y-106777809D01*
X123042093Y-106691649D01*
X123042087Y-106691646D01*
X122962030Y-106661786D01*
X122906097Y-106619914D01*
X122881680Y-106554450D01*
X122896532Y-106486177D01*
X122917681Y-106457925D01*
X122968242Y-106407365D01*
X123097815Y-106229022D01*
X123197895Y-106032606D01*
X123266015Y-105822951D01*
X123300500Y-105605222D01*
X123300500Y-105384778D01*
X126999500Y-105384778D01*
X126999500Y-105605221D01*
X127033985Y-105822952D01*
X127102103Y-106032603D01*
X127102104Y-106032606D01*
X127202187Y-106229025D01*
X127331752Y-106407358D01*
X127331756Y-106407363D01*
X127382316Y-106457923D01*
X127415801Y-106519246D01*
X127410817Y-106588938D01*
X127368945Y-106644871D01*
X127337969Y-106661785D01*
X127257918Y-106691643D01*
X127257906Y-106691649D01*
X127142812Y-106777809D01*
X127142809Y-106777812D01*
X127056649Y-106892906D01*
X127056645Y-106892913D01*
X127006403Y-107027620D01*
X127006401Y-107027627D01*
X127000000Y-107087155D01*
X127000000Y-107785000D01*
X128024722Y-107785000D01*
X127980667Y-107861306D01*
X127950000Y-107975756D01*
X127950000Y-108094244D01*
X127980667Y-108208694D01*
X128024722Y-108285000D01*
X127000000Y-108285000D01*
X127000000Y-108982844D01*
X127006401Y-109042372D01*
X127006403Y-109042379D01*
X127056645Y-109177086D01*
X127056649Y-109177093D01*
X127142809Y-109292187D01*
X127142812Y-109292190D01*
X127257906Y-109378350D01*
X127257913Y-109378354D01*
X127392620Y-109428596D01*
X127392627Y-109428598D01*
X127452155Y-109434999D01*
X127452172Y-109435000D01*
X128150000Y-109435000D01*
X128150000Y-108410277D01*
X128226306Y-108454333D01*
X128340756Y-108485000D01*
X128459244Y-108485000D01*
X128573694Y-108454333D01*
X128650000Y-108410277D01*
X128650000Y-109435000D01*
X129347828Y-109435000D01*
X129347844Y-109434999D01*
X129407372Y-109428598D01*
X129407379Y-109428596D01*
X129542086Y-109378354D01*
X129542093Y-109378350D01*
X129657187Y-109292190D01*
X129657190Y-109292187D01*
X129743350Y-109177093D01*
X129743354Y-109177086D01*
X129793596Y-109042379D01*
X129793598Y-109042372D01*
X129799999Y-108982844D01*
X129800000Y-108982827D01*
X129800000Y-108285000D01*
X128775278Y-108285000D01*
X128819333Y-108208694D01*
X128850000Y-108094244D01*
X128850000Y-107975756D01*
X128819333Y-107861306D01*
X128775278Y-107785000D01*
X129800000Y-107785000D01*
X129800000Y-107087172D01*
X129799999Y-107087155D01*
X129793598Y-107027627D01*
X129793596Y-107027620D01*
X129743354Y-106892913D01*
X129743350Y-106892906D01*
X129657190Y-106777812D01*
X129657187Y-106777809D01*
X129542093Y-106691649D01*
X129542087Y-106691646D01*
X129462030Y-106661786D01*
X129406097Y-106619914D01*
X129381680Y-106554450D01*
X129396532Y-106486177D01*
X129417681Y-106457925D01*
X129468242Y-106407365D01*
X129597815Y-106229022D01*
X129697895Y-106032606D01*
X129766015Y-105822951D01*
X129800500Y-105605222D01*
X129800500Y-105384778D01*
X133499500Y-105384778D01*
X133499500Y-105605221D01*
X133533985Y-105822952D01*
X133602103Y-106032603D01*
X133602104Y-106032606D01*
X133702187Y-106229025D01*
X133831752Y-106407358D01*
X133831756Y-106407363D01*
X133882316Y-106457923D01*
X133915801Y-106519246D01*
X133910817Y-106588938D01*
X133868945Y-106644871D01*
X133837969Y-106661785D01*
X133757918Y-106691643D01*
X133757906Y-106691649D01*
X133642812Y-106777809D01*
X133642809Y-106777812D01*
X133556649Y-106892906D01*
X133556645Y-106892913D01*
X133506403Y-107027620D01*
X133506401Y-107027627D01*
X133500000Y-107087155D01*
X133500000Y-107785000D01*
X134524722Y-107785000D01*
X134480667Y-107861306D01*
X134450000Y-107975756D01*
X134450000Y-108094244D01*
X134480667Y-108208694D01*
X134524722Y-108285000D01*
X133500000Y-108285000D01*
X133500000Y-108982844D01*
X133506401Y-109042372D01*
X133506403Y-109042379D01*
X133556645Y-109177086D01*
X133556649Y-109177093D01*
X133642809Y-109292187D01*
X133642812Y-109292190D01*
X133757906Y-109378350D01*
X133757913Y-109378354D01*
X133892620Y-109428596D01*
X133892627Y-109428598D01*
X133952155Y-109434999D01*
X133952172Y-109435000D01*
X134650000Y-109435000D01*
X134650000Y-108410277D01*
X134726306Y-108454333D01*
X134840756Y-108485000D01*
X134959244Y-108485000D01*
X135073694Y-108454333D01*
X135150000Y-108410277D01*
X135150000Y-109435000D01*
X135847828Y-109435000D01*
X135847844Y-109434999D01*
X135907372Y-109428598D01*
X135907379Y-109428596D01*
X136042086Y-109378354D01*
X136042093Y-109378350D01*
X136157187Y-109292190D01*
X136157190Y-109292187D01*
X136243350Y-109177093D01*
X136243354Y-109177086D01*
X136293596Y-109042379D01*
X136293598Y-109042372D01*
X136299999Y-108982844D01*
X136300000Y-108982827D01*
X136300000Y-108285000D01*
X135275278Y-108285000D01*
X135319333Y-108208694D01*
X135350000Y-108094244D01*
X135350000Y-107975756D01*
X135319333Y-107861306D01*
X135275278Y-107785000D01*
X136300000Y-107785000D01*
X136300000Y-107087172D01*
X136299999Y-107087155D01*
X136293598Y-107027627D01*
X136293596Y-107027620D01*
X136243354Y-106892913D01*
X136243350Y-106892906D01*
X136157190Y-106777812D01*
X136157187Y-106777809D01*
X136042093Y-106691649D01*
X136042087Y-106691646D01*
X135962030Y-106661786D01*
X135906097Y-106619914D01*
X135881680Y-106554450D01*
X135896532Y-106486177D01*
X135917681Y-106457925D01*
X135968242Y-106407365D01*
X136097815Y-106229022D01*
X136197895Y-106032606D01*
X136266015Y-105822951D01*
X136300500Y-105605222D01*
X136300500Y-105384778D01*
X139999500Y-105384778D01*
X139999500Y-105605221D01*
X140033985Y-105822952D01*
X140102103Y-106032603D01*
X140102104Y-106032606D01*
X140202187Y-106229025D01*
X140331752Y-106407358D01*
X140331756Y-106407363D01*
X140382316Y-106457923D01*
X140415801Y-106519246D01*
X140410817Y-106588938D01*
X140368945Y-106644871D01*
X140337969Y-106661785D01*
X140257918Y-106691643D01*
X140257906Y-106691649D01*
X140142812Y-106777809D01*
X140142809Y-106777812D01*
X140056649Y-106892906D01*
X140056645Y-106892913D01*
X140006403Y-107027620D01*
X140006401Y-107027627D01*
X140000000Y-107087155D01*
X140000000Y-107785000D01*
X141024722Y-107785000D01*
X140980667Y-107861306D01*
X140950000Y-107975756D01*
X140950000Y-108094244D01*
X140980667Y-108208694D01*
X141024722Y-108285000D01*
X140000000Y-108285000D01*
X140000000Y-108982844D01*
X140006401Y-109042372D01*
X140006403Y-109042379D01*
X140056645Y-109177086D01*
X140056649Y-109177093D01*
X140142809Y-109292187D01*
X140142812Y-109292190D01*
X140257906Y-109378350D01*
X140257913Y-109378354D01*
X140392620Y-109428596D01*
X140392627Y-109428598D01*
X140452155Y-109434999D01*
X140452172Y-109435000D01*
X141150000Y-109435000D01*
X141150000Y-108410277D01*
X141226306Y-108454333D01*
X141340756Y-108485000D01*
X141459244Y-108485000D01*
X141573694Y-108454333D01*
X141650000Y-108410277D01*
X141650000Y-109435000D01*
X142347828Y-109435000D01*
X142347844Y-109434999D01*
X142407372Y-109428598D01*
X142407379Y-109428596D01*
X142542086Y-109378354D01*
X142542093Y-109378350D01*
X142657187Y-109292190D01*
X142657190Y-109292187D01*
X142743350Y-109177093D01*
X142743354Y-109177086D01*
X142793596Y-109042379D01*
X142793598Y-109042372D01*
X142799999Y-108982844D01*
X142800000Y-108982827D01*
X142800000Y-108285000D01*
X141775278Y-108285000D01*
X141819333Y-108208694D01*
X141850000Y-108094244D01*
X141850000Y-107975756D01*
X141819333Y-107861306D01*
X141775278Y-107785000D01*
X142800000Y-107785000D01*
X142800000Y-107087172D01*
X142799999Y-107087155D01*
X142793598Y-107027627D01*
X142793596Y-107027620D01*
X142743354Y-106892913D01*
X142743350Y-106892906D01*
X142657190Y-106777812D01*
X142657187Y-106777809D01*
X142542093Y-106691649D01*
X142542087Y-106691646D01*
X142462030Y-106661786D01*
X142406097Y-106619914D01*
X142381680Y-106554450D01*
X142396532Y-106486177D01*
X142417681Y-106457925D01*
X142468242Y-106407365D01*
X142597815Y-106229022D01*
X142697895Y-106032606D01*
X142766015Y-105822951D01*
X142800500Y-105605222D01*
X142800500Y-105384778D01*
X142796372Y-105358713D01*
X145649500Y-105358713D01*
X145649500Y-105571286D01*
X145682753Y-105781239D01*
X145748444Y-105983414D01*
X145844951Y-106172820D01*
X145969890Y-106344786D01*
X146083818Y-106458714D01*
X146117303Y-106520037D01*
X146112319Y-106589729D01*
X146070447Y-106645662D01*
X146039471Y-106662577D01*
X145907912Y-106711646D01*
X145907906Y-106711649D01*
X145792812Y-106797809D01*
X145792809Y-106797812D01*
X145706649Y-106912906D01*
X145706645Y-106912913D01*
X145656403Y-107047620D01*
X145656401Y-107047627D01*
X145650000Y-107107155D01*
X145650000Y-107755000D01*
X146566988Y-107755000D01*
X146534075Y-107812007D01*
X146500000Y-107939174D01*
X146500000Y-108070826D01*
X146534075Y-108197993D01*
X146566988Y-108255000D01*
X145650000Y-108255000D01*
X145650000Y-108902844D01*
X145656401Y-108962372D01*
X145656403Y-108962379D01*
X145706645Y-109097086D01*
X145706649Y-109097093D01*
X145792809Y-109212187D01*
X145792812Y-109212190D01*
X145907906Y-109298350D01*
X145907913Y-109298354D01*
X146042620Y-109348596D01*
X146042627Y-109348598D01*
X146102155Y-109354999D01*
X146102172Y-109355000D01*
X146750000Y-109355000D01*
X146750000Y-108438012D01*
X146807007Y-108470925D01*
X146934174Y-108505000D01*
X147065826Y-108505000D01*
X147192993Y-108470925D01*
X147250000Y-108438012D01*
X147250000Y-109355000D01*
X147897828Y-109355000D01*
X147897844Y-109354999D01*
X147957372Y-109348598D01*
X147957379Y-109348596D01*
X148092086Y-109298354D01*
X148092093Y-109298350D01*
X148207187Y-109212190D01*
X148207190Y-109212187D01*
X148293350Y-109097093D01*
X148293354Y-109097086D01*
X148343596Y-108962379D01*
X148343598Y-108962372D01*
X148349999Y-108902844D01*
X148350000Y-108902827D01*
X148350000Y-108255000D01*
X147433012Y-108255000D01*
X147465925Y-108197993D01*
X147500000Y-108070826D01*
X147500000Y-107939174D01*
X147465925Y-107812007D01*
X147433012Y-107755000D01*
X148350000Y-107755000D01*
X148350000Y-107107172D01*
X148349999Y-107107155D01*
X148343598Y-107047627D01*
X148343596Y-107047620D01*
X148293354Y-106912913D01*
X148293350Y-106912906D01*
X148207190Y-106797812D01*
X148207187Y-106797809D01*
X148092093Y-106711649D01*
X148092088Y-106711646D01*
X147960528Y-106662577D01*
X147904595Y-106620705D01*
X147880178Y-106555241D01*
X147895030Y-106486968D01*
X147916175Y-106458720D01*
X148030104Y-106344792D01*
X148155051Y-106172816D01*
X148251557Y-105983412D01*
X148317246Y-105781243D01*
X148350500Y-105571287D01*
X148350500Y-105358713D01*
X148317246Y-105148757D01*
X148251557Y-104946588D01*
X148155051Y-104757184D01*
X148155049Y-104757181D01*
X148155048Y-104757179D01*
X148030109Y-104585213D01*
X147879786Y-104434890D01*
X147707820Y-104309951D01*
X147518414Y-104213444D01*
X147518413Y-104213443D01*
X147518412Y-104213443D01*
X147316243Y-104147754D01*
X147316241Y-104147753D01*
X147316240Y-104147753D01*
X147154957Y-104122208D01*
X147106287Y-104114500D01*
X146893713Y-104114500D01*
X146845042Y-104122208D01*
X146683760Y-104147753D01*
X146481585Y-104213444D01*
X146292179Y-104309951D01*
X146120213Y-104434890D01*
X145969890Y-104585213D01*
X145844951Y-104757179D01*
X145748444Y-104946585D01*
X145682753Y-105148760D01*
X145649500Y-105358713D01*
X142796372Y-105358713D01*
X142766015Y-105167049D01*
X142697895Y-104957394D01*
X142697895Y-104957393D01*
X142663237Y-104889375D01*
X142597815Y-104760978D01*
X142581260Y-104738192D01*
X142468247Y-104582641D01*
X142468243Y-104582636D01*
X142312363Y-104426756D01*
X142312358Y-104426752D01*
X142134025Y-104297187D01*
X142134024Y-104297186D01*
X142134022Y-104297185D01*
X142071096Y-104265122D01*
X141937606Y-104197104D01*
X141937603Y-104197103D01*
X141727952Y-104128985D01*
X141619086Y-104111742D01*
X141510222Y-104094500D01*
X141289778Y-104094500D01*
X141217201Y-104105995D01*
X141072047Y-104128985D01*
X140862396Y-104197103D01*
X140862393Y-104197104D01*
X140665974Y-104297187D01*
X140487641Y-104426752D01*
X140487636Y-104426756D01*
X140331756Y-104582636D01*
X140331752Y-104582641D01*
X140202187Y-104760974D01*
X140102104Y-104957393D01*
X140102103Y-104957396D01*
X140033985Y-105167047D01*
X139999500Y-105384778D01*
X136300500Y-105384778D01*
X136266015Y-105167049D01*
X136197895Y-104957394D01*
X136197895Y-104957393D01*
X136163237Y-104889375D01*
X136097815Y-104760978D01*
X136081260Y-104738192D01*
X135968247Y-104582641D01*
X135968243Y-104582636D01*
X135812363Y-104426756D01*
X135812358Y-104426752D01*
X135634025Y-104297187D01*
X135634024Y-104297186D01*
X135634022Y-104297185D01*
X135571096Y-104265122D01*
X135437606Y-104197104D01*
X135437603Y-104197103D01*
X135227952Y-104128985D01*
X135119086Y-104111742D01*
X135010222Y-104094500D01*
X134789778Y-104094500D01*
X134717201Y-104105995D01*
X134572047Y-104128985D01*
X134362396Y-104197103D01*
X134362393Y-104197104D01*
X134165974Y-104297187D01*
X133987641Y-104426752D01*
X133987636Y-104426756D01*
X133831756Y-104582636D01*
X133831752Y-104582641D01*
X133702187Y-104760974D01*
X133602104Y-104957393D01*
X133602103Y-104957396D01*
X133533985Y-105167047D01*
X133499500Y-105384778D01*
X129800500Y-105384778D01*
X129766015Y-105167049D01*
X129697895Y-104957394D01*
X129697895Y-104957393D01*
X129663237Y-104889375D01*
X129597815Y-104760978D01*
X129581260Y-104738192D01*
X129468247Y-104582641D01*
X129468243Y-104582636D01*
X129312363Y-104426756D01*
X129312358Y-104426752D01*
X129134025Y-104297187D01*
X129134024Y-104297186D01*
X129134022Y-104297185D01*
X129071096Y-104265122D01*
X128937606Y-104197104D01*
X128937603Y-104197103D01*
X128727952Y-104128985D01*
X128619086Y-104111742D01*
X128510222Y-104094500D01*
X128289778Y-104094500D01*
X128217201Y-104105995D01*
X128072047Y-104128985D01*
X127862396Y-104197103D01*
X127862393Y-104197104D01*
X127665974Y-104297187D01*
X127487641Y-104426752D01*
X127487636Y-104426756D01*
X127331756Y-104582636D01*
X127331752Y-104582641D01*
X127202187Y-104760974D01*
X127102104Y-104957393D01*
X127102103Y-104957396D01*
X127033985Y-105167047D01*
X126999500Y-105384778D01*
X123300500Y-105384778D01*
X123266015Y-105167049D01*
X123197895Y-104957394D01*
X123197895Y-104957393D01*
X123163237Y-104889375D01*
X123097815Y-104760978D01*
X123081260Y-104738192D01*
X122968247Y-104582641D01*
X122968243Y-104582636D01*
X122812363Y-104426756D01*
X122812358Y-104426752D01*
X122634025Y-104297187D01*
X122634024Y-104297186D01*
X122634022Y-104297185D01*
X122571096Y-104265122D01*
X122437606Y-104197104D01*
X122437603Y-104197103D01*
X122227952Y-104128985D01*
X122119086Y-104111742D01*
X122010222Y-104094500D01*
X121789778Y-104094500D01*
X121717201Y-104105995D01*
X121572047Y-104128985D01*
X121362396Y-104197103D01*
X121362393Y-104197104D01*
X121165974Y-104297187D01*
X120987641Y-104426752D01*
X120987636Y-104426756D01*
X120831756Y-104582636D01*
X120831752Y-104582641D01*
X120702187Y-104760974D01*
X120602104Y-104957393D01*
X120602103Y-104957396D01*
X120533985Y-105167047D01*
X120499500Y-105384778D01*
X116800500Y-105384778D01*
X116766015Y-105167049D01*
X116697895Y-104957394D01*
X116697895Y-104957393D01*
X116663237Y-104889375D01*
X116597815Y-104760978D01*
X116581260Y-104738192D01*
X116468247Y-104582641D01*
X116468243Y-104582636D01*
X116312363Y-104426756D01*
X116312358Y-104426752D01*
X116134025Y-104297187D01*
X116134024Y-104297186D01*
X116134022Y-104297185D01*
X116071096Y-104265122D01*
X115937606Y-104197104D01*
X115937603Y-104197103D01*
X115727952Y-104128985D01*
X115619086Y-104111742D01*
X115510222Y-104094500D01*
X115289778Y-104094500D01*
X115217201Y-104105995D01*
X115072047Y-104128985D01*
X114862396Y-104197103D01*
X114862393Y-104197104D01*
X114665974Y-104297187D01*
X114487641Y-104426752D01*
X114487636Y-104426756D01*
X114331756Y-104582636D01*
X114331752Y-104582641D01*
X114202187Y-104760974D01*
X114102104Y-104957393D01*
X114102103Y-104957396D01*
X114033985Y-105167047D01*
X113999500Y-105384778D01*
X110300500Y-105384778D01*
X110266015Y-105167049D01*
X110197895Y-104957394D01*
X110197895Y-104957393D01*
X110163237Y-104889375D01*
X110097815Y-104760978D01*
X110081260Y-104738192D01*
X109968247Y-104582641D01*
X109968243Y-104582636D01*
X109812363Y-104426756D01*
X109812358Y-104426752D01*
X109634025Y-104297187D01*
X109634024Y-104297186D01*
X109634022Y-104297185D01*
X109571096Y-104265122D01*
X109437606Y-104197104D01*
X109437603Y-104197103D01*
X109227952Y-104128985D01*
X109119086Y-104111742D01*
X109010222Y-104094500D01*
X108789778Y-104094500D01*
X108717201Y-104105995D01*
X108572047Y-104128985D01*
X108362396Y-104197103D01*
X108362393Y-104197104D01*
X108165974Y-104297187D01*
X107987641Y-104426752D01*
X107987636Y-104426756D01*
X107831756Y-104582636D01*
X107831752Y-104582641D01*
X107702187Y-104760974D01*
X107602104Y-104957393D01*
X107602103Y-104957396D01*
X107533985Y-105167047D01*
X107499500Y-105384778D01*
X104350500Y-105384778D01*
X104350500Y-105358713D01*
X104317246Y-105148757D01*
X104251557Y-104946588D01*
X104155051Y-104757184D01*
X104155049Y-104757181D01*
X104155048Y-104757179D01*
X104030109Y-104585213D01*
X103879786Y-104434890D01*
X103707820Y-104309951D01*
X103518414Y-104213444D01*
X103518413Y-104213443D01*
X103518412Y-104213443D01*
X103316243Y-104147754D01*
X103316241Y-104147753D01*
X103316240Y-104147753D01*
X103154957Y-104122208D01*
X103106287Y-104114500D01*
X102893713Y-104114500D01*
X102845042Y-104122208D01*
X102683760Y-104147753D01*
X102481585Y-104213444D01*
X102292179Y-104309951D01*
X102120213Y-104434890D01*
X101969890Y-104585213D01*
X101844951Y-104757179D01*
X101748444Y-104946585D01*
X101682753Y-105148760D01*
X101649500Y-105358713D01*
X100200500Y-105358713D01*
X100200500Y-100875441D01*
X101099500Y-100875441D01*
X101099500Y-101124558D01*
X101099501Y-101124575D01*
X101132017Y-101371561D01*
X101196498Y-101612207D01*
X101291830Y-101842361D01*
X101291837Y-101842376D01*
X101416400Y-102058126D01*
X101568060Y-102255774D01*
X101568066Y-102255781D01*
X101744218Y-102431933D01*
X101744225Y-102431939D01*
X101941873Y-102583599D01*
X102157623Y-102708162D01*
X102157638Y-102708169D01*
X102256825Y-102749253D01*
X102387793Y-102803502D01*
X102628435Y-102867982D01*
X102875435Y-102900500D01*
X102875442Y-102900500D01*
X103124558Y-102900500D01*
X103124565Y-102900500D01*
X103371565Y-102867982D01*
X103612207Y-102803502D01*
X103842373Y-102708164D01*
X104058127Y-102583599D01*
X104255776Y-102431938D01*
X104431938Y-102255776D01*
X104583599Y-102058127D01*
X104676251Y-101897648D01*
X106554500Y-101897648D01*
X106554500Y-102102351D01*
X106586522Y-102304534D01*
X106649781Y-102499223D01*
X106742715Y-102681613D01*
X106863028Y-102847213D01*
X107007786Y-102991971D01*
X107162749Y-103104556D01*
X107173390Y-103112287D01*
X107289607Y-103171503D01*
X107355776Y-103205218D01*
X107355778Y-103205218D01*
X107355781Y-103205220D01*
X107460137Y-103239127D01*
X107550465Y-103268477D01*
X107651557Y-103284488D01*
X107752648Y-103300500D01*
X107752649Y-103300500D01*
X107957351Y-103300500D01*
X107957352Y-103300500D01*
X108159534Y-103268477D01*
X108354219Y-103205220D01*
X108536610Y-103112287D01*
X108629590Y-103044732D01*
X108702213Y-102991971D01*
X108702215Y-102991968D01*
X108702219Y-102991966D01*
X108846966Y-102847219D01*
X108846968Y-102847215D01*
X108846971Y-102847213D01*
X108967284Y-102681614D01*
X108967285Y-102681613D01*
X108967287Y-102681610D01*
X109014516Y-102588917D01*
X109062489Y-102538123D01*
X109130310Y-102521328D01*
X109196445Y-102543865D01*
X109235485Y-102588919D01*
X109282715Y-102681614D01*
X109403028Y-102847213D01*
X109547786Y-102991971D01*
X109702749Y-103104556D01*
X109713390Y-103112287D01*
X109829607Y-103171503D01*
X109895776Y-103205218D01*
X109895778Y-103205218D01*
X109895781Y-103205220D01*
X110000137Y-103239127D01*
X110090465Y-103268477D01*
X110191557Y-103284488D01*
X110292648Y-103300500D01*
X110292649Y-103300500D01*
X110497351Y-103300500D01*
X110497352Y-103300500D01*
X110699534Y-103268477D01*
X110894219Y-103205220D01*
X111076610Y-103112287D01*
X111169590Y-103044732D01*
X111242213Y-102991971D01*
X111242215Y-102991968D01*
X111242219Y-102991966D01*
X111386966Y-102847219D01*
X111386968Y-102847215D01*
X111386971Y-102847213D01*
X111439732Y-102774590D01*
X111507287Y-102681610D01*
X111600220Y-102499219D01*
X111663477Y-102304534D01*
X111695500Y-102102352D01*
X111695500Y-101897648D01*
X113054500Y-101897648D01*
X113054500Y-102102351D01*
X113086522Y-102304534D01*
X113149781Y-102499223D01*
X113242715Y-102681613D01*
X113363028Y-102847213D01*
X113507786Y-102991971D01*
X113662749Y-103104556D01*
X113673390Y-103112287D01*
X113789607Y-103171503D01*
X113855776Y-103205218D01*
X113855778Y-103205218D01*
X113855781Y-103205220D01*
X113960137Y-103239127D01*
X114050465Y-103268477D01*
X114151557Y-103284488D01*
X114252648Y-103300500D01*
X114252649Y-103300500D01*
X114457351Y-103300500D01*
X114457352Y-103300500D01*
X114659534Y-103268477D01*
X114854219Y-103205220D01*
X115036610Y-103112287D01*
X115129590Y-103044732D01*
X115202213Y-102991971D01*
X115202215Y-102991968D01*
X115202219Y-102991966D01*
X115346966Y-102847219D01*
X115346968Y-102847215D01*
X115346971Y-102847213D01*
X115467284Y-102681614D01*
X115467285Y-102681613D01*
X115467287Y-102681610D01*
X115514516Y-102588917D01*
X115562489Y-102538123D01*
X115630310Y-102521328D01*
X115696445Y-102543865D01*
X115735485Y-102588919D01*
X115782715Y-102681614D01*
X115903028Y-102847213D01*
X116047786Y-102991971D01*
X116202749Y-103104556D01*
X116213390Y-103112287D01*
X116329607Y-103171503D01*
X116395776Y-103205218D01*
X116395778Y-103205218D01*
X116395781Y-103205220D01*
X116500137Y-103239127D01*
X116590465Y-103268477D01*
X116691557Y-103284488D01*
X116792648Y-103300500D01*
X116792649Y-103300500D01*
X116997351Y-103300500D01*
X116997352Y-103300500D01*
X117199534Y-103268477D01*
X117394219Y-103205220D01*
X117576610Y-103112287D01*
X117669590Y-103044732D01*
X117742213Y-102991971D01*
X117742215Y-102991968D01*
X117742219Y-102991966D01*
X117886966Y-102847219D01*
X117886968Y-102847215D01*
X117886971Y-102847213D01*
X117939732Y-102774590D01*
X118007287Y-102681610D01*
X118100220Y-102499219D01*
X118163477Y-102304534D01*
X118195500Y-102102352D01*
X118195500Y-101897648D01*
X119554500Y-101897648D01*
X119554500Y-102102351D01*
X119586522Y-102304534D01*
X119649781Y-102499223D01*
X119742715Y-102681613D01*
X119863028Y-102847213D01*
X120007786Y-102991971D01*
X120162749Y-103104556D01*
X120173390Y-103112287D01*
X120289607Y-103171503D01*
X120355776Y-103205218D01*
X120355778Y-103205218D01*
X120355781Y-103205220D01*
X120460137Y-103239127D01*
X120550465Y-103268477D01*
X120651557Y-103284488D01*
X120752648Y-103300500D01*
X120752649Y-103300500D01*
X120957351Y-103300500D01*
X120957352Y-103300500D01*
X121159534Y-103268477D01*
X121354219Y-103205220D01*
X121536610Y-103112287D01*
X121629590Y-103044732D01*
X121702213Y-102991971D01*
X121702215Y-102991968D01*
X121702219Y-102991966D01*
X121846966Y-102847219D01*
X121846968Y-102847215D01*
X121846971Y-102847213D01*
X121967284Y-102681614D01*
X121967285Y-102681613D01*
X121967287Y-102681610D01*
X122014516Y-102588917D01*
X122062489Y-102538123D01*
X122130310Y-102521328D01*
X122196445Y-102543865D01*
X122235485Y-102588919D01*
X122282715Y-102681614D01*
X122403028Y-102847213D01*
X122547786Y-102991971D01*
X122702749Y-103104556D01*
X122713390Y-103112287D01*
X122829607Y-103171503D01*
X122895776Y-103205218D01*
X122895778Y-103205218D01*
X122895781Y-103205220D01*
X123000137Y-103239127D01*
X123090465Y-103268477D01*
X123191557Y-103284488D01*
X123292648Y-103300500D01*
X123292649Y-103300500D01*
X123497351Y-103300500D01*
X123497352Y-103300500D01*
X123699534Y-103268477D01*
X123894219Y-103205220D01*
X124076610Y-103112287D01*
X124169590Y-103044732D01*
X124242213Y-102991971D01*
X124242215Y-102991968D01*
X124242219Y-102991966D01*
X124386966Y-102847219D01*
X124386968Y-102847215D01*
X124386971Y-102847213D01*
X124439732Y-102774590D01*
X124507287Y-102681610D01*
X124600220Y-102499219D01*
X124663477Y-102304534D01*
X124695500Y-102102352D01*
X124695500Y-101897648D01*
X126054500Y-101897648D01*
X126054500Y-102102351D01*
X126086522Y-102304534D01*
X126149781Y-102499223D01*
X126242715Y-102681613D01*
X126363028Y-102847213D01*
X126507786Y-102991971D01*
X126662749Y-103104556D01*
X126673390Y-103112287D01*
X126789607Y-103171503D01*
X126855776Y-103205218D01*
X126855778Y-103205218D01*
X126855781Y-103205220D01*
X126960137Y-103239127D01*
X127050465Y-103268477D01*
X127151557Y-103284488D01*
X127252648Y-103300500D01*
X127252649Y-103300500D01*
X127457351Y-103300500D01*
X127457352Y-103300500D01*
X127659534Y-103268477D01*
X127854219Y-103205220D01*
X128036610Y-103112287D01*
X128129590Y-103044732D01*
X128202213Y-102991971D01*
X128202215Y-102991968D01*
X128202219Y-102991966D01*
X128346966Y-102847219D01*
X128346968Y-102847215D01*
X128346971Y-102847213D01*
X128467284Y-102681614D01*
X128467285Y-102681613D01*
X128467287Y-102681610D01*
X128514516Y-102588917D01*
X128562489Y-102538123D01*
X128630310Y-102521328D01*
X128696445Y-102543865D01*
X128735485Y-102588919D01*
X128782715Y-102681614D01*
X128903028Y-102847213D01*
X129047786Y-102991971D01*
X129202749Y-103104556D01*
X129213390Y-103112287D01*
X129329607Y-103171503D01*
X129395776Y-103205218D01*
X129395778Y-103205218D01*
X129395781Y-103205220D01*
X129500137Y-103239127D01*
X129590465Y-103268477D01*
X129691557Y-103284488D01*
X129792648Y-103300500D01*
X129792649Y-103300500D01*
X129997351Y-103300500D01*
X129997352Y-103300500D01*
X130199534Y-103268477D01*
X130394219Y-103205220D01*
X130576610Y-103112287D01*
X130669590Y-103044732D01*
X130742213Y-102991971D01*
X130742215Y-102991968D01*
X130742219Y-102991966D01*
X130886966Y-102847219D01*
X130886968Y-102847215D01*
X130886971Y-102847213D01*
X130939732Y-102774590D01*
X131007287Y-102681610D01*
X131100220Y-102499219D01*
X131163477Y-102304534D01*
X131195500Y-102102352D01*
X131195500Y-101897648D01*
X132554500Y-101897648D01*
X132554500Y-102102351D01*
X132586522Y-102304534D01*
X132649781Y-102499223D01*
X132742715Y-102681613D01*
X132863028Y-102847213D01*
X133007786Y-102991971D01*
X133162749Y-103104556D01*
X133173390Y-103112287D01*
X133289607Y-103171503D01*
X133355776Y-103205218D01*
X133355778Y-103205218D01*
X133355781Y-103205220D01*
X133460137Y-103239127D01*
X133550465Y-103268477D01*
X133651557Y-103284488D01*
X133752648Y-103300500D01*
X133752649Y-103300500D01*
X133957351Y-103300500D01*
X133957352Y-103300500D01*
X134159534Y-103268477D01*
X134354219Y-103205220D01*
X134536610Y-103112287D01*
X134629590Y-103044732D01*
X134702213Y-102991971D01*
X134702215Y-102991968D01*
X134702219Y-102991966D01*
X134846966Y-102847219D01*
X134846968Y-102847215D01*
X134846971Y-102847213D01*
X134967284Y-102681614D01*
X134967285Y-102681613D01*
X134967287Y-102681610D01*
X135014516Y-102588917D01*
X135062489Y-102538123D01*
X135130310Y-102521328D01*
X135196445Y-102543865D01*
X135235485Y-102588919D01*
X135282715Y-102681614D01*
X135403028Y-102847213D01*
X135547786Y-102991971D01*
X135702749Y-103104556D01*
X135713390Y-103112287D01*
X135829607Y-103171503D01*
X135895776Y-103205218D01*
X135895778Y-103205218D01*
X135895781Y-103205220D01*
X136000137Y-103239127D01*
X136090465Y-103268477D01*
X136191557Y-103284488D01*
X136292648Y-103300500D01*
X136292649Y-103300500D01*
X136497351Y-103300500D01*
X136497352Y-103300500D01*
X136699534Y-103268477D01*
X136894219Y-103205220D01*
X137076610Y-103112287D01*
X137169590Y-103044732D01*
X137242213Y-102991971D01*
X137242215Y-102991968D01*
X137242219Y-102991966D01*
X137386966Y-102847219D01*
X137386968Y-102847215D01*
X137386971Y-102847213D01*
X137439732Y-102774590D01*
X137507287Y-102681610D01*
X137600220Y-102499219D01*
X137663477Y-102304534D01*
X137695500Y-102102352D01*
X137695500Y-101897648D01*
X139054500Y-101897648D01*
X139054500Y-102102351D01*
X139086522Y-102304534D01*
X139149781Y-102499223D01*
X139242715Y-102681613D01*
X139363028Y-102847213D01*
X139507786Y-102991971D01*
X139662749Y-103104556D01*
X139673390Y-103112287D01*
X139789607Y-103171503D01*
X139855776Y-103205218D01*
X139855778Y-103205218D01*
X139855781Y-103205220D01*
X139960137Y-103239127D01*
X140050465Y-103268477D01*
X140151557Y-103284488D01*
X140252648Y-103300500D01*
X140252649Y-103300500D01*
X140457351Y-103300500D01*
X140457352Y-103300500D01*
X140659534Y-103268477D01*
X140854219Y-103205220D01*
X141036610Y-103112287D01*
X141129590Y-103044732D01*
X141202213Y-102991971D01*
X141202215Y-102991968D01*
X141202219Y-102991966D01*
X141346966Y-102847219D01*
X141346968Y-102847215D01*
X141346971Y-102847213D01*
X141467284Y-102681614D01*
X141467285Y-102681613D01*
X141467287Y-102681610D01*
X141514516Y-102588917D01*
X141562489Y-102538123D01*
X141630310Y-102521328D01*
X141696445Y-102543865D01*
X141735485Y-102588919D01*
X141782715Y-102681614D01*
X141903028Y-102847213D01*
X142047786Y-102991971D01*
X142202749Y-103104556D01*
X142213390Y-103112287D01*
X142329607Y-103171503D01*
X142395776Y-103205218D01*
X142395778Y-103205218D01*
X142395781Y-103205220D01*
X142500137Y-103239127D01*
X142590465Y-103268477D01*
X142691557Y-103284488D01*
X142792648Y-103300500D01*
X142792649Y-103300500D01*
X142997351Y-103300500D01*
X142997352Y-103300500D01*
X143199534Y-103268477D01*
X143394219Y-103205220D01*
X143576610Y-103112287D01*
X143669590Y-103044732D01*
X143742213Y-102991971D01*
X143742215Y-102991968D01*
X143742219Y-102991966D01*
X143886966Y-102847219D01*
X143886968Y-102847215D01*
X143886971Y-102847213D01*
X143939732Y-102774590D01*
X144007287Y-102681610D01*
X144100220Y-102499219D01*
X144163477Y-102304534D01*
X144195500Y-102102352D01*
X144195500Y-101897648D01*
X144163477Y-101695466D01*
X144100220Y-101500781D01*
X144100218Y-101500778D01*
X144100218Y-101500776D01*
X144034381Y-101371565D01*
X144007287Y-101318390D01*
X143999556Y-101307749D01*
X143886971Y-101152786D01*
X143742219Y-101008034D01*
X143692202Y-100971695D01*
X143692200Y-100971692D01*
X143576613Y-100887715D01*
X143576612Y-100887714D01*
X143576610Y-100887713D01*
X143552526Y-100875441D01*
X145099500Y-100875441D01*
X145099500Y-101124558D01*
X145099501Y-101124575D01*
X145132017Y-101371561D01*
X145196498Y-101612207D01*
X145291830Y-101842361D01*
X145291837Y-101842376D01*
X145416400Y-102058126D01*
X145568060Y-102255774D01*
X145568066Y-102255781D01*
X145744218Y-102431933D01*
X145744225Y-102431939D01*
X145941873Y-102583599D01*
X146157623Y-102708162D01*
X146157638Y-102708169D01*
X146256825Y-102749253D01*
X146387793Y-102803502D01*
X146628435Y-102867982D01*
X146875435Y-102900500D01*
X146875442Y-102900500D01*
X147124558Y-102900500D01*
X147124565Y-102900500D01*
X147371565Y-102867982D01*
X147612207Y-102803502D01*
X147842373Y-102708164D01*
X148058127Y-102583599D01*
X148255776Y-102431938D01*
X148431938Y-102255776D01*
X148583599Y-102058127D01*
X148708164Y-101842373D01*
X148803502Y-101612207D01*
X148867982Y-101371565D01*
X148900500Y-101124565D01*
X148900500Y-100875435D01*
X148867982Y-100628435D01*
X148803502Y-100387793D01*
X148749253Y-100256825D01*
X148708169Y-100157638D01*
X148708162Y-100157623D01*
X148583599Y-99941873D01*
X148431939Y-99744225D01*
X148431933Y-99744218D01*
X148255781Y-99568066D01*
X148255774Y-99568060D01*
X148058126Y-99416400D01*
X147842376Y-99291837D01*
X147842361Y-99291830D01*
X147612207Y-99196498D01*
X147371561Y-99132017D01*
X147124575Y-99099501D01*
X147124570Y-99099500D01*
X147124565Y-99099500D01*
X146875435Y-99099500D01*
X146875429Y-99099500D01*
X146875424Y-99099501D01*
X146628438Y-99132017D01*
X146387792Y-99196498D01*
X146157638Y-99291830D01*
X146157623Y-99291837D01*
X145941873Y-99416400D01*
X145744225Y-99568060D01*
X145744218Y-99568066D01*
X145568066Y-99744218D01*
X145568060Y-99744225D01*
X145416400Y-99941873D01*
X145291837Y-100157623D01*
X145291830Y-100157638D01*
X145196498Y-100387792D01*
X145132017Y-100628438D01*
X145099501Y-100875424D01*
X145099500Y-100875441D01*
X143552526Y-100875441D01*
X143519653Y-100858691D01*
X143394223Y-100794781D01*
X143199534Y-100731522D01*
X143024995Y-100703878D01*
X142997352Y-100699500D01*
X142792648Y-100699500D01*
X142768329Y-100703351D01*
X142590465Y-100731522D01*
X142395776Y-100794781D01*
X142213386Y-100887715D01*
X142047786Y-101008028D01*
X141903028Y-101152786D01*
X141782715Y-101318386D01*
X141735485Y-101411080D01*
X141687510Y-101461876D01*
X141619689Y-101478671D01*
X141553554Y-101456134D01*
X141514515Y-101411080D01*
X141494379Y-101371561D01*
X141467287Y-101318390D01*
X141459556Y-101307749D01*
X141346971Y-101152786D01*
X141202213Y-101008028D01*
X141036613Y-100887715D01*
X141036612Y-100887714D01*
X141036610Y-100887713D01*
X140979653Y-100858691D01*
X140854223Y-100794781D01*
X140659534Y-100731522D01*
X140484995Y-100703878D01*
X140457352Y-100699500D01*
X140252648Y-100699500D01*
X140228329Y-100703351D01*
X140050465Y-100731522D01*
X139855776Y-100794781D01*
X139673386Y-100887715D01*
X139507786Y-101008028D01*
X139363028Y-101152786D01*
X139242715Y-101318386D01*
X139149781Y-101500776D01*
X139086522Y-101695465D01*
X139054500Y-101897648D01*
X137695500Y-101897648D01*
X137663477Y-101695466D01*
X137600220Y-101500781D01*
X137600218Y-101500778D01*
X137600218Y-101500776D01*
X137534381Y-101371565D01*
X137507287Y-101318390D01*
X137499556Y-101307749D01*
X137386971Y-101152786D01*
X137242213Y-101008028D01*
X137076613Y-100887715D01*
X137076612Y-100887714D01*
X137076610Y-100887713D01*
X137019653Y-100858691D01*
X136894223Y-100794781D01*
X136699534Y-100731522D01*
X136524995Y-100703878D01*
X136497352Y-100699500D01*
X136292648Y-100699500D01*
X136268329Y-100703351D01*
X136090465Y-100731522D01*
X135895776Y-100794781D01*
X135713386Y-100887715D01*
X135547786Y-101008028D01*
X135403028Y-101152786D01*
X135282715Y-101318386D01*
X135235485Y-101411080D01*
X135187510Y-101461876D01*
X135119689Y-101478671D01*
X135053554Y-101456134D01*
X135014515Y-101411080D01*
X134994379Y-101371561D01*
X134967287Y-101318390D01*
X134959556Y-101307749D01*
X134846971Y-101152786D01*
X134702213Y-101008028D01*
X134536613Y-100887715D01*
X134536612Y-100887714D01*
X134536610Y-100887713D01*
X134479653Y-100858691D01*
X134354223Y-100794781D01*
X134159534Y-100731522D01*
X133984995Y-100703878D01*
X133957352Y-100699500D01*
X133752648Y-100699500D01*
X133728329Y-100703351D01*
X133550465Y-100731522D01*
X133355776Y-100794781D01*
X133173386Y-100887715D01*
X133007786Y-101008028D01*
X132863028Y-101152786D01*
X132742715Y-101318386D01*
X132649781Y-101500776D01*
X132586522Y-101695465D01*
X132554500Y-101897648D01*
X131195500Y-101897648D01*
X131163477Y-101695466D01*
X131100220Y-101500781D01*
X131100218Y-101500778D01*
X131100218Y-101500776D01*
X131034381Y-101371565D01*
X131007287Y-101318390D01*
X130999556Y-101307749D01*
X130886971Y-101152786D01*
X130742213Y-101008028D01*
X130576613Y-100887715D01*
X130576612Y-100887714D01*
X130576610Y-100887713D01*
X130519653Y-100858691D01*
X130394223Y-100794781D01*
X130199534Y-100731522D01*
X130024995Y-100703878D01*
X129997352Y-100699500D01*
X129792648Y-100699500D01*
X129768329Y-100703351D01*
X129590465Y-100731522D01*
X129395776Y-100794781D01*
X129213386Y-100887715D01*
X129047786Y-101008028D01*
X128903028Y-101152786D01*
X128782715Y-101318386D01*
X128735485Y-101411080D01*
X128687510Y-101461876D01*
X128619689Y-101478671D01*
X128553554Y-101456134D01*
X128514515Y-101411080D01*
X128494379Y-101371561D01*
X128467287Y-101318390D01*
X128459556Y-101307749D01*
X128346971Y-101152786D01*
X128202213Y-101008028D01*
X128036613Y-100887715D01*
X128036612Y-100887714D01*
X128036610Y-100887713D01*
X127979653Y-100858691D01*
X127854223Y-100794781D01*
X127659534Y-100731522D01*
X127484995Y-100703878D01*
X127457352Y-100699500D01*
X127252648Y-100699500D01*
X127228329Y-100703351D01*
X127050465Y-100731522D01*
X126855776Y-100794781D01*
X126673386Y-100887715D01*
X126507786Y-101008028D01*
X126363028Y-101152786D01*
X126242715Y-101318386D01*
X126149781Y-101500776D01*
X126086522Y-101695465D01*
X126054500Y-101897648D01*
X124695500Y-101897648D01*
X124663477Y-101695466D01*
X124600220Y-101500781D01*
X124600218Y-101500778D01*
X124600218Y-101500776D01*
X124534381Y-101371565D01*
X124507287Y-101318390D01*
X124499556Y-101307749D01*
X124386971Y-101152786D01*
X124242213Y-101008028D01*
X124076613Y-100887715D01*
X124076612Y-100887714D01*
X124076610Y-100887713D01*
X124019653Y-100858691D01*
X123894223Y-100794781D01*
X123699534Y-100731522D01*
X123524995Y-100703878D01*
X123497352Y-100699500D01*
X123292648Y-100699500D01*
X123268329Y-100703351D01*
X123090465Y-100731522D01*
X122895776Y-100794781D01*
X122713386Y-100887715D01*
X122547786Y-101008028D01*
X122403028Y-101152786D01*
X122282715Y-101318386D01*
X122235485Y-101411080D01*
X122187510Y-101461876D01*
X122119689Y-101478671D01*
X122053554Y-101456134D01*
X122014515Y-101411080D01*
X121994379Y-101371561D01*
X121967287Y-101318390D01*
X121959556Y-101307749D01*
X121846971Y-101152786D01*
X121702213Y-101008028D01*
X121536613Y-100887715D01*
X121536612Y-100887714D01*
X121536610Y-100887713D01*
X121479653Y-100858691D01*
X121354223Y-100794781D01*
X121159534Y-100731522D01*
X120984995Y-100703878D01*
X120957352Y-100699500D01*
X120752648Y-100699500D01*
X120728329Y-100703351D01*
X120550465Y-100731522D01*
X120355776Y-100794781D01*
X120173386Y-100887715D01*
X120007786Y-101008028D01*
X119863028Y-101152786D01*
X119742715Y-101318386D01*
X119649781Y-101500776D01*
X119586522Y-101695465D01*
X119554500Y-101897648D01*
X118195500Y-101897648D01*
X118163477Y-101695466D01*
X118100220Y-101500781D01*
X118100218Y-101500778D01*
X118100218Y-101500776D01*
X118034381Y-101371565D01*
X118007287Y-101318390D01*
X117999556Y-101307749D01*
X117886971Y-101152786D01*
X117742213Y-101008028D01*
X117576613Y-100887715D01*
X117576612Y-100887714D01*
X117576610Y-100887713D01*
X117519653Y-100858691D01*
X117394223Y-100794781D01*
X117199534Y-100731522D01*
X117024995Y-100703878D01*
X116997352Y-100699500D01*
X116792648Y-100699500D01*
X116768329Y-100703351D01*
X116590465Y-100731522D01*
X116395776Y-100794781D01*
X116213386Y-100887715D01*
X116047786Y-101008028D01*
X115903028Y-101152786D01*
X115782715Y-101318386D01*
X115735485Y-101411080D01*
X115687510Y-101461876D01*
X115619689Y-101478671D01*
X115553554Y-101456134D01*
X115514515Y-101411080D01*
X115494379Y-101371561D01*
X115467287Y-101318390D01*
X115459556Y-101307749D01*
X115346971Y-101152786D01*
X115202213Y-101008028D01*
X115036613Y-100887715D01*
X115036612Y-100887714D01*
X115036610Y-100887713D01*
X114979653Y-100858691D01*
X114854223Y-100794781D01*
X114659534Y-100731522D01*
X114484995Y-100703878D01*
X114457352Y-100699500D01*
X114252648Y-100699500D01*
X114228329Y-100703351D01*
X114050465Y-100731522D01*
X113855776Y-100794781D01*
X113673386Y-100887715D01*
X113507786Y-101008028D01*
X113363028Y-101152786D01*
X113242715Y-101318386D01*
X113149781Y-101500776D01*
X113086522Y-101695465D01*
X113054500Y-101897648D01*
X111695500Y-101897648D01*
X111663477Y-101695466D01*
X111600220Y-101500781D01*
X111600218Y-101500778D01*
X111600218Y-101500776D01*
X111534381Y-101371565D01*
X111507287Y-101318390D01*
X111499556Y-101307749D01*
X111386971Y-101152786D01*
X111242213Y-101008028D01*
X111076613Y-100887715D01*
X111076612Y-100887714D01*
X111076610Y-100887713D01*
X111019653Y-100858691D01*
X110894223Y-100794781D01*
X110699534Y-100731522D01*
X110524995Y-100703878D01*
X110497352Y-100699500D01*
X110292648Y-100699500D01*
X110268329Y-100703351D01*
X110090465Y-100731522D01*
X109895776Y-100794781D01*
X109713386Y-100887715D01*
X109547786Y-101008028D01*
X109403028Y-101152786D01*
X109282715Y-101318386D01*
X109235485Y-101411080D01*
X109187510Y-101461876D01*
X109119689Y-101478671D01*
X109053554Y-101456134D01*
X109014515Y-101411080D01*
X108994379Y-101371561D01*
X108967287Y-101318390D01*
X108959556Y-101307749D01*
X108846971Y-101152786D01*
X108702213Y-101008028D01*
X108536613Y-100887715D01*
X108536612Y-100887714D01*
X108536610Y-100887713D01*
X108479653Y-100858691D01*
X108354223Y-100794781D01*
X108159534Y-100731522D01*
X107984995Y-100703878D01*
X107957352Y-100699500D01*
X107752648Y-100699500D01*
X107728329Y-100703351D01*
X107550465Y-100731522D01*
X107355776Y-100794781D01*
X107173386Y-100887715D01*
X107007786Y-101008028D01*
X106863028Y-101152786D01*
X106742715Y-101318386D01*
X106649781Y-101500776D01*
X106586522Y-101695465D01*
X106554500Y-101897648D01*
X104676251Y-101897648D01*
X104708164Y-101842373D01*
X104803502Y-101612207D01*
X104867982Y-101371565D01*
X104900500Y-101124565D01*
X104900500Y-100875435D01*
X104867982Y-100628435D01*
X104803502Y-100387793D01*
X104749253Y-100256825D01*
X104708169Y-100157638D01*
X104708162Y-100157623D01*
X104583599Y-99941873D01*
X104431939Y-99744225D01*
X104431933Y-99744218D01*
X104255781Y-99568066D01*
X104255774Y-99568060D01*
X104058126Y-99416400D01*
X103842376Y-99291837D01*
X103842361Y-99291830D01*
X103612207Y-99196498D01*
X103371561Y-99132017D01*
X103124575Y-99099501D01*
X103124570Y-99099500D01*
X103124565Y-99099500D01*
X102875435Y-99099500D01*
X102875429Y-99099500D01*
X102875424Y-99099501D01*
X102628438Y-99132017D01*
X102387792Y-99196498D01*
X102157638Y-99291830D01*
X102157623Y-99291837D01*
X101941873Y-99416400D01*
X101744225Y-99568060D01*
X101744218Y-99568066D01*
X101568066Y-99744218D01*
X101568060Y-99744225D01*
X101416400Y-99941873D01*
X101291837Y-100157623D01*
X101291830Y-100157638D01*
X101196498Y-100387792D01*
X101132017Y-100628438D01*
X101099501Y-100875424D01*
X101099500Y-100875441D01*
X100200500Y-100875441D01*
X100200500Y-98324500D01*
X100220185Y-98257461D01*
X100272989Y-98211706D01*
X100324500Y-98200500D01*
X149675500Y-98200500D01*
X149742539Y-98220185D01*
G37*
%TD.AperFunction*%
%TD*%
M02*
